<?xml version="1.0" encoding="UTF-8" standalone="no"?>
<!-- Generator: Adobe Illustrator 17.1.0, SVG Export Plug-In . SVG Version: 6.00 Build 0)  -->
<!DOCTYPE svg  PUBLIC '-//W3C//DTD SVG 1.1//EN'  'http://www.w3.org/Graphics/SVG/1.1/DTD/svg11.dtd'>
<svg id="Layer_1" xmlns="http://www.w3.org/2000/svg" xml:space="preserve" viewBox="0 0 68.3 85.9" version="1.1" y="0px" x="0px" xmlns:xlink="http://www.w3.org/1999/xlink" enable-background="new 0 0 68.3 85.9">
	<path opacity=".2" d="m36.1 4c-17.7 0-32.1 14.4-32.1 32.1 0 16.5 12.4 30 28.3 31.9l1 4.8-1.2 9.1 4 4 3.8-17.9c16-1.9 28.3-15.4 28.3-31.9 0.1-17.7-14.3-32.1-32.1-32.1z" fill="#1D1D1B"/>
			<circle cy="32.1" cx="32.1" r="32.1" fill="#EC7B23"/>
	<polygon points="36.3 62.4 28 62.4 32.1 81.9" fill="#EC7B23"/>
	<path stroke="#ED7B23" stroke-width="1.6476" stroke-miterlimit="10" d="m40.7 19.8c-6.8 0-12.4 5.5-12.4 12.4 0 2.4-2 4.4-4.4 4.4s-4.4-2-4.4-4.4 2-4.4 4.4-4.4c1.3 0 2.5 0.6 3.3 1.5 0.6-2.8 2-5.2 4-7.1-2-1.5-4.6-2.4-7.3-2.4-6.8 0-12.4 5.5-12.4 12.4s5.5 12.4 12.4 12.4c6.8 0 12.4-5.5 12.4-12.4 0-2.4 2-4.4 4.4-4.4s4.4 2 4.4 4.4-2 4.4-4.4 4.4c-1.3 0-2.5-0.6-3.3-1.5-0.6 2.8-2 5.2-4 7.1 2 1.5 4.6 2.4 7.3 2.4 6.8 0 12.4-5.5 12.4-12.4s-5.6-12.4-12.4-12.4z" fill="#fff"/>
</svg>
