<?xml version="1.0" encoding="UTF-8" standalone="no"?>
<!-- Generator: Adobe Illustrator 17.1.0, SVG Export Plug-In . SVG Version: 6.00 Build 0)  -->
<!DOCTYPE svg  PUBLIC '-//W3C//DTD SVG 1.1//EN'  'http://www.w3.org/Graphics/SVG/1.1/DTD/svg11.dtd'>
<svg id="Layer_1" xmlns="http://www.w3.org/2000/svg" xml:space="preserve" viewBox="0 0 92.3 139.5" version="1.1" y="0px" x="0px" xmlns:xlink="http://www.w3.org/1999/xlink" enable-background="new 0 0 92.3 139.5">
			<path opacity=".5" stroke-linejoin="round" d="m62.4 88.5c-1.6-1.2-3.4-2.3-5.4-3.2-13.8-6.1-30 0.2-36 14" stroke="#7B5640" stroke-linecap="round" stroke-miterlimit="10" stroke-width="2.9908" fill="none"/>
			<path opacity=".5" stroke-linejoin="round" d="m34.9 135.4c13.8 6.1 30-0.2 36-14 3-6.9 3-14.4 0.5-20.9" stroke="#7B5640" stroke-linecap="round" stroke-miterlimit="10" stroke-width="2.9908" fill="none"/>
		<circle opacity=".5" cy="113.9" cx="85.6" r="3.9" fill="#7B5640"/>
		<circle opacity=".5" cy="125.9" cx="84.6" r="2.2" fill="#7B5640"/>
		<path opacity=".2" d="m78.9 64.9l-4.2 4.3-28.6-11.2-4 10.2-3.2-1.2c-7.8-3.1-16 1.1-19 8.9l-3.6 9.3c-2.7 7-0.5 14.5 5.6 18.3 0.3 0.2 0.6 0.4 0.9 0.5 0.1 0 0.1 0.1 0.2 0.1 0.4 0.2 0.8 0.4 1.3 0.6l3.2 1.2-0.8 2-11.9-2.1s7.5 20.2 29.7 28.5c7.8 2.9 16.3 2.4 21.3 2 6.7-0.5 8.8-7 8.8-7l17.4-44.9c2.4-8.1-13.1-19.5-13.1-19.5zm-52.4 33.8c-2.9-1.1-4.5-3.5-4.9-6.2 0.1 0.2 0.2 0.4 0.4 0.6-0.5-1.8-0.5-3.8 0.3-5.7l3.6-9.3c1.8-4.6 6.2-7.1 10.8-5.3l3.2 1.2-10.3 25.9-1.1-0.4-2-0.8z" fill="#1D1D1B"/>
			<path opacity=".2" d="m38.7 108.3c1.4 0.7 2.8 1.4 4.3 2.1 3-5 5.9-10.2 9.1-15.1 4.4-6.9 9.1-13.6 12.7-21 0.3-0.7 0.8-1.3 1.4-1.8l-36.6-25.5-4 10.2-2.9-2c-7.1-4.9-14.7-2.2-17.8 5.7l-3.6 9.3c-3.1 7.8-0.5 17.7 6.6 22.7l2.9 2-1.1 2.8c10.5 1.3 19.6 5.9 29 10.6zm-28.5-21.4c-4.1-2.9-5.4-8.5-3.6-13l3.6-9.3c1.8-4.6 6-6.4 10.1-3.5l2.9 2-10.1 25.8-2.9-2z" fill="#1D1D1B"/>
			<path d="m4.9 60.9l-3.6 9.3c-3.1 7.8 0.1 16.4 7.9 19.4l3.2 1.2-2.8 7.3c-1 2.6 0.3 5.6 2.9 6.7l39.2 15.4c2.6 1 5.6-0.3 6.7-2.9l21.6-55.1-48.9-19.2-4 10.2-3.1-1.2c-7.9-3.1-16 1-19.1 8.9zm5.9 2.3c1.8-4.6 6.2-7.1 10.8-5.3l3.2 1.2-10.1 25.9-3.2-1.2c-4.5-1.9-6.1-6.8-4.3-11.3l3.6-9.3z" fill="#EC7B23"/>
			<g fill="#1D1D1B">
				<path opacity=".2" d="m10.8 63.2l-3.6 9.3c-0.7 1.9-0.8 3.9-0.3 5.7-1.5-2.3-2-5.4-0.9-8.2l3.1-7.9c2.1-5.3 8.7-7.7 12-6.4 0 0 1.2 0.5 2.9-0.4 1.4-0.7 1.9-2.6 1.9-2.6l1.1 0.4-2.3 5.9-3.2-1.2c-4.4-1.7-8.9 0.8-10.7 5.4z"/>
				<path opacity=".2" d="m8.7 87.4c4.3 1.7 4.8-2.9 4.8-2.9l1.1 0.4-2.3 5.9-3.2-1.2c-4.3-1.7-6.6-4.8-8.1-8.8 1.8 2.9 4.6 5.4 7.7 6.6z"/>
			</g>
			<path opacity=".2" d="m14.3 52.9c-2.4 0.8-4.8 2.8-4.3 3.4 0.5 0.7 1.8-0.8 4.9-1.9 3-1 5.5-0.5 5.3-1.5-0.1-0.9-3.1-1-5.9 0z" fill="#F9F9FA"/>
				<path opacity=".2" d="m40 113.3c2.6 1 5.6-0.3 6.7-2.9l20.8-53 12.4 4.9-21.6 55.1c-1 2.6-4 4-6.7 2.9l-39.2-15.4c-1.6-0.6-2.7-2-3.1-3.6l30.7 12z" fill="#1D1D1B"/>
				<rect opacity=".2" transform="matrix(-.931 -.365 .365 -.931 36.174 159.37)" height="55.7" width="12" y="48.4" x="27.2" fill="#F9F9FA"/>
		<path opacity=".8" d="m49.8 50.4s1.7-4.6 0.1-9.4c-1.6-4.9-8.9-4.9-8.1-15.8 0.6-8.1 10.3-7 10.3-15.2 0-11.4 14.3-13.1 17.9-4.4 2.8 6.8 4.1 10.8 10.6 9.9 6.4-0.9 13.4 9.1 7.4 16.1-5.9 7 1.4 14.5-6.1 18.4-8.5 4.5-16.5-5.3-20.8 4.8l-11.3-4.4z" fill="#7B5640"/>
		<g opacity=".2" fill="#F9F9FA">
			<path opacity=".8" d="m81.4 16.7c1.7-0.2 3.4 0.3 4.9 1.3-1.7-1.6-3.9-2.5-6-2.2-2.3 0.3-3.9 0-5.2-0.8 1.5 1.5 3.3 2.1 6.3 1.7z"/>
			<path opacity=".8" d="m51.4 50.1c0.4-1.4 1.1-4.9-0.1-8.5-0.3-0.9-0.9-1.7-1.5-2.4 0.3 0.4 0.5 0.8 0.7 1.3 1.6 4.7-0.1 9.1-0.1 9.1l1 0.5z"/>
			<path opacity=".8" d="m43.4 26.2c0.6-7.9 10.1-6.8 10.1-14.8 0-9 9-11.8 14.4-8.1-5.1-4.9-15.2-2.3-15.3 7.2 0 8-9.4 6.9-10 14.7-0.4 4.9 0.9 7.6 2.6 9.4-1.2-1.8-2.1-4.3-1.8-8.4z"/>
		</g>
		<g fill="#1D1D1B">
			<path opacity=".2" d="m43.6 33.7c1.5 2.2 3.5 3.4 4.9 5-1.1-1.9-3.2-3.1-4.9-5z"/>
			<path opacity=".2" d="m69.4 4.6c1.5 3.5 2.5 6.2 4 7.9-1.2-1.7-2.1-4.1-3.3-6.9-0.4-1-0.9-1.8-1.5-2.5 0.3 0.4 0.6 0.9 0.8 1.5z"/>
			<path opacity=".2" d="m87.8 18.7c2.3 3.3 2.9 8.1-0.4 11.9-5.9 7 1.4 14.5-6.1 18.4-8.3 4.5-16.6-4-21 5.5l1 0.4c4.3-10.1 12.3-0.3 20.8-4.8 7.5-4 0.2-11.5 6.1-18.4 3.6-4.4 2.5-9.7-0.4-13z"/>
		</g>
</svg>
