<?xml version="1.0" encoding="UTF-8" standalone="no"?>
<!-- Generator: Adobe Illustrator 17.1.0, SVG Export Plug-In . SVG Version: 6.00 Build 0)  -->
<!DOCTYPE svg  PUBLIC '-//W3C//DTD SVG 1.1//EN'  'http://www.w3.org/Graphics/SVG/1.1/DTD/svg11.dtd'>
<svg id="Layer_1" xmlns="http://www.w3.org/2000/svg" xml:space="preserve" viewBox="0 0 112.5 86" version="1.1" y="0px" x="0px" xmlns:xlink="http://www.w3.org/1999/xlink" enable-background="new 0 0 112.5 86">
			<path opacity=".5" stroke-linejoin="round" d="m86.7 18.7c-1.6-1.2-3.3-2.2-5.1-3-13.2-5.7-28.5 0.2-34.2 13.3" stroke="#7B5640" stroke-linecap="round" stroke-miterlimit="10" stroke-width="2.8365" fill="none"/>
			<path opacity=".5" stroke-linejoin="round" d="m60.7 63.2c13.1 5.8 28.4-0.2 34.2-13.3 2.9-6.6 2.8-13.7 0.4-19.8" stroke="#7B5640" stroke-linecap="round" stroke-miterlimit="10" stroke-width="2.8365" fill="none"/>
		<circle opacity=".5" cy="42.7" cx="108.7" r="3.7" fill="#7B5640"/>
		<circle opacity=".5" cy="54.1" cx="107.8" r="2.1" fill="#7B5640"/>
	<g opacity=".2">
		<g fill="#1D1D1B">
			<circle cy="28.8" cx="43.3" r="28.8"/>
			<circle cy="29.4" cx="43.9" r="28.8"/>
			<circle cy="29.9" cx="44.5" r="28.8"/>
			<circle cy="30.5" cx="45" r="28.8"/>
			<circle cy="31" cx="45.6" r="28.8"/>
			<circle cy="31.6" cx="46.1" r="28.8"/>
			<circle cy="32.1" cx="46.7" r="28.8"/>
			<circle cy="32.7" cx="47.2" r="28.8"/>
			<circle cy="33.3" cx="47.8" r="28.8"/>
			<circle cy="33.8" cx="48.3" r="28.8"/>
			<circle cy="34.4" cx="48.9" r="28.8"/>
			<circle cy="34.9" cx="49.5" r="28.8"/>
			<circle cy="35.5" cx="50" r="28.8"/>
			<circle cy="36" cx="50.6" r="28.8"/>
			<circle cy="36.6" cx="51.1" r="28.8"/>
			<circle cy="37.2" cx="51.7" r="28.8"/>
			<circle cy="37.7" cx="52.2" r="28.8"/>
			<circle cy="38.3" cx="52.8" r="28.8"/>
			<circle cy="38.8" cx="53.4" r="28.8"/>
			<circle cy="39.4" cx="53.9" r="28.8"/>
			<circle cy="39.9" cx="54.5" r="28.8"/>
			<circle cy="40.5" cx="55" r="28.8"/>
			<circle cy="41" cx="55.6" r="28.8"/>
			<circle cy="41.6" cx="56.1" r="28.8"/>
			<circle cy="42.2" cx="56.7" r="28.8"/>
			<circle cy="42.7" cx="57.2" r="28.8"/>
			<circle cy="43.3" cx="57.8" r="28.8"/>
			<circle cy="43.8" cx="58.4" r="28.8"/>
			<circle cy="44.4" cx="58.9" r="28.8"/>
			<circle cy="44.9" cx="59.5" r="28.8"/>
			<circle cy="45.5" cx="60" r="28.8"/>
			<circle cy="46.1" cx="60.6" r="28.8"/>
			<circle cy="46.6" cx="61.1" r="28.8"/>
			<circle cy="47.2" cx="61.7" r="28.8"/>
			<circle cy="47.7" cx="62.3" r="28.8"/>
			<circle cy="48.3" cx="62.8" r="28.8"/>
			<circle cy="48.8" cx="63.4" r="28.8"/>
			<circle cy="49.4" cx="63.9" r="28.8"/>
			<circle cy="49.9" cx="64.5" r="28.8"/>
			<circle cy="50.5" cx="65" r="28.8"/>
			<circle cy="51.1" cx="65.6" r="28.8"/>
			<circle cy="51.6" cx="66.1" r="28.8"/>
			<circle cy="52.2" cx="66.7" r="28.8"/>
			<circle cy="52.7" cx="67.3" r="28.8"/>
			<circle cy="53.3" cx="67.8" r="28.8"/>
			<circle cy="53.8" cx="68.4" r="28.8"/>
			<circle cy="54.4" cx="68.9" r="28.8"/>
			<circle cy="55" cx="69.5" r="28.8"/>
			<circle cy="55.5" cx="70" r="28.8"/>
			<circle cy="56.1" cx="70.6" r="28.8"/>
			<circle cy="56.6" cx="71.2" r="28.8"/>
			<circle cy="57.2" cx="71.7" r="28.8"/>
		</g>
			<path stroke-linejoin="round" d="m23.8 47.2l-8.5 2.1c-2.2 0.5-3.3 2.5-1.3 4.7l16.9 16.8c2.3 2.5 6.7 1.5 6.7 1.5l9.5-1.7" stroke="#1D1D1B" stroke-linecap="square" stroke-miterlimit="10" stroke-width="7.0912" fill="none"/>
	</g>
			<path d="m19.8 36.2c0.6 2.1-0.6 4.3-2.7 4.9l-11.8 3.2c-2.1 0.6-4.3-0.6-4.9-2.7l-0.3-1.1c-0.6-2.1 0.6-4.3 2.7-4.9l11.7-3.3c2.1-0.6 4.3 0.6 4.9 2.7l0.4 1.2z" fill="#EC7B23"/>
			<path opacity=".3" d="m2.6 43.6l-0.4-1.3c-0.7-2.4 0.8-5 3.2-5.7l12.7-3.6c-1-0.8-2.3-1.1-3.6-0.7l-11.6 3.3c-2.1 0.6-3.3 2.8-2.7 4.9l0.3 1.1c0.3 1.2 1.3 2.2 2.4 2.6l-0.3-0.6z" fill="#fff"/>
		<circle cy="28.8" cx="43.3" r="28.8" fill="#EC7B23"/>
		<path opacity=".3" d="m16.4 34.3c-2.5-15.7 8.1-30.5 23.8-33 6.4-1 12.6 0.1 17.9 2.9-5.6-3.4-12.4-4.9-19.4-3.7-15.7 2.4-26.3 17.2-23.8 32.9 1.5 9.3 7.4 16.9 15.1 20.9-7-4.2-12.2-11.3-13.6-20z" fill="#fff"/>
		<path opacity=".2" d="m55.2 2.6c7.8 4 13.6 11.6 15.1 20.9 2.5 15.7-8.1 30.5-23.8 33-5.9 1-11.5 0.1-16.5-2.2 5.3 2.8 11.6 4 18 2.9 15.7-2.5 26.4-17.3 23.8-33-1.6-9.9-8.1-17.8-16.6-21.6z" fill="#1D1E1C"/>
		<circle cy="28.8" cx="43.3" r="25.2" fill="#7B5640"/>
		<path d="m39.3 3.9c-13.7 2.3-23 15.2-20.8 28.9s15.2 23.1 28.9 20.8c13.7-2.2 23.1-15.2 20.8-28.9-2.2-13.6-15.2-23-28.9-20.8zm19.7 34.3c-1.3 5.2-2.7 8.9-8 11-4.1 1.6-9.1 1-12.9-1-4.5-2.4-10.1-6-11.9-11.1-1.8-5.2 0.2-9.8-0.6-15-0.4-2.2 0.8-3.7 2.3-4.5 0.3-0.3 0.6-0.7 1-0.9 3.7-2.3 6.6-6.3 11-7.3 2.2-0.5 4.5-0.4 6.4 0.8 2.1 1.3 3.2 3.7 5.2 5 4.2 2.7 11 4.6 12.1 10.3 0.9 5.5-3.4 7.8-4.6 12.7z" fill="#C1916F"/>
		<path opacity=".2" d="m24.9 35.2c1.7-15.8 15.9-27.2 31.7-25.4 1.4 0.2 2.7 0.4 4 0.7-3.9-3.6-8.9-6.1-14.5-6.7-13.8-1.5-26.3 8.5-27.8 22.3-0.9 8.2 2.2 15.9 7.8 21.1-1.2-3.8-1.7-7.8-1.2-12z" fill="#1D1E1C"/>
		<g opacity=".2">
			<path d="m39.3 3.9c6.7-1 13.2 0.6 18.3 4.2-5.3-4-12.1-5.9-19.2-4.7-13.7 2.2-23 15.1-20.8 28.8 1.1 7 5.1 12.9 10.6 16.7-5-3.8-8.6-9.4-9.7-16.1-2.2-13.7 7.1-26.6 20.8-28.9z" fill="#1D1E1C"/>
		</g>
		<path opacity=".3" d="m51 4.8c8.7 2.8 15.6 10.3 17.2 20 2.2 13.7-7.1 26.7-20.8 28.9-3.8 0.6-7.4 0.3-10.9-0.6 3.7 1.2 7.6 1.5 11.7 0.9 13.7-2.3 23-15.2 20.8-29-1.6-10-8.9-17.6-18-20.2z" fill="#fff"/>
</svg>
