<?xml version="1.0" encoding="UTF-8" standalone="no"?>
<!-- Generator: Adobe Illustrator 17.1.0, SVG Export Plug-In . SVG Version: 6.00 Build 0)  -->
<!DOCTYPE svg  PUBLIC '-//W3C//DTD SVG 1.1//EN'  'http://www.w3.org/Graphics/SVG/1.1/DTD/svg11.dtd'>
<svg id="Layer_1" xmlns="http://www.w3.org/2000/svg" xml:space="preserve" viewBox="0 0 125.3 77.4" version="1.1" y="0px" x="0px" xmlns:xlink="http://www.w3.org/1999/xlink" enable-background="new 0 0 125.3 77.4">
	<path opacity=".2" d="m123 28.6c0-0.2 0-0.4-0.1-0.5v-0.2c-0.5-2.6-1.4-5.1-2.8-7.2-0.4-0.6-0.9-1.3-1.4-1.9-0.2-0.3-0.5-0.6-0.7-0.8l-0.1-0.1c-0.8-0.8-1.6-1.6-2.5-2.2l-0.1-0.1c-0.3-0.2-0.5-0.4-0.8-0.5-0.1 0-0.1-0.1-0.2-0.1l-2.8-8.2-6.2-5.8-0.5 4.7h-0.6c-2.5 0-5 0.4-7.3 1.1l-2.9 8.2c-0.1 0-0.1 0.1-0.2 0.1-0.3 0.2-0.5 0.4-0.8 0.5l-0.1 0.1c-0.4 0.3-0.9 0.7-1.3 1h-48.5c-0.7-0.6-1.5-1.2-2.3-1.7l-2.9-8.2-6.2-5.8-1 4.7h-0.1c-2.6 0-5 0.4-7.4 1.1l-2.6 8.2c-4.6 2.9-7.9 7.7-8.8 13.3l-8.7 33.8c-0.1 0.3-0.1 0.5-0.1 0.8 0 0.5-0.1 0.9-0.1 1.4 0 7.2 5.8 13.1 13.1 13.1 5.1 0 9.3-2.9 12.4-7l10.6-12.3c2.2 2.9 5.6 4.7 9.5 4.7 5.6 0 10.3-3.9 11.6-9.1h14.5c1.3 5.2 6 9.1 11.6 9.1 3.9 0 7.3-1.9 9.5-4.7l4.7 12c2.1 4.3 6.6 7.3 11.7 7.3 7.2 0 13.1-5.8 13.1-13.1 0.1-0.5-2.2-35.7-2.2-35.7z" fill="#1D1D1B"/>
		<path d="m122.3 60.4c0-0.3-0.1-0.5-0.1-0.8l-5.5-37.5-32.7-5.8 1.4 25.7 3.7 9.3 8.6 16.3c2.1 4.3 6.6 7.3 11.7 7.3 7.2 0 13.1-5.8 13.1-13.1-0.1-0.4-0.2-0.9-0.2-1.4z" fill="#454443"/>
		<path d="m28.3 36.1l-22.7-13.6-5.4 37.1c0 0.3-0.1 0.5-0.1 0.8-0.1 0.5-0.1 1-0.1 1.4 0 7.2 5.8 13.1 13.1 13.1 5.1 0 9.6-3 11.7-7.3l8.6-16.3v-4.2l-5.1-11z" fill="#454443"/>
		<path opacity=".2" d="m12.1 74.8l15.2-33.3-15.1-5.8-7.9 35.8c2.1 1.9 4.8 3.1 7.8 3.3z" fill="#787877"/>
		<path opacity=".2" d="m110.3 74.8l-15.1-33.3 15.1-5.8 7.8 35.7c-2 2-4.8 3.2-7.8 3.4z" fill="#787877"/>
		<path opacity=".2" d="m32.1 36.3l-0.5-0.4 0.5 10v4.1l-8.6 16.3c-2.1 4.3-6.6 7.3-11.7 7.3-3.3 0-6.3-1.2-8.6-3.2 2.4 2.7 5.9 4.5 9.8 4.5 5.1 0 9.6-3 11.7-7.3l8.6-16.3v-4.2l-1.2-10.8z" fill="#1D1D1B"/>
			<path d="m86.1 14.3l10.2 3.3 13.3-4-4.3-12.5c-2.3-0.7-4.8-1.1-7.4-1.1-2.5 0-5 0.4-7.3 1.1l-4.5 13.2z" fill="#4B4B4A"/>
		<path opacity=".2" d="m122.3 60.4c0-0.3-0.1-0.5-0.1-0.8l-5.5-37.5-0.8-0.1 5.3 36.7c0 0.3 0.1 0.5 0.1 0.8 0 0.5 0.1 0.9 0.1 1.4 0 7.2-5.8 13.1-13.1 13.1-3.4 0-6.5-1.3-8.8-3.4 2.4 2.7 5.9 4.3 9.7 4.3 7.2 0 13.1-5.8 13.1-13.1 0.1-0.4 0-0.9 0-1.4z" fill="#1D1D1B"/>
			<path d="m27.9 16.3l9-0.5-5.1-14.7c-2.4-0.7-4.8-1.1-7.3-1.1-2.6 0-5 0.4-7.4 1.1l-4.4 13 15.2 2.2z" fill="#4B4B4A"/>
		<path d="m24.4 0.8c2.6 0 5.2 0.4 7.6 1.1l-0.3-0.8c-2.3-0.7-4.7-1.1-7.2-1.1-2.6 0-5 0.4-7.4 1.1l-0.3 0.8c2.5-0.7 5-1.1 7.6-1.1z" fill="#787877"/>
		<path d="m97.9 0.8c2.6 0 5.2 0.4 7.6 1.1l-0.3-0.8c-2.3-0.7-4.8-1.1-7.3-1.1-2.6 0-5 0.4-7.4 1.1l-0.3 0.8c2.5-0.7 5.1-1.1 7.7-1.1z" fill="#787877"/>
		<rect y="11" x="32.2" height="36.9" width="55.7" fill="#454443"/>
		<rect opacity=".2" height="3.8" width="55.7" y="44.1" x="32.2" fill="#1D1D1B"/>
		<rect y="11.9" x="32.2" height="1.4" width="55.7" fill="#5D5D5C"/>
		<circle opacity=".2" cy="26.2" cx="24.5" r="19.1" fill="#1D1D1B"/>
		<circle cy="25.4" cx="24.5" r="19.1" fill="#535352"/>
		<circle cy="45.1" cx="42.3" r="12" fill="#454443"/>
		<circle cy="45.1" cx="80.1" r="12" fill="#454443"/>
		<circle opacity=".2" cy="45.1" cx="42.3" r="12" fill="#1D1D1B"/>
		<circle opacity=".2" cy="45.1" cx="80.1" r="12" fill="#1D1D1B"/>
		<circle cy="43.4" cx="42.3" r="12" fill="#4B4B4A"/>
			<path d="m39.3 21.1c0-0.5-0.4-0.8-0.8-0.8h-8c-0.5 0-0.8-0.4-0.8-0.8v-8c0-0.5-0.4-0.8-0.8-0.8h-8.7c-0.5 0-0.8 0.4-0.8 0.8v8c0 0.5-0.4 0.8-0.8 0.8h-8c-0.5 0-0.8 0.4-0.8 0.8v8.7c0 0.5 0.4 0.8 0.8 0.8h8c0.5 0 0.8 0.4 0.8 0.8v8c0 0.5 0.4 0.8 0.8 0.8h8.7c0.5 0 0.8-0.4 0.8-0.8v-8c0-0.5 0.4-0.8 0.8-0.8h8c0.5 0 0.8-0.4 0.8-0.8v-8.7z" fill="#454443"/>
		<g opacity=".2">
			<path d="m21 22.9c-0.3-0.3-0.9-0.6-1.4-0.6h-4.3c-0.5 0-0.8 0.4-0.8 0.8v5.4c0 0.5 0.4 0.8 0.8 0.8h4.3c0.5 0 1.1-0.3 1.4-0.6l2.1-2.3c0.3-0.3 0.3-0.9 0-1.2l-2.1-2.3z" fill="#1D1D1B"/>
		</g>
		<g opacity=".2">
			<path d="m28.7 22.9c0.3-0.3 0.9-0.6 1.4-0.6h4.3c0.5 0 0.8 0.4 0.8 0.8v5.4c0 0.5-0.4 0.8-0.8 0.8h-4.4c-0.5 0-1.1-0.3-1.4-0.6l-2.1-2.3c-0.3-0.3-0.3-0.9 0-1.2l2.2-2.3z" fill="#1D1D1B"/>
		</g>
		<g opacity=".2">
			<path d="m21.9 29.6c-0.3 0.3-0.6 0.9-0.6 1.4v4.3c0 0.5 0.4 0.8 0.8 0.8h5.4c0.5 0 0.8-0.4 0.8-0.8v-4.3c0-0.5-0.3-1.1-0.6-1.4l-2.3-2.1c-0.3-0.3-0.9-0.3-1.2 0l-2.3 2.1z" fill="#1D1D1B"/>
		</g>
		<g opacity=".2">
			<path d="m21.9 22c-0.3-0.3-0.6-0.9-0.6-1.4v-4.3c0-0.5 0.4-0.8 0.8-0.8h5.4c0.5 0 0.8 0.4 0.8 0.8v4.3c0 0.5-0.3 1.1-0.6 1.4l-2.3 2.1c-0.3 0.3-0.9 0.3-1.2 0l-2.3-2.1z" fill="#1D1D1B"/>
		</g>
		<path d="m20.6 22.5c-0.3-0.3-0.9-0.6-1.4-0.6h-4.2c-0.5 0-0.8 0.4-0.8 0.8v5.4c0 0.5 0.4 0.8 0.8 0.8h4.3c0.5 0 1.1-0.3 1.4-0.6l2.1-2.3c0.3-0.3 0.3-0.9 0-1.2l-2.2-2.3z" fill="#535352"/>
		<path d="m28.2 22.5c0.3-0.3 0.9-0.6 1.4-0.6h4.3c0.5 0 0.8 0.4 0.8 0.8v5.4c0 0.5-0.4 0.8-0.8 0.8h-4.3c-0.5 0-1.1-0.3-1.4-0.6l-2-2.3c-0.3-0.3-0.3-0.9 0-1.2l2-2.3z" fill="#535352"/>
		<path d="m21.5 29.2c-0.3 0.3-0.6 0.9-0.6 1.4v4.3c0 0.5 0.4 0.8 0.8 0.8h5.4c0.5 0 0.8-0.4 0.8-0.8v-4.3c0-0.5-0.3-1.1-0.6-1.4l-2.3-2.1c-0.3-0.3-0.9-0.3-1.2 0l-2.3 2.1z" fill="#535352"/>
		<path d="m21.5 21.6c-0.3-0.3-0.6-0.9-0.6-1.4v-4.2c0-0.5 0.4-0.8 0.8-0.8h5.4c0.5 0 0.8 0.4 0.8 0.8v4.3c0 0.5-0.3 1.1-0.6 1.4l-2.3 2c-0.3 0.3-0.9 0.3-1.2 0l-2.3-2.1z" fill="#535352"/>
		<path opacity=".5" d="m15 22.3h4.3c0.5 0 1.1 0.3 1.4 0.6l2.1 2.3c0.1 0.1 0.2 0.3 0.2 0.4 0.1-0.3 0-0.6-0.2-0.8l-2.1-2.3c-0.3-0.3-0.9-0.6-1.4-0.6h-4.3c-0.5 0-0.8 0.4-0.8 0.8v0.4c0-0.4 0.3-0.8 0.8-0.8z" fill="#787877"/>
		<path opacity=".5" d="m33.9 21.9h-4.3c-0.5 0-1.1 0.3-1.4 0.6l-2.1 2.3c-0.1 0.2-0.2 0.5-0.1 0.8 0-0.1 0.1-0.3 0.2-0.4l2.1-2.3c0.3-0.3 0.9-0.6 1.4-0.6h4.3c0.5 0 0.8 0.4 0.8 0.8v-0.4c-0.1-0.4-0.5-0.8-0.9-0.8z" fill="#787877"/>
		<path opacity=".5" d="m27.3 29.2l-2.3-2.1c-0.3-0.3-0.9-0.3-1.2 0l-2.3 2.1c-0.3 0.3-0.6 0.9-0.6 1.4v0.4c0-0.5 0.3-1.1 0.6-1.4l2.3-2.1c0.3-0.3 0.9-0.3 1.2 0l2.3 2.1c0.3 0.3 0.6 0.9 0.6 1.4v-0.4c0-0.4-0.2-1.1-0.6-1.4z" fill="#787877"/>
		<path opacity=".5" d="m27.1 15.1h-5.4c-0.5 0-0.8 0.4-0.8 0.8v0.4c0-0.5 0.4-0.8 0.8-0.8h5.4c0.5 0 0.8 0.4 0.8 0.8v-0.3c0-0.5-0.3-0.9-0.8-0.9z" fill="#787877"/>
		<circle opacity=".2" cy="26.2" cx="97.9" r="19.1" fill="#1D1D1B"/>
		<circle cy="25.4" cx="97.9" r="19.1" fill="#535352"/>
		<path opacity=".2" d="m97.9 6.9c6.5 0 12.3 3.1 16 8-3.4-5.2-9.3-8.6-16-8.6s-12.6 3.4-16 8.6c3.7-4.8 9.5-8 16-8z" fill="#787877"/>
		<path opacity=".2" d="m24.5 6.9c6.5 0 12.3 3.1 16 8-3.4-5.2-9.3-8.6-16-8.6s-12.6 3.4-16 8.6c3.6-4.8 9.4-8 16-8z" fill="#787877"/>
		<circle cy="43.4" cx="80.1" r="12" fill="#4B4B4A"/>
			<path d="m112.8 21.1c0-0.5-0.4-0.8-0.8-0.8h-8c-0.5 0-0.8-0.4-0.8-0.8v-8c0-0.5-0.4-0.8-0.8-0.8h-8.7c-0.5 0-0.8 0.4-0.8 0.8v8c0 0.5-0.4 0.8-0.8 0.8h-8c-0.5 0-0.8 0.4-0.8 0.8v8.7c0 0.5 0.4 0.8 0.8 0.8h8c0.5 0 0.8 0.4 0.8 0.8v8c0 0.5 0.4 0.8 0.8 0.8h8.7c0.5 0 0.8-0.4 0.8-0.8v-8c0-0.5 0.4-0.8 0.8-0.8h8c0.5 0 0.8-0.4 0.8-0.8v-8.7z" fill="#454443"/>
		<circle opacity=".2" cy="33" cx="61.2" r="4.1" fill="#1D1D1B"/>
		<circle opacity=".8" cy="33" cx="61.2" r="2.1" fill="#fff"/>
		<g opacity=".2">
			<path d="m53.3 27.8c0 0.5-0.4 0.8-0.8 0.8h-4.6c-0.5 0-0.8-0.4-0.8-0.8v-2.3c0-0.5 0.4-0.8 0.8-0.8h4.6c0.5 0 0.8 0.4 0.8 0.8v2.3z" fill="#1D1D1B"/>
		</g>
		<g opacity=".2">
			<path d="m70.6 28.4c-0.4 0.1-0.8-0.1-0.8-0.6v-2.3c0-0.5 0.4-0.7 0.8-0.6l4.7 1.5c0.4 0.1 0.4 0.4 0 0.5l-4.7 1.5z" fill="#1D1D1B"/>
		</g>
			<path d="m52.9 27.4c0 0.5-0.4 0.8-0.8 0.8h-4.6c-0.5 0-0.8-0.4-0.8-0.8v-2.3c0-0.5 0.4-0.8 0.8-0.8h4.6c0.5 0 0.8 0.4 0.8 0.8v2.3z" fill="#4B4B4A"/>
			<path d="m70.1 28c-0.4 0.1-0.8-0.1-0.8-0.6v-2.3c0-0.5 0.4-0.7 0.8-0.6l4.7 1.5c0.4 0.1 0.4 0.4 0 0.5l-4.7 1.5z" fill="#4B4B4A"/>
		<circle opacity=".2" cy="25.8" cx="88.3" r="3.9" fill="#1D1D1B"/>
		<circle opacity=".2" cy="25.8" cx="108.4" r="3.9" fill="#1D1D1B"/>
		<circle opacity=".2" cy="35.9" cx="98.4" r="3.9" fill="#1D1D1B"/>
		<circle opacity=".2" cy="15.8" cx="98.4" r="3.9" fill="#1D1D1B"/>
		<circle cy="25.4" cx="87.9" r="3.9" fill="#535352"/>
		<circle cy="25.4" cx="108" r="3.9" fill="#535352"/>
		<circle r="2.8" cy="25.4" stroke="#EC6263" cx="108" stroke-miterlimit="10" stroke-width=".4122" fill="none"/>
		<circle cy="35.5" cx="97.9" r="3.9" fill="#535352"/>
		<circle cy="15.4" cx="98" r="3.9" fill="#535352"/>
		<path opacity=".5" d="m87.9 21.9c2.1 0 3.8 1.6 3.9 3.7v-0.2c0-2.2-1.8-3.9-3.9-3.9s-3.9 1.8-3.9 3.9v0.2c0.1-2 1.8-3.7 3.9-3.7z" fill="#787877"/>
		<path opacity=".5" d="m108 21.9c2.1 0 3.8 1.6 3.9 3.7v-0.2c0-2.2-1.8-3.9-3.9-3.9-2.2 0-3.9 1.8-3.9 3.9v0.2c0.1-2 1.8-3.7 3.9-3.7z" fill="#787877"/>
		<path opacity=".5" d="m97.9 32c2.1 0 3.8 1.6 3.9 3.7v-0.2c0-2.2-1.8-3.9-3.9-3.9s-3.9 1.7-3.9 3.9v0.2c0.1-2.1 1.9-3.7 3.9-3.7z" fill="#787877"/>
		<path opacity=".5" d="m97.9 11.9c2.1 0 3.8 1.6 3.9 3.7v-0.2c0-2.2-1.8-3.9-3.9-3.9s-3.9 1.7-3.9 3.9v0.2c0.1-2.1 1.9-3.7 3.9-3.7z" fill="#787877"/>
			<path d="m42.3 31.5c-6.6 0-12 5.4-12 12h23.9c0.1-6.7-5.3-12-11.9-12z" fill="#535352"/>
			<path d="m80.1 31.5c-6.6 0-12 5.4-12 12h23.9c0-6.7-5.3-12-11.9-12z" fill="#535352"/>
		<path opacity=".2" d="m42.3 32.1c4.4 0 8.2 2.2 10.5 5.6-2-3.7-6-6.2-10.5-6.2s-8.5 2.5-10.5 6.2c2.3-3.4 6.1-5.6 10.5-5.6z" fill="#787877"/>
		<path opacity=".2" d="m80.1 32.1c4.4 0 8.2 2.2 10.5 5.6-2-3.7-6-6.2-10.5-6.2s-8.5 2.5-10.5 6.2c2.2-3.4 6.1-5.6 10.5-5.6z" fill="#787877"/>
		<path opacity=".1" d="m80.1 54.7c-4.4 0-8.2-2.2-10.5-5.6 2 3.7 6 6.2 10.5 6.2s8.5-2.5 10.5-6.2c-2.3 3.4-6.2 5.6-10.5 5.6z" fill="#1D1D1B"/>
		<path opacity=".1" d="m42.3 54.7c-4.4 0-8.2-2.2-10.5-5.6 2 3.7 6 6.2 10.5 6.2s8.5-2.5 10.5-6.2c-2.3 3.4-6.1 5.6-10.5 5.6z" fill="#1D1D1B"/>
		<circle opacity=".2" cy="44.7" cx="43.6" r="8.3" fill="#1D1D1B"/>
		<circle cy="43.4" cx="42.3" r="8.3" fill="#5D5D5C"/>
		<circle opacity=".2" cy="44.7" cx="81.3" r="8.3" fill="#1D1D1B"/>
		<circle cy="43.4" cx="80.1" r="8.3" fill="#5D5D5C"/>
		<path opacity=".5" d="m80.1 50.1c-3.5 0-6.5-1.9-8.1-4.7 0.9 3.7 4.2 6.4 8.1 6.4s7.2-2.7 8.1-6.4c-1.6 2.8-4.7 4.7-8.1 4.7z" fill="#454443"/>
		<path opacity=".5" d="m42.3 50.1c-3.5 0-6.5-1.9-8.1-4.7 0.9 3.7 4.2 6.4 8.1 6.4s7.2-2.7 8.1-6.4c-1.6 2.8-4.6 4.7-8.1 4.7z" fill="#454443"/>
		<path opacity=".5" d="m42.3 36.7c3.5 0 6.5 1.9 8.1 4.7-0.9-3.7-4.2-6.4-8.1-6.4s-7.2 2.7-8.1 6.4c1.6-2.8 4.6-4.7 8.1-4.7z" fill="#787877"/>
		<path opacity=".5" d="m80.1 36.7c3.5 0 6.5 1.9 8.1 4.7-0.9-3.7-4.2-6.4-8.1-6.4s-7.2 2.7-8.1 6.4c1.5-2.8 4.6-4.7 8.1-4.7z" fill="#787877"/>
		<g opacity=".05">
			<path d="m65.2 33c0-2.2-1.8-4.1-4.1-4.1-1.1 0-2 0.4-2.8 1.1l5.7 5.7c0.8-0.7 1.2-1.7 1.2-2.7z" fill="#fff"/>
		</g>
		<ellipse opacity=".2" rx="2.7" ry="1.4" cy="31" cx="61.2" fill="#fff"/>
		<rect opacity=".6" height="3.4" width="15.3" y="16.8" x="53.5" fill="#fff"/>
		<rect opacity=".6" height="1.4" width="6.5" y="21.5" x="46.5" fill="#fff"/>
		<rect opacity=".6" height="1.4" width="6.5" y="21.5" x="69.3" fill="#fff"/>
		<rect height="4.2" width="4.2" stroke="#F3A4BB" stroke-miterlimit="10" y="23.3" x="85.8" stroke-width=".4122" fill="none"/>
		<g stroke="#8DD1F4" stroke-width=".4122" stroke-miterlimit="10" fill="none">
			<line y2="33.5" x1="96" x2="99.9" y1="37.4"/>
			<line y2="37.4" x1="96" x2="99.9" y1="33.5"/>
		</g>
		<polygon stroke="#9BCEA5" stroke-width=".3594" stroke-miterlimit="10" points="98.1 17 95.7 17 96.9 14.9 98.1 12.9 99.2 14.9 100.4 17" fill="none"/>
</svg>
