<?xml version="1.0" encoding="UTF-8" standalone="no"?>
<!-- Generator: Adobe Illustrator 17.1.0, SVG Export Plug-In . SVG Version: 6.00 Build 0)  -->
<!DOCTYPE svg  PUBLIC '-//W3C//DTD SVG 1.1//EN'  'http://www.w3.org/Graphics/SVG/1.1/DTD/svg11.dtd'>
<svg id="Layer_1" xmlns="http://www.w3.org/2000/svg" xml:space="preserve" viewBox="0 0 135.1 40.4" version="1.1" y="0px" x="0px" xmlns:xlink="http://www.w3.org/1999/xlink" enable-background="new 0 0 135.1 40.4">
	<path opacity=".2" d="m17.4 40.4c1.9 0 4-0.3 5.5-1.7l0.3-0.3c3.6 0.5 8.2 0.6 14.2 0.4 16.7-0.6 20.2-8.5 22.3-11.5 0.7-1 1.6-3 2.5-4.4 0.8-1.4 1.7-1.8 2.8-1.9 1.5-0.2 3-0.4 4.3-0.5 1.3 0.1 2.7 0.3 4.2 0.5h0.2l0.5 0.1c0.3 0.1 0.5 0.2 0.8 0.4 0.3 0.3 0.6 0.7 0.8 1.4 0.5 1.4 0.9 3.4 1.3 4.4 0.6 1.4 1.3 4 3.7 6.4l0.5 0.5c0.2 0.2 0.4 0.3 0.6 0.5 0.8 0.6 1.8 1.2 3 1.8 0.1 0 0.1 0 0.2 0.1 0.2 0.1 0.5 0.2 0.7 0.3 0.1 0 0.2 0.1 0.3 0.1 0.2 0.1 0.4 0.2 0.7 0.2 0.1 0 0.2 0.1 0.4 0.1 0.2 0.1 0.4 0.1 0.7 0.2 0.1 0 0.3 0.1 0.4 0.1 0.2 0.1 0.5 0.1 0.7 0.2 0.2 0 0.3 0.1 0.5 0.1 0.2 0.1 0.5 0.1 0.7 0.2 0.2 0 0.3 0.1 0.5 0.1 0.3 0 0.5 0.1 0.8 0.1 0.2 0 0.4 0.1 0.5 0.1 0.3 0 0.6 0.1 0.9 0.1 0.2 0 0.4 0 0.5 0.1 0.3 0 0.7 0.1 1 0.1h0.5c0.5 0 1 0.1 1.6 0.1 5.1 0.2 9.2 0.1 12.6-0.2l0.1 0.1c1.2 1.1 2.6 1.5 4.1 1.6 0.5 0 1 0.1 1.4 0.1 0.1 0 0.2 0 0.3-0.1 0.1 0 0.2-0.1 0.2-0.1 0.2-0.1 0.3-0.3 0.4-0.6 0.2-0.5 0.2-1.1 0-1.9 0-0.1-0.1-0.3-0.1-0.4 3.3-1 5.8-2.4 7.2-4.4 3.1-4.3 6.1-11.8 7.2-13.1 1.2-1.2 2.2-1.8 3.6-1.8 0 0 0.6 0 0.8-1.6 0.2-1.7 0.7-6.9 0.7-6.9s0-0.1 0-0.3 0-0.1-0.1-0.1v-0.1c0-0.1-0.1-0.1-0.1-0.2l-0.2-0.2c-0.1-0.1-0.2-0.1-0.3-0.2h-0.1c-0.1-0.1-0.3-0.1-0.5-0.1-0.5-0.1-1.9-0.5-3.9-1v-0.6l-2.5 0.1c-6-1.3-15.8-2.8-28-2.4-12 0.4-14.8 2.3-22 3.4l-10.9 0.2c-8.2-1-9.9-3.2-22.6-3.6-12.7-0.5-23.4 1.2-29.7 2.5l-11.1-0.2h-0.8l0.2 4.9 0.2 4.2h2.8c0 0.2-0.1 0.4-0.1 0.6-0.1 0.9 0 1.3 0.2 1.5l0.1 0.1h0.1c0.2 0 0.4 0 0.6 0.1h0.1c0.2 0 0.3 0.1 0.5 0.1 0.4 0.2 0.7 0.4 1 0.7s0.5 0.6 0.8 0.9c0.8 1.2 1.8 8.8 3.7 13.1 0.1 0.2 0.2 0.3 0.3 0.5v0.1c0.1 0.1 0.2 0.3 0.3 0.4l0.3 0.3 0.6 0.6 0.1 0.1 0.1 0.1c0.5 0.4 1.1 0.8 1.7 1.2h0.1c0.2 0.1 0.4 0.2 0.7 0.3l-0.3 1.2c0 0.2-0.1 0.4-0.1 0.6v0.6c0 0.5 0.2 0.9 0.5 1.2 0.2 0.2 0.4 0.3 0.7 0.3zm-3.7-24.5h15c-0.1 0.1-0.2 0.2-0.3 0.2-0.4 0.3-0.7 0.7-1.1 1.1l-0.1 0.1c-0.3 0.4-0.7 0.7-1 1.1-0.1 0.1-0.1 0.2-0.2 0.3-0.3 0.4-0.6 0.7-0.9 1.1-0.1 0.1-0.2 0.3-0.3 0.4-0.3 0.4-0.5 0.7-0.8 1.1-0.1 0.2-0.2 0.4-0.4 0.6-0.2 0.3-0.4 0.7-0.7 1-0.2 0.2-0.3 0.5-0.5 0.7-0.2 0.3-0.4 0.6-0.5 0.9-0.2 0.3-0.4 0.7-0.6 1-0.1 0.2-0.3 0.5-0.4 0.7l-0.9 1.8c-0.9 1.8-1.8 4-2.6 6-0.7-0.4-1.2-0.9-1.8-1.5-0.2-0.2-0.4-0.5-0.6-0.7s-0.3-0.5-0.5-0.7c0 0 0-0.1-0.1-0.1-0.1-0.2-0.2-0.5-0.3-0.8 0-0.1-0.1-0.1-0.1-0.2-0.1-0.3-0.2-0.6-0.3-1-0.7-2.8-1.1-6.6-0.9-10 0.4-1.1 0.6-2.1 0.9-3.1zm31.7-9.1c0.8 0 1.5 0.1 2.3 0.2h0.1c0.2 0 0.5 0 0.7 0.1h0.2c0.2 0 0.4 0.1 0.6 0.1h0.3c0.2 0 0.4 0.1 0.6 0.1h0.3c0.2 0 0.4 0.1 0.6 0.1h0.2c0.2 0 0.4 0.1 0.7 0.1h0.1 0.1l-23-0.5c3.4-0.4 6.7-0.6 9.1-0.6h0.1 0.1 0.1 0.2 0.2 0.2 0.2 0.2 0.3 0.2 0.4 0.1 1 0.1 0.5 0.2 0.5 0.2 0.5 0.3 0.6 0.3 0.6c-0.1 0.4 0 0.4 0 0.4zm65.9 0.3l-20.4 0.4c6.3-1.1 13-0.8 13-0.8 2 0 4.7 0.1 7.4 0.4zm3.5 28c-0.8-2.3-2-4.9-3-7.1-2.2-4.7-5.2-9.2-8.5-12.2h22.9c0 1-0.1 2.1-0.3 3.2-0.6 3.4-2.1 7.2-3.5 10-1.3 2.5-3.2 4.3-5.8 5.4-0.6 0.3-1.2 0.5-1.8 0.7zm-35.4-14.9c0-1.9 0.1-3.2 0.2-4.3h10.9c7.1 2.7 10.5 9.8 12.7 13.5 0.3 0.4 0.5 1 0.8 1.5l0.3 0.6 0.6 1.2c0.2 0.4 0.4 0.7 0.6 1.1s0.4 0.7 0.6 1.1c0.3 0.6 0.7 1.2 1.1 1.7-1.3 0.1-2.7 0.2-4.2 0.3h-1.2-0.3-1.1-1.1-0.3c-0.3 0-0.7 0-1-0.1h-0.1c-0.4 0-0.7-0.1-1-0.1h-0.2c-0.3 0-0.6-0.1-0.9-0.1h-0.1c-0.3 0-0.6-0.1-1-0.1h-0.2c-0.3 0-0.6-0.1-0.9-0.1h-0.1c-0.3-0.1-0.6-0.1-0.9-0.2h-0.2c-0.3-0.1-0.5-0.1-0.8-0.2h-0.1c-0.3-0.1-0.6-0.1-0.8-0.2h-0.1c-0.3-0.1-0.5-0.1-0.7-0.2-0.3-0.1-0.5-0.2-0.8-0.3h-0.1c-0.2-0.1-0.5-0.2-0.7-0.3s-0.5-0.2-0.7-0.3h-0.1l-0.6-0.3c-1.2-0.6-2.2-1.2-3-1.8-0.3-0.2-0.5-0.5-0.8-0.8s-0.6-0.8-0.9-1.2c-0.1-0.1-0.2-0.3-0.2-0.4l-0.1-0.1c-0.1-0.1-0.1-0.3-0.2-0.4 0-0.1-0.1-0.1-0.1-0.2-0.1-0.1-0.1-0.3-0.2-0.4 0-0.1-0.1-0.1-0.1-0.2-0.1-0.1-0.1-0.3-0.2-0.4 0-0.1-0.1-0.2-0.1-0.3-0.1-0.1-0.1-0.3-0.2-0.4 0-0.1-0.1-0.2-0.1-0.3-0.1-0.2-0.2-0.4-0.2-0.7 0-0.1-0.1-0.3-0.1-0.4s-0.1-0.2-0.1-0.3-0.1-0.3-0.1-0.4-0.1-0.2-0.1-0.3-0.1-0.3-0.1-0.4-0.1-0.2-0.1-0.3c0-0.2-0.1-0.3-0.1-0.5 0-0.1 0-0.2-0.1-0.3 0-0.2-0.1-0.4-0.1-0.5v-0.3c0-0.3-0.1-0.6-0.1-0.8-0.1-1.1-0.1-1.6-0.1-2.1zm-54.5 16.1c1.6-2.4 2.9-5.2 3.9-7 1.6-2.7 3.9-7.3 7.8-10.6 0.1-0.1 0.3-0.2 0.4-0.3 0.2-0.2 0.4-0.3 0.7-0.5 0.1-0.1 0.3-0.2 0.4-0.3l0.9-0.6c0.1 0 0.1-0.1 0.2-0.1l1.2-0.6c0.1-0.1 0.3-0.1 0.4-0.2 0.3-0.1 0.5-0.2 0.8-0.3h18.8c-0.1 1-0.4 2.4-0.9 4.2-0.1 0.5-0.3 1.1-0.5 1.6-2 5-5 9.4-7.4 10.8-1 0.6-2.2 1.2-3.5 1.8-0.2 0.1-0.5 0.2-0.7 0.3h-0.1c-0.2 0.1-0.5 0.2-0.8 0.3-0.2 0.1-0.5 0.2-0.8 0.3h-0.1c-0.3 0.1-0.5 0.2-0.8 0.3s-0.5 0.1-0.8 0.2h-0.2c-0.3 0.1-0.6 0.1-0.9 0.2h-0.1c-0.3 0.1-0.6 0.1-0.8 0.2h-0.2c-0.3 0.1-0.6 0.1-0.9 0.2h-0.1c-0.3 0.1-0.6 0.1-0.9 0.1h-0.2c-0.3 0-0.7 0.1-1 0.1h-0.1c-0.3 0-0.6 0.1-1 0.1h-0.3c-0.3 0-0.7 0.1-1.1 0.1h-0.1c-0.3 0-0.7 0-1 0.1h-0.3-1.1-1.1-0.3-1.2c-2.2 0.1-4.3-0.1-6.2-0.4z" fill="#1D1D1B"/>
			<path d="m128.3 5l-64.4 1.3s-18.1 0.7-25 2.2c-3.2 0.7-7.2 1.9-10.9 5-3.5 3-6.9 7.8-9.2 12.8-1.4 3.1-3.3 7.1-3.8 9.7-0.4 1.7 0.3 2.7 1 2.7 1.9 0 4-0.3 5.5-1.7 2.7-2.5 4.5-7 5.9-9.4 2.3-4 6.1-12 14.6-14.1 12.7-3.1 21.2 0.7 21.2 0.7l64.7-0.1 0.4-9.1z" fill="#474645"/>
			<g opacity=".5" fill="#1A1A1A">
				<path d="m42.8 12.8c12.7-3 21.2 0.7 21.2 0.7l64-0.1v0.8l-64.7 0.1s-8.5-3.7-21.2-0.7c-3.1 0.8-5.6 2.3-7.7 4.2 2.1-2.2 4.8-4.1 8.4-5z"/>
				<path d="m14.9 36.1c0.6-2.6 2.4-6.6 3.8-9.7 2.1-4.6 5.1-8.9 8.2-11.9-2.9 3-5.5 7-7.4 11.2-1.4 3.1-3.3 7.1-3.8 9.7-0.4 1.6 0.3 2.6 1 2.6 1.9 0 3.9-0.3 5.5-1.7-0.2 0.3-0.5 0.5-0.7 0.7-1.5 1.4-3.6 1.7-5.5 1.7-0.8 0.1-1.5-1-1.1-2.6z"/>
			</g>
			<path d="m0.8 5l64.5 1.3s18.1 0.7 25 2.2c3.2 0.7 7.2 1.9 10.9 5 3.5 3 6.9 7.8 9.2 12.8 1.4 3.1 3.3 7.1 3.8 9.7 0.4 1.7-0.3 2.7-1 2.7-1.9 0-4-0.3-5.5-1.7-2.7-2.5-4.5-7-5.9-9.4-2.3-4-6.1-12-14.6-14.1-12.7-3.1-21.2 0.7-21.2 0.7h-64.8l-0.4-9.2z" fill="#4B4B4A"/>
			<path opacity=".5" d="m1.6 5l0.4 8.3 64.7 0.1s8.5-3.7 21.2-0.7c8.5 2 12.3 10.1 14.6 14.1 1.4 2.4 3.2 6.9 5.9 9.4 1.5 1.4 3.6 1.7 5.5 1.7h0.2c-0.2 0.5-0.6 0.8-1 0.8-1.9 0-4-0.3-5.5-1.7-2.7-2.5-4.5-7-5.9-9.4-2.3-4-6.1-12-14.6-14.1-12.7-3.1-21.2 0.7-21.2 0.7h-64.7l-0.4-9.2h0.8z" fill="#1A1A1A"/>
		<path d="m0 13.1c0 1.8 0.6 1.7 0.6 1.7 1.4 0 2.4 0.7 3.4 2s3 9.5 5.5 14.1c1.6 2.9 5.5 4.8 10.7 5.8 3.7 0.6 8.5 0.8 14.8 0.5 16.6-0.7 19.1-9.2 20.8-12.3 0.6-1.1 1.2-3.2 1.9-4.7 0.6-1.5 1.5-1.9 2.5-2 1.5-0.2 2.9-0.4 4.3-0.5 1.3 0.1 2.7 0.4 4.3 0.5 1.1 0.1 1.9 0.6 2.5 2 0.6 1.5 1.3 3.7 1.9 4.7 1.7 3.1 4.2 11.6 20.8 12.3 6.3 0.3 11.1 0.1 14.8-0.5 5.2-1 9.1-2.9 10.7-5.8 2.5-4.6 4.5-12.7 5.5-14.1 1-1.3 1.9-2 3.4-2 0 0 0.6 0 0.6-1.7 0-1.8-0.2-7.4-0.2-7.4s0.1-1-1.6-1.4c-2.1-0.5-15.9-4.9-34.9-4.2-14.9 0.5-15.2 3.5-27.7 4.3h-0.1-0.1c-12.5-0.8-12.8-3.8-27.6-4.3-19-0.7-32.8 3.7-34.9 4.2-1.8 0.4-1.7 1.4-1.7 1.4s-0.2 5.6-0.2 7.4zm74.1-1.2v-0.8c0-0.3 0.1-0.5 0.1-0.7 0-0.1 0-0.3 0.1-0.3 0-0.1 0-0.2 0.1-0.4v-0.1c0-0.2 0.1-0.4 0.1-0.5 1.9-7.4 22.7-6.6 22.7-6.6 5.6 0 16.1 1 20.7 4.2 0.4 0.3 0.8 0.7 1.2 1.1 0 0 0 0.1 0.1 0.1 0.6 0.8 1 1.7 1.2 2.7 0.4 1.5 0.5 3.3 0.4 5.2-0.2 3.7-1.1 7.7-2.2 10.8-1 2.7-2.6 4.6-5.1 5.8-1.5 0.8-3.3 1.3-5.3 1.7-0.4 0.1-0.8 0.1-1.2 0.2-2 0.3-4.2 0.5-6.7 0.6h-1.2-0.3-1.1-1.1-0.3c-0.3 0-0.7 0-1-0.1h-0.1c-0.4 0-0.7-0.1-1.1-0.1h-0.3c-0.3 0-0.6-0.1-0.9-0.1h-0.1c-0.3 0-0.7-0.1-1-0.1h-0.2c-0.3 0-0.6-0.1-0.9-0.2h-0.1c-0.3-0.1-0.6-0.1-0.9-0.2h-0.2c-0.3-0.1-0.6-0.1-0.8-0.2h-0.1c-0.3-0.1-0.6-0.2-0.8-0.2h-0.1c-0.3-0.1-0.5-0.2-0.8-0.2-0.3-0.1-0.5-0.2-0.8-0.3h-0.1c-0.2-0.1-0.5-0.2-0.7-0.3s-0.5-0.2-0.7-0.3h-0.1c-0.2-0.1-0.4-0.2-0.7-0.3-1.3-0.6-2.4-1.3-3.3-1.9-2.2-1.6-4.6-6.3-5.8-11.4l-0.3-1.8c-0.2-2.5-0.3-4.2-0.3-5.3zm-65.5-1.3c0.3-1 0.7-2 1.2-2.7 0 0 0-0.1 0.1-0.1 0.3-0.4 0.7-0.8 1.1-1.1 4.6-3.2 15.1-4.2 20.7-4.2 0 0 20.8-0.8 22.7 6.6 0 0.2 0.1 0.4 0.1 0.5v0.1c0 0.1 0 0.2 0.1 0.4 0 0.1 0 0.2 0.1 0.3 0 0.2 0.1 0.4 0.1 0.7v0.8c0 1.1 0 2.8-0.4 5.2-0.1 0.5-0.2 1.1-0.3 1.8-1.2 5.1-3.6 9.8-5.8 11.4-0.9 0.7-2 1.3-3.3 1.9-0.2 0.1-0.4 0.2-0.7 0.3h-0.1c-0.2 0.1-0.5 0.2-0.7 0.3s-0.5 0.2-0.7 0.3h-0.1c-0.3 0.1-0.5 0.2-0.8 0.3s-0.5 0.2-0.8 0.2h-0.1c-0.3 0.1-0.6 0.2-0.8 0.2h-0.1c-0.3 0.1-0.5 0.1-0.8 0.2h-0.2c-0.3 0.1-0.6 0.1-0.9 0.2h-0.1c-0.3 0.1-0.6 0.1-0.9 0.2h-0.2c-0.3 0.1-0.6 0.1-1 0.1h-0.1c-0.3 0-0.6 0.1-0.9 0.1h-0.3c-0.3 0-0.7 0.1-1.1 0.1h-0.1c-0.3 0-0.7 0-1 0.1h-0.3-1.1-1.1-0.3-1.2c-2.5-0.1-4.7-0.3-6.7-0.6-0.4-0.1-0.8-0.1-1.2-0.2-2-0.4-3.8-1-5.3-1.7-2.4-1.3-4.1-3.1-5.1-5.8-1.1-3.1-2-7.1-2.2-10.8 0-1.7 0.2-3.5 0.6-5.1z" fill="#4B4B4A"/>
		<g opacity=".5" fill="#1A1A1A">
			<path d="m93.6 36.8c6.3 0.3 11.1 0.1 14.8-0.5 5.2-1 9.1-2.9 10.7-5.8 2.5-4.6 4.5-12.7 5.5-14.1 1-1.3 1.9-2 3.4-2 0 0 0.6 0 0.6-1.7 0-1.8-0.2-7.4-0.2-7.4s0-0.3-0.2-0.5c0.6 0.4 0.5 0.9 0.5 0.9s0.2 5.6 0.2 7.4c0 1.8-0.6 1.7-0.6 1.7-1.4 0-2.4 0.7-3.4 2s-3 9.5-5.5 14.1c-1.6 2.9-5.5 4.8-10.7 5.8-3.7 0.6-8.5 0.8-14.8 0.5-9.1-0.4-13.9-3.1-16.7-6 2.9 2.8 7.7 5.3 16.4 5.6z"/>
			<path d="m74.4 18.5l-0.3-1.8c-0.3-2.4-0.4-4.1-0.4-5.2v-0.8c0-0.3 0.1-0.5 0.1-0.7 0-0.1 0-0.3 0.1-0.3 0-0.1 0-0.2 0.1-0.4v-0.1c0-0.2 0.1-0.4 0.1-0.5 1.9-7.4 22.7-6.6 22.7-6.6 5.6 0 16.1 1 20.7 4.2 0.3 0.2 0.6 0.5 0.8 0.8-0.2-0.1-0.3-0.3-0.5-0.4-4.6-3.2-15.1-4.2-20.7-4.2 0 0-20.8-0.8-22.7 6.6 0 0.2-0.1 0.4-0.1 0.5v0.1c0 0.1 0 0.2-0.1 0.4 0 0.1 0 0.2-0.1 0.3 0 0.2-0.1 0.4-0.1 0.7v0.8c0 1.1 0 2.8 0.4 5.2 0.1 0.6 0.2 1.1 0.3 1.8 1 4.4 3 8.5 4.9 10.6-1.9-1.9-4.1-6.3-5.2-11z"/>
			<path d="m10.3 26.6c0.5 1.5 1.3 2.8 2.3 3.8-1.2-1.1-2.1-2.5-2.7-4.2-1.1-3.1-2-7.1-2.2-10.8-0.1-1.9 0-3.7 0.4-5.2 0.3-1 0.7-2 1.2-2.7 0 0 0-0.1 0.1-0.1 0.3-0.4 0.7-0.8 1.2-1.1 4.6-3.2 15.1-4.2 20.7-4.2 0 0 16.6-0.7 21.5 4.5-5.3-4.8-21.1-4.1-21.1-4.1-5.6 0-16.1 1-20.7 4.2-0.4 0.3-0.8 0.7-1.1 1.1 0 0 0 0.1-0.1 0.1-0.6 0.8-1 1.7-1.2 2.7-0.4 1.6-0.6 3.4-0.5 5.2 0.2 3.8 1.2 7.8 2.2 10.8z"/>
			<path d="m0.2 14.4c1.2 0 2 0.5 2.8 1.3-0.7-0.6-1.5-1-2.5-1 0.1 0.1-0.1 0.1-0.3-0.3z"/>
			<path d="m19.8 36.3c3.7 0.6 8.5 0.8 14.8 0.5 16.6-0.7 19.1-9.2 20.8-12.3 0.6-1.1 1.2-3.2 1.9-4.7 0.6-1.5 1.5-1.9 2.5-2 1.5-0.2 2.9-0.4 4.3-0.5 1.3 0.1 2.7 0.4 4.3 0.5 0.8 0.1 1.4 0.3 1.9 1-0.4-0.4-0.9-0.5-1.5-0.6-1.5-0.2-2.9-0.4-4.3-0.5-1.3 0.1-2.7 0.4-4.3 0.5-1.1 0.1-1.9 0.6-2.5 2-0.6 1.5-1.3 3.7-1.9 4.7-1.7 3.1-4.2 11.6-20.8 12.3-6.3 0.3-11.1 0.1-14.8-0.5-4.3-0.8-7.7-2.2-9.6-4.4 1.9 1.9 5.2 3.2 9.2 4z"/>
		</g>
		<g opacity=".1" fill="#fff">
			<path d="m4.8 17.6c1 1.3 3 9.5 5.5 14.1 0.3 0.5 0.6 0.9 0.9 1.3-0.7-0.6-1.3-1.3-1.7-2.1-2.5-4.6-4.5-12.8-5.5-14.1-0.1-0.2-0.2-0.3-0.3-0.4 0.3 0.3 0.7 0.7 1.1 1.2z"/>
			<path d="m0.2 5.7s-0.1-1 1.6-1.4c2.2-0.5 16-4.9 35-4.2 14.8 0.5 15.1 3.5 27.6 4.3h0.1 0.1c12.5-0.8 12.8-3.8 27.6-4.3 19-0.7 32.8 3.7 34.9 4.2 1.1 0.2 1.5 0.7 1.6 1.1-0.2-0.1-0.5-0.2-0.8-0.3-2.1-0.5-15.9-4.9-34.9-4.2-14.8 0.5-15.1 3.5-27.6 4.3h-0.1-0.1c-12.5-0.8-12.8-3.8-27.6-4.3-19-0.7-32.9 3.7-35 4.2-1.7 0.4-1.6 1.4-1.6 1.4s-0.2 5.5-0.2 7.4c0 0.4 0 0.7 0.1 1h-0.3s-0.6 0-0.6-1.7c0-1.9 0.2-7.5 0.2-7.5z"/>
		</g>
		<path opacity=".1" d="m74.5 17.1l0.3 1.8c1.2 5.1 3.6 9.8 5.8 11.4 0.9 0.7 2 1.3 3.3 1.9 0.2 0.1 0.4 0.2 0.7 0.3h0.1c0.2 0.1 0.5 0.2 0.7 0.3s0.5 0.2 0.7 0.3h0.1c0.3 0.1 0.5 0.2 0.8 0.3s0.5 0.2 0.8 0.2h0.1c0.3 0.1 0.6 0.2 0.8 0.2h0.1c0.3 0.1 0.5 0.1 0.8 0.2h0.2c0.3 0.1 0.6 0.1 0.9 0.2h0.1c0.3 0.1 0.6 0.1 0.9 0.2h0.2c0.3 0.1 0.6 0.1 1 0.1h0.1c0.3 0 0.6 0.1 0.9 0.1h0.3c0.3 0 0.7 0.1 1.1 0.1h0.1c0.3 0 0.7 0 1 0.1h0.3 1.1 1.1 0.3 1.2c2.5-0.1 4.7-0.3 6.7-0.6 0.4-0.1 0.8-0.1 1.2-0.2 2-0.4 3.8-1 5.3-1.7 2.4-1.3 4.1-3.1 5.1-5.8 1.1-3.1 2-7.1 2.2-10.8 0.1-1.9 0-3.7-0.4-5.2-0.3-1-0.7-2-1.2-2.7 0 0 0-0.1-0.1-0.1-0.3-0.4-0.7-0.8-1.2-1.1-4.6-3.2-15.1-4.2-20.7-4.2 0 0-20.8-0.8-22.7 6.6 0 0.2-0.1 0.4-0.1 0.5v0.1c0 0.1 0 0.2-0.1 0.4 0 0.1 0 0.2-0.1 0.3 0 0.2-0.1 0.4-0.1 0.7v0.8c-0.1 1.2 0 2.9 0.3 5.3z" fill="#fff"/>
		<path opacity=".1" d="m8.1 15.8c0.2 3.7 1.1 7.7 2.2 10.8 1 2.7 2.6 4.6 5.1 5.8 1.5 0.8 3.3 1.3 5.3 1.7 0.4 0.1 0.8 0.1 1.2 0.2 2 0.3 4.3 0.5 6.7 0.6h1.2 0.3 1.1 1.1 0.3c0.3 0 0.7 0 1-0.1h0.1c0.4 0 0.7-0.1 1.1-0.1h0.3c0.3 0 0.6-0.1 0.9-0.1h0.1c0.3 0 0.7-0.1 1-0.1h0.2c0.3 0 0.6-0.1 0.9-0.2h0.1c0.3-0.1 0.6-0.1 0.9-0.2h0.2c0.3-0.1 0.6-0.1 0.8-0.2h0.1c0.3-0.1 0.6-0.2 0.8-0.2h0.1c0.3-0.1 0.5-0.2 0.8-0.2 0.3-0.1 0.5-0.2 0.8-0.3h0.1c0.2-0.1 0.5-0.2 0.7-0.3s0.5-0.2 0.7-0.3h0.1c0.2-0.1 0.4-0.2 0.7-0.3 1.3-0.6 2.4-1.3 3.3-1.9 2.2-1.6 4.6-6.3 5.8-11.4l0.3-1.8c0.3-2.4 0.4-4.1 0.4-5.2v-0.8c0-0.3-0.1-0.5-0.1-0.7 0-0.1 0-0.3-0.1-0.3 0-0.1 0-0.2-0.1-0.4v-0.1c0-0.2-0.1-0.4-0.1-0.5-1.9-7.4-22.7-6.6-22.7-6.6-5.6 0-16.1 1-20.7 4.2-0.5 0.2-0.9 0.6-1.2 1 0 0 0 0.1-0.1 0.1-0.6 0.8-1 1.7-1.2 2.7-0.4 1.6-0.6 3.4-0.5 5.2z" fill="#fff"/>
		<ellipse opacity=".5" rx="2" ry="1" cy="10" cx="125.5" fill="#0A0A0A"/>
		<ellipse cy="9.7" cx="125.1" rx="2" ry="1" fill="#fff"/>
		<ellipse opacity=".5" rx="2" ry="1" cy="10" cx="4.2" fill="#0A0A0A"/>
		<ellipse cy="9.7" cx="3.9" rx="2" ry="1" fill="#fff"/>
		<polygon opacity=".1" points="59.1 17.8 57.9 5.3 61.9 5.7 62.4 17.4" fill="#fff"/>
		<polygon opacity=".5" points="70 18.4 71.1 5.3 66.1 17.4" fill="#1A1A1A"/>
			<path opacity=".1" d="m108.3 34.2c-0.4 0.1-0.8 0.1-1.2 0.2-2 0.3-4.2 0.5-6.7 0.6h-1.2-0.3-1.1-1.1-0.3c-0.3 0-0.7 0-1-0.1h-0.1c-0.4 0-0.7-0.1-1.1-0.1h-0.3c-0.3 0-0.6-0.1-0.9-0.1h-0.1c-0.3 0-0.7-0.1-1-0.1h-0.2c-0.3 0-0.6-0.1-0.9-0.2h-0.1c-0.3-0.1-0.6-0.1-0.9-0.2h-0.2c-0.3-0.1-0.6-0.1-0.8-0.2h-0.1c-0.3-0.1-0.6-0.2-0.8-0.2h-0.1c-0.3-0.1-0.5-0.2-0.8-0.2-0.3-0.1-0.5-0.2-0.8-0.3h-0.1c-0.2-0.1-0.5-0.2-0.7-0.3s-0.5-0.2-0.7-0.3h-0.1c-0.2-0.1-0.4-0.2-0.7-0.3-1.3-0.6-2.4-1.3-3.3-1.9-2.2-1.6-4.6-6.3-5.8-11.4l-0.3-1.8c-0.3-2.4-0.4-4.1-0.4-5.2v-0.8c0-0.3 0.1-0.5 0.1-0.7 0-0.1 0-0.3 0.1-0.3 0-0.1 0-0.2 0.1-0.4v-0.1c0-0.2 0.1-0.4 0.1-0.5 1.1-4.3 8.7-5.9 14.8-6.4l22.7 30.3c-1.1 0.4-2.3 0.8-3.7 1z" fill="#fff"/>
			<path opacity=".1" d="m42 33.5c-0.3 0.1-0.5 0.2-0.8 0.3h-0.1c-0.3 0.1-0.6 0.2-0.8 0.2h-0.1c-0.3 0.1-0.5 0.1-0.8 0.2h-0.2c-0.3 0.1-0.6 0.1-0.9 0.2h-0.1c-0.3 0.1-0.6 0.1-0.9 0.2h-0.2c-0.3 0.1-0.6 0.1-1 0.1h-0.1c-0.3 0-0.6 0.1-0.9 0.1h-0.3c-0.3 0-0.7 0.1-1.1 0.1h-0.1c-0.3 0-0.7 0-1 0.1h-0.3-1.1-1.1-0.3-1.2c-2.5-0.1-4.7-0.3-6.7-0.6-0.4-0.1-0.8-0.1-1.2-0.2-2-0.4-3.8-1-5.3-1.7-2.4-1.3-4.1-3.1-5.1-5.8-1.1-3.1-2-7.1-2.2-10.8-0.1-1.9 0-3.7 0.4-5.2 0.3-1 0.7-2 1.2-2.7 0 0 0-0.1 0.1-0.1 0.4-0.5 0.8-0.9 1.2-1.2 2.1-1.4 5.4-2.4 8.9-3.1l22.1 29.9v0z" fill="#fff"/>
</svg>
