<?xml version="1.0" encoding="UTF-8" standalone="no"?>
<!-- Generator: Adobe Illustrator 17.1.0, SVG Export Plug-In . SVG Version: 6.00 Build 0)  -->
<!DOCTYPE svg  PUBLIC '-//W3C//DTD SVG 1.1//EN'  'http://www.w3.org/Graphics/SVG/1.1/DTD/svg11.dtd'>
<svg id="Layer_1" xmlns="http://www.w3.org/2000/svg" xml:space="preserve" viewBox="0 0 94.1 24.2" version="1.1" y="0px" x="0px" xmlns:xlink="http://www.w3.org/1999/xlink" enable-background="new 0 0 94.1 24.2">
	<path opacity=".8" d="m75.9 0.3c3.4-1.3 3.3 2 7.7 2.8 3.6 0.6 5.1-1 7.4 0.7 2.8 2.1 0.9 4.6 0.8 6.9-0.1 2.5 3.9 4.8 1.4 8.2-2.3 3.1-7.4 0-8.8 0.7-2.6 1.2-3.8 4-7.3 2s-2-4.1-1.4-7.4-5.9-2.1-5.4-5.6c0.5-3.7 2.3-2.3 3.4-4.1 0.9-1.4 0.1-3.4 2.2-4.2z" fill="#E3CC7B"/>
	<g opacity=".2" fill="#1D1D1B">
		<path opacity=".8" d="m91.6 9.8c0 0.4 0.1 0.9 0.3 1.3v-0.4c0.1-1.8 1.2-3.7 0.5-5.4 0.1 1.5-0.7 3-0.8 4.5z"/>
		<path opacity=".8" d="m93.8 15.2c0.1 0.8 0 1.8-0.8 2.8-2.3 3.1-7.4 0-8.8 0.7-2.6 1.2-3.8 4-7.3 2-1.1-0.6-1.7-1.2-2-1.9 0.1 1 0.7 1.9 2.2 2.8 3.5 2 4.7-0.8 7.3-2 1.5-0.7 6.5 2.4 8.8-0.7 1.1-1.4 1-2.6 0.6-3.7z"/>
		<path opacity=".8" d="m70.3 8.9c0.1 2.5 4.2 2.2 5.2 3.9 0-2.4-4.1-2.1-5.2-3.9z"/>
	</g>
	<path opacity=".2" d="m79.7 13.9l0.1-0.1c0.1-0.1 0.1-0.1 0.1-0.2 0 0 0-0.1 0.1-0.1 0-0.1 0-0.2 0.1-0.2v-0.1-0.7c0-0.5-0.4-1-1-1l-20.2-0.5v-4c0-0.8-0.6-1.4-1.4-1.4h-0.4-3.1-1.4v0.5c0-1.1-0.9-1.9-1.9-2l-13.6-0.5-7.4-0.3-23.2-1h-2-4.5l0.1 21.9h0.7 3.2 0.3 0.3l45.8-0.9c1.1-0.1 1.9-1 1.9-2v0.7h1.4 3.1 0.5c0.8 0 1.4-0.6 1.4-1.4v-3.3-1.6l16.7-0.8s0.4-0.6 1.3-0.7l2.4-0.1c0.1 0 0.3 0 0.4-0.1 0.1 0 0.2-0.1 0.2-0.1zm-27.3-6.9v9.8-10.2 0.4z" fill="#1D1E1C"/>
		<path d="m79.3 12.9c0.5 0 1-0.5 1-1v-0.7c0-0.5-0.4-1-1-1l-22.7-1.2c-0.5 0-1 0.4-1 0.9v3.1c0 0.5 0.4 0.9 1 0.9l22.7-1z" fill="#EB6349"/>
		<g fill="#D15942">
			<path d="m55.6 9.9z"/>
			<path d="m79.3 12.9c0.5 0 0.9-0.5 1-1h-0.2l-23.6 0.4c-0.4 0-0.8-0.3-0.9-0.7v1.4c0 0.5 0.4 0.9 1 0.9l22.7-1z"/>
		</g>
		<path d="m59 17.9v-12.7c0-0.8-0.6-1.4-1.4-1.4h-0.4-3.1-1.4v1.4 12.7 1.4h1.4 3.1 0.5c0.6 0 1.3-0.7 1.3-1.4z" fill="#EB6349"/>
		<path d="m59 17.9v-2.4c-0.3 0.2-0.6 0.4-1 0.4h-0.5-3.3-1.6v2 1.4h1.4 3.1 0.5c0.7 0 1.4-0.7 1.4-1.4z" fill="#D15942"/>
		<path d="m28.6 21.7l22-1.1c1.1-0.1 1.9-1 1.9-2v-14.4c0-1.1-0.9-1.9-1.9-2l-13.4-0.5-7.4-0.3-23.2-0.9-2-0.1v1.9 18.7 1.9l24-1.2z" fill="#ECECEC"/>
		<rect y=".4" x=".1" height="22.5" width="4.5" fill="#D9D9D8"/>
		<rect opacity=".3" height="22.5" width=".3" y=".4" x="4" fill="#fff"/>
		<rect opacity=".2" height="22.5" width=".7" y=".4" x=".1" fill="#1D1D1B"/>
			<path d="m10.7 5.3c-1.2 0-2.1 1-2.1 2.1v8.2c0 1.2 1 2.1 2.1 2.1h19.8l5.9-12.4h-25.7z" fill="#1BB1E7"/>
			<path d="m46.2 5.3h-7.6l-5.9 12.4h13.5c1.2 0 2.1-1 2.1-2.1v-8.2c0-1.1-1-2.1-2.1-2.1z" fill="#EB6349"/>
		<g opacity=".3">
			<path d="m57.1 8.5c0.5 0 1-0.4 1-1v-0.9c0-0.5-0.4-1-1-1h-2.9c-0.5 0-1 0.4-1 1v0.9c0 0.5 0.4 1 1 1h2.9z" fill="#fff"/>
		</g>
			<line opacity=".3" x1="59.3" y2="10.7" x2="79.2" stroke="#fff" stroke-linecap="round" stroke-miterlimit="10" y1="10" stroke-width=".4786" fill="none"/>
		<path opacity=".2" d="m28.6 21.7l22-1.1c1.1-0.1 1.9-1 1.9-2v-3.6c0 1.1-0.9 1-1.9 1.1l-46 3.7v3.1l24-1.2z" fill="#1D1D1B"/>
		<g opacity=".3">
			<path d="m8.5 6.5c-0.8 0-1.5-0.7-1.5-1.4v-0.5c0-0.8 0.6-1.4 1.4-1.4l40.1 1.3c0.8 0.1 1.5 0.7 1.5 1.5v0.5c0 0.8-0.6 1.4-1.4 1.4l-40.1-1.4z" fill="#fff"/>
		</g>
</svg>
