<?xml version="1.0" encoding="UTF-8" standalone="no"?>
<!-- Generator: Adobe Illustrator 17.0.0, SVG Export Plug-In . SVG Version: 6.00 Build 0)  -->
<!DOCTYPE svg  PUBLIC '-//W3C//DTD SVG 1.1//EN'  'http://www.w3.org/Graphics/SVG/1.1/DTD/svg11.dtd'>
<svg id="Layer_1" xmlns="http://www.w3.org/2000/svg" xml:space="preserve" height="349.26px" viewBox="0 0 259.125 349.264" width="259.12px" version="1.1" y="0px" x="0px" xmlns:xlink="http://www.w3.org/1999/xlink" enable-background="new 0 0 259.125 349.264">
	<polygon opacity=".2" points="259.12 48.067 238.31 27.253 228.51 48.067 20.813 48.067 20.813 317.6 0.391 328.45 21.204 349.26 21.414 348.82 259.12 348.82" fill="#1D1D1B"/>
	<rect y="27.253" x="0" height="300.75" width="238.31" fill="#956C47"/>
	<rect opacity=".2" height="300.75" width="5.55" y="27.253" x="0" fill="#fff"/>
	<rect opacity=".1" height="300.75" width="2.558" y="27.253" x="8.911" fill="#1D1D1B"/>
		<path stroke="#FFFAD2" stroke-width="2.0813" stroke-miterlimit="10" d="m224.78 299.39v-243.52c-9.196 0-16.651-7.455-16.651-16.651h-169.1c0 9.196-7.455 16.651-16.651 16.651v243.52c9.196 0 16.651 7.455 16.651 16.651h169.11c-0.01-9.2 7.45-16.65 16.64-16.65z" fill="none"/>
	<rect y="20.012" x="22.374" height="7.241" width="19.252" fill="#EE7B1A"/>
	<rect opacity=".2" height="7.241" width="19.252" y="20.012" x="22.374" fill="#fff"/>
	<polygon points="22.374 0 32 3.624 41.627 0 41.627 20.012 22.374 20.012" fill="#EE7B1A"/>
	<g fill="#FFFAD2">
		<path d="m63.87 185.84l0.425 0.552 0.552 0.382 0.934 0.976 0.976 0.977 0.764 0.637 0.085 0.254 0.552 0.38 0.849 0.892 0.254 0.084 0.467 0.51 0.297 0.127 0.425 0.51 0.594 0.424 0.722 0.637 0.849 0.509 0.212 0.255 0.17 0.085 0.085 0.17h0.212v0.085h0.17v0.084l1.062 0.297v0.085h0.212v0.127l0.679 0.169 0.085 0.085 1.231 0.297h0.679l0.085-0.085h0.297l1.273-0.424 1.231-0.722 1.062-0.849 0.297-0.34 0.849-0.382 0.594 0.212 0.127 0.127 0.255 0.042 0.382 0.595 0.424 0.424 0.382 0.552 0.085 0.34-0.17 0.594-0.679 0.722-0.255 0.042v0.127h-0.169v0.085l-0.764 0.594-0.255 0.085-1.231 0.807-1.231 0.552-0.977 0.34-1.401 0.212-0.679 0.084-1.188-0.127-1.104-0.297-0.976-0.424-0.934-0.382-0.339-0.254-0.594-0.255-0.042-0.085-0.297-0.042-0.594-0.339-0.085-0.17-0.254-0.042-0.51-0.467-0.891-0.552-0.17-0.212-0.297-0.085-0.297-0.382h-0.127l-1.019-1.019-1.019-0.892-0.467-0.339-0.977-1.019-0.977-0.807-0.509-0.424v-0.212l-0.553-0.35-0.807-1.019-0.254-0.254-0.255-0.042v-0.085l-0.424-0.382-0.552-0.17-0.382 0.042-0.552 0.297-1.019 0.892-0.169 0.212h-0.212l-0.085 0.169-1.231 0.51h-0.17l-1.104 0.552-1.358 0.127-0.679 0.169-1.273-0.084-1.358-0.34-0.637-0.34h-0.169l-0.552-0.424-0.297-0.085-0.424-0.509-0.382-0.127-0.127-0.127-0.042-0.254-0.424-0.467-0.509-1.231-0.212-1.273 0.085-1.443 0.127-0.679 0.212-0.552 0.127-0.127 0.042-0.254 0.255-0.255 0.042-0.17 0.254-0.339 1.062-0.934 0.552-0.339 0.509-0.17 0.255-0.255 0.637-0.212 0.127-0.127 1.188-0.17 0.722-0.042 0.34 0.085 0.212-0.127 0.679 0.085 0.34 0.17 1.358 0.254 1.188 0.51 1.104 0.764 0.594 0.254h0.297l0.297-0.17 0.509-0.976 0.467-1.062 0.212-0.679 0.212-0.254 0.085-0.297 0.212-0.212 0.34-1.231 0.509-1.316-0.085-0.467-0.467-0.424-0.552-0.255-0.127-0.127h-0.297l-0.127-0.17-0.424-0.085-0.127-0.127h-0.17l-1.019-0.552-0.255-0.255-0.297-0.127-0.552-0.637-0.254-0.042-0.934-0.977-0.042-0.212-0.127-0.042-0.594-0.892-0.254-0.212-0.467-1.273-0.084-0.297-0.212-0.255-0.255-1.104-0.297-1.486-0.042-0.679 0.085-1.316v-0.34l0.127-0.084 0.085-0.679 0.34-1.358 0.594-1.146 0.17-0.424 0.254-0.255v-0.17l0.722-0.891 0.212-0.212v-0.17l0.17-0.042 0.084-0.297 0.977-0.934 1.062-0.849 0.976-0.085 0.085 0.169 0.255 0.085 0.339 0.34v0.169l0.212 0.127v0.17l0.254 0.212 0.17 0.382 0.042 0.467-0.424 0.51-0.892 0.807-0.17 0.382-0.297 0.212-0.085 0.297-0.425 0.467-0.594 0.806v0.17h-0.085v0.212h-0.088v0.17h-0.127l-0.34 1.146-0.297 1.316-0.127 1.104 0.085 0.255 0.042 0.764 0.339 1.104 0.127 0.085 0.339 0.552 0.212 0.594 0.679 0.934 1.019 0.849 0.849 0.637 0.467 0.17 0.254 0.254 0.297 0.042 0.212 0.212 0.679 0.085 0.382-0.297 0.255-0.085 0.042-0.254 0.127-0.127 0.17-0.594 0.509-1.062 0.212-0.254v-0.297l0.212-0.212 0.042-0.467 0.509-1.231 0.212-0.212v-0.17l0.169-0.212 0.34-1.062 0.637-1.188 0.552-1.231 0.085-0.297 0.552-0.637 0.467-1.146 0.382-0.509 0.467-0.679v-0.17h0.085l0.637-1.146 0.255-0.552 0.509-0.467 0.807-1.104 0.382-0.509 1.062-0.934 0.212-0.255 0.297-0.042 0.17-0.297 0.382-0.17 1.104-0.722 1.019-0.424 0.297-0.042 0.467-0.297 1.188-0.127 1.571 0.042 1.273 0.127 0.085 0.085 0.424 0.085 0.085 0.127 0.509 0.127 0.467 0.339 0.169 0.042 1.104 0.849 0.085 0.297 0.169 0.085 0.17 0.467 0.212 0.085v0.212h0.085v0.17l0.382 0.594 0.34 1.316 0.127 0.552v1.443l-0.085 0.722-0.085 0.17-0.085 1.188-0.34 1.146-0.467 1.316-0.17 0.51-0.254 0.254-0.255 0.637-0.297 0.382-0.042 0.254h-0.122l-0.127 0.51-0.255 0.254-0.339 0.594-0.34 0.382-0.042 0.17-0.382 0.382-0.085 0.255-0.637 0.891-1.061 0.977-0.467 0.467-1.061 0.722-0.552 0.382-0.212 0.254h-0.212l-0.085 0.212h-0.169l-0.51 0.467-0.382 0.085-0.17 0.212-0.509 0.127-0.255 0.254-0.509 0.127-0.255 0.255-0.509 0.042-1.188 0.467-2.123 0.637h-0.807l-0.424 0.17-1.403-0.01h-0.637l-0.807 0.254-0.552 0.34-0.509 1.146-0.085 0.34-0.212 0.212-0.339 1.188-0.382 0.934-0.424 1.146-0.255 0.255-0.212 0.807-0.212 0.17-0.127 0.424-0.212 0.255-0.127 0.509-0.085 0.085v0.169l-0.212 0.212-0.17 0.637 0.042 0.34 0.722 0.807 0.34 0.297 0.125 0.03zm-12.013-2.8l-0.085 0.212h-0.212l-0.212 0.297-0.552 0.425-0.085 0.297-0.255 0.212-0.085 0.637 0.042 0.722 0.425 0.892 0.509 0.509 0.509 0.212 1.486 0.254h0.594l0.424-0.127 1.146-0.552 0.552-0.297 0.892-0.892 0.169-0.382-0.085-0.552-0.382-0.552-1.104-0.849-0.085-0.084h-0.17l-0.382-0.297-0.467-0.085-0.212-0.127-1.486-0.085h-0.467l-0.422 0.22zm1.613 7.21l0.212 0.085 0.085-0.169-0.169-0.127-0.085 0.127-0.043 0.08zm4.712-7.51l0.339-0.042 0.17-0.127-0.127-0.34-0.382-0.169-0.085 0.127 0.085 0.425v0.12zm0.297 1.53h0.17l0.127-0.339-0.127-0.297-0.127 0.042-0.127 0.34 0.042 0.169 0.042 0.09zm1.444 2.25l0.085-0.34-0.085-0.127-0.17-0.042-0.084 0.297 0.169 0.17 0.085 0.04zm1.231-2.5l-0.042-0.34-0.127-0.042-0.085 0.297 0.127 0.085h0.127zm0.424 0.16l0.297 0.085 0.17-0.085 0.17-0.297-0.297-0.085-0.297 0.297-0.043 0.08zm0.382 1.92l0.17-0.042 0.085-0.34-0.255 0.127v0.25zm0.17-7.39h0.212v-0.17h-0.212v0.17zm0.297 6.92h0.297l-0.042-0.127-0.255-0.042v0.17zm0.467 2.03l-0.255-0.085-0.042 0.17 0.17 0.085 0.127-0.085v-0.1zm0.213-7.42l0.382-0.042 0.127-0.212 0.042-0.297-0.552-0.127-0.085 0.17 0.042 0.467 0.044 0.04zm0.466-5.95l-0.382-0.085-0.042 0.085 0.127 0.127 0.297-0.085v-0.03zm0.382 1.23v-0.17l-0.127-0.084h-0.339l0.042 0.127 0.339 0.085 0.085 0.04zm-0.297 3.87h0.212v-0.212h-0.212v0.21zm0.51-5.69v-0.085l0.212-0.085 0.085-0.17-0.042-0.127-0.297 0.042-0.085 0.169 0.042 0.212 0.085 0.04zm0.466 2.12l-0.042-0.34-0.085-0.127h-0.169v0.255l0.212 0.17 0.084 0.05zm0.213-2.59v0.297h0.339l0.212-0.212v-0.084l-0.17-0.085-0.339 0.042-0.042 0.03zm0.382 16.81l0.17 0.127 0.085-0.212-0.17-0.085-0.085 0.16zm0.255-14.6l0.127-0.297-0.042-0.255h-0.17v0.509l0.085 0.05zm1.188-3.65v0.212l0.085 0.085 0.297-0.085v-0.212l-0.127-0.085-0.212 0.042-0.043 0.05zm0.637-3.57h0.297l-0.042-0.127-0.255-0.042v0.17zm2.037 4.04l1.231-0.297 0.977-0.254 1.188-0.509 0.467-0.17 0.467-0.425 1.231-0.637 1.019-0.764 1.019-0.892 1.019-0.934 0.339-0.509 0.849-1.062 0.594-0.934 0.255-0.297 0.509-1.358 0.467-1.231 0.17-0.424 0.255-0.934 0.084-1.443-0.042-0.637-0.084-0.127-0.085-0.594-0.255-0.509-0.127-0.127-0.042-0.254-0.467-0.212-0.085-0.17-1.316-0.424-0.594 0.042-1.358 0.552-0.297 0.17-0.169 0.212-0.297 0.042-0.976 0.849-0.212 0.297-0.255 0.042-0.127 0.297-0.891 0.892-0.042 0.254-0.977 1.062-0.424 0.891-0.212 0.255v0.212l-0.212 0.085v0.169l-0.127 0.085-0.042 0.212-0.212 0.085v0.212h-0.085v0.212h-0.085l-0.552 1.231-0.594 1.231-0.552 1.273-0.509 1.231-0.637 1.231-0.382 1.062-0.339 1.231 0.084 0.339 0.637 0.297 0.764-0.085 0.037-0.06zm3.184 2.03l0.085-0.127-0.042-0.17-0.17-0.084-0.085 0.127 0.085 0.212 0.127 0.04zm0-1.06h0.17l0.085-0.212-0.254-0.085v0.29zm0.085-13.92l0.169 0.085 0.17-0.085 0.127-0.212-0.127-0.085-0.297 0.212-0.042 0.08zm1.911 38.33l0.297 0.212 0.085-0.382-0.339 0.085-0.043 0.08zm0.509-26.53h0.17v-0.255l-0.17-0.042v0.29zm0.552 0.89l0.297 0.085-0.042-0.169-0.17-0.127-0.042 0.127-0.043 0.09zm0.976-1.19l-0.085-0.339-0.212-0.127 0.042 0.339 0.085 0.127h0.17zm0.297-15.75l0.085-0.127-0.042-0.169-0.254-0.085v0.212l0.127 0.169h0.084zm-0.127 15.5v0.169l0.212 0.212h0.297v-0.509l-0.425 0.085-0.084 0.04zm1.189-1.28l0.382 0.297 0.255-0.212 0.042 0.17 0.085 0.042 0.169-0.594-0.467-0.17-0.424 0.382-0.042 0.08zm0.636-14.98l0.339 0.085 0.17-0.169-0.17-0.085h-0.254l-0.085 0.18zm0.128 15.88l0.084-0.17-0.084-0.212h-0.127v0.339l0.127 0.04zm1.825-3.4l-0.085-0.127-0.297-0.042-0.169 0.212-0.042 0.722-0.127 0.127-0.637 0.254 0.042 0.212-0.255 0.382v0.212h0.382l0.169 0.297 0.425 0.339 0.297-0.085 0.085-0.169-0.085-0.085-0.382 0.085-0.297-0.382 0.425-0.509 0.424-0.17 0.127-0.297 0.212-0.212 0.254-0.085 0.085-0.424-0.042-0.17-0.424-0.085h-0.085zm-0.212-11.72l0.042 0.17 0.17 0.127 0.085-0.127 0.297-0.127v-0.127l-0.212-0.042-0.34 0.085-0.042 0.04zm0.382 11.46l0.169-0.042 0.127-0.17-0.212-0.212-0.085 0.297v0.12zm0.085-0.97h0.212v-0.255l-0.085-0.042-0.127 0.212v0.08zm0.297-10.4l0.085 0.509 0.382-0.212 0.042-0.382-0.424 0.042-0.085 0.04zm0.509 10.02l0.212 0.425-0.212 0.127-0.212-0.255h-0.085l0.127 0.764 0.254 0.552-0.254 0.042-0.042 0.17 0.552-0.042 0.042-0.127-0.127-0.297 0.255-0.169 0.169-0.467-0.297-0.552v-0.17l0.467-0.212-0.127-0.297-0.467-0.17-0.255 0.595v0.09zm0-8.66h0.17l0.085-0.297 0.297-0.382-0.467-0.17-0.17 0.255-0.042 0.382 0.085 0.127 0.042 0.08zm1.316 7.38l-0.169-0.085 0.084-0.169-0.467-0.382-0.594 0.255 0.297 0.594 0.467-0.085 0.17 0.424 0.127 0.127 0.042-0.594 0.043-0.07zm0.764-3.65l-0.254-0.085-0.085 0.127-0.297 0.169v0.085l-0.339 0.127-0.085 0.127v0.255l0.297 0.339-0.127 0.339-0.255 0.255 0.085 0.297-0.085 0.085-0.467 0.084 0.042 0.34 0.254 0.255 0.17-0.255 0.509-0.212 0.425 0.297 0.297 0.042 0.127-0.17-0.255-0.127-0.254-0.254-0.085-0.51 0.297-0.254-0.084-0.297 0.042-0.127 0.34-0.085 0.17 0.042-0.34-0.806-0.043-0.09zm-1.146-3.35l0.339-0.042 0.042-0.127-0.085-0.17-0.297-0.127-0.085 0.17 0.042 0.212 0.044 0.09zm0.085 2.89l0.509-0.084 0.212 0.297h0.254l-0.084-0.297-0.297-0.255h-0.467l-0.127 0.212v0.13zm1.061-0.39l0.255 0.127 0.339 0.042-0.042-0.722-0.424-0.042 0.042 0.17-0.127 0.297-0.043 0.12zm0.212-2.12l0.127 0.34h0.297l0.34-0.34-0.127-0.085-0.594 0.042-0.043 0.05zm0.297 3.35h0.255v-0.17l-0.085-0.085h-0.17v0.26z"/>
		<path d="m98.173 166.78l0.297 0.382v0.17l-0.51 1.273-0.594 1.231-0.509 1.316-0.509 0.976-0.467-0.17-0.042 0.127 0.085 0.127 0.254 0.085 0.085 0.212-0.127 0.084-0.254 0.595h-0.212l0.212 0.212-0.34 1.146-0.255 0.594-0.212 0.254-0.085 0.34-0.212 0.297-0.042 0.255-0.169 0.212-0.127 0.722-0.679 1.273-0.17 0.509-0.382 0.637 0.084 0.34-0.127 0.127-0.34 1.274-0.467 1.316-0.382 1.316v0.637l0.212 0.637 0.509 0.467 0.297 0.127 0.722-0.17 0.637-0.297 0.976-0.764 0.042-0.127 0.255-0.042 0.934-0.977 0.424-0.552 0.382-0.339 0.085-0.297 0.255-0.17 0.127-0.339 0.509-0.467 0.424-0.255 0.127-0.34 0.637-1.019 0.17-0.085v-0.297l0.17-0.042 0.042-0.255 0.169-0.085v-0.17l0.17-0.084 0.127-0.425 0.255-0.17 0.127-0.254 0.255-0.255v-0.17l0.127-0.084 0.042-0.212h0.127l0.084-0.297 0.425-0.467 0.552-0.085 0.594 0.382 0.297 0.552 0.042 0.679-0.594 0.976-0.042 0.17-0.127 0.085-0.042 0.212h-0.085l-0.509 0.891-0.255 0.382v0.169h-0.127l-0.042 0.255-1.358 1.698-0.085 0.297-0.934 1.019-0.934 0.976-1.783 1.783-0.34 0.127-0.467 0.467-0.17 0.042-0.085 0.127-0.212 0.042v0.085h-0.212v0.085h-0.17l-0.552 0.255-1.443 0.382-0.594 0.042-1.273-0.127-0.764-0.339-0.085-0.212-0.424-0.17-0.722-0.976-0.255-0.552-0.339-0.212-0.297 0.042-0.552 0.467-0.934 0.594-0.424 0.34h-0.212l-0.042 0.127-0.169 0.042-0.17 0.212h-0.17v0.085l-1.273 0.297-0.637 0.212-1.316 0.085h-0.297l-0.806-0.339-0.085-0.127-0.34-0.085-0.339-0.424-0.34-0.212-0.042-0.255-0.212-0.212-0.17-0.467-0.255-0.254-0.339-1.358-0.085-1.401v-0.255l0.085-0.17-0.042-0.127 0.085-0.17 0.424-0.212v-0.085l-0.34-0.127-0.042-0.127 0.212-0.977 0.085-0.127 0.085-1.019h0.127l0.127-0.977 0.169-0.254 0.297-1.104 0.297-1.316 0.17-0.212 0.17-0.68 0.255-0.594 0.212-0.254v-0.212h0.127v-0.17h0.085l0.212-0.891 0.382-0.977 0.255-0.255 0.169-0.339 0.34-0.34v-0.212l0.17-0.085 0.085-0.382 0.254-0.254 0.127-0.509 0.892-1.019 0.467-0.509v-0.212l0.255-0.17 0.085-0.297 0.721-0.807 0.595-0.339 0.509-0.425 1.019-0.424 1.231-0.34 1.358 0.042 0.467-0.127 0.127 0.127 0.467 0.127 0.297 0.212 0.297 0.085 0.934 1.019 0.212 0.255v0.127l0.127 0.127 0.042 0.255 0.467 0.509 0.297 0.17h0.34l1.188-0.637 0.212-0.212 0.722-0.382 1.146-0.34 0.254 0.085 0.087 0.02zm-5.773 5.35l0.127-1.316 0.127-0.679-0.085-0.255-0.169-0.127-0.085-0.297-0.297-0.085-0.552-0.424-0.594-0.255h-0.722l-0.977 0.297-1.104 0.807-0.127 0.254-0.891 1.062-0.382 0.339-0.085 0.297-0.254 0.212-0.127 0.34-0.127 0.127v0.169l-0.212 0.255-0.127 0.509-0.169 0.127-0.594 1.231-0.425 0.807-0.424 1.273-0.255 0.637v0.17l-0.212 0.212v0.17l-0.297 0.424-0.17 1.358-0.382 1.316-0.34 1.358-0.085 0.509 0.127 0.297 0.042 0.594 0.297 0.637 0.212 0.255 0.552 0.254 0.934 0.042 0.085-0.085h0.297l0.169-0.254 0.382-0.17v-0.085l0.254-0.042 0.51-0.382 0.297-0.127 0.085-0.212 0.297-0.085 0.891-1.061 0.467-0.467v-0.212l0.169-0.085v-0.212l0.297-0.254 0.509-1.104 0.467-1.231h0.382v-0.085l-0.17-0.085 0.085-0.509 0.467-0.892 0.382-1.104 0.042-0.255 0.17-0.127 0.084-0.51 0.51-1.104 0.212-0.297 0.34-1.273 0.17-0.509v-0.11zm-9.892 1.95l0.255-0.085 0.042-0.169-0.212-0.255-0.17 0.255v0.169l0.085 0.07zm1.062 2.08h0.169v-0.169h-0.169v0.17zm0.085-1.61l0.297 0.085-0.042-0.17-0.17-0.127-0.042 0.127-0.043 0.08zm0.297-1.23l0.127 0.085 0.339-0.042 0.212-0.254v-0.17l-0.339-0.085-0.255 0.212-0.085 0.17v0.08zm0.679-1.57l0.34-0.085 0.424-0.382-0.297-0.169-0.297 0.127-0.17 0.382v0.13zm2.208-1.7h0.297l-0.127-0.297-0.17 0.169v0.13zm0.296-0.89h0.17v-0.17h-0.17v0.17zm0.765-1.06l0.127 0.255 0.34 0.042-0.042-0.212-0.255-0.17-0.17 0.08zm0.297 16.04l0.17-0.042 0.084-0.17-0.169-0.17-0.085 0.297v0.08zm0.934-1.61l0.169 0.085 0.425-0.127 0.084-0.34-0.509 0.085-0.169 0.212v0.08zm0.212-13.84l0.297-0.085 0.085-0.212-0.212 0.042-0.127 0.169-0.043 0.09zm0.17 15.07h0.212l0.084-0.17-0.297-0.085v0.26zm0.509-16.43l-0.042-0.339-0.085-0.127h-0.169l-0.085 0.127 0.042 0.169 0.254 0.17h0.085zm-0.382 16.94v0.17l0.085 0.085 0.297-0.085v-0.17l-0.127-0.127h-0.169v0.084l-0.086 0.05zm0.255-2.89l0.382-0.042 0.17-0.17 0.042-0.17-0.212-0.297-0.17-0.085-0.255 0.467v0.255l0.043 0.04zm1.061-0.76l-0.085-0.382-0.467-0.679-0.34 0.042-0.042 0.127 0.255 0.17v0.127l-0.382 0.084 0.34 0.255 0.467 0.042 0.17 0.297-0.085 0.169 0.042 0.34 0.255 0.467h0.084l0.34-0.424 0.042-0.17-0.085-0.17-0.467-0.254-0.042-0.05zm-0.934 4.71l0.17 0.17 0.212-0.042 0.212-0.34h0.085l0.17 0.212h0.212l0.127-0.297 0.042-0.382h-0.679l-0.467 0.424-0.085 0.17v0.09zm2.08-7.13l-0.339-0.339-0.212-0.042-0.127 0.127-0.339-0.042-0.34 0.339-0.254-0.042v0.17l0.169 0.255 0.637 0.169 0.764-0.084 0.34-0.127v0.382l-0.212 0.255-0.255 0.127 0.085 0.509-0.085 0.254 0.255 0.127 0.042 0.17-0.424 0.212-0.085 0.254 0.849 0.297 0.127-0.085-0.127-0.34-0.254-0.339 0.17-0.127-0.042-0.254-0.212-0.382 0.17-0.127 0.382-0.085-0.085-0.297v-1.019l-0.467 0.085h-0.131zm-1.613 5.18h0.424l0.127-0.127 0.042-0.255-0.297-0.085-0.255 0.212-0.042 0.17v0.08zm0.467-1.15l0.127-0.212-0.085-0.255h-0.212l-0.127 0.297 0.085 0.169h0.212zm0.128-2.8l0.212 0.382 0.17 0.042v-0.297l-0.255-0.212-0.424-0.17-0.085 0.085v0.169l0.297 0.085 0.085-0.09zm0.084-3.06h0.212l0.255-0.212v-0.169l-0.297-0.212 0.042 0.127-0.212 0.382v0.08zm1.444 0h-0.169l-0.425 0.297-0.169-0.042-0.085-0.127-0.297-0.042-0.085 0.127-0.042 0.382 0.127 0.552 0.085 0.085 0.297-0.127 0.169-0.254 0.297-0.085 0.042-0.34 0.085-0.127 0.339 0.085v-0.764l-0.255-0.085-0.084 0.085v0.169l0.127 0.127 0.043 0.07zm-1.274 9.6l0.382 0.127-0.085-0.212-0.17-0.085-0.085 0.127-0.042 0.04zm0.297-2.59l0.127-0.042 0.085-0.212 0.127-0.085 0.042-0.339h-0.169l-0.127 0.127-0.085 0.467v0.08zm0.085-6.54h0.212v0.212h-0.212v-0.21zm0.595-2.08v-0.382l-0.212-0.212-0.17 0.255 0.085 0.297 0.17 0.042h0.127zm-0.085 7.09v-0.17l-0.212-0.212v0.34l0.127 0.042h0.085zm2.971-11.25v0.212l-0.212 0.255-0.255 0.127-0.169-0.255-0.042-0.509-0.17 0.042-0.127 0.212h-0.297l0.042 0.17 0.51 0.382 0.042 0.382-0.212 0.255 0.17 0.254 0.042 0.212-0.17 0.085-0.255-0.425-0.17-0.042-0.042 0.255 0.085 0.382-0.042 0.255-0.169 0.085-0.085-0.255 0.042-0.509-0.255-0.212-0.17 0.255-0.297 0.807 0.085 0.085v0.212l0.212 0.255v0.297l-0.637 0.254-0.127 0.637 0.085 0.255-0.212 0.212v0.297l0.467 0.17 0.17 0.212 0.127 0.467-0.085 0.594-0.849 0.467 0.212 0.425 0.339 0.042 0.127-0.297 0.255-0.212 0.297-0.042v0.169l-0.17 0.297 0.17-0.042 0.17-0.17 0.042-0.467 0.17-0.085 0.084-0.297-0.084-0.297 0.212-0.297-0.297-0.169 0.169-0.085 0.042-0.17-0.127-0.509 0.084-0.297-0.084-0.297 0.212-0.255 0.297-0.127 0.339 0.042 0.042-0.127-0.127-0.085v-0.509l-0.169-0.255 0.169-0.297 0.127 0.085v0.212l0.679-0.084 0.085-0.212-0.594-0.042-0.085-0.085v-0.17l0.34-0.127 0.212-0.169 0.212-0.467-0.297-0.594 0.297-0.042 0.34 0.085 0.254-0.127v-0.212l-0.297-0.382 0.382-0.467 0.085-0.382-1.062 0.722-0.082 0.07zm-2.207 3.74l0.424 0.424 0.127 0.467-0.764-0.297 0.042-0.339 0.127-0.212 0.044-0.04zm0.085-3.53l0.297-0.17 0.085-0.254-0.042-0.17-0.127-0.085-0.169 0.212-0.042 0.339v0.12zm0.212 7.47h0.17l0.085-0.255h-0.17l-0.085 0.17v0.09zm0.17-6.62h0.212v-0.17h-0.212v0.17zm0.212 1.44h0.254l0.085 0.127-0.212 0.424 0.042 0.127h-0.17l-0.127-0.297 0.085-0.339 0.043-0.04zm0.764 2.68h0.297l0.085-0.297-0.212-0.17-0.169 0.34v0.13zm1.359-6.11l0.212-0.679-0.042-0.127-0.169-0.085-0.127 0.297-0.042 0.382 0.085 0.17 0.083 0.04zm2.759 13.16l0.085 0.297h0.212l0.085-0.127-0.085-0.297h-0.212v0.085l-0.085 0.05z"/>
		<path d="m138.84 174.59l0.084 0.339-0.127 0.637-0.255 0.637-0.127 0.637-0.68 1.062-0.254 1.104-0.17 0.467h-0.128l-0.085 0.467-0.17 0.297v0.212l-0.127 0.085-0.085 0.297-0.127 0.127-0.043 0.255h-0.127v0.17h-0.085l-0.17 0.806-0.127 0.085-0.085 0.679-0.17 0.212-0.128 0.339-0.297 0.297-0.042 0.255-0.17 0.212-0.34 0.977v0.339l0.127 0.297 0.298 0.127 0.339-0.042 1.02-0.764 0.594-0.552 0.298-0.127 1.019-0.892 0.977-0.891 1.019-0.977 0.849-0.977 0.213-0.212 0.169-0.34 0.85-0.849v-0.212l0.509-0.467 0.213-0.51 0.424-0.467 0.722-1.104 0.553-0.297 0.679 0.042 0.425 0.339 0.17 0.425v0.297l-0.298 0.722-0.127 0.085-0.043 0.212h-0.085l-0.297 0.679-0.127 0.042-0.765 1.188-0.339 0.552-0.637 0.637-0.043 0.255-1.868 1.953-0.976 0.977-0.085 0.127h-0.213l-0.509 0.51-1.062 0.764-1.019 0.764-1.146 0.807-0.892 0.594h-0.17v0.127h-0.212v0.085h-0.17l-1.061 0.679-0.213 0.17h-0.127l-0.807 0.679-0.085 0.382-0.34 0.594-0.382 1.062-0.212 0.297-0.468 1.189-0.637 1.188-0.254 0.297-0.085 0.297-0.51 0.934-0.17 0.085-0.042 0.212-0.977 0.934-1.019 0.976-0.552 0.382-0.51 0.212v0.084l-1.316 0.382-1.358 0.127-1.358-0.17-0.934-0.467-1.104-1.104-0.127-0.424-0.127-0.127-0.254-1.231 0.169-0.679 0.042-0.722 0.34-0.892 0.849-1.061 0.212-0.297 0.807-0.552 0.552-0.424 0.212-0.042 0.51-0.425 0.595-0.297 0.637-0.17 0.127-0.127 1.146-0.552 1.23-0.424 0.425-0.17 0.722-0.509h0.127l0.552-0.467 0.425-0.509 0.34-0.679h0.085v-0.17h0.127l0.17-0.679-0.17-0.382-0.34-0.085-0.637 0.255-1.104 0.722-0.509 0.339-0.637 0.212-0.552 0.339-1.274 0.467-1.315 0.127-0.977 0.085-0.764-0.085-0.552-0.254h-0.213v-0.085l-0.254-0.212-0.255-0.042-0.891-0.976-0.425-0.722h-0.085l-0.169-0.764-0.127-0.085-0.297-1.316-0.169-0.637 0.084-1.358v-1.358l0.042-0.679 0.297-1.316 0.17-1.231 0.254-1.443 0.127-0.467-0.679-0.806-1.146-0.425-1.189-0.679-0.637-0.382-0.976-0.722-1.019-1.062-0.424-0.467v-0.17l-0.297-0.212v-0.17l-0.212-0.17-0.085-0.339-0.467-0.849-0.552-1.316-0.212-0.594-0.212-1.273v-2.759l0.255-1.316 0.085-0.679 0.424-0.764 0.722-1.062 0.254-0.722 0.934-0.891 0.722-0.722 0.042-0.17 0.552-0.34 0.467-0.467 0.595-0.339 0.552 0.042 0.891 0.722 0.595 0.976 0.042 0.34-0.34 0.509-1.104 0.849-0.127 0.297-1.019 1.019-0.424 0.467-0.34 0.552-0.169 0.679-0.255 0.552-0.17 0.722v1.316l-0.085 0.637 0.042 0.679 0.467 1.231 0.169 0.212 0.042 0.297 0.637 1.019 0.934 1.019 0.467 0.467 0.17 0.042 0.467 0.467 1.146 0.722 0.679 0.255 0.722-0.042 0.297-0.339 0.212-0.085v-0.297l0.552-0.892v-0.169l0.212-0.17 0.127-1.019 0.255-0.339v-0.297l0.128-0.127 0.212-0.637 0.297-0.382 0.043-0.17 0.254-0.212v-0.127l0.34-0.425 0.043-0.382 0.127-0.127 0.085-0.467h0.085v-0.212l0.212-0.212 0.043-0.212 0.127-0.042v-0.17h0.128l0.042-0.339 0.212-0.467 0.17-0.042 0.085-0.297 0.255-0.212 0.042-0.254 0.68-1.104 0.849-1.146 0.51-0.679 0.042-0.212 0.553-0.467v-0.17l0.254-0.212 0.128-0.297 0.212-0.085v-0.17l0.892-0.891 0.297-0.382 1.019-0.976 0.468-0.425 0.467-0.212 0.212-0.297 0.297-0.085 0.213-0.255 1.188-0.594 0.127-0.127h0.17l0.51-0.382 0.679-0.255 1.146-0.297 1.188-0.255h0.807l0.51-0.17h0.212l0.255 0.127h0.849v0.085l0.892 0.085 0.297 0.212 0.637 0.169 0.298 0.297h0.212l1.485 1.783 0.17 0.722 0.297 0.382 0.255 1.316 0.043 1.358-0.128 0.212v2.759l-0.212 0.425-0.085 0.552h-0.127v0.212h-0.085l-0.17 0.637-0.213 0.424-0.084 0.552h-0.085l-0.383 0.977-0.212 0.17-0.042 0.297-0.765 1.146-0.042 0.212-0.255 0.255-0.128 0.424-0.254 0.17-0.043 0.212-0.425 0.424v0.17l-0.976 0.891-0.34 0.425h-0.17l-0.425 0.467-0.169 0.042-0.298 0.34h-0.17l-1.061 0.849-1.146 0.807-0.127 0.127-0.298 0.042-0.637 0.509-1.23 0.424-1.231 0.51-0.934 0.212v0.085l-1.316 0.297-1.315 0.212-1.358 0.127-1.316 0.127-1.358-0.042h-0.637l-0.34 0.127-0.594 0.509v0.17l-0.297 0.594-0.085 0.594h-0.128l-0.042 0.637-0.17 0.382-0.212 1.231-0.17 1.358-0.043 1.443 0.213 1.273 0.382 0.594 0.509 0.509 0.552 0.297 0.255 0.042v0.085l0.68 0.042 1.315-0.212 0.595-0.255 0.255-0.212 0.424-0.127 0.255-0.212 0.51-0.17 0.467-0.382 0.595-0.34 1.019-0.976 1.019-0.892 0.934-0.976 0.85-1.019 0.127-0.127 0.212-0.594 0.213-0.254 0.127-0.51 0.213-0.212 0.042-0.382 0.127-0.042 0.468-1.316 0.339-0.552 0.467-0.382 1.274-0.51 0.637-0.127 0.212-0.127 0.594-0.085 0.553 0.127 0.12 0.08zm-18.55 3.74l0.085 0.297h0.212l0.085-0.297h-0.085v-0.085l-0.212 0.042-0.1 0.05zm0.17 5.94l-0.042 0.17 0.085 0.17 0.17 0.042 0.297-0.255-0.339-0.212-0.127 0.042-0.04 0.04zm0-10.57l0.297 0.17h0.339l0.297-0.127 0.042-0.34-0.382 0.042-0.467-0.212-0.085 0.424-0.04 0.05zm0.68 4.33l-0.127-0.297-0.254-0.17-0.085 0.17 0.17 0.297 0.254 0.042 0.04-0.04zm-0.08-5.48h0.212v-0.17h-0.212v0.17zm0.46 3.1h0.34l0.255-0.127-0.128-0.085h-0.339l-0.128 0.127v0.08zm0 2l0.298 0.085 0.382-0.17-0.085-0.339-0.213-0.17-0.382 0.509v0.08zm0 8.74l0.298 0.085 0.084-0.255-0.339 0.085-0.04 0.09zm0.22-14.3h0.254l0.17-0.382-0.127-0.297-0.128-0.085-0.254 0.425 0.042 0.254 0.05 0.1zm0.08 1.99l0.084 0.042 0.17-0.297 0.34-0.255v-0.17l-0.51-0.169-0.169 0.467 0.042 0.297 0.05 0.09zm0.38 12.78h0.297v-0.17l-0.212-0.212-0.085 0.297v0.08zm0.51-15.54l0.085-0.297-0.042-0.34-0.212-0.169-0.128 0.042v0.382l0.212 0.339 0.08 0.05zm0.77 1.96v-0.722l-0.425-0.17-0.17 0.085 0.043 0.169 0.212 0.127 0.043 0.17-0.425 0.255-0.043 0.169 0.298 0.297-0.043 0.212-0.467 0.212-0.085 0.297 0.043 0.17 0.297 0.127 0.34-0.084 0.085 0.127 0.169-0.042-0.254-0.764 0.552-0.297-0.17-0.36zm-0.22-4.29l-0.213-0.085-0.382 0.212-0.085 0.169v0.382l0.297 0.127 0.34-0.085 0.043-0.637v-0.07zm-0.3 7.3l0.085-0.297-0.042-0.382-0.213-0.382-0.17 0.297v0.34l0.128 0.339 0.127 0.085h0.08zm4.72 15.66h-0.382l-0.255 0.255-0.679 0.212-0.382 0.255-0.34 0.085-1.188 0.679-1.104 0.934-0.382 0.467-0.17 0.339-0.042 0.637 0.255 0.637 0.339 0.34 0.807-0.042 0.552-0.17v-0.085h0.213v-0.085h0.17v-0.127l0.254-0.042 0.255-0.34 0.383-0.17 0.849-1.146 0.679-1.146 0.213-0.17 0.212-0.637 0.043-0.382-0.255-0.212-0.04-0.07zm-4.88-20.08l0.34-0.042 0.043-0.255h-0.298l-0.085 0.212v0.08zm0.08-1.31l0.425 0.467 0.17 0.085 0.17-0.042 0.085-0.297-0.043-0.382-0.17-0.297-0.339-0.042-0.213 0.17-0.085 0.255v0.08zm0.38 16.6l0.084 0.297 0.85 0.042 0.127-0.127-0.127-0.212-0.17-0.085-0.722 0.042-0.04 0.04zm0.77-15.07l0.085-0.212-0.17-0.467h-0.595l0.043 0.382 0.255 0.297h0.37zm0.21-3.95l-0.042 0.17-0.17 0.127 0.085 0.297-0.17 0.849 0.127 0.297 0.128 0.085 0.042 0.297 0.34-0.127 0.51-0.339 0.297 0.169-0.382-0.594-0.085 0.085-0.213-0.085 0.043-0.085 0.255-0.084-0.213-1.358 0.128-0.212-0.128-0.34 0.213-0.254v-0.17l-0.255 0.042-0.128-0.212 0.085-0.382-0.169 0.085-0.298 0.552-0.127 0.509 0.382 0.042 0.043 0.127-0.17 0.339-0.128 0.085-0.042-0.339-0.085-0.127-0.255-0.042 0.043 0.255 0.297 0.254 0.04 0.05zm-0.38 2.8v0.127l0.34 0.085 0.085 0.127 0.127-0.084-0.127-0.297h-0.34l-0.08 0.03zm0.17 3.06l0.297 0.042 0.297-0.127 0.213-0.297-0.043-0.212-0.17-0.085-0.297 0.085-0.212 0.255-0.085 0.255v0.08zm1.65-4.04l-0.297 0.552v0.127l-0.34 0.637-0.127 0.595 0.085 0.084 0.042 0.297 0.552 0.255 1.443-0.085 1.231-0.17 1.315-0.212 0.043-0.085 1.23-0.254 0.383-0.255 0.382-0.085 0.212-0.169 0.467-0.042 0.298-0.212h0.297l0.17-0.212 1.104-0.509 1.062-0.807 0.976-0.934 1.02-0.977 0.722-0.679 0.085-0.255 0.254-0.254 0.128-0.255 0.297-0.212 0.255-0.552v-0.169l0.255-0.255 0.085-0.297 0.212-0.169 0.085-0.297 0.212-0.212 0.128-0.637 0.509-1.273 0.383-1.273 0.169-1.358-0.212-1.358-0.17-0.679-0.424-0.552-0.468-0.382-0.594-0.297-0.722-0.042-0.552 0.17-0.765 0.042-0.552 0.212-0.467 0.085-0.255 0.212-0.17 0.042-1.104 0.722-0.382 0.169-0.977 0.892-0.977 1.019-0.891 1.019-0.765 0.892v0.17l-0.467 0.509v0.17l-0.297 0.212v0.17l-0.892 1.104-0.085 0.042v0.212h-0.085v0.17h-0.085v0.212l-0.382 0.467-0.68 1.146v0.127h-0.085v0.17l-0.382 0.467-0.425 0.934-0.084 0.042-0.255-0.17h-0.213l0.043 0.212 0.212 0.17 0.128-0.042-0.468 1.231-0.339 0.637-0.06 0.04zm-0.21-5.09l-0.297 0.17h-0.255v0.212l0.255 0.382 0.339-0.042 0.043 0.127-0.128 0.297-0.297 0.17-0.127 0.212 0.127 0.127 0.043 0.255 0.807 0.17 0.254-0.085v-0.212l-0.467-0.382-0.085-0.17 0.425-0.255h0.34l0.17 0.085-0.085-0.297-0.68-0.085-0.17-0.297-0.042-0.339 0.127-0.425-0.297-0.084-0.085 0.127 0.085 0.212v0.13zm0 3.82l0.17-0.17-0.043-0.127-0.255 0.042 0.13 0.26zm0.68 6.45v-0.17l-0.212-0.085-0.042 0.17 0.127 0.085h0.12zm0.3-10.48h0.212l0.085-0.127-0.043-0.169-0.169-0.085-0.085 0.297v0.08zm0.17 9.42l0.212 0.042 0.382-0.212-0.042-0.17-0.255-0.297-0.17 0.085 0.042 0.085-0.212 0.339 0.04 0.14zm0.21 0.98l0.042 0.17h0.425l-0.042-0.17-0.128-0.085-0.255 0.042-0.05 0.04zm0.17-10.49h0.212l0.043-0.169-0.128-0.127-0.127 0.212v0.09zm0.68 31.46l-0.212-0.085-0.085 0.17h0.297v-0.08zm-0.09-33.07h0.213v-0.212h-0.213v0.21zm0.39 10.65l0.509 0.17 0.17-0.17-0.552-0.17-0.085 0.085-0.04 0.09zm0.67-10.78l0.043-0.34-0.213-0.212h-0.297l0.042 0.382 0.085 0.127 0.213 0.042h0.14zm-0.46 32.69l0.042 0.169 0.51 0.127v-0.212l-0.085-0.127h-0.425l-0.05 0.04zm0.55 1.14l0.127-0.297-0.042-0.297h-0.297l-0.085 0.339 0.212 0.255h0.09zm-0.09-2.2h0.17l0.425 0.212v-0.17l0.212-0.382-0.043-0.127-0.339-0.085-0.382 0.467-0.04 0.09zm2.3-6.33l-0.467 0.679-0.382 0.084-0.212 0.382v0.212l-0.34 0.127-0.128 0.127 0.213 0.212-0.128 0.085-0.12-0.04-0.255-0.424h-0.17l-0.085 0.212 0.043 0.34 0.382 0.382 0.637 0.34 0.17 0.254-0.127 0.382 0.339 1.061 0.128 0.085h0.212l-0.127-0.297 0.424-0.382 0.383 0.212 0.127-0.085-0.68-0.764-0.382-0.042-0.127-0.17 0.297-0.297h0.212l0.17-0.297 0.383-0.297 0.169 0.042 0.128 0.17-0.128 0.085-0.042 0.297-0.212 0.169 0.212 0.127 0.382-0.552 0.382-0.339 0.085-0.255-0.254-0.17-0.425-0.127-0.128-0.806 0.085-0.34 0.128-0.127v-0.169l-0.255-0.085h-0.49zm-1.91 3.74l-0.085 0.127 0.043 0.594 0.127 0.042 0.255-0.085 0.17 0.042 0.34 0.424h0.254l0.043-0.084-0.17-0.382h-0.127v-0.17l-0.34-0.594-0.595-0.297-0.085 0.085 0.128 0.212 0.05 0.1zm-0.09-31.33l0.128-0.042 0.212-0.254v-0.17l-0.17-0.127-0.212 0.467 0.04 0.12zm1.23-1.83l0.297 0.085-0.042-0.17-0.17-0.127-0.043 0.127-0.05 0.08zm0.09 34.9h0.212v-0.212h-0.212v0.21zm0.12-4.5h0.17v0.17h-0.17v-0.17zm0.39-15.71h0.17l0.128-0.254h-0.298v0.25zm0 19.36h0.17v-0.212h-0.17v0.21zm1.91-8.11l0.297 0.382-0.425 0.255-0.34 0.042-0.297 0.297v0.764l-0.594 0.255-0.128 0.254-0.042 0.382h0.552l0.17 0.509 0.212 0.127 0.255-0.17h0.552l0.127 0.255-0.042 0.424 0.552 0.255h0.212l0.128-0.637-0.043-0.594-0.127-0.085-0.297 0.212-0.213-0.084-0.212-0.212-0.467-0.127v-0.297l-0.383-0.17-0.042-0.212 0.977-0.17v-0.764l0.297-0.297v-0.212l-0.212 0.042-0.17-0.424h-0.3zm-1.53 3.19h0.17v-0.17h-0.17v0.17zm0.17-14.61h0.382l0.127-0.085v-0.212l-0.212-0.17-0.255 0.212-0.042 0.17v0.09zm0.29 10.27l0.34 0.255 0.382-0.255 0.042-0.169-0.467-0.042-0.255 0.127-0.04 0.08zm0.22-1.14l0.085 0.297 0.297-0.127 0.085-0.255-0.424 0.042-0.04 0.04zm0.85 2.29l-0.17-0.297-0.255-0.212-0.17-0.042-0.085 0.764h0.212l0.34-0.212h0.14zm-0.47-3.35h0.17v-0.17h-0.17v0.17zm0 7.51h0.17l0.213-0.212-0.17-0.085-0.213 0.17v0.12zm1.61-6.75l-0.085 0.169-0.212 0.127v0.467l-0.212 0.042-0.425-0.212-0.085 0.467 0.085 0.17 0.297 0.169 0.085 0.127v0.51l0.297 0.127 0.085 0.17-0.127 0.552 0.255-0.042 0.127-0.424 0.128-0.085v-0.679l0.085-0.212-0.68-0.084-0.085-0.297 0.127 0.042 0.638-0.34 0.084-0.339-0.084-0.424h-0.3zm-0.55 5.86l0.128 0.127-0.043 0.17h-0.212l0.085-0.212 0.04-0.09zm0.26-7l0.51 0.382 0.169 0.382h0.977v-0.339l-0.085-0.127-0.679 0.085-0.297-0.382-0.128-0.339-0.17-0.042v0.085l-0.255 0.212-0.04 0.09zm1.35-0.6v-0.339l-0.17-0.042 0.085 0.382h0.09zm0-0.46l0.085 0.085h0.17l0.212-0.255-0.212-0.085-0.213 0.17-0.05 0.09zm0.6-2.3l0.17-0.297-0.212-0.085-0.17 0.212 0.085 0.127 0.13 0.04zm0.17 3.36v-0.17l-0.382-0.127 0.043 0.212 0.127 0.127h0.127l0.08-0.04zm0.08-2.21v-0.212l-0.382-0.17 0.043 0.34 0.254 0.042h0.09zm0.13 0.47h0.297v-0.255h-0.212l-0.085 0.17v0.09zm5.26-22.5l0.085-0.297-0.255-0.085 0.085 0.382h0.09zm1.57 1.44v-0.17l-0.212-0.212-0.085 0.127 0.042 0.17 0.128 0.085h0.13zm0.17-0.08l0.212 0.297 0.298-0.085 0.042-0.127-0.212-0.255h-0.213l-0.084 0.085-0.05 0.08z"/>
		<path d="m161.94 166.27v0.679l-0.51 1.273-0.552 1.231-0.255 0.637-0.127 0.594-0.34 0.552-0.17 0.595h-0.085l-0.17 0.679-0.297 0.467-0.297 1.146h-0.085v0.212l-0.212 0.212-0.298 0.637-0.255 0.976-0.127 0.085-0.467 1.062-0.128 0.509-0.127 0.127-0.552 1.231-0.255 0.467-0.807 2.42-0.34 1.273-0.127 0.722v0.722l0.212 0.679 0.468 0.339h0.594l0.637-0.212 1.316-0.679 0.509-0.339 0.383-0.382 0.891-1.146 0.892-1.019 0.085-0.085v-0.212l0.255-0.255 0.68-0.976 0.127-0.085 0.085-0.297 0.382-0.297 0.34-0.679 0.255-0.17 0.212-0.594h0.085l0.085-0.212h0.085v-0.169l0.382-0.467 0.255-0.552 0.467-0.467 0.467-0.127 0.595 0.255 0.467 0.637 0.042 0.637-0.467 0.934-0.509 0.764-0.043 0.212-0.255 0.255-0.127 0.424-0.255 0.254-0.127 0.425-0.17 0.042-0.213 0.424-0.297 0.17-0.085 0.297-0.297 0.212-0.085 0.297-0.382 0.297-0.68 1.019-0.807 0.891v0.17l-1.019 0.892-0.382 0.382-0.297 0.085-0.213 0.297-0.297 0.085-0.51 0.509-0.552 0.297-0.255 0.255h-0.212v0.085l-0.255 0.042-0.722 0.339-1.315 0.17-1.358-0.17-0.722-0.169-0.85-0.425-0.467-0.509-0.764-1.231-0.212-0.17-0.468 0.042-0.637 0.637-0.255 0.042-0.721 0.722-0.298 0.085-0.255 0.212-0.254 0.042-0.51 0.382-0.892 0.424-1.273 0.085h-0.722l-0.425-0.085-0.085-0.085-0.679-0.084-0.467-0.467h-0.128l-0.467-0.509-0.255-0.467-0.212-0.085-0.34-1.062-0.085-0.722 0.043-0.806 0.297-1.358 0.68-2.717 0.17-0.637 0.212-0.297 0.042-0.255 0.213-0.297 0.212-0.552v-0.17l0.212-0.17 0.255-0.892 0.17-0.127 0.17-0.594 0.297-0.552 0.085-0.339 0.17-0.255 0.127-0.679 0.468-1.231 0.467-1.104 0.255-0.764 0.382-0.467 0.424-0.934 0.085-0.637 0.213-0.255 0.255-0.976h0.085l0.467-1.231 0.424-0.509 0.595-0.212 0.764 0.042 1.358-0.169 0.17 0.042v0.084l0.467 0.297 0.085 0.297-0.127 0.721-0.425 1.104v0.085l-0.212 0.127v0.169l-0.212 0.297-0.34 1.188-0.51 1.231-0.17 0.467-0.212 0.212v0.17l-0.17 0.297v0.169l-0.297 0.51-0.467 1.401-0.34 0.891-0.212 0.297-0.043 0.297h-0.085l-0.382 1.062-0.297 0.849-0.34 0.679-0.043 0.297-0.212 0.255-0.382 1.146-0.085 0.424-0.467 1.146-0.467 1.358-0.17 0.722-0.043 0.594 0.425 0.637 0.51 0.339h0.339l0.68-0.254 0.382-0.297h0.212l0.892-0.934 1.019-0.977 0.892-1.061 0.298-0.34v-0.17l0.254-0.212 0.043-0.297 0.552-0.764 0.212-0.17v-0.212l0.213-0.127v-0.17l0.17-0.085v-0.169h0.127l0.042-0.297 0.383-0.594 0.509-1.231 0.68-1.231 0.467-1.231 0.255-0.807 0.297-0.552 0.085-0.509 0.51-1.273 0.212-0.594 0.34-0.637 0.467-1.316 0.297-0.594 0.085-0.34 0.212-0.339 0.51-1.231 0.382-0.594 1.316-0.127 0.637-0.127h0.679l0.34 0.084 0.212 0.17 0.128 0.255 0.12 0.05zm-17.49 18.93l-0.468 0.424-0.297 0.552v0.34h0.17l0.127-0.297 0.17-0.084 0.17 0.297h0.213l0.169-0.212v-0.637l0.383-0.084-0.085-0.51-0.213 0.042-0.382-0.424h-0.17l0.213 0.467v0.12zm-0.68-2.12l0.128 0.085 0.424-0.085v-0.212l-0.509 0.17-0.04 0.04zm0.17 1.15l0.297-0.339v-0.212l-0.297-0.127-0.17 0.297 0.085 0.339 0.08 0.04zm0.51-4.89l0.254-0.127v-0.085h-0.169l-0.043 0.127-0.04 0.09zm0 7.6h0.382l0.127-0.084 0.043-0.212-0.425 0.085-0.085 0.127-0.05 0.07zm0.63-5.6h0.212l0.212-0.17-0.042-0.17-0.297-0.212-0.128 0.042v0.425l0.05 0.08zm1.28-3.35l0.042-0.297-0.085-0.17-0.255-0.127-0.084 0.297 0.084 0.17 0.213 0.127h0.09zm1.91-5.69v-0.17l-0.128-0.085-0.127 0.085 0.042 0.17h0.22zm1.44-3.27l0.127 0.085h0.212l0.128-0.085v-0.085l-0.255-0.17-0.17 0.17-0.04 0.07zm1.66 14.73l0.255 0.085 0.425-0.594-0.213-0.17h-0.212l-0.085-0.255-0.17-0.042-0.127 0.297v0.382l0.085 0.255 0.05 0.04zm3.65-4.92l-0.509 0.467-0.255-0.085 0.042 0.212h0.298l0.127 0.085-0.085 0.127-0.212-0.042-0.213 0.212h-0.084l-0.128-0.297h-0.127l-0.298 0.764 0.255 0.212 0.213 0.467-0.17 0.297-0.68-0.382-0.509 0.467-0.043 0.127-0.34 0.34v0.212l0.085 0.084 0.255-0.042 0.127-0.127h0.298l0.17-0.509 0.127-0.085 0.127 0.127 0.34 0.085 0.043 0.085h0.552l0.255 0.382h0.212l0.085-0.212-0.255-0.467 0.255-0.212 0.425-0.17-0.043-0.212-0.255-0.169v-0.17l-0.297-0.127 0.042-0.382 0.17-0.17 0.298-0.127 0.169-0.17-0.084-0.042 0.084-0.042-0.127-0.34-0.255-0.17h-0.1zm-2.51 4.03h0.297l-0.127-0.254h-0.17v0.25zm0 1.36l0.17 0.297-0.085 0.297 0.297 0.17-0.085 0.51 0.552 0.084 0.17 0.255 0.34 0.127 0.17-0.085 0.212-0.637 0.17-0.255 0.424 0.17 0.17-0.085-0.042-0.17-0.552-0.212v-0.17l-0.213-0.297-0.042-0.297h-0.212l-0.085 0.085 0.17 0.806-0.17 0.085-0.425-0.849 0.255-0.127 0.042-0.17-1.061-0.085-0.17 0.467v0.1zm1.45-2.51h-0.298l-0.085 0.297-0.382 0.042-0.127 0.127-0.085 0.467 0.085 0.127h0.17l0.254-0.17h0.255v0.085l0.213 0.169-0.043 0.17-0.509 0.085-0.043 0.255 0.297 0.042 1.062-0.807-0.042-0.17-0.68-0.637-0.04-0.08zm-0.98 2.89l0.255 0.085v0.339l-0.255 0.042v-0.47zm0.38 1.74l-0.255-0.085-0.042 0.17 0.17 0.085 0.127-0.085v-0.09zm0-1.06h0.51l-0.043 0.17-0.34 0.127-0.127-0.084v-0.22zm0.51 2.04l0.297-0.127 0.17-0.382-0.467 0.212-0.043 0.212 0.04 0.09zm2.85-11.17l-0.042 0.297-0.128 0.085 0.17 0.679-0.425 0.212-0.212-0.042-0.127-0.254v-0.212l-0.213-0.17-0.127-0.297-0.043-0.382-0.212 0.042-0.127 0.127 0.042 0.297 0.297 0.297v0.382l-0.382 0.212v0.085l0.255 0.17 0.042 0.212-0.127 0.127-0.679-0.042-0.255 0.084 0.042 0.17 0.298 0.297 0.806-0.17 0.043 0.552 0.127 0.297 0.213 0.212 0.212 0.085 0.085-0.212-0.085-0.127v-0.212l0.255-0.212 0.085-0.467-0.17-0.212 0.382-0.169v-0.212l0.128-0.339 0.382-0.425-0.085-0.17 0.34-0.509 0.042-0.297-0.679 0.212h-0.14zm-1.83 7.09l0.34-0.042 0.042-0.212-0.34 0.085-0.042 0.085v0.09zm0.81-2.76h0.17v-0.212h-0.17v0.21zm0.76-5.77l-0.212 0.255-0.297 0.17-0.043 0.169 0.085 0.127 0.255 0.042v-0.212l0.085-0.127 0.297-0.127 0.213-0.212-0.298-0.085h-0.09zm-0.21 2.88l0.212 0.085-0.127 0.212-0.17-0.127 0.09-0.16zm0-3.73h0.212l0.043-0.17-0.17-0.127-0.085 0.212v0.09zm1.15 0.38v0.255l0.637 0.169 0.042-0.424-0.467-0.127-0.127 0.042-0.08 0.09zm0.38-1.57l0.297 0.764 0.382-0.042 0.34-0.297 0.043-0.212-0.128-0.212-0.17-0.085-0.722 0.042-0.04 0.04zm0.29-1.32l0.212-0.679h-0.254l-0.17 0.297 0.085 0.297 0.085 0.042 0.05 0.04z"/>
		<path d="m163.13 187.2l-0.127-0.085-0.085-0.339-0.468-0.934-0.042-1.358v-0.637l0.382-1.316 0.085-0.977 0.51-1.188 0.212-1.146h0.127v-0.17h0.085v-0.212h0.085l0.425-1.104 0.043-0.34 0.127-0.084v-0.127l0.127-0.17 0.255-0.849h0.085v-0.212h0.085v-0.17h0.127v-0.212h0.085l0.17-0.679 0.128-0.085 0.339-1.188 0.383-0.722 0.424-1.273 0.298-0.509 0.509-1.358 0.425-1.104 0.127-0.085 0.043-0.297 0.552-1.273 0.212-0.425 1.104-0.849 0.34-0.042 0.128 0.085 0.679-0.085 0.722 0.127 0.595 0.34 0.254 0.552-0.127 0.594-0.255 0.637v0.17l-0.212 0.255-0.085 0.297-0.212 0.297-0.085 0.679h-0.085l-0.085 0.339-0.128 0.127-0.127 0.467-0.085 0.084-0.042 0.51-0.213 0.424-0.212 0.127-0.043 0.254-0.254 0.255-0.468 1.316-0.509 1.188-0.255 0.637-0.127 0.127-0.255 0.934-0.128 0.127-0.424 1.188-0.255 0.552-0.425 1.316-0.637 1.273-0.17 0.679-0.382 1.019-0.34 1.316v0.637l0.34 1.061 0.255 0.212 0.34 0.085 0.552-0.127 0.17-0.127 0.637-0.212 1.061-0.764 0.17-0.127v-0.085l0.297-0.127 0.085-0.169 1.02-0.892 0.722-0.849 0.085-0.297 0.382-0.382 0.085-0.297 0.849-0.977 0.849-1.019 0.468-0.934 0.254-0.255 0.34-0.552 0.043-0.212h0.085l0.085-0.297 0.424-0.552 0.382-0.297 0.637 0.17 0.553 0.424 0.169 0.637v0.297l-0.594 1.146-0.212 0.17v0.212h-0.085l-0.298 0.595-0.807 1.061-0.382 0.552-0.17 0.425-0.17 0.084-0.127 0.297-0.17 0.085-0.085 0.297-0.509 0.382-0.085 0.297-0.722 0.934-0.935 1.019-0.424 0.552-0.425 0.212-0.17 0.255-0.509 0.17-0.043 0.17-0.255 0.085-0.17 0.254h-0.17l-0.084 0.127-0.213 0.042-0.127 0.212h-0.17l-0.085 0.169h-0.3l-0.085 0.127-1.146 0.297-1.4 0.467-1.316-0.212-0.764-0.212-0.425-0.212-0.595-0.679-0.03-0.05zm0.97-3.36l0.509-0.127 0.043-0.17-0.297-0.085-0.255 0.212v0.17zm2.76-5.98v-0.17l-0.127-0.085h-0.255v0.17l0.085 0.085h0.3zm-0.08-3.52l0.128 0.085 0.424-0.212h0.298l0.042-0.382-0.212-0.085-0.043 0.17-0.127 0.084-0.425 0.042-0.085 0.17v0.14zm1.27 1.91l-0.042-0.17-0.382-0.212-0.085 0.297 0.255 0.17 0.169-0.042 0.08-0.05zm1.7-7.9l-0.042 0.127-0.34-0.042-0.043 0.169-0.339 0.042-0.17 0.297v0.17l0.17-0.042 0.212-0.255 0.34 0.637-0.17 0.255-0.128 0.042-0.424-0.212-0.128 0.085v0.17l0.128 0.084 0.339 0.042 0.128 0.085-0.34 0.34-0.34 0.042-0.212 0.297-0.17 0.085-0.212-0.085-0.297 0.085-0.043 0.297 0.085 0.169h0.212l0.17-0.254 0.17-0.042-0.127 0.637 0.127 0.34h0.51l-0.043-0.637 0.128-0.424-0.213-0.212v-0.084l0.128-0.085 0.637 0.127 0.212-0.042 0.212 0.509 0.553-0.127-0.425-0.892-0.043-0.637 0.17-0.085 0.128 0.127 0.255 0.042v-0.212l0.127-0.339 0.17-0.042v-0.255h-0.085l-0.043 0.17-0.254 0.127-0.085-0.127v-0.382l-0.17 0.042-0.34-0.127h-0.12zm-1.83 5.86l0.212 0.127 0.085-0.212-0.17-0.085-0.085 0.127-0.04 0.04zm0 1.44l0.17 0.085 0.212-0.085v-0.085l-0.127-0.085-0.213 0.085-0.04 0.07zm0.68-2.67l-0.297-0.085-0.17-0.297h-0.085l0.255 0.51 0.128 0.042 0.127-0.085 0.04-0.08zm0.6-1.53l-0.212 0.17 0.297 0.594 0.594-0.297h0.34l0.213-0.085v-0.212l-0.213-0.212-0.34-0.17-0.212 0.255h-0.382l-0.09-0.03zm-0.22 1.06l0.127 0.297 0.34 0.085-0.043-0.339-0.339-0.17v0.085l-0.09 0.03zm3.87-13.97l0.085-0.085 1.146 0.085 0.977 0.764 0.297 0.637 0.17 0.637-0.128 0.637-0.722 1.104-0.509 0.509-0.637 0.212-0.68 0.042-0.509-0.127-0.51-0.34-0.297-0.297-0.085-0.255-0.213-0.127-0.339-0.807 0.042-0.339-0.127-0.594 0.297-0.637 0.849-0.934 0.765-0.085h0.11zm-0.51 2.59l0.297-0.127 0.085-0.255-0.255-0.085-0.127 0.382v0.09zm1.19 0l-0.128 0.127 0.043 0.212 0.255 0.17 0.042-0.17 0.382-0.552 0.043-0.17-0.255-0.17-0.17 0.042-0.212 0.425v0.09zm-0.13 1.57l0.128 0.085 0.34-0.042 0.127-0.085v-0.254l-0.552 0.212-0.05 0.08z"/>
		<path d="m193.52 166.91l0.128 0.297-0.085 0.552-0.297 0.849-0.128 0.042v0.17h-0.127v0.212h-0.085v0.17l-0.297 0.509-0.467 1.316-0.51 1.019-0.212 0.594-0.17 0.255-0.128 0.679-0.127 0.255-0.043 0.339-0.637 1.188-0.254 0.637-0.128 0.127-0.255 1.104-0.339 0.722h-0.085v0.212h-0.085v0.17h-0.085v0.212h-0.128v0.212h-0.085v0.17h-0.085l-0.127 0.552-0.17 0.297v0.424l-0.382 1.019-0.382 1.104-0.085 0.467h-0.128l-0.339 1.4 0.042 0.637 0.51 0.934 0.339 0.085 0.043 0.085 0.679-0.127 0.298-0.127 0.085-0.127 0.807-0.339 0.127-0.212h0.212l0.298-0.382h0.169l0.977-0.977 0.043-0.254 0.637-0.51 0.085-0.297 0.467-0.467 0.042-0.254 0.977-0.934 0.425-0.552 0.085-0.297 0.212-0.17v-0.212l0.212-0.085v-0.212l0.17-0.084v-0.17l0.213-0.127v-0.17l0.17-0.085 0.042-0.254 0.34-0.425 0.085-0.297 0.212-0.212v-0.17l0.212-0.084 0.043-0.255 0.425-0.509 0.297-0.17 0.425-0.042 0.552 0.382 0.339 0.595v0.721l-0.382 0.51-0.042 0.297-0.722 1.146-0.552 0.976-0.255 0.255-0.085 0.254-0.467 0.51-0.68 1.019-0.255 0.255-0.085 0.297-1.019 0.892-0.425 0.552-0.169 0.085-0.892 0.934-1.062 0.976-0.212 0.212h-0.17v0.085l-0.68 0.467h-0.212v0.127l-1.273 0.34-1.316 0.339h-0.679l-0.127-0.085-0.213 0.042-1.104-0.424-0.17-0.212-0.255-0.042-0.382-0.509-0.17-0.085-0.637-1.104-0.212-0.212-0.213-0.042-0.297 0.127-0.297 0.382-0.255 0.085-0.637 0.552-0.594 0.34h-0.17v0.127l-0.298 0.084-0.085 0.17h-0.212v0.127l-0.934 0.127-1.062 0.339-0.679 0.127-0.807-0.042-0.468-0.127-0.806-0.424-0.51-0.509-0.382-0.509-0.085-0.297-0.128-0.042-0.339-0.934-0.17-0.594-0.17-1.316 0.17-1.273 0.042-0.509h0.085l0.212-1.316 0.085-0.127 0.085-1.062 0.34-0.934 0.382-1.358 0.425-1.316 0.297-0.892h0.085v-0.212h0.085v-0.169h0.128v-0.212h0.085v-0.17h0.084l0.085-0.594h0.085l0.213-0.764h0.085l0.127-0.467 0.17-0.085v-0.17l0.212-0.127v-0.212l0.17-0.085v-0.212l0.17-0.042 0.085-0.254 0.127-0.085 0.552-1.188 0.765-0.764 0.17-0.425 0.255-0.212 0.339-0.594 0.425-0.51 0.297-0.212 0.213-0.297 1.061-0.722 0.128-0.127 1.23-0.467 0.595-0.17 1.358 0.042h0.382l0.212-0.085 0.34 0.042 1.146 0.679 0.849 0.977 0.298 0.552 0.594 0.679 0.51 0.042 1.188-0.679 0.17-0.212h0.212v-0.085l1.188-0.467 0.595-0.127 0.255 0.127 0.1 0.02zm-17.02 15.19l0.297-0.127 0.085-0.17-0.043-0.212-0.17-0.085-0.169 0.51v0.09zm0.76-6.15h0.34l0.042-0.212h-0.17l-0.17 0.127-0.04 0.08zm2.51 9.13l0.085-0.085h0.297l0.17-0.254 0.339-0.085 0.34-0.34 0.382-0.127v-0.09l0.34-0.127 0.17-0.255 0.297-0.127 0.892-1.061 0.382-0.382 0.043-0.254 0.212-0.127v-0.17l0.17-0.085 0.085-0.297 0.382-0.637 0.467-1.231 0.595-1.231 0.934-2.462 0.34-0.934 0.595-1.231 0.382-1.273 0.085-1.358 0.085-0.679-0.213-0.552-1.104-0.764-0.977-0.127-1.061 0.382-0.383 0.085-0.084 0.212-0.255 0.042-0.977 0.977-0.085 0.254-0.51 0.51-0.382 0.594-0.255 0.254-0.127 0.34-0.127 0.127v0.169l-0.17 0.297-0.128 0.085v0.297l-0.722 1.189-0.127 0.254v0.17l-0.213 0.212-0.424 1.273-0.425 1.146-0.042 0.127-0.17 0.127v0.169l-0.255 0.425-0.17 1.358-0.34 1.231-0.382 1.273-0.085 0.934h0.085l0.212 1.146 0.383 0.34 0.17 0.254 1.188 0.085h0.08zm-2.04-10.96h0.17l0.127-0.127v-0.254h-0.169l-0.128 0.297v0.08zm2.42-2.88l-0.128 0.042-0.085 0.34 0.128 0.085 0.467-0.212 0.085-0.17-0.382-0.169-0.09 0.09zm2.97-2.89h0.382l-0.043-0.212-0.127-0.085-0.212 0.17v0.12zm1.66 13.54l0.085 0.382-0.382 0.042-0.085 0.085v0.17l0.127 0.085h0.807l-0.17-0.467 0.17-0.254v-0.127l-0.51 0.042-0.05 0.04zm0 1.15l0.127 0.34 0.425 0.339 0.085-0.297-0.043-0.297-0.339-0.17-0.17 0.042-0.09 0.05zm0.46-15.67l-0.042-0.339-0.085-0.127h-0.17l-0.085 0.17 0.127 0.254 0.17 0.042h0.08zm-0.08 14.05l0.382-0.042 0.17-0.255-0.127-0.297-0.128-0.085h-0.212l-0.085 0.595v0.08zm0.93 2.3v-0.212l0.17-0.212 0.043-0.255-0.382-0.085-0.17 0.297 0.042 0.339 0.213 0.127h0.09zm-0.25 1.44l0.127 0.127 0.297 0.042 0.595-0.17-0.127-0.34-0.298-0.169h-0.297l-0.297 0.382v0.13zm0.08-5.26h0.169l0.213-0.212v-0.297l-0.297 0.127-0.085 0.297v0.08zm0.38-1.83l-0.297 0.552 0.297 0.127v0.085l0.17-0.042 0.127-0.169 0.382 0.212 0.085-0.127v-0.552l-0.424-0.169-0.213 0.042-0.13 0.04zm-0.21 3.14l0.298-0.127 0.085-0.255-0.128-0.085-0.297 0.17v0.212l0.04 0.09zm0 3.1h0.213v-0.21h-0.213v0.21zm0.77-1.27v-0.17l-0.127-0.084h-0.34l-0.043 0.127 0.085 0.127h0.42zm-0.26 3.01l0.17 0.085 0.085-0.212-0.17-0.085-0.042 0.127-0.05 0.08zm0.55-6.07v0.169l0.297 0.127 0.298-0.127v-0.084l-0.298-0.17-0.212 0.042-0.09 0.04zm0.09-0.38l0.297 0.085 0.255-0.212 0.043-0.339-0.34 0.042-0.212 0.339-0.05 0.09zm1.95-5.56l-0.51-0.127-0.297 0.169-0.34 0.042-0.127 0.085v0.382l0.127 0.084 0.085-0.169 0.127-0.042 0.213 0.127 0.255 0.339 0.084 0.255-0.212 0.297-0.467-0.467-0.212-0.042-0.213 0.382 0.043 0.297 0.339 0.085 0.255 0.339-0.042 0.934-0.255 0.212-0.51 0.169 0.213 0.425 0.17 0.042 0.254-0.509 0.51-0.425 0.127 0.085 0.17-0.085v-0.594l-0.17-0.594 0.213-0.212 0.127-0.297-0.042-0.552 0.085-0.169 0.297-0.17 0.34-0.042 0.042-0.085h-0.085v-0.339l-0.085-0.085-0.51 0.24zm-1.65 2.67l0.51 0.085v-0.169l-0.212-0.212-0.255 0.212-0.04 0.08zm0.29 2.13l0.212-0.509-0.51-0.085v0.212l0.213 0.339 0.09 0.05zm0 2.12l-0.255-0.085-0.043 0.17 0.17 0.085 0.128-0.085v-0.1zm0.39-3.02l0.212 0.127 0.085-0.212-0.212-0.085-0.09 0.16zm0.08-4.79l0.17 0.254 0.339 0.127v-0.254l0.128-0.255-0.085-0.085 0.042-0.34h-0.212l-0.382 0.425v0.13zm0.98-2.13h0.467v-0.17l-0.085-0.085-0.382 0.17v0.09zm0 1.74l0.17 0.212h0.509v-0.424l-0.297-0.127-0.212 0.042-0.17 0.212v0.09zm0.38-0.67h0.212l0.085-0.297h-0.297v0.3zm0.46 1.14h0.51v-0.17h-0.51v0.17zm0.81-3.65h0.17v-0.255h-0.17v0.26z"/>
	</g>
	<g fill="#FFFAD2">
		<path d="m96.424 269.05c-0.219 0.574-0.438 1.148-0.66 1.722-0.322-0.054-0.644-0.11-0.966-0.166 1.113-2.842 2.197-5.692 3.25-8.55 0.48 0.079 0.96 0.155 1.441 0.23 0.112 3.044 0.255 6.089 0.43 9.136-0.35-0.05-0.7-0.102-1.049-0.155-0.031-0.614-0.062-1.228-0.091-1.841-0.786-0.12-1.571-0.24-2.355-0.37zm0.274-0.83c0.688 0.114 1.376 0.224 2.065 0.33-0.087-1.76-0.164-3.519-0.229-5.277-0.603 1.65-1.215 3.3-1.836 4.95z"/>
		<path d="m108.63 267.43c-0.029 0.298-0.057 0.596-0.086 0.893-0.752-0.072-1.504-0.15-2.256-0.232-0.116 1.057-0.232 2.115-0.348 3.172 0.94 0.103 1.881 0.199 2.823 0.286-0.028 0.302-0.056 0.604-0.085 0.906-1.298-0.121-2.595-0.257-3.891-0.407l1.032-8.913c1.23 0.142 2.46 0.271 3.692 0.386-0.028 0.302-0.056 0.604-0.085 0.906-0.903-0.084-1.805-0.176-2.707-0.275-0.111 1.015-0.223 2.03-0.334 3.045 0.77 0.08 1.52 0.16 2.27 0.23z"/>
		<path d="m116.3 264.02c1.412 0.072 1.976 0.809 1.924 2.142-0.01 0.243-0.02 0.487-0.029 0.73-0.039 0.986-0.419 1.588-1.224 1.794 0.834 0.282 1.127 0.96 1.089 1.921-0.019 0.465-0.037 0.931-0.056 1.396-0.016 0.397-0.018 0.769 0.147 1.083-0.357-0.014-0.714-0.029-1.071-0.045-0.111-0.262-0.154-0.495-0.126-1.096 0.022-0.47 0.043-0.939 0.065-1.409 0.046-1.011-0.43-1.353-1.291-1.399-0.243-0.013-0.486-0.027-0.729-0.041-0.074 1.275-0.149 2.551-0.223 3.826-0.352-0.021-0.705-0.042-1.057-0.065 0.192-2.985 0.384-5.969 0.576-8.954 0.66 0.03 1.33 0.07 2 0.11zm-0.49 4.21c0.818 0.044 1.318-0.192 1.362-1.164 0.013-0.286 0.026-0.572 0.04-0.858 0.037-0.807-0.242-1.242-0.991-1.281-0.327-0.017-0.655-0.035-0.982-0.054-0.064 1.105-0.129 2.209-0.193 3.314 0.25 0.01 0.51 0.02 0.76 0.04z"/>
		<path d="m123.12 266.4c0.017-1.372 0.71-2.245 2.083-2.246 1.387-0.003 2.082 0.868 2.102 2.24 0.021 1.547 0.043 3.093 0.064 4.64 0.021 1.357-0.685 2.269-2.154 2.272-1.454 0.001-2.164-0.909-2.147-2.266 0.02-1.54 0.04-3.09 0.06-4.63zm0.98 4.7c-0.005 0.82 0.357 1.297 1.114 1.296 0.77-0.001 1.118-0.48 1.111-1.299-0.012-1.581-0.025-3.162-0.037-4.743-0.007-0.808-0.348-1.291-1.084-1.289-0.724 0.001-1.075 0.485-1.08 1.292 0 1.58-0.01 3.16-0.02 4.74z"/>
		<path d="m132.47 273.06c-0.128-2.988-0.255-5.976-0.383-8.964 0.335-0.014 0.669-0.03 1.003-0.046 0.131 2.684 0.262 5.368 0.393 8.052 0.899-0.044 1.798-0.095 2.696-0.152 0.019 0.303 0.039 0.606 0.058 0.908-1.26 0.07-2.51 0.14-3.77 0.2z"/>
		<path d="m141.99 270.57c-0.061 0.611-0.124 1.223-0.188 1.834-0.325 0.031-0.65 0.062-0.975 0.091 0.334-3.033 0.637-6.067 0.909-9.1 0.483-0.049 0.966-0.1 1.448-0.153 0.899 2.91 1.829 5.813 2.79 8.71-0.351 0.042-0.702 0.083-1.053 0.124-0.19-0.585-0.378-1.169-0.566-1.755-0.78 0.09-1.57 0.18-2.36 0.25zm0.05-0.87c0.692-0.069 1.384-0.142 2.076-0.219-0.541-1.676-1.072-3.355-1.593-5.036-0.16 1.76-0.32 3.51-0.49 5.26z"/>
		<path d="m151.52 262.11c1.387-0.225 2.049 0.331 2.276 1.633l0.072 0.417c0.162 0.934-0.009 1.564-0.767 1.938 0.928 0.091 1.388 0.712 1.558 1.684 0.043 0.248 0.087 0.497 0.13 0.745 0.233 1.324-0.32 2.193-1.786 2.432-0.721 0.117-1.443 0.229-2.164 0.336-0.441-2.958-0.881-5.916-1.322-8.874 0.67-0.1 1.34-0.2 2-0.31zm0.36 3.8c0.809-0.13 1.184-0.454 1.029-1.376-0.029-0.173-0.058-0.345-0.087-0.518-0.132-0.784-0.464-1.117-1.182-1.001-0.329 0.053-0.658 0.105-0.987 0.156 0.148 0.954 0.296 1.908 0.444 2.862 0.27-0.04 0.53-0.08 0.79-0.12zm0.98 4.15c0.762-0.124 1.046-0.562 0.907-1.384l-0.132-0.783c-0.167-0.986-0.628-1.245-1.506-1.103-0.297 0.048-0.594 0.095-0.891 0.141l0.513 3.306c0.37-0.07 0.74-0.13 1.11-0.19z"/>
	</g>
	<g fill="#FFFAD2">
		<path d="m55.964 88.343c0.036 0.238 0.071 0.475 0.107 0.713-0.284 0.043-0.569 0.086-0.853 0.129-0.038-0.253-0.077-0.505-0.115-0.758-0.108-0.713-0.463-1.099-1.122-0.997-0.648 0.1-0.881 0.577-0.769 1.289 0.218 1.395 0.436 2.789 0.654 4.184 0.111 0.712 0.475 1.095 1.113 0.997 0.65-0.1 0.869-0.573 0.761-1.286-0.052-0.343-0.104-0.686-0.157-1.03 0.283-0.043 0.566-0.086 0.848-0.128 0.049 0.328 0.099 0.656 0.148 0.985 0.179 1.2-0.271 2.077-1.499 2.265-1.217 0.188-1.911-0.512-2.101-1.71l-0.648-4.092c-0.191-1.198 0.263-2.082 1.504-2.274 1.252-0.193 1.95 0.514 2.129 1.713z"/>
		<path d="m61.792 85.556c1.277-0.173 1.896 0.393 2.051 1.572 0.029 0.216 0.057 0.431 0.085 0.647 0.115 0.873-0.124 1.459-0.785 1.767 0.765 0.117 1.119 0.671 1.231 1.522 0.054 0.412 0.109 0.824 0.163 1.236 0.046 0.352 0.102 0.679 0.286 0.932-0.3 0.04-0.601 0.079-0.901 0.12-0.133-0.213-0.206-0.411-0.278-0.944-0.056-0.416-0.112-0.832-0.167-1.248-0.12-0.896-0.583-1.123-1.33-1.021-0.211 0.029-0.421 0.058-0.632 0.087l0.468 3.39c-0.297 0.041-0.593 0.082-0.89 0.124-0.371-2.644-0.742-5.289-1.113-7.933 0.605-0.086 1.208-0.169 1.812-0.251zm0.279 3.773c0.714-0.097 1.109-0.381 0.994-1.243-0.034-0.253-0.068-0.507-0.102-0.76-0.096-0.715-0.412-1.054-1.084-0.962-0.294 0.04-0.587 0.08-0.88 0.121 0.135 0.979 0.271 1.957 0.406 2.936 0.221-0.031 0.444-0.062 0.666-0.092z"/>
		<path d="m68.95 84.639c0.318 2.651 0.636 5.302 0.954 7.954-0.297 0.036-0.594 0.072-0.891 0.108-0.323-2.651-0.647-5.301-0.97-7.952 0.302-0.037 0.605-0.074 0.907-0.11z"/>
		<path d="m75.402 91.968c-0.256-2.386-0.512-4.771-0.769-7.157-0.5 0.054-0.999 0.108-1.499 0.163-0.03-0.269-0.06-0.538-0.089-0.808 1.299-0.144 2.599-0.282 3.899-0.415 0.028 0.269 0.055 0.539 0.082 0.808-0.5 0.051-1 0.103-1.499 0.155 0.251 2.386 0.503 4.772 0.754 7.159-0.292 0.032-0.586 0.063-0.879 0.095z"/>
		<path d="m84.264 86.625c0.023 0.266 0.046 0.532 0.069 0.798-0.658 0.057-1.316 0.115-1.973 0.175l0.258 2.838c0.803-0.073 1.605-0.144 2.408-0.212 0.023 0.27 0.046 0.54 0.069 0.81-1.099 0.094-2.198 0.192-3.297 0.294-0.247-2.659-0.494-5.318-0.74-7.976 1.118-0.104 2.237-0.203 3.356-0.299 0.023 0.27 0.046 0.54 0.069 0.81-0.814 0.069-1.628 0.141-2.443 0.215 0.082 0.908 0.165 1.816 0.247 2.724 0.659-0.062 1.318-0.12 1.977-0.177z"/>
		<path d="m90.573 82.569c1.284-0.092 1.864 0.513 1.943 1.7 0.015 0.217 0.029 0.434 0.044 0.651 0.059 0.879-0.217 1.448-0.895 1.713 0.755 0.165 1.072 0.741 1.13 1.597 0.028 0.415 0.056 0.829 0.084 1.244 0.024 0.354 0.058 0.685 0.226 0.948-0.302 0.02-0.604 0.041-0.906 0.062-0.119-0.221-0.179-0.424-0.217-0.96-0.029-0.419-0.058-0.837-0.087-1.256-0.063-0.902-0.51-1.158-1.26-1.104-0.212 0.015-0.423 0.031-0.635 0.046 0.084 1.138 0.168 2.275 0.251 3.413-0.298 0.022-0.596 0.044-0.894 0.067-0.201-2.663-0.403-5.325-0.604-7.988 0.607-0.045 1.213-0.09 1.82-0.133zm0.038 3.783c0.717-0.052 1.129-0.309 1.069-1.177-0.018-0.255-0.035-0.51-0.053-0.765-0.05-0.719-0.344-1.078-1.019-1.029-0.295 0.021-0.59 0.043-0.885 0.064 0.073 0.985 0.145 1.971 0.218 2.956 0.223-0.017 0.446-0.033 0.67-0.049z"/>
		<path d="m97.764 82.111c0.148 2.666 0.297 5.332 0.445 7.998-0.298 0.017-0.596 0.033-0.894 0.051-0.154-2.666-0.308-5.332-0.461-7.997 0.303-0.018 0.606-0.035 0.91-0.052z"/>
		<path d="m102.22 83.821c-0.057-1.223 0.526-2.041 1.776-2.094 1.263-0.053 1.911 0.714 1.957 1.938l0.156 4.14c0.045 1.212-0.533 2.035-1.771 2.086-1.227 0.052-1.871-0.72-1.928-1.931-0.07-1.38-0.14-2.76-0.2-4.139zm1.08 4.144c0.032 0.732 0.361 1.141 1.005 1.114 0.655-0.027 0.937-0.462 0.908-1.194-0.056-1.41-0.112-2.821-0.168-4.231-0.028-0.721-0.349-1.143-1.014-1.115-0.654 0.027-0.949 0.476-0.917 1.196 0.07 1.41 0.13 2.82 0.19 4.23z"/>
		<path d="m113.83 83.425c0.001 0.073 0.003 0.145 0.004 0.218l-0.861 0.018c-0.002-0.088-0.004-0.175-0.006-0.263-0.016-0.721-0.306-1.138-0.959-1.123-0.654 0.016-0.922 0.447-0.904 1.156 0.049 1.794 2.777 1.902 2.82 4.158 0.024 1.214-0.546 2.013-1.773 2.043s-1.823-0.742-1.858-1.955c-0.004-0.152-0.009-0.305-0.013-0.457 0.281-0.008 0.562-0.016 0.842-0.023 0.004 0.168 0.009 0.335 0.013 0.503 0.019 0.721 0.329 1.136 0.973 1.12 0.643-0.016 0.933-0.445 0.917-1.166-0.038-1.787-2.75-1.891-2.816-4.142-0.036-1.235 0.527-2.019 1.755-2.049 1.25-0.03 1.85 0.749 1.87 1.962z"/>
		<path d="m125.35 81.416c1.274 0.007 1.852 0.769 1.84 2.005-0.013 1.346-0.025 2.693-0.038 4.039-0.012 1.225-0.593 1.973-1.844 1.967-0.628-0.003-1.255-0.005-1.883-0.006 0.003-2.67 0.005-5.34 0.008-8.011 0.63 0.001 1.27 0.003 1.91 0.006zm-0.05 7.198c0.644 0.003 0.958-0.394 0.963-1.127 0.01-1.373 0.02-2.747 0.03-4.12 0.006-0.732-0.307-1.135-0.972-1.139-0.327-0.002-0.653-0.003-0.98-0.004-0.006 2.129-0.013 4.257-0.019 6.386 0.32 0.001 0.65 0.002 0.98 0.004z"/>
		<path d="m134.39 85.102c-0.007 0.267-0.014 0.534-0.02 0.801-0.66-0.017-1.319-0.032-1.979-0.046-0.02 0.95-0.04 1.899-0.06 2.849 0.805 0.017 1.61 0.036 2.415 0.057-0.007 0.271-0.014 0.541-0.021 0.812-1.102-0.029-2.204-0.054-3.306-0.075 0.051-2.67 0.101-5.34 0.152-8.009 1.122 0.021 2.244 0.047 3.366 0.076-0.007 0.271-0.014 0.541-0.021 0.812-0.816-0.022-1.633-0.041-2.45-0.058-0.019 0.911-0.038 1.823-0.057 2.734 0.66 0.015 1.32 0.03 1.99 0.047z"/>
		<path d="m148.1 84.043c-0.013 0.24-0.027 0.48-0.04 0.72-0.286-0.016-0.572-0.032-0.859-0.047 0.014-0.255 0.027-0.51 0.041-0.765 0.039-0.72-0.229-1.17-0.894-1.205-0.654-0.034-0.978 0.386-1.013 1.106-0.07 1.41-0.14 2.819-0.21 4.229-0.036 0.72 0.241 1.169 0.885 1.202 0.655 0.034 0.965-0.385 1.004-1.104 0.019-0.347 0.037-0.693 0.056-1.04 0.285 0.015 0.569 0.031 0.854 0.047-0.018 0.331-0.037 0.663-0.055 0.994-0.068 1.211-0.686 1.978-1.924 1.914-1.226-0.063-1.762-0.889-1.705-2.101 0.066-1.379 0.131-2.759 0.197-4.138 0.057-1.212 0.679-1.985 1.93-1.921 1.23 0.065 1.77 0.898 1.71 2.109z"/>
		<path d="m153.03 88.818c-0.14 0.53-0.279 1.06-0.419 1.589-0.275-0.018-0.55-0.036-0.826-0.054 0.685-2.631 1.379-5.261 2.082-7.89 0.439 0.03 0.879 0.061 1.318 0.092 0.331 2.701 0.653 5.401 0.966 8.102l-0.894-0.066c-0.064-0.544-0.128-1.088-0.193-1.632-0.68-0.048-1.36-0.095-2.04-0.141zm0.17-0.757c0.599 0.041 1.198 0.082 1.797 0.125-0.193-1.559-0.39-3.118-0.589-4.677-0.41 1.517-0.81 3.034-1.21 4.552z"/>
		<path d="m160.29 90.986c0.224-2.661 0.447-5.322 0.671-7.983 0.303 0.025 0.606 0.051 0.909 0.077-0.206 2.391-0.412 4.781-0.617 7.172 0.765 0.066 1.529 0.134 2.294 0.203-0.025 0.27-0.049 0.539-0.074 0.809-1.06-0.096-2.12-0.189-3.18-0.278z"/>
		<path d="m169.29 83.781c-0.273 2.656-0.545 5.313-0.818 7.969-0.297-0.031-0.595-0.061-0.892-0.091 0.267-2.657 0.535-5.314 0.802-7.97 0.3 0.03 0.61 0.061 0.91 0.092z"/>
		<path d="m175.62 84.476c1.268 0.149 1.758 0.97 1.609 2.197-0.162 1.337-0.324 2.674-0.485 4.01-0.148 1.216-0.81 1.895-2.054 1.75-0.624-0.073-1.249-0.145-1.874-0.215 0.299-2.653 0.598-5.307 0.896-7.96 0.63 0.071 1.27 0.144 1.9 0.218zm-0.84 7.149c0.641 0.075 0.997-0.286 1.084-1.013 0.162-1.364 0.325-2.727 0.487-4.091 0.087-0.727-0.18-1.163-0.842-1.24-0.325-0.038-0.65-0.076-0.975-0.113-0.242 2.115-0.485 4.229-0.727 6.344 0.32 0.037 0.64 0.075 0.97 0.113z"/>
		<path d="m181.87 91.703c-0.174 0.52-0.348 1.039-0.521 1.559-0.274-0.036-0.548-0.072-0.822-0.108 0.855-2.581 1.719-5.161 2.592-7.738 0.437 0.059 0.874 0.118 1.312 0.177 0.156 2.717 0.304 5.433 0.442 8.148-0.296-0.042-0.593-0.083-0.889-0.124-0.029-0.547-0.058-1.094-0.088-1.641-0.67-0.092-1.35-0.183-2.02-0.273zm0.22-0.745c0.596 0.079 1.192 0.16 1.788 0.242-0.092-1.568-0.188-3.137-0.286-4.705-0.51 1.487-1.01 2.975-1.5 4.463z"/>
		<path d="m192.08 86.705c1.263 0.195 1.724 1.034 1.53 2.254-0.211 1.33-0.421 2.66-0.632 3.99-0.192 1.21-0.879 1.864-2.119 1.673-0.622-0.096-1.245-0.191-1.867-0.284 0.396-2.641 0.791-5.281 1.187-7.922 0.63 0.095 1.26 0.192 1.9 0.289zm-1.11 7.113c0.638 0.099 1.008-0.249 1.122-0.972l0.636-4.071c0.113-0.724-0.138-1.168-0.797-1.27-0.324-0.05-0.647-0.099-0.971-0.149-0.32 2.104-0.639 4.209-0.959 6.313 0.32 0.05 0.64 0.099 0.97 0.149z"/>
	</g>
	<polygon opacity=".2" points="41.627 20.012 41.627 27.253 48.652 27.253" fill="#1D1D1B"/>
</svg>
