<?xml version="1.0" encoding="UTF-8" standalone="no"?>
<!-- Generator: Adobe Illustrator 17.1.0, SVG Export Plug-In . SVG Version: 6.00 Build 0)  -->
<!DOCTYPE svg  PUBLIC '-//W3C//DTD SVG 1.1//EN'  'http://www.w3.org/Graphics/SVG/1.1/DTD/svg11.dtd'>
<svg id="Layer_1" xmlns="http://www.w3.org/2000/svg" xml:space="preserve" viewBox="0 0 62.7 166" version="1.1" y="0px" x="0px" xmlns:xlink="http://www.w3.org/1999/xlink" enable-background="new 0 0 62.7 166">
	<path opacity=".2" d="m62.6 23.3v-0.1c-1.2-11.7-15.7-19.6-21.3-19.6h-16.8c-0.5 0.5-1.1 1-1.8 1.4-1.3 0.8-2.9 1.3-4.6 1.3-1.5 0-2.8-0.4-4-1-0.9-0.4-1.7-1-2.3-1.7v-0.1h-6.4c-0.7 0-1.2 0.5-1.2 1.2v11.6c0 0.7 0.5 1.2 1.2 1.2h6.4v-0.1l1.5-1.2c1.4-0.9 3.1-1.4 4.9-1.4 1.6 0 3.2 0.4 4.5 1.2 0.7 0.4 1.3 0.9 1.9 1.4v0.1l0.7 5 0.3 2.5c0.1 0.4 0.3 0.7 0.6 0.9 0.1 0.1 0.2 0.1 0.3 0.2h0.1c0.1 0 0.2 0.1 0.4 0.1 0 1.2 0 30.8-0.5 40.8-0.4 7.2-2 21.4-2.2 28.6-0.7 25.7-0.8 53.8-0.9 65.9l-2.6 0.3 2.8 2.9c1.1 1.2 8.1 1.5 13.2 1.2 0.6 0 1.1-0.1 1.6-0.1h0.1c0.2 0 0.3 0 0.5-0.1h0.1c0.3 0 0.5-0.1 0.8-0.1h0.1c0.1 0 0.2 0 0.3-0.1h0.2c0.1 0 0.2 0 0.2-0.1 0.1 0 0.2-0.1 0.3-0.1s0.1 0 0.2-0.1c0.1 0 0.2-0.1 0.3-0.1 0 0 0.1 0 0.1-0.1 0.1 0 0.2-0.1 0.2-0.1h0.1c0.1 0 0.2-0.1 0.2-0.1l0.1-0.1v-0.2c0-4.1 0-11.6-0.1-20.9v-4.4-2.4c-0.1-5.4-0.1-11.2-0.2-17.3v-0.2c0-1.7-0.1-3.4-0.1-5.1 0-0.9 0-1.9-0.1-2.8 0-1.7-0.1-3.4-0.1-5.1v-0.1c0-1.7-0.1-3.5-0.1-5.2 0-1.8-0.1-3.6-0.1-5.3v-0.7c0-0.7-0.1-1.4-0.1-2.2v-0.2c0-0.5-0.1-1-0.1-1.5v-0.1c-0.2-2.6-0.4-5.4-0.7-8.4 0-0.4-0.1-0.8-0.1-1.3-0.1-0.6-0.1-1.2-0.2-1.8 0-0.4-0.1-0.8-0.1-1.2-0.4-4.3-0.7-8.3-0.9-11.2-0.2-3.2-0.3-8.4-0.4-14v-1.7-1.7-1.7-1.7-0.9-3.4-0.8-2.4-3.7-2-6.8c0.7 0 1.3-0.5 1.4-1.2l0.9-6.3 0.1-0.9v-0.3c1.6-2.7 3.5-3.8 5.5-3.8h0.8c0.3 0 0.6 0.1 0.9 0.2 0.5 0.1 0.9 0.3 1.4 0.4 0.8 0.3 1.5 0.7 2.3 1.2 0.3 0.2 0.5 0.3 0.8 0.5 0.7 0.5 1.5 1.1 2.2 1.7 0.9 0.8 1.8 1.7 2.5 2.5l0.2 0.2-0.4 1.5 4.2 3.5c0.4 0.4 0.7 0.1 0.9-0.3v-0.1c0.1-0.2 0.1-0.5 0.1-0.5 0.1-0.4 0.1-0.9 0-1.3z" fill="#1D1E1C"/>
		<path d="m37 0.1h-16.7c-1.6 1.6-3.9 2.6-6.4 2.6s-4.8-1-6.4-2.6v-0.1h-6.3c-0.7 0-1.2 0.5-1.2 1.2v11.6c0 0.6 0.5 1.2 1.2 1.2h6.4v-0.1c1.6-1.6 3.9-2.6 6.4-2.6s4.8 1 6.4 2.6v0.1l0.7 5 0.3 2.5c0.1 0.7 0.7 1.2 1.4 1.2h11.9c0.7 0 1.3-0.5 1.4-1.2l0.9-6.3v-1.2c6.2-10.9 18.3 4.7 19.7 7.1s1.8 0 1.8 0c0-12.4-15.6-21-21.5-21z" fill="#CFD0D0"/>
		<path d="m37.3 92.1c-0.2-7.2-1.8-21.4-2.2-28.6-0.5-10.2-0.5-40.9-0.5-40.9h-11.8s0 30.7-0.5 40.9c-0.4 7.2-2 21.4-2.2 28.6-0.7 28-0.9 58.7-0.9 68.7 0 2.2 19 2.2 19 0 0-10-0.2-40.8-0.9-68.7z" fill="#CB9866"/>
		<path d="m13.9 2.7c-2.5 0-4.8-1-6.4-2.6v-0.1h-6.3c-0.7 0-1.2 0.5-1.2 1.2v11.6c0 0.6 0.5 1.2 1.2 1.2h6.4v-0.1c1.6-1.6 3.9-2.6 6.4-2.6s4.8 1 6.4 2.6v-13.8c-1.7 1.6-4 2.6-6.5 2.6z" fill="#BFBFBF"/>
		<path d="m13.9 3.8c-2.5 0-4.8-0.7-6.4-2.3v-0.1h-6.3c-0.7 0-1.2 0.5-1.2 1.2v2.1c0-0.7 0.5-1.2 1.2-1.2h6.4s2.6 1.7 6.4 1.7c2.4 0 4.5-0.7 5.6-1.3 0.9-0.5 0.5-2.2-0.2-1.7-1.6 1.1-3.4 1.6-5.5 1.6z" fill="#F3F3F3"/>
		<path d="m7.5 10.5h-6.3c-0.7 0-1.2-0.6-1.2-1.2v3.5c0 0.6 0.5 1.2 1.2 1.2h6.4v-0.1c1.6-1.6 3.9-2.6 6.4-2.6s4.8 1 6.4 2.6-1.4-4.1-6.4-4.2c-3.7 0.1-6.5 0.8-6.5 0.8z" fill="#B2B2B2"/>
		<path d="m37 0.1h-16.7v13.9l0.7 5 0.3 2.5c0.1 0.7 0.7 1.2 1.4 1.2h11.9c0.7 0 1.3-0.5 1.4-1.2l0.9-6.3 0.1-1.2c6.2-10.9 18.3 4.7 19.7 7.1s1.8 0 1.8 0c0-12.4-15.6-21-21.5-21z" fill="#BFBFBF"/>
		<path d="m58.4 21.2v-0.1c0.1-12.4-15.5-21-21.4-21h-16.7s0 0.7 0.6 0.7h16.1c5.8 0 21 8.3 21.4 20.4z" fill="#F3F3F3"/>
		<path d="m58.2 18.3c0.1 0.7 0.2 1.4 0.2 2.1 0 0-0.4 2.4-1.8 0s-13.7-18.1-20-7.1l-0.2 1.2-0.9 6.3c-0.1 0.7-0.7 1.2-1.4 1.2h-12c-0.2 0-0.4-0.1-0.6-0.2 0.2 0.5 0.7 0.9 1.3 0.9h11.9c0.7 0 1.3-0.5 1.4-1.2l0.9-6.3v-1.2c6.2-10.9 18.3 4.7 19.7 7.1s1.8 0 1.8 0c0-0.9-0.1-1.8-0.3-2.8z" fill="#B2B2B2"/>
		<g opacity=".3">
			<defs>
				<path id="SVGID_1_" opacity=".3" d="m37.3 92.1c-0.2-7.2-1.8-21.4-2.2-28.6-0.5-10.2-0.5-40.9-0.5-40.9h-11.8s0 30.7-0.5 40.9c-0.4 7.2-2 21.4-2.2 28.6-0.7 28-0.9 58.7-0.9 68.7 0 2.2 19 2.2 19 0 0-10-0.2-40.8-0.9-68.7z"/>
			</defs>
			<clipPath id="SVGID_2_">
				<use overflow="visible" xlink:href="#SVGID_1_"/>
			</clipPath>
			<g fill="none" stroke-miterlimit="10" clip-path="url(#SVGID_2_)">
				<path stroke="#CAB486" stroke-width=".733" d="m124.9 20.4c-2 0-3.4-18.6-3.1-41.4s2.2-41.3 4.2-41.3 3.4 18.6 3.1 41.4-2.2 41.3-4.2 41.3z"/>
				<path stroke="#CAB486" stroke-width=".733" d="m125.2-5.9c-1.2 0-2.2-6.8-2-15.2 0.1-8.3 1.2-15.1 2.4-15.1s2.2 6.8 2 15.2c0 8.4-1.1 15.2-2.4 15.1z"/>
				<ellipse rx="4" cy="270.3" ry="45.9" stroke="#CAB486" cx="142" stroke-width=".6949"/>
				<path stroke="#CAB486" stroke-width=".6949" d="m142.3 280.6c-1.2 0-2.2-6.1-2.3-13.8-0.1-7.6 0.7-13.9 1.8-13.9 1.2 0 2.2 6.1 2.3 13.8 0.1 7.6-0.7 13.9-1.8 13.9z"/>
				<path stroke="#1D1D1B" stroke-width=".6949" d="m130.1-59.9s2.1 16.8 1.9 36.3c-0.3 45.5-6.9 78.9-6.1 135.3 0.8 56.3 8.8 117.5 9.1 153.7"/>
				<path stroke="#1D1D1B" stroke-width=".6949" d="m135-26.8c0 34.8-6.5 81.7-7 116.8-0.4 35.1 5.2 108.6 7 121.3"/>
				<path stroke="#CAB486" stroke-width=".733" d="m42.8-82.4c2 0 3.4-18.6 3.1-41.4s-2.2-41.3-4.2-41.3-3.4 18.6-3.1 41.4c0.3 22.9 2.2 41.3 4.2 41.3z"/>
				<path stroke="#CAB486" stroke-width=".733" d="m42.4-108.7c1.2 0 2.2-6.8 2-15.2-0.1-8.3-1.2-15.1-2.4-15.1s-2.2 6.8-2 15.2c0.1 8.4 1.2 15.2 2.4 15.1z"/>
				<ellipse rx="4" cy="167.5" ry="45.9" stroke="#1D1D1B" cx="25.6" stroke-width=".6949"/>
				<path stroke="#1D1D1B" stroke-width=".6949" d="m25.4 177.8c1.2 0 2.2-6.1 2.3-13.8 0.1-7.6-0.7-13.9-1.8-13.9-1.2 0-2.2 6.1-2.3 13.8-0.2 7.7 0.6 13.9 1.8 13.9z"/>
				<path stroke="#1D1D1B" stroke-width=".6949" d="m23.5-162.7s-2.1 16.8-1.9 36.3c0.4 45.4 6.9 78.9 6.2 135.2-0.8 56.3-8.8 117.5-9.1 153.7"/>
				<path stroke="#1D1D1B" stroke-width=".6949" d="m18.7-92.5s6.5 44.6 7 79.7c0.4 35.1-5.2 108.6-7 121.3"/>
				<path stroke="#CAB486" stroke-width=".6949" d="m18.7-53.4s4.3 24.9 4.6 43.2c0.3 18.4-1.9 50.9-4.6 70.9"/>
				<path stroke="#1D1D1B" stroke-width=".6949" d="m34.3-119s-0.2 24.8-2.4 35.3-3 22.9-2.2 45.4c0.8 22.4 0.5 42.3 0 58.7-0.5 16.5-3 65.2-1.9 77.4s3.8 39.4 4.4 66.2-1.2 47.9-1.2 47.9"/>
				<g stroke="#1D1D1B" stroke-width=".6949">
					<path d="m119.3-23.5s-0.9 29.4 2.4 42.6c2.6 10.4 3 22.9 2.2 45.4-0.8 22.4-0.5 42.3 0 58.7 0.5 16.5 3 65.2 1.9 77.4-0.2 2.8-0.6 6.5-1 10.8"/>
					<path d="m116.9-23.5c0 0.4-0.8 29.5 2.3 43 2.5 10.8 2.9 23.7 2.1 45.8-0.7 22.2-0.4 41.8 0.1 58.3 0.2 7.4 0.9 21.2 1.4 35.3 0.6 17.3 1.1 34.9 0.5 41.6-0.3 2.9-0.6 6.5-1 10.7"/>
					<path d="m114.5-23.5c0 0.7-0.8 29.7 2.2 43.4 2.4 11.3 2.7 24.5 2 46.3-0.7 21.9-0.3 41.4 0.2 57.9 0.2 7.5 0.9 21.1 1.4 35 0.6 17.2 1 34.6 0.5 41.3-0.3 3-0.6 6.6-1 10.6"/>
					<path d="m112.1-23.5c0 1.1-0.7 29.9 2.1 43.9 2.4 11.7 2.6 25.3 1.9 46.7-0.7 21.6-0.2 41 0.4 57.5 0.3 7.5 0.9 21 1.4 34.8 0.6 17.2 1 34.3 0.4 41-0.3 3.1-0.6 6.6-1 10.5"/>
					<path d="m109.7-23.5c0.1 1.5-0.7 30.1 2 44.3 2.3 12.1 2.4 26.1 1.8 47.2-0.6 21.3-0.1 40.6 0.5 57.1 0.3 7.5 0.9 20.9 1.3 34.5 0.6 17.1 0.9 34.1 0.4 40.7-0.3 3.1-0.6 6.7-1 10.5"/>
					<path d="m107.2-23.5c0.1 1.8-0.6 30.2 1.9 44.7 2.2 12.6 2.3 26.9 1.7 47.6-0.6 21 0 40.2 0.6 56.7 0.3 7.6 0.9 20.8 1.3 34.3 0.5 17 0.9 33.8 0.3 40.5-0.3 3.2-0.6 6.7-0.9 10.4"/>
					<path d="m104.8-23.5c0.1 2.2-0.6 30.4 1.8 45.2 2.1 13 2.2 27.7 1.6 48.1-0.5 20.8 0.1 39.8 0.7 56.3 0.3 7.6 0.9 20.7 1.3 34.1 0.5 17 0.8 33.5 0.3 40.2-0.3 3.3-0.6 6.8-0.9 10.3"/>
					<path d="m102.4-23.5c0.1 2.6-0.5 30.6 1.8 45.6 2.1 13.4 2 28.5 1.5 48.6-0.5 20.5 0.2 39.4 0.8 56 0.3 7.6 0.9 20.6 1.3 33.8 0.5 16.9 0.8 33.3 0.2 39.9-0.3 3.4-0.6 6.8-0.9 10.2"/>
					<path d="m100-23.5c0.1 2.9-0.5 30.8 1.7 46 2 13.9 1.9 29.3 1.4 49-0.5 20.2 0.3 39 1 55.6 0.3 7.7 0.9 20.5 1.3 33.6 0.5 16.8 0.7 33 0.2 39.6-0.3 3.4-0.6 6.8-0.9 10.2"/>
					<path d="m97.6-23.6c0.1 3.3-0.5 30.9 1.6 46.4 1.9 14.3 1.7 30.1 1.3 49.5-0.4 19.9 0.4 38.6 1.1 55.2 0.3 7.7 0.9 20.4 1.3 33.4 0.5 16.8 0.7 32.7 0.1 39.4-0.3 3.5-0.6 6.9-0.9 10.1"/>
					<path d="m95.1-23.6c0.2 3.6-0.4 31.1 1.5 46.9 1.8 14.7 1.6 30.9 1.2 49.9-0.4 19.6 0.5 38.2 1.2 54.8 0.4 7.7 0.9 20.3 1.3 33.1 0.4 16.7 0.6 32.4 0.1 39.1-0.3 3.6-0.7 6.9-0.9 10"/>
					<path d="m92.7-23.6c0.2 4-0.4 31.3 1.4 47.3 1.7 15.2 1.4 31.7 1.1 50.4-0.3 19.4 0.6 37.8 1.3 54.4 0.4 7.8 1 20.2 1.3 32.9 0.4 16.6 0.6 32.2 0 38.8-0.3 3.6-0.7 7-0.9 10"/>
					<path d="m90.3-23.6c0.2 4.4-0.4 31.5 1.3 47.7 1.6 15.6 1.3 32.5 1 50.8-0.3 19.1 0.7 37.4 1.4 54 0.4 7.8 1 20.1 1.3 32.7 0.4 16.5 0.5 31.9 0 38.5-0.3 3.7-0.7 7-0.9 9.9"/>
					<path d="m87.9-23.6c0.2 4.7-0.4 31.6 1.2 48.1 1.5 16 1.2 33.3 0.9 51.3-0.2 18.8 0.7 37 1.6 53.6 0.4 7.8 1 20 1.3 32.4 0.4 16.5 0.5 31.6-0.1 38.2-0.3 3.8-0.7 7.1-0.9 9.8"/>
					<path d="m85.5-23.6c0.2 5.1-0.3 31.8 1.1 48.6 1.4 16.5 1 34.1 0.8 51.7-0.2 18.5 0.8 36.6 1.7 53.2 0.4 7.9 1 19.9 1.3 32.2 0.4 16.4 0.4 31.3-0.1 38-0.3 3.9-0.7 7.1-0.9 9.7"/>
					<path d="m83-23.6c0.2 5.5-0.3 32 1 49 1.3 16.9 0.9 34.9 0.6 52.2-0.2 18.2 0.9 36.1 1.8 52.8 0.4 7.9 1 19.8 1.3 32 0.3 16.3 0.4 31.1-0.2 37.7-0.3 3.9-0.7 7.2-0.9 9.7"/>
					<path d="m80.6-23.6c0.3 5.8-0.3 32.2 0.9 49.4 1.2 17.3 0.7 35.7 0.5 52.7-0.1 18 1 35.7 1.9 52.4 0.4 7.9 1 19.7 1.3 31.7 0.3 16.3 0.3 30.8-0.2 37.4-0.3 4-0.7 7.2-0.9 9.6"/>
					<path d="m78.2-23.6c0.3 6.2-0.3 32.3 0.8 49.9 1.1 17.8 0.5 36.5 0.4 53.1-0.1 17.7 1.1 35.3 2 52 0.5 8 1 19.6 1.3 31.5 0.3 16.1 0.3 30.5-0.2 37.1-0.3 4.1-0.7 7.3-0.9 9.5"/>
					<path d="m75.8-23.6c0.3 6.6-0.3 32.5 0.7 50.3 1 18.2 0.4 37.3 0.3 53.6-0.1 17.4 1.2 34.9 2.2 51.6 0.5 8 1 19.5 1.3 31.2 0.3 16.1 0.2 30.3-0.3 36.9-0.3 4.2-0.7 7.3-0.9 9.4"/>
					<path d="m73.3-23.6c0.3 6.9-0.3 32.7 0.6 50.7 0.9 18.6 0.3 38.1 0.2 54 0 17.1 1.3 34.5 2.3 51.2 0.5 8 1 19.4 1.2 31 0.3 16.1 0.2 30-0.4 36.6-0.3 4.2-0.7 7.3-0.9 9.4"/>
					<path d="m70.9-23.6c0.3 7.3-0.2 32.9 0.5 51.1 0.8 19.1 0.1 38.9 0.1 54.5 0 16.8 1.4 34.1 2.4 50.8 0.5 8.1 1 19.3 1.2 30.8 0.2 16 0.1 29.7-0.4 36.3-0.4 4.3-0.7 7.4-0.9 9.3"/>
					<path d="m68.5-23.6c0.3 7.7-0.2 33 0.4 51.6 0.7 19.5 0 39.7 0 54.9 0 16.6 1.5 33.7 2.5 50.4 0.5 8.1 1 19.2 1.2 30.5 0.2 15.9 0.1 29.4-0.5 36-0.4 4.4-0.7 7.4-0.9 9.2"/>
					<path d="m66.1-23.6c0.4 8-0.2 33.2 0.3 52 0.6 19.9-0.2 40.5-0.1 55.4 0.1 16.3 1.6 33.3 2.6 50 0.5 8.2 1.1 19.1 1.2 30.3 0.2 15.9 0 29.2-0.5 35.7-0.4 4.5-0.7 7.5-0.9 9.1"/>
					<path d="m63.7-23.6c0.4 8.4-0.2 33.4 0.3 52.4 0.5 20.4-0.3 41.3-0.2 55.9 0.1 16 1.7 32.9 2.8 49.6 0.5 8.2 1.1 19 1.2 30.1 0.2 15.8 0 28.9-0.6 35.5-0.4 4.5-0.7 7.5-0.9 9.1"/>
					<path d="m61.2-23.6c0.4 8.7-0.2 33.6 0.2 52.8 0.4 20.8-0.4 42.1-0.3 56.3 0.2 15.7 1.8 32.5 2.9 49.2 0.5 8.2 1.1 18.9 1.2 29.8 0.1 15.7-0.1 28.6-0.6 35.2-0.4 4.6-0.7 7.6-0.9 9"/>
					<path d="m58.8-23.6c0.4 9.1-0.2 33.7 0.1 53.3 0.3 21.2-0.6 42.9-0.4 56.8 0.2 15.4 1.9 32.1 3 48.8 0.6 8.3 1.1 18.8 1.2 29.6 0.1 15.6-0.1 28.4-0.7 34.9-0.4 4.7-0.7 7.6-0.9 8.9"/>
					<path d="m56.4-23.6c0.4 9.5-0.2 33.9 0 53.7 0.2 21.7-0.7 43.7-0.5 57.2 0.3 15.2 2 31.7 3.1 48.4 0.6 8.3 1.1 18.7 1.2 29.4 0.1 15.6-0.2 28.1-0.7 34.6-0.4 4.8-0.8 7.7-0.9 8.9"/>
					<path d="m54-23.6c0.4 9.8-0.2 34.1-0.1 54.1 0 22.1-0.9 44.5-0.6 57.7 0.3 14.9 2.1 31.3 3.2 48 0.6 8.3 1.1 18.6 1.2 29.1 0.1 15.5-0.2 27.8-0.8 34.3-0.4 4.8-0.8 7.7-0.9 8.8"/>
					<path d="m51.6-23.6c0.5 10.2-0.2 34.3-0.2 54.6-0.1 22.5-1 45.3-0.7 58.1 0.3 14.6 2.2 30.8 3.4 47.6 0.6 8.4 1.1 18.5 1.2 28.9 0.1 15.4-0.3 27.5-0.8 34.1-0.4 4.9-0.8 7.8-0.9 8.7"/>
					<path d="m49.1-23.7c0.5 10.6-0.2 34.4-0.3 55-0.2 23-1.2 46.1-0.8 58.6 0.4 14.3 2.3 30.4 3.5 47.2 0.6 8.4 1.1 18.4 1.2 28.7 0 15.4-0.3 27.3-0.9 33.8-0.4 5-0.8 7.8-0.8 8.6"/>
					<path d="m46.7-23.7c0.5 10.9-0.2 34.6-0.4 55.4-0.3 23.4-1.3 46.9-0.9 59 0.5 14.1 2.4 30 3.6 46.8 0.6 8.4 1.1 18.3 1.2 28.4 0 15.3-0.4 27-0.9 33.5-0.4 5.1-0.8 7.8-0.8 8.6"/>
					<path d="m44.3-23.7c0.5 11.3-0.2 34.8-0.5 55.8-0.4 23.9-1.4 47.7-1 59.5 0.5 13.8 2.5 29.6 3.7 46.4 0.6 8.5 1.1 18.2 1.2 28.2 0 15.2-0.4 26.7-1 33.2-0.4 5.1-0.8 7.9-0.8 8.5"/>
					<path d="m41.9-23.7c0.5 11.7-0.1 35-0.6 56.3-0.5 24.3-1.6 48.5-1.1 60 0.5 13.5 2.6 29.2 3.8 46 0.7 8.5 1.2 18.1 1.2 27.9 0 15.2-0.5 26.5-1 33-0.4 5.2-0.8 7.9-0.8 8.4"/>
					<path d="m39.5-23.7c0.5 12-0.1 35.1-0.7 56.7-0.6 24.7-1.7 49.3-1.2 60.4 0.6 13.2 2.7 28.8 4 45.6 0.7 8.5 1.2 18 1.1 27.7 0 15.1-0.5 26.2-1 32.7-0.4 5.3-0.8 8-0.8 8.3"/>
					<path d="m37-23.7c0.6 12.4-0.2 35.3-0.8 57.1-0.8 25.1-1.8 50.1-1.3 60.9 0.6 12.9 2.8 28.4 4.1 45.2 0.7 8.6 1.2 17.9 1.1 27.5-0.1 15-0.6 25.9-1.1 32.4-0.4 5.4-0.8 8-0.8 8.3"/>
					<path d="m34.6-23.7c0.6 12.8-0.1 35.5-0.9 57.6-0.9 25.6-2 50.9-1.4 61.3 0.7 12.7 2.8 28 4.2 44.8 0.7 8.6 1.2 17.8 1.1 27.2-0.1 15-0.6 25.6-1.1 32.1-0.4 5.4-0.8 8.1-0.8 8.2"/>
					<path d="m32.2-23.7c1.3 28.4-3.6 101.1-2.5 119.8s5.6 43.9 5.5 71.4c-0.2 27.5-2 40-2 40"/>
				</g>
				<path stroke="#CAB486" stroke-width=".733" d="m233.8-47.8c-2 0-3.4-18.6-3.1-41.4s2.2-41.3 4.2-41.3 3.4 18.6 3.1 41.4c-0.3 22.9-2.2 41.4-4.2 41.3z"/>
				<path stroke="#CAB486" stroke-width=".733" d="m234.1-74c-1.2 0-2.2-6.8-2-15.2 0.1-8.3 1.2-15.1 2.4-15.1s2.2 6.8 2 15.2c-0.1 8.4-1.1 15.1-2.4 15.1z"/>
				<ellipse rx="4" cy="202.2" ry="45.9" stroke="#1D1D1B" cx="236.9" stroke-width=".6949"/>
				<path stroke="#1D1D1B" stroke-width=".6949" d="m237.1 212.4c-1.2 0-2.2-6.1-2.3-13.8-0.1-7.6 0.7-13.9 1.8-13.9 1.2 0 2.2 6.1 2.3 13.8 0.2 7.7-0.6 13.9-1.8 13.9z"/>
				<path stroke="#1D1D1B" stroke-width=".6949" d="m239-128.1s2.1 16.8 1.9 36.3c-0.3 45.5-6.9 78.9-6.1 135.3 0.8 56.3 8.8 117.5 9.1 153.7"/>
				<path stroke="#1D1D1B" stroke-width=".6949" d="m243.8-57.9s-6.5 44.6-7 79.7c-0.4 35.1 5.2 108.6 7 121.3"/>
				<path stroke="#1D1D1B" stroke-width=".6949" d="m243.8-18.8s-4.3 24.9-4.6 43.2c-0.3 18.4 1.9 50.9 4.6 70.9"/>
				<g stroke="#1D1D1B" stroke-width=".6949">
					<path d="m139.1-26.8c0 29-8.2 80.3-8.7 119.4-0.4 34.8 4.2 94.9 6.9 115"/>
					<path d="m141.5-28.4c0 13.3-1.8 32.1-3.6 51.8-2.1 22.1-4.4 45.8-4.7 66.5-0.1 8.4 0.1 17.9 0.4 27.9 0.4 11.7 1.1 24.9 1.8 36.7 0.7 11 1.4 21.9 2.1 31.5 0.8 9.7 1.6 17.7 2.3 22.6"/>
					<path d="m144-30c0 12.9-1.7 31.9-3.5 51.3-2 21.7-4.2 45.2-4.5 65.9-0.1 8.8 0 18.6 0.4 28.8 0.4 11.8 1.2 26.1 1.8 37.9 0.6 11 1.2 22.4 2 32.5 0.7 10.2 1.6 18.6 2.2 23.4"/>
					<path d="m146.5-31.6c0 12.5-1.7 31.7-3.3 50.9-1.8 21.4-4 44.5-4.3 65.3-0.2 9.2 0 19.3 0.4 29.7 0.4 11.9 1.2 27.2 1.8 39 0.6 11 1.1 22.9 1.8 33.4 0.7 10.6 1.6 19.4 2.2 24.1"/>
					<path d="m149-33.2c0 12.1-1.6 31.5-3.1 50.4-1.7 21.1-3.8 43.9-4.1 64.7-0.2 9.6 0 20 0.4 30.6 0.4 12.1 1.3 28.4 1.8 40.2 0.5 11.1 0.9 23.4 1.6 34.4 0.7 11.1 1.6 20.3 2.2 24.8"/>
					<path d="m151.4-34.8c0 11.8-1.5 31.3-2.9 49.9-1.6 20.7-3.6 43.2-3.9 64.1-0.2 10 0 20.7 0.4 31.5 0.4 12.2 1.3 29.5 1.8 41.4 0.5 11.1 0.8 23.9 1.4 35.4 0.6 11.6 1.6 21.1 2.1 25.5"/>
					<path d="m153.9-36.4c0 11.4-1.5 31.1-2.8 49.4-1.5 20.4-3.3 42.6-3.7 63.5-0.2 10.4 0 21.4 0.4 32.3 0.4 12.4 1.4 30.7 1.8 42.5 0.4 11.1 0.6 24.4 1.2 36.4 0.6 12.1 1.6 22 2.1 26.2"/>
					<path d="m156.4-38c0 11-1.4 30.8-2.6 49-1.4 20.1-3.1 41.9-3.5 62.9-0.2 10.8 0 22.1 0.3 33.2 0.4 12.5 1.4 31.8 1.8 43.7 0.4 11.2 0.5 24.9 1 37.4 0.5 12.6 1.5 22.9 2.1 27"/>
					<path d="m158.9-39.6c0 10.6-1.4 30.6-2.4 48.5-1.2 19.8-2.9 41.3-3.3 62.3-0.2 11.2-0.1 22.8 0.3 34.1 0.4 12.6 1.5 33 1.9 44.8 0.3 11.2 0.3 25.4 0.8 38.4 0.5 13.1 1.5 23.7 2.1 27.7"/>
					<path d="m161.3-41.2c0 10.2-1.3 30.4-2.2 48-1.1 19.4-2.7 40.6-3.1 61.7-0.2 11.6-0.1 23.5 0.3 35 0.4 12.8 1.5 34.1 1.9 46 0.3 11.2 0.2 25.9 0.7 39.4 0.5 13.6 1.5 24.6 2 28.4"/>
					<path d="m163.8-42.8c0 9.9-1.2 30.2-2.1 47.6-1 19.1-2.4 39.9-2.9 61.1-0.3 12-0.1 24.2 0.3 35.9 0.4 12.9 1.6 35.3 1.9 47.2 0.2 11.3 0 26.4 0.5 40.4 0.4 14.1 1.5 25.5 2 29.1"/>
					<path d="m166.3-44.4c0 9.5-1.1 30-1.9 47.1-0.8 18.8-2.2 39.3-2.7 60.5-0.3 12.4-0.1 24.9 0.3 36.7 0.4 13 1.7 36.4 1.9 48.3 0.2 11.3-0.1 26.9 0.3 41.4 0.4 14.6 1.5 26.3 2 29.8"/>
					<path d="m168.8-46c0 9.1-1.1 29.8-1.7 46.6-0.7 18.4-2 38.6-2.5 59.9-0.3 12.8-0.1 25.6 0.3 37.6 0.4 13.2 1.7 37.6 1.9 49.5 0.1 11.4-0.3 27.4 0.1 42.4 0.4 15.1 1.5 27.2 1.9 30.6"/>
					<path d="m171.3-47.6c0 8.7-1 29.6-1.6 46.2-0.6 18.1-1.8 38-2.3 59.3-0.3 13.2-0.1 26.3 0.3 38.5 0.4 13.3 1.8 38.7 1.9 50.6 0.1 11.4-0.4 27.9-0.1 43.4 0.3 15.6 1.5 28 1.9 31.3"/>
					<path d="m173.7-49.2c0 8.3-1 29.4-1.4 45.7-0.5 17.8-1.6 37.3-2.1 58.7-0.3 13.6-0.1 27 0.3 39.4 0.4 13.5 1.8 39.9 1.9 51.8 0 11.4-0.5 28.4-0.3 44.4 0.3 16.1 1.5 28.9 1.9 32"/>
					<path d="m176.2-50.8c0 8-0.9 29.2-1.2 45.2-0.3 17.4-1.4 36.7-1.9 58.1-0.3 14-0.2 27.7 0.2 40.3 0.4 13.6 1.9 41 1.9 53 0 11.5-0.7 28.9-0.5 45.4s1.5 29.8 1.8 32.7"/>
					<path d="m178.7-52.4c0 7.6-0.8 29-1 44.7-0.2 17.1-1.2 36-1.7 57.5-0.4 14.4-0.2 28.4 0.2 41.1 0.4 13.7 1.9 42.2 1.9 54.1-0.1 11.5-0.8 29.4-0.6 46.4s1.4 30.6 1.8 33.5"/>
					<path d="m181.2-54c0 7.2-0.8 28.8-0.9 44.3-0.1 16.8-1 35.4-1.5 56.9-0.4 14.8-0.2 29.1 0.2 42 0.4 13.9 2 43.3 1.9 55.3-0.1 11.5-1 29.9-0.8 47.4s1.4 31.5 1.8 34.2"/>
					<path d="m183.6-55.6c0 6.8-0.7 28.6-0.7 43.8 0 16.5-0.8 34.7-1.3 56.3-0.4 15.2-0.2 29.8 0.2 42.9 0.5 14 2 44.5 1.9 56.5-0.2 11.6-1.1 30.4-1 48.4s1.4 32.4 1.8 34.9"/>
					<path d="m186.1-57.2c0 6.5-0.7 28.4-0.5 43.3 0.2 16.1-0.5 34-1.1 55.6-0.4 15.6-0.2 30.4 0.2 43.8 0.5 14.1 2.1 45.6 1.9 57.6-0.2 11.6-1.3 30.9-1.2 49.3 0.1 18.5 1.4 33.2 1.7 35.6"/>
					<path d="m188.6-58.8c0 6.1-0.6 28.1-0.3 42.9 0.3 15.8-0.3 33.4-0.9 55-0.4 16-0.2 31.1 0.2 44.7 0.5 14.3 2.1 46.8 1.9 58.8-0.3 11.6-1.4 31.4-1.4 50.3 0.1 19 1.4 34.1 1.7 36.3"/>
					<path d="m191.1-60.4c0 5.7-0.6 27.9-0.2 42.4 0.4 15.5-0.1 32.7-0.7 54.4-0.5 16.4-0.3 31.8 0.2 45.5 0.5 14.4 2.2 47.9 1.9 59.9-0.3 11.7-1.6 31.9-1.6 51.3 0 19.5 1.4 34.9 1.7 37.1"/>
					<path d="m193.5-62c0 5.3-0.5 27.7 0 41.9 0.6 15.1 0.1 32.1-0.5 53.8-0.5 16.8-0.3 32.5 0.2 46.4 0.5 14.5 2.2 49.1 1.9 61.1-0.4 11.7-1.7 32.4-1.8 52.3 0 20 1.4 35.8 1.6 37.8"/>
					<path d="m196-63.6c0 4.9-0.4 27.5 0.2 41.5 0.6 14.8 0.3 31.4-0.3 53.2-0.5 17.2-0.3 33.2 0.2 47.3 0.5 14.7 2.3 50.2 1.9 62.3-0.4 11.7-1.9 32.9-1.9 53.3-0.1 20.5 1.4 36.7 1.6 38.5"/>
					<path d="m198.5-65.2c0 4.6-0.4 27.3 0.3 41 0.8 14.5 0.5 30.8-0.1 52.6-0.6 17.6-0.3 33.9 0.1 48.2 0.5 14.8 2.4 51.4 1.9 63.4-0.5 11.8-2 33.4-2.1 54.3-0.1 21 1.3 37.5 1.6 39.2"/>
					<path d="m201-66.8c0 4.2-0.3 27.1 0.5 40.5 0.9 14.1 0.7 30.1 0.1 52-0.6 18-0.3 34.6 0.1 49.1 0.5 15 2.4 52.5 1.9 64.6-0.5 11.8-2.2 33.9-2.3 55.3-0.1 21.5 1.3 38.4 1.5 39.9"/>
					<path d="m203.5-68.4c0 3.8-0.3 26.9 0.7 40 1 13.8 0.9 29.5 0.3 51.4-0.6 18.4-0.3 35.3 0.1 49.9 0.5 15.1 2.5 53.7 1.9 65.7-0.6 11.8-2.3 34.4-2.5 56.3-0.2 22 1.3 39.3 1.5 40.7"/>
					<path d="m205.9-70c0 3.4-0.2 26.7 0.9 39.6 1.1 13.5 1.1 28.8 0.4 50.8-0.6 18.8-0.4 36 0.1 50.8 0.5 15.2 2.5 54.8 1.9 66.9-0.6 11.9-2.5 34.9-2.7 57.3s1.3 40.1 1.5 41.4"/>
					<path d="m208.4-71.6c0 3-0.2 26.5 1 39.1 1.2 13.1 1.3 28.2 0.6 50.2-0.6 19.2-0.4 36.7 0.1 51.7 0.5 15.4 2.6 56 1.9 68.1-0.7 11.9-2.6 35.4-2.9 58.3-0.2 22.9 1.3 41 1.5 42.1"/>
					<path d="m210.9-73.2c0 2.7-0.1 26.3 1.2 38.6 1.4 12.8 1.5 27.5 0.8 49.6-0.7 19.6-0.4 37.4 0.1 52.6 0.5 15.5 2.6 57.1 1.9 69.2-0.7 11.9-2.8 35.9-3.1 59.3s1.3 41.8 1.4 42.8"/>
					<path d="m213.4-74.8c0 2.3-0.1 26.1 1.4 38.2 1.5 12.5 1.7 26.8 1 49-0.7 20-0.4 38.1 0.1 53.5 0.5 15.6 2.7 58.3 1.9 70.4-0.8 12-2.9 36.4-3.2 60.3s1.3 42.7 1.4 43.5"/>
					<path d="m215.8-76.4c0 1.9 0 25.9 1.6 37.7 1.6 12.2 1.9 26.2 1.2 48.4-0.7 20.4-0.4 38.8 0.1 54.3 0.5 15.8 2.7 59.4 1.9 71.5-0.8 12-3.1 36.9-3.4 61.3-0.4 24.4 1.3 43.6 1.4 44.3"/>
					<path d="m218.3-78c0 1.5 0.1 25.7 1.7 37.2 1.7 11.8 2.2 25.5 1.4 47.8-0.7 20.8-0.4 39.5 0 55.2 0.5 15.9 2.8 60.6 1.9 72.7-0.9 12-3.2 37.4-3.6 62.3s1.3 44.4 1.3 45"/>
					<path d="m220.8-79.6c0 1.1 0.1 25.4 1.9 36.7 1.8 11.5 2.4 24.9 1.6 47.2-0.7 21.2-0.4 40.2 0 56.1 0.5 16.1 2.8 61.7 1.9 73.9-0.9 12.1-3.4 37.9-3.8 63.3s1.2 45.3 1.3 45.7"/>
					<path d="m223.3-81.2c0 0.8 0.1 25.2 2.1 36.3 1.9 11.2 2.6 24.2 1.8 46.6-0.7 21.6-0.5 40.9 0 57 0.5 16.2 2.9 62.9 1.9 75s-3.5 38.4-4 64.3 1.2 46.2 1.3 46.4"/>
					<path d="m225.8-82.8c0 0.4 0.2 25 2.2 35.8s2.8 23.6 2 46c-0.8 22-0.5 41.6 0 57.9s2.9 64 1.9 76.2c-1 12.1-3.7 38.9-4.2 65.2-0.5 26.4 1.2 47 1.2 47.2"/>
					<path d="m228.2-84.4s0.2 24.8 2.4 35.3 3 22.9 2.2 45.4c-0.8 22.4-0.5 42.3 0 58.7 0.5 16.5 3 65.2 1.9 77.4s-3.8 39.4-4.4 66.2c-0.5 26.9 1.2 47.9 1.2 47.9"/>
				</g>
			</g>
		</g>
		<path opacity=".3" d="m37.3 92.1c-0.2-7.2-1.8-21.4-2.2-28.6-0.5-10.2-0.5-40.9-0.5-40.9h-4.3-7.6c0 0.3 7.5 2.5 7.5 2.5 0 8.3 0.1 30.7 0.5 39 0.4 7.3 0.6 21.7 0.8 29 0.7 27.9 0.9 58.4 0.9 69.2 3.2-0.2 5.6-0.7 5.6-1.5 0.2-10 0-40.8-0.7-68.7z" fill="#1D1D1B"/>
</svg>
