<?xml version="1.0" encoding="UTF-8" standalone="no"?>
<!-- Generator: Adobe Illustrator 17.1.0, SVG Export Plug-In . SVG Version: 6.00 Build 0)  -->
<!DOCTYPE svg  PUBLIC '-//W3C//DTD SVG 1.1//EN'  'http://www.w3.org/Graphics/SVG/1.1/DTD/svg11.dtd'>
<svg id="Layer_1" xmlns="http://www.w3.org/2000/svg" xml:space="preserve" viewBox="0 0 51.6 198" version="1.1" y="0px" x="0px" xmlns:xlink="http://www.w3.org/1999/xlink" enable-background="new 0 0 51.6 198">
	<path opacity=".2" d="m41.5 189.9l-3.9-8.9-0.9 0.4c-0.9-2.5-2.4-8.6 3.7-12.5 1.5-0.9 2.8-1.9 4.1-3.2 3.9-3.9 6.1-9.1 6.1-14.7 0-3.8-1.1-7.4-2.9-10.5-2.1-5.1-6.2-9.3-11.4-11.4-2.7-1.6-5.7-2.6-9-2.9h-1c-5.2-1.1-13.6-4.5-14.6-14.9h0.9v-5.3h32.1c3.8 0 7-3.1 7-7v-87.8c0-1.7-0.6-3.3-1.7-4.5-1.3-1.5-3.2-2.4-5.3-2.4h-34.1c-3.8 0-7 3.1-7 7v87.8c0 2 0.9 3.9 2.3 5.1 1 0.9 2.2 1.5 3.6 1.7v5.5h1c0.8 9.1 6.7 13.2 12 15.1-4.3 0.7-8.3 2.7-11.4 5.8-3.9 3.9-6.1 9.1-6.1 14.7 0 3.8 1.1 7.4 2.9 10.5 2.1 5.1 6.2 9.3 11.4 11.4 2.7 1.6 5.7 2.6 9 2.9h0.4c-1.6 0.5-3.4 1-5.3 1.6-4.8 1.5-6 4.9-6.2 6.8l-0.7-0.1-1.7 9.6c-1.6 0.3-2.9 1.6-3.2 3.3-0.4 2.2 1.1 4.3 3.3 4.7s4.3-1.1 4.7-3.3c0.3-1.7-0.5-3.3-1.8-4.1l1.7-9.6-1-0.2c0.2-1.6 1-4.4 5.3-5.8 2.5-0.8 4.7-1.4 6.7-2 2.4-0.7 4.4-1.2 6.1-1.8-2.9 4.1-1.7 8.8-0.9 11.1l-0.7 0.3 3.8 8.9c-1.1 1.1-1.5 2.9-0.9 4.5 0.9 2.1 3.3 3 5.4 2.1s3-3.3 2.1-5.4c-0.8-1.6-2.4-2.5-3.9-2.5zm2-25.2c-1.1 1.1-2.4 2.1-3.7 2.9 0 0-0.1 0-0.1 0.1-0.7 0.4-1.5 0.8-2.3 1.2-2.4 1-5 1.6-7.7 1.6-0.4 0-0.9 0-1.3-0.1 5.6-0.4 10.5-2.9 14.1-6.8 3.8-3.5 6.4-8.4 6.7-13.9 0 0.4 0.1 0.9 0.1 1.3-0.1 5.2-2.1 10.1-5.8 13.7zm-15.1 3c-0.4 0-0.9 0-1.3-0.1 5-0.3 9.8-2.4 13.4-6s5.7-8.3 6.1-13.3c0 0.4 0.1 0.9 0.1 1.3 0 5-1.9 9.6-5 13-3.7 3.2-8.3 5.1-13.3 5.1zm-16.8-9.5c-0.9-2.2-1.4-4.7-1.4-7.2 0-5.2 2-10.1 5.7-13.7 3.7-3.7 8.6-5.7 13.8-5.7 0.5 0 1 0 1.5 0.1 2 0.2 4 0.6 5.8 1.4 2.8 1.7 5.1 4 6.7 6.7 0.9 2.2 1.4 4.7 1.4 7.2 0 5.2-2 10.1-5.7 13.7-3.7 3.7-8.6 5.7-13.8 5.7-0.5 0-1 0-1.5-0.1-2-0.2-4-0.6-5.8-1.4-2.7-1.6-5.1-4-6.7-6.7zm36.3-9.9v0.7c-0.1-3.6-1.2-6.9-2.9-9.8-0.1-0.1-0.1-0.3-0.2-0.4 0.6 0.8 1.2 1.5 1.7 2.4 0.9 2.1 1.4 4.6 1.4 7.1zm-9.9-16.4c-0.1-0.1-0.3-0.1-0.4-0.2-2.7-1.6-5.7-2.6-9-2.9h-1.1 0.8c0.5 0 1 0 1.5 0.1 2 0.2 4 0.6 5.8 1.4 0.9 0.5 1.7 1 2.4 1.6zm-11-1.7c0.4 0 0.9 0 1.3 0.1-5 0.3-9.8 2.4-13.4 6s-5.7 8.3-6.1 13.3c0-0.4-0.1-0.9-0.1-1.3 0-5 1.9-9.6 5-13 3.6-3.2 8.2-5.1 13.3-5.1zm-19.5 19.4v-0.7c0.1 3.6 1.2 6.9 2.9 9.8 0.1 0.1 0.1 0.3 0.2 0.4-0.6-0.8-1.2-1.5-1.7-2.4-0.9-2.1-1.4-4.5-1.4-7.1zm9.8 16.4c0.1 0.1 0.3 0.1 0.4 0.2 2.7 1.6 5.7 2.6 9 2.9h1.1-0.8c-0.5 0-1 0-1.5-0.1-2-0.2-4-0.6-5.8-1.4-0.8-0.5-1.6-1-2.4-1.6zm-5.5-32.8c3.7-3.7 8.6-5.7 13.8-5.7h0.7c0.1 0 0.2 0 0.3 0.1-5.4 0.5-10.2 3-13.7 6.8-3.8 3.5-6.4 8.4-6.7 13.9 0-0.4-0.1-0.9-0.1-1.3 0-5.3 2.1-10.1 5.7-13.8z" fill="#1D1D1B"/>
		<path d="m41.1 0.5c3.6 0 6.4 2.9 6.4 6.4v87.8c0 3.6-2.9 6.4-6.4 6.4h-34.1c-3.6 0-6.4-2.9-6.4-6.4l-0.1-87.7c0-3.6 2.9-6.4 6.4-6.4l34.2-0.1" fill="#4B4B4A"/>
			<path d="m46.1 3c0.9 1.1 1.4 2.5 1.4 4v87.8c0 3.6-2.9 6.4-6.4 6.4h-34.1c-1.7 0-3.3-0.7-4.5-1.8l-0.2 0.5c1.2 1.1 2.9 1.8 4.7 1.8h34.1c3.8 0 7-3.1 7-7v-87.8c0-1.7-0.6-3.3-1.7-4.5l-0.3 0.6z" fill="#2F2D2C"/>
			<path d="m0.5 94.8v-87.8c0-3.6 2.9-6.4 6.4-6.4h34.1c2 0 3.9 1 5 2.4l0.2-0.5c-1.1-1.5-3-2.5-5.1-2.5h-34.1c-3.9 0-7 3.1-7 7v87.8c0 2 0.9 3.9 2.3 5.1l0.2-0.5c-1.2-1.2-2-2.8-2-4.6z" fill="#666564"/>
		<circle cy="94.2" cx="24" r="4.2" fill="#40403F"/>
		<circle cy="4.7" cx="24" r=".9" fill="#2F2D2C"/>
		<circle cy="4.7" cx="24" r=".4" fill="#406F6E"/>
			<path d="m20.1 8.6c0-0.3 0.2-0.5 0.5-0.5h6.9c0.2 0 0.3 0.1 0.4 0.2l0.6-0.1c-0.1-0.4-0.5-0.7-1-0.7h-6.9c-0.6 0-1.1 0.5-1.1 1 0 0.2 0.1 0.3 0.1 0.5h0.8c-0.2-0.1-0.3-0.3-0.3-0.4z" fill="#2F2D2C"/>
			<path d="m28 8.3c0.1 0.1 0.1 0.2 0.1 0.3 0 0.3-0.2 0.5-0.5 0.5h-6.9c-0.1 0-0.2 0-0.2-0.1h-0.8c0.2 0.3 0.5 0.5 0.9 0.5h6.9c0.6 0 1.1-0.5 1.1-1 0-0.1 0-0.2-0.1-0.3l-0.5 0.1z" fill="#666564"/>
		<path d="m27.6 8.1c0.3 0 0.5 0.2 0.5 0.5s-0.3 0.4-0.5 0.4h-6.9c-0.3 0-0.5-0.2-0.5-0.5s0.2-0.5 0.5-0.5l6.9 0.1" fill="#1D1E1C"/>
			<rect y="14.4" x="3.5" height="73.5" width="41.2" fill="#1A1A1A"/>
			<rect y="14.3" x="3.5" height="73.6" width="41.2" fill="#fff"/>
				<rect opacity=".8" height="1.5" width="6.9" y="15.6" x="20.7" fill="#535352"/>
				<rect y="84.6" x="6.1" height="1.5" width="6.9" fill="#EC6263"/>
				<rect y="84.6" x="34.9" height="1.5" width="6.9" fill="#EC6263"/>
				<rect opacity=".8" height="1.5" width="9.8" y="19.8" x="19.2" fill="#535352"/>
				<rect opacity=".8" height="2.3" width="9.8" y="69.1" x="19.2" fill="#535352"/>
				<rect opacity=".8" height="1.5" width="21.5" y="73.2" x="13.4" fill="#535352"/>
			<g opacity=".5">
				<rect opacity=".8" height=".5" width="33.4" y="65.6" x="7.4" fill="#535352"/>
			</g>
			<g opacity=".5">
				<rect opacity=".8" height=".5" width="33.4" y="82.1" x="7.4" fill="#535352"/>
			</g>
				<rect opacity=".8" height="1.5" width="3.5" y="15.6" x="5.6" fill="#535352"/>
			<circle cy="16.3" cx="42.1" r=".9" fill="#535352"/>
			<circle cy="16.3" cx="39.2" r=".9" fill="#535352"/>
			<circle cy="16.3" cx="11.1" r=".9" fill="#535352"/>
			<circle cy="20.5" cx="6.7" r="1.4" fill="#EC6263"/>
			<circle opacity=".8" cy="78.1" cx="24.2" r="1.4" fill="#535352"/>
			<circle opacity=".8" cy="78.1" cx="13.4" r="1.4" fill="#535352"/>
			<circle opacity=".8" cy="78.1" cx="34.9" r="1.4" fill="#535352"/>
			<circle cy="20.5" cx="41.2" r="1.4" fill="#EC6263"/>
			<rect y="23.6" x="4.6" height="38.9" width="38.9" fill="#FFCB07"/>
			<circle opacity=".5" cy="43" cx="24" r="14.5" fill="#fff"/>
		<path opacity=".05" d="m41.1 0.5h-20.5l2.2 7h4.8c0.5 0 0.9 0.3 1 0.7 0 0.1 0.1 0.2 0.1 0.3 0 0.6-0.5 1-1.1 1h-4.2l24.2 78.1v-80.7c-0.1-3.5-3-6.4-6.5-6.4zm-17.1 5.1c-0.5 0-0.9-0.4-0.9-0.9s0.4-0.9 0.9-0.9 0.9 0.4 0.9 0.9-0.4 0.9-0.9 0.9z" fill="#fff"/>
		<path stroke="#E2E1E0" stroke-width="1.3589" stroke-miterlimit="10" d="m16.2 179.8s-0.7-5.5 5.8-7.6c6.5-2 11.6-3 14.4-4.5" fill="none"/>
		<path stroke="#E2E1E0" stroke-width="1.3589" stroke-miterlimit="10" d="m35.2 181.1s-4.9-9.3 3.5-14.6" fill="none"/>
			<circle cy="191.9" cx="14" r="4.1" fill="#F4F4F4"/>
				<rect transform="matrix(.9853 .1709 -.1709 .9853 31.885 .127)" height="13.5" width="3.1" y="178.5" x="13.7" fill="#F4F4F4"/>
			<circle cy="191.9" cx="14" r="3.1" fill="#595857"/>
			<circle cy="192.3" cx="40.1" r="4.1" fill="#F4F4F4"/>
				<rect transform="matrix(.9179 -.3968 .3968 .9179 -70.756 30.12)" height="13.5" width="3.1" y="179.3" x="35.9" fill="#F4F4F4"/>
			<circle cy="192.3" cx="40.1" r="3.1" fill="#595857"/>
		<path stroke="#F4F4F4" stroke-width="1.3589" stroke-miterlimit="10" d="m29 125.7s-19.4-1-20.2-17.9" fill="none"/>
		<rect y="101.7" x="7.3" height="7" width="3.2" fill="#ECECEC"/>
		<rect y="101.7" x="9.6" height="7" width=".8" fill="#D9D9D8"/>
		<rect y="101.7" x="7.3" height="7" width=".9" fill="#fff"/>
		<ellipse rx="20.2" cy="148" ry="20.1" stroke="#E2E1E0" cx="25.6" stroke-miterlimit="10" stroke-width="1.3589" fill="none"/>
		<ellipse rx="20.2" cy="145.3" ry="20.1" stroke="#F4F4F4" cx="24.2" stroke-miterlimit="10" stroke-width="1.3589" fill="none"/>
		<ellipse rx="20.2" cy="149.3" ry="20.1" stroke="#EBEBEB" cx="28.3" stroke-miterlimit="10" stroke-width="1.3589" fill="none"/>
		<ellipse rx="20.2" cy="146.6" ry="20.1" stroke="#F4F4F4" cx="26.9" stroke-miterlimit="10" stroke-width="1.3589" fill="none"/>
</svg>
