<?xml version="1.0" encoding="UTF-8" standalone="no"?>
<!-- Generator: Adobe Illustrator 17.1.0, SVG Export Plug-In . SVG Version: 6.00 Build 0)  -->
<!DOCTYPE svg  PUBLIC '-//W3C//DTD SVG 1.1//EN'  'http://www.w3.org/Graphics/SVG/1.1/DTD/svg11.dtd'>
<svg id="Layer_1" xmlns="http://www.w3.org/2000/svg" xml:space="preserve" version="1.1" y="0px" x="0px" xmlns:xlink="http://www.w3.org/1999/xlink" viewBox="0 0 215 87.5" enable-background="new 0 0 215 87.5">
		<g opacity=".2">
			<path d="m212.7 84.8c0 1.5-1.3 2.8-2.8 2.8l-203.9-0.1c-1.5 0-2.8-1.2-2.8-2.8v-77.2c0-1.5 1.2-2.8 2.8-2.8h206.3c1.5 0 2.7 1.2 2.7 2.8l-2.3 77.3z" fill="#1D1E1C"/>
		</g>
				<path d="m209.4 81.6c0 1.5-1.2 2.7-2.7 2.7h-203.9c-1.5 0-2.7-1.2-2.7-2.7l-0.1-78.9c0-1.5 1.2-2.7 2.7-2.7h203.9c1.5 0 2.7 1.2 2.7 2.7l0.1 78.9z" fill="#D9D9D9"/>
		<g opacity=".1" fill="#1D1E1C">
			<path d="m19.6 25.1h9.2c1 0 1.7-0.8 1.7-1.7v-9.2c0-1-0.8-1.7-1.7-1.7h-9.2c-1 0-1.7 0.8-1.7 1.7v9.2c0 0.9 0.7 1.7 1.7 1.7z"/>
			<path d="m5.5 25.1h9.2c1 0 1.7-0.8 1.7-1.7v-9.2c0-1-0.8-1.7-1.7-1.7h-9.2c-1 0-1.7 0.8-1.7 1.7v9.2c0 0.9 0.8 1.7 1.7 1.7z"/>
			<path d="m47.8 25.1h9.2c1 0 1.7-0.8 1.7-1.7v-9.2c0-1-0.8-1.7-1.7-1.7h-9.2c-1 0-1.7 0.8-1.7 1.7v9.2c-0.1 0.9 0.7 1.7 1.7 1.7z"/>
			<path d="m33.7 25.1h9.2c1 0 1.7-0.8 1.7-1.7v-9.2c0-1-0.8-1.7-1.7-1.7h-9.2c-1 0-1.7 0.8-1.7 1.7v9.2c-0.1 0.9 0.7 1.7 1.7 1.7z"/>
			<path d="m74.3 14.2v9.2c0 1 0.8 1.7 1.7 1.7h9.2c1 0 1.7-0.8 1.7-1.7v-9.2c0-1-0.8-1.7-1.7-1.7h-9.2c-0.9 0-1.7 0.7-1.7 1.7z"/>
			<path d="m60.2 23.4c0 1 0.8 1.7 1.7 1.7h9.2c1 0 1.7-0.8 1.7-1.7v-9.2c0-1-0.8-1.7-1.7-1.7h-9.1c-1 0-1.7 0.8-1.7 1.7v9.2z"/>
			<path d="m113.4 12.5h-9.2c-1 0-1.7 0.8-1.7 1.7v9.2c0 1 0.8 1.7 1.7 1.7h9.2c1 0 1.7-0.8 1.7-1.7v-9.2c0-1-0.8-1.7-1.7-1.7z"/>
			<path d="m88.4 14.2v9.2c0 1 0.8 1.7 1.7 1.7h9.2c1 0 1.7-0.8 1.7-1.7v-9.2c0-1-0.8-1.7-1.7-1.7h-9.2c-0.9 0-1.7 0.7-1.7 1.7z"/>
			<path d="m127.6 25.1c1 0 1.7-0.8 1.7-1.7v-9.2c0-1-0.8-1.7-1.7-1.7h-9.2c-1 0-1.7 0.8-1.7 1.7v9.2c0 1 0.8 1.7 1.7 1.7h9.2z"/>
			<path d="m155.8 12.5h-9.2c-1 0-1.7 0.8-1.7 1.7v9.2c0 1 0.8 1.7 1.7 1.7h9.2c1 0 1.7-0.8 1.7-1.7v-9.2c0.1-1-0.7-1.7-1.7-1.7z"/>
			<path d="m141.7 12.5h-9.2c-1 0-1.7 0.8-1.7 1.7v9.2c0 1 0.8 1.7 1.7 1.7h9.2c1 0 1.7-0.8 1.7-1.7v-9.2c0.1-1-0.7-1.7-1.7-1.7z"/>
			<path d="m184 25.1c1 0 1.7-0.8 1.7-1.7v-9.2c0-1-0.8-1.7-1.7-1.7h-9.2c-1 0-1.7 0.8-1.7 1.7v9.2c0 1 0.8 1.7 1.7 1.7h9.2z"/>
			<path d="m169.9 12.5h-9.2c-1 0-1.7 0.8-1.7 1.7v9.2c0 1 0.8 1.7 1.7 1.7h9.2c1 0 1.7-0.8 1.7-1.7v-9.2c0-1-0.7-1.7-1.7-1.7z"/>
			<path d="m137.9 27.8v9.2c0 0.9 0.7 1.6 1.6 1.6h9.2c0.9 0 1.6-0.7 1.6-1.6v-9.2c0-0.9-0.7-1.6-1.6-1.6h-9.2c-0.9 0-1.6 0.7-1.6 1.6z"/>
			<path d="m166 27.8v9.2c0 1 0.8 1.7 1.7 1.7h9.2c1 0 1.7-0.8 1.7-1.7v-9.2c0-1-0.8-1.7-1.7-1.7h-9.2c-0.9 0-1.7 0.7-1.7 1.7z"/>
			<path d="m152 27.8v9.2c0 1 0.8 1.7 1.7 1.7h9.2c1 0 1.7-0.8 1.7-1.7v-9.2c0-1-0.8-1.7-1.7-1.7h-9.2c-1 0-1.7 0.7-1.7 1.7z"/>
			<path d="m205.1 26.1h-9.1c-1 0-1.7 0.8-1.7 1.7v9.2c0 1 0.8 1.7 1.7 1.7h9.2c1 0 1.7-0.8 1.7-1.7v-9.2c0-1-0.8-1.7-1.8-1.7z"/>
			<path d="m192.8 37v-9.2c0-1-0.8-1.7-1.7-1.7h-9.2c-1 0-1.7 0.8-1.7 1.7v9.2c0 1 0.8 1.7 1.7 1.7h9.2c0.9 0 1.7-0.8 1.7-1.7z"/>
			<path d="m68.9 38.7h9.2c1 0 1.7-0.8 1.7-1.7v-9.2c0-1-0.8-1.7-1.7-1.7h-9.2c-1 0-1.7 0.8-1.7 1.7v9.2c0 0.9 0.7 1.7 1.7 1.7z"/>
			<path d="m95.4 27.8v9.2c0 1 0.8 1.7 1.7 1.7h9.2c1 0 1.7-0.8 1.7-1.7v-9.2c0-1-0.8-1.7-1.7-1.7h-9.2c-0.9 0-1.7 0.7-1.7 1.7z"/>
			<path d="m83.1 38.7h9.2c1 0 1.7-0.8 1.7-1.7v-9.2c0-1-0.8-1.7-1.7-1.7h-9.2c-1 0-1.7 0.8-1.7 1.7v9.2c-0.1 0.9 0.7 1.7 1.7 1.7z"/>
			<path d="m37.5 37v-9.2c0-1-0.8-1.7-1.7-1.7h-9.2c-1 0-1.7 0.8-1.7 1.7v9.2c0 1 0.8 1.7 1.7 1.7h9.2c1 0 1.7-0.8 1.7-1.7z"/>
			<path d="m65.8 37v-9.2c0-1-0.8-1.7-1.7-1.7h-9.2c-1 0-1.7 0.8-1.7 1.7v9.2c0 1 0.8 1.7 1.7 1.7h9.2c0.9 0 1.7-0.8 1.7-1.7z"/>
			<path d="m40.8 38.7h9.2c1 0 1.7-0.8 1.7-1.7v-9.2c0-1-0.8-1.7-1.7-1.7h-9.2c-1 0-1.7 0.8-1.7 1.7v9.2c0 0.9 0.8 1.7 1.7 1.7z"/>
			<path d="m136.2 37v-9.2c0-1-0.8-1.7-1.7-1.7h-9.2c-1 0-1.7 0.8-1.7 1.7v9.2c0 1 0.8 1.7 1.7 1.7h9.2c1 0 1.7-0.8 1.7-1.7z"/>
			<path d="m109.5 27.8v9.2c0 1 0.8 1.7 1.7 1.7h9.2c1 0 1.7-0.8 1.7-1.7v-9.2c0-1-0.8-1.7-1.7-1.7h-9.2c-0.9 0-1.7 0.7-1.7 1.7z"/>
			<path d="m153.8 50.9v-9.2c0-1-0.8-1.7-1.7-1.7h-9.2c-1 0-1.7 0.8-1.7 1.7v9.2c0 1 0.8 1.7 1.7 1.7h9.2c1 0 1.7-0.8 1.7-1.7z"/>
			<path d="m182.1 50.9v-9.2c0-1-0.8-1.7-1.7-1.7h-9.2c-1 0-1.7 0.8-1.7 1.7v9.2c0 1 0.8 1.7 1.7 1.7h9.2c0.9 0 1.7-0.8 1.7-1.7z"/>
			<path d="m168 50.9v-9.2c0-1-0.8-1.7-1.7-1.7h-9.2c-1 0-1.7 0.8-1.7 1.7v9.2c0 1 0.8 1.7 1.7 1.7h9.2c0.9 0 1.7-0.8 1.7-1.7z"/>
			<path d="m83.2 50.9v-9.2c0-1-0.8-1.7-1.7-1.7h-9.2c-1 0-1.7 0.8-1.7 1.7v9.2c0 1 0.8 1.7 1.7 1.7h9.2c0.9 0 1.7-0.8 1.7-1.7z"/>
			<path d="m111.5 50.9v-9.2c0-1-0.8-1.7-1.7-1.7h-9.2c-1 0-1.7 0.8-1.7 1.7v9.2c0 1 0.8 1.7 1.7 1.7h9.2c0.9 0 1.7-0.8 1.7-1.7z"/>
			<path d="m97.4 50.9v-9.2c0-1-0.8-1.7-1.7-1.7h-9.2c-1 0-1.7 0.8-1.7 1.7v9.2c0 1 0.8 1.7 1.7 1.7h9.2c0.9 0 1.7-0.8 1.7-1.7z"/>
			<path d="m30.1 52.6h9.2c1 0 1.7-0.8 1.7-1.7v-9.2c0-1-0.8-1.7-1.7-1.7h-9.2c-1 0-1.7 0.8-1.7 1.7v9.2c-0.1 0.9 0.7 1.7 1.7 1.7z"/>
			<path d="m58.3 52.6h9.2c1 0 1.7-0.8 1.7-1.7v-9.2c0-1-0.8-1.7-1.7-1.7h-9.2c-1 0-1.7 0.8-1.7 1.7v9.2c0 0.9 0.8 1.7 1.7 1.7z"/>
			<path d="m55.1 50.9v-9.2c0-1-0.8-1.7-1.7-1.7h-9.2c-1 0-1.7 0.8-1.7 1.7v9.2c0 1 0.8 1.7 1.7 1.7h9.2c1 0 1.7-0.8 1.7-1.7z"/>
			<path d="m128.8 52.6h9.2c1 0 1.7-0.8 1.7-1.7v-9.2c0-1-0.8-1.7-1.7-1.7h-9.2c-1 0-1.7 0.8-1.7 1.7v9.2c-0.1 0.9 0.7 1.7 1.7 1.7z"/>
			<path d="m125.6 50.9v-9.2c0-1-0.8-1.7-1.7-1.7h-9.2c-1 0-1.7 0.8-1.7 1.7v9.2c0 1 0.8 1.7 1.7 1.7h9.2c0.9 0 1.7-0.8 1.7-1.7z"/>
			<path d="m149.9 66.3h9.2c1 0 1.7-0.8 1.7-1.7v-9.2c0-1-0.8-1.7-1.7-1.7h-9.2c-1 0-1.7 0.8-1.7 1.7v9.2c0 1 0.8 1.7 1.7 1.7z"/>
			<path d="m164.1 66.3h9.2c1 0 1.7-0.8 1.7-1.7v-9.2c0-1-0.8-1.7-1.7-1.7h-9.2c-1 0-1.7 0.8-1.7 1.7v9.2c0 1 0.8 1.7 1.7 1.7z"/>
			<path d="m79.3 66.3h9.2c1 0 1.7-0.8 1.7-1.7v-9.2c0-1-0.8-1.7-1.7-1.7h-9.2c-1 0-1.7 0.8-1.7 1.7v9.2c0 1 0.8 1.7 1.7 1.7z"/>
			<path d="m107.6 66.3h9.2c1 0 1.7-0.8 1.7-1.7v-9.2c0-1-0.8-1.7-1.7-1.7h-9.2c-1 0-1.7 0.8-1.7 1.7v9.2c-0.1 1 0.7 1.7 1.7 1.7z"/>
			<path d="m93.5 66.3h9.2c1 0 1.7-0.8 1.7-1.7v-9.2c0-1-0.8-1.7-1.7-1.7h-9.2c-1 0-1.7 0.8-1.7 1.7v9.2c0 1 0.7 1.7 1.7 1.7z"/>
			<path d="m37.1 66.3h9.2c1 0 1.7-0.8 1.7-1.7v-9.2c0-1-0.8-1.7-1.7-1.7h-9.2c-1 0-1.7 0.8-1.7 1.7v9.2c-0.1 1 0.7 1.7 1.7 1.7z"/>
			<path d="m14.7 67.5h-9.2c-1 0-1.7 0.9-1.7 2v10.4c0 1.1 0.8 2 1.7 2h9.2c1 0 1.7-0.9 1.7-2v-10.4c0-1.1-0.8-2-1.7-2z"/>
			<path d="m28.8 67.5h-9.2c-1 0-1.7 0.9-1.7 2v10.4c0 1.1 0.8 2 1.7 2h9.2c1 0 1.7-0.9 1.7-2v-10.4c0-1.1-0.8-2-1.7-2z"/>
			<path d="m42.8 67.5h-9.2c-1 0-1.7 0.9-1.7 2v10.4c0 1.1 0.8 2 1.7 2h9.2c1 0 1.7-0.9 1.7-2v-10.4c0.1-1.1-0.7-2-1.7-2z"/>
			<path d="m162.9 67.5h-9.2c-1 0-1.7 0.9-1.7 2v10.4c0 1.1 0.8 2 1.7 2h9.2c1 0 1.7-0.9 1.7-2v-10.4c0-1.1-0.8-2-1.7-2z"/>
			<path d="m65.3 66.3h9.2c1 0 1.7-0.8 1.7-1.7v-9.2c0-1-0.8-1.7-1.7-1.7h-9.2c-1 0-1.7 0.8-1.7 1.7v9.2c0 1 0.8 1.7 1.7 1.7z"/>
			<path d="m60.4 53.7h-9.2c-1 0-1.7 0.8-1.7 1.7v9.2c0 1 0.8 1.7 1.7 1.7h9.2c1 0 1.7-0.8 1.7-1.7v-9.2c0-0.9-0.7-1.7-1.7-1.7z"/>
			<path d="m135.8 66.3h9.2c1 0 1.7-0.8 1.7-1.7v-9.2c0-1-0.8-1.7-1.7-1.7h-9.2c-1 0-1.7 0.8-1.7 1.7v9.2c-0.1 1 0.7 1.7 1.7 1.7z"/>
			<path d="m130.8 53.7h-9.2c-1 0-1.7 0.8-1.7 1.7v9.2c0 1 0.8 1.7 1.7 1.7h9.2c1 0 1.7-0.8 1.7-1.7v-9.2c0.1-0.9-0.7-1.7-1.7-1.7z"/>
			<path d="m5.5 11.2h9.2c1 0 1.7-0.8 1.7-1.7v-3.9c0-1-0.8-1.7-1.7-1.7h-9.2c-1 0-1.7 0.8-1.7 1.7v3.9c0 0.9 0.8 1.7 1.7 1.7z"/>
			<path d="m20.3 11.2h9.2c1 0 1.7-0.8 1.7-1.7v-3.9c0-1-0.8-1.7-1.7-1.7h-9.2c-1 0-1.7 0.8-1.7 1.7v3.9c0 0.9 0.8 1.7 1.7 1.7z"/>
			<path d="m34.8 11.2h9.2c1 0 1.7-0.8 1.7-1.7v-3.9c0-1-0.8-1.7-1.7-1.7h-9.2c-1 0-1.7 0.8-1.7 1.7v3.9c0 0.9 0.7 1.7 1.7 1.7z"/>
			<path d="m49.6 11.2h9.2c1 0 1.7-0.8 1.7-1.7v-3.9c0-1-0.8-1.7-1.7-1.7h-9.2c-1 0-1.7 0.8-1.7 1.7v3.9c0 0.9 0.7 1.7 1.7 1.7z"/>
			<path d="m64 11.2h9.2c1 0 1.7-0.8 1.7-1.7v-3.9c0-1-0.8-1.7-1.7-1.7h-9.2c-1 0-1.7 0.8-1.7 1.7v3.9c-0.1 0.9 0.7 1.7 1.7 1.7z"/>
			<path d="m78.8 11.2h9.2c1 0 1.7-0.8 1.7-1.7v-3.9c0-1-0.8-1.7-1.7-1.7h-9.2c-1 0-1.7 0.8-1.7 1.7v3.9c-0.1 0.9 0.7 1.7 1.7 1.7z"/>
			<path d="m93.4 11.2h9.2c1 0 1.7-0.8 1.7-1.7v-3.9c0-1-0.8-1.7-1.7-1.7h-9.2c-1 0-1.7 0.8-1.7 1.7v3.9c-0.1 0.9 0.7 1.7 1.7 1.7z"/>
			<path d="m108.2 11.2h9.2c1 0 1.7-0.8 1.7-1.7v-3.9c0-1-0.8-1.7-1.7-1.7h-9.2c-1 0-1.7 0.8-1.7 1.7v3.9c-0.1 0.9 0.7 1.7 1.7 1.7z"/>
			<path d="m122.6 11.2h9.2c1 0 1.7-0.8 1.7-1.7v-3.9c0-1-0.8-1.7-1.7-1.7h-9.2c-1 0-1.7 0.8-1.7 1.7v3.9c0 0.9 0.8 1.7 1.7 1.7z"/>
			<path d="m137.4 11.2h9.2c1 0 1.7-0.8 1.7-1.7v-3.9c0-1-0.8-1.7-1.7-1.7h-9.2c-1 0-1.7 0.8-1.7 1.7v3.9c0 0.9 0.8 1.7 1.7 1.7z"/>
			<path d="m151.8 11.2h9.2c1 0 1.7-0.8 1.7-1.7v-3.9c0-1-0.8-1.7-1.7-1.7h-9.2c-1 0-1.7 0.8-1.7 1.7v3.9c0 0.9 0.7 1.7 1.7 1.7z"/>
			<path d="m166.6 11.2h9.2c1 0 1.7-0.8 1.7-1.7v-3.9c0-1-0.8-1.7-1.7-1.7h-9.2c-1 0-1.7 0.8-1.7 1.7v3.9c0 0.9 0.7 1.7 1.7 1.7z"/>
			<path d="m181.1 11.2h9.2c1 0 1.7-0.8 1.7-1.7v-3.9c0-1-0.8-1.7-1.7-1.7h-9.2c-1 0-1.7 0.8-1.7 1.7v3.9c0 0.9 0.8 1.7 1.7 1.7z"/>
			<path d="m196 11.2h9.2c1 0 1.7-0.8 1.7-1.7v-3.9c0-1-0.8-1.7-1.7-1.7h-9.2c-1 0-1.7 0.8-1.7 1.7v3.9c-0.1 0.9 0.7 1.7 1.7 1.7z"/>
			<path d="m5.5 38.7h16.1c1 0 1.7-0.8 1.7-1.7v-9.2c0-1-0.8-1.7-1.7-1.7h-16.1c-1 0-1.7 0.8-1.7 1.7v9.2c0 0.9 0.8 1.7 1.7 1.7z"/>
			<path d="m5.5 52.6h19.7c1 0 1.7-0.8 1.7-1.7v-9.2c0-1-0.8-1.7-1.7-1.7h-19.7c-1 0-1.7 0.8-1.7 1.7v9.2c0 0.9 0.8 1.7 1.7 1.7z"/>
			<path d="m5.5 66.3h26.9c1 0 1.7-0.8 1.7-1.7v-9.2c0-1-0.8-1.7-1.7-1.7h-26.9c-1 0-1.7 0.8-1.7 1.7v9.2c0 1 0.8 1.7 1.7 1.7z"/>
			<path d="m60.4 67.5h-12.6c-1 0-1.7 0.8-1.7 1.7v10.9c0 1 0.8 1.7 1.7 1.7h12.6c1 0 1.7-0.8 1.7-1.7v-10.9c0-0.9-0.7-1.7-1.7-1.7z"/>
			<path d="m148.3 67.5h-12.6c-1 0-1.7 0.8-1.7 1.7v10.9c0 1 0.8 1.7 1.7 1.7h12.6c1 0 1.7-0.8 1.7-1.7v-10.9c0.1-0.9-0.7-1.7-1.7-1.7z"/>
			<path d="m206.9 14.2c0-1-0.8-1.7-1.7-1.7h-16.5c-1 0-1.7 0.8-1.7 1.7v9.2c0 1 0.8 1.7 1.7 1.7h16.5c1 0 1.7-0.8 1.7-1.7v-9.2z"/>
			<path d="m205.1 40h-19.9c-1 0-1.7 0.8-1.7 1.7v9.2c0 1 0.8 1.7 1.7 1.7h19.9c1 0 1.7-0.8 1.7-1.7v-9.2c0.1-1-0.7-1.7-1.7-1.7z"/>
			<path d="m205.1 53.7h-26.8c-1 0-1.7 0.8-1.7 1.7v9.2c0 1 0.8 1.7 1.7 1.7h26.8c1 0 1.7-0.8 1.7-1.7v-9.2c0.1-0.9-0.7-1.7-1.7-1.7z"/>
			<path d="m176.9 74.7h-9.2c-1 0-1.7 0.8-1.7 1.7v3.7c0 1 0.8 1.7 1.7 1.7h9.2c1 0 1.7-0.8 1.7-1.7v-3.7c0.1-1-0.7-1.7-1.7-1.7z"/>
			<path d="m205.1 74.7h-9.1c-1 0-1.7 0.8-1.7 1.7v3.7c0 1 0.8 1.7 1.7 1.7h9.2c1 0 1.7-0.8 1.7-1.7v-3.7c0-1-0.8-1.7-1.8-1.7z"/>
			<path d="m191 67.5h-9.2c-1 0-1.7 0.8-1.7 1.7v10.9c0 1 0.8 1.7 1.7 1.7h9.2c1 0 1.7-0.8 1.7-1.7v-10.9c0.1-0.9-0.7-1.7-1.7-1.7z"/>
			<path d="m130.8 67.5h-65.5c-1 0-1.7 0.8-1.7 1.7v10.9c0 1 0.8 1.7 1.7 1.7h65.5c1 0 1.7-0.8 1.7-1.7v-10.9c0.1-0.9-0.7-1.7-1.7-1.7z"/>
		</g>
			<g fill="#fff">
				<path d="m29.9 22.8c0 1-0.8 1.7-1.7 1.7h-9.2c-1 0-1.7-0.8-1.7-1.7v-9.2c0-1 0.8-1.7 1.7-1.7h9.2c1 0 1.7 0.8 1.7 1.7v9.2z"/>
				<path stroke="#585857" stroke-width=".2823" stroke-miterlimit="10" d="m28.2 24.6h-9.2c-1 0-1.9-0.8-1.9-1.9v-9.2c0-1 0.8-1.9 1.9-1.9h9.2c1 0 1.9 0.8 1.9 1.9v9.2c-0.1 1.1-0.9 1.9-1.9 1.9zm-9.2-12.6c-0.9 0-1.6 0.7-1.6 1.6v9.2c0 0.9 0.7 1.6 1.6 1.6h9.2c0.9 0 1.6-0.7 1.6-1.6v-9.2c0-0.9-0.7-1.6-1.6-1.6h-9.2z" display="none"/>
			</g>
			<g fill="#fff">
				<path d="m15.8 22.8c0 1-0.8 1.7-1.7 1.7h-9.2c-1 0-1.7-0.8-1.7-1.7v-9.2c0-1 0.8-1.7 1.7-1.7h9.2c1 0 1.7 0.8 1.7 1.7v9.2z"/>
				<path stroke="#585857" stroke-width=".2823" stroke-miterlimit="10" d="m14.1 24.6h-9.2c-1 0-1.9-0.8-1.9-1.9v-9.2c0-1 0.8-1.9 1.9-1.9h9.2c1 0 1.9 0.8 1.9 1.9v9.2c0 1.1-0.9 1.9-1.9 1.9zm-9.2-12.6c-0.9 0-1.6 0.7-1.6 1.6v9.2c0 0.9 0.7 1.6 1.6 1.6h9.2c0.9 0 1.6-0.7 1.6-1.6v-9.2c0-0.9-0.7-1.6-1.6-1.6h-9.2z" display="none"/>
			</g>
			<g fill="#fff">
				<path d="m58.1 22.8c0 1-0.8 1.7-1.7 1.7h-9.2c-1 0-1.7-0.8-1.7-1.7v-9.2c0-1 0.8-1.7 1.7-1.7h9.2c1 0 1.7 0.8 1.7 1.7v9.2z"/>
				<path stroke="#585857" stroke-width=".2823" stroke-miterlimit="10" d="m56.3 24.6h-9.2c-1 0-1.9-0.8-1.9-1.9v-9.2c0-1 0.8-1.9 1.9-1.9h9.2c1 0 1.9 0.8 1.9 1.9v9.2c0 1.1-0.8 1.9-1.9 1.9zm-9.1-12.6c-0.9 0-1.6 0.7-1.6 1.6v9.2c0 0.9 0.7 1.6 1.6 1.6h9.2c0.9 0 1.6-0.7 1.6-1.6v-9.2c0-0.9-0.7-1.6-1.6-1.6h-9.2z" display="none"/>
			</g>
			<g fill="#fff">
				<path d="m44 22.8c0 1-0.8 1.7-1.7 1.7h-9.2c-1 0-1.7-0.8-1.7-1.7v-9.2c0-1 0.8-1.7 1.7-1.7h9.2c1 0 1.7 0.8 1.7 1.7v9.2z"/>
				<path stroke="#585857" stroke-width=".2823" stroke-miterlimit="10" d="m42.2 24.6h-9.2c-1 0-1.9-0.8-1.9-1.9v-9.2c0-1 0.8-1.9 1.9-1.9h9.2c1 0 1.9 0.8 1.9 1.9v9.2c0 1.1-0.8 1.9-1.9 1.9zm-9.1-12.6c-0.9 0-1.6 0.7-1.6 1.6v9.2c0 0.9 0.7 1.6 1.6 1.6h9.2c0.9 0 1.6-0.7 1.6-1.6v-9.2c0-0.9-0.7-1.6-1.6-1.6h-9.2z" display="none"/>
			</g>
			<g fill="#fff">
				<path d="m86.3 22.8c0 1-0.8 1.7-1.7 1.7h-9.2c-1 0-1.7-0.8-1.7-1.7v-9.2c0-1 0.8-1.7 1.7-1.7h9.2c1 0 1.7 0.8 1.7 1.7v9.2z"/>
				<path stroke="#585857" stroke-width=".2823" stroke-miterlimit="10" d="m84.6 24.6h-9.2c-1 0-1.9-0.8-1.9-1.9v-9.2c0-1 0.8-1.9 1.9-1.9h9.2c1 0 1.9 0.8 1.9 1.9v9.2c0 1.1-0.9 1.9-1.9 1.9zm-9.2-12.6c-0.9 0-1.6 0.7-1.6 1.6v9.2c0 0.9 0.7 1.6 1.6 1.6h9.2c0.9 0 1.6-0.7 1.6-1.6v-9.2c0-0.9-0.7-1.6-1.6-1.6h-9.2z" display="none"/>
			</g>
			<g fill="#fff">
				<path d="m72.2 22.8c0 1-0.8 1.7-1.7 1.7h-9.2c-1 0-1.7-0.8-1.7-1.7v-9.2c0-1 0.8-1.7 1.7-1.7h9.2c1 0 1.7 0.8 1.7 1.7v9.2z"/>
				<path stroke="#585857" stroke-width=".2823" stroke-miterlimit="10" d="m70.5 24.6h-9.2c-1 0-1.9-0.8-1.9-1.9v-9.2c0-1 0.8-1.9 1.9-1.9h9.2c1 0 1.9 0.8 1.9 1.9v9.2c0 1.1-0.9 1.9-1.9 1.9zm-9.2-12.6c-0.9 0-1.6 0.7-1.6 1.6v9.2c0 0.9 0.7 1.6 1.6 1.6h9.2c0.9 0 1.6-0.7 1.6-1.6v-9.2c0-0.9-0.7-1.6-1.6-1.6h-9.2z" display="none"/>
			</g>
			<g fill="#fff">
				<path d="m114.5 22.8c0 1-0.8 1.7-1.7 1.7h-9.2c-1 0-1.7-0.8-1.7-1.7v-9.2c0-1 0.8-1.7 1.7-1.7h9.2c1 0 1.7 0.8 1.7 1.7v9.2z"/>
				<path stroke="#585857" stroke-width=".2823" stroke-miterlimit="10" d="m112.8 24.6h-9.2c-1 0-1.9-0.8-1.9-1.9v-9.2c0-1 0.8-1.9 1.9-1.9h9.2c1 0 1.9 0.8 1.9 1.9v9.2c-0.1 1.1-0.9 1.9-1.9 1.9zm-9.2-12.6c-0.9 0-1.6 0.7-1.6 1.6v9.2c0 0.9 0.7 1.6 1.6 1.6h9.2c0.9 0 1.6-0.7 1.6-1.6v-9.2c0-0.9-0.7-1.6-1.6-1.6h-9.2z" display="none"/>
			</g>
			<g fill="#fff">
				<path d="m100.4 22.8c0 1-0.8 1.7-1.7 1.7h-9.2c-1 0-1.7-0.8-1.7-1.7v-9.2c0-1 0.8-1.7 1.7-1.7h9.2c1 0 1.7 0.8 1.7 1.7v9.2z"/>
				<path stroke="#585857" stroke-width=".2823" stroke-miterlimit="10" d="m98.7 24.6h-9.2c-1 0-1.9-0.8-1.9-1.9v-9.2c0-1 0.8-1.9 1.9-1.9h9.2c1 0 1.9 0.8 1.9 1.9v9.2c0 1.1-0.9 1.9-1.9 1.9zm-9.2-12.6c-0.9 0-1.6 0.7-1.6 1.6v9.2c0 0.9 0.7 1.6 1.6 1.6h9.2c0.9 0 1.6-0.7 1.6-1.6v-9.2c0-0.9-0.7-1.6-1.6-1.6h-9.2z" display="none"/>
			</g>
			<g fill="#fff">
				<path d="m128.7 22.8c0 1-0.8 1.7-1.7 1.7h-9.2c-1 0-1.7-0.8-1.7-1.7v-9.2c0-1 0.8-1.7 1.7-1.7h9.2c1 0 1.7 0.8 1.7 1.7v9.2z"/>
				<path stroke="#585857" stroke-width=".2823" stroke-miterlimit="10" d="m126.9 24.6h-9.2c-1 0-1.9-0.8-1.9-1.9v-9.2c0-1 0.8-1.9 1.9-1.9h9.2c1 0 1.9 0.8 1.9 1.9v9.2c0 1.1-0.8 1.9-1.9 1.9zm-9.1-12.6c-0.9 0-1.6 0.7-1.6 1.6v9.2c0 0.9 0.7 1.6 1.6 1.6h9.2c0.9 0 1.6-0.7 1.6-1.6v-9.2c0-0.9-0.7-1.6-1.6-1.6h-9.2z" display="none"/>
			</g>
			<g fill="#fff">
				<path d="m156.9 22.8c0 1-0.8 1.7-1.7 1.7h-9.2c-1 0-1.7-0.8-1.7-1.7v-9.2c0-1 0.8-1.7 1.7-1.7h9.2c1 0 1.7 0.8 1.7 1.7v9.2z"/>
				<path stroke="#585857" stroke-width=".2823" stroke-miterlimit="10" d="m155.2 24.6h-9.2c-1 0-1.9-0.8-1.9-1.9v-9.2c0-1 0.8-1.9 1.9-1.9h9.2c1 0 1.9 0.8 1.9 1.9v9.2c0 1.1-0.9 1.9-1.9 1.9zm-9.2-12.6c-0.9 0-1.6 0.7-1.6 1.6v9.2c0 0.9 0.7 1.6 1.6 1.6h9.2c0.9 0 1.6-0.7 1.6-1.6v-9.2c0-0.9-0.7-1.6-1.6-1.6h-9.2z" display="none"/>
			</g>
			<g fill="#fff">
				<path d="m142.9 22.8c0 1-0.8 1.7-1.7 1.7h-9.2c-1 0-1.7-0.8-1.7-1.7v-9.2c0-1 0.8-1.7 1.7-1.7h9.2c1 0 1.7 0.8 1.7 1.7v9.2z"/>
				<path stroke="#585857" stroke-width=".2823" stroke-miterlimit="10" d="m141.1 24.6h-9.1c-1 0-1.9-0.8-1.9-1.9v-9.2c0-1 0.8-1.9 1.9-1.9h9.2c1 0 1.9 0.8 1.9 1.9v9.2c-0.1 1.1-0.9 1.9-2 1.9zm-9.1-12.6c-0.9 0-1.6 0.7-1.6 1.6v9.2c0 0.9 0.7 1.6 1.6 1.6h9.2c0.9 0 1.6-0.7 1.6-1.6v-9.2c0-0.9-0.7-1.6-1.6-1.6h-9.2z" display="none"/>
			</g>
			<g fill="#fff">
				<path d="m185.1 22.8c0 1-0.8 1.7-1.7 1.7h-9.2c-1 0-1.7-0.8-1.7-1.7v-9.2c0-1 0.8-1.7 1.7-1.7h9.2c1 0 1.7 0.8 1.7 1.7v9.2z"/>
				<path stroke="#585857" stroke-width=".2823" stroke-miterlimit="10" d="m183.4 24.6h-9.2c-1 0-1.9-0.8-1.9-1.9v-9.2c0-1 0.8-1.9 1.9-1.9h9.2c1 0 1.9 0.8 1.9 1.9v9.2c0 1.1-0.9 1.9-1.9 1.9zm-9.2-12.6c-0.9 0-1.6 0.7-1.6 1.6v9.2c0 0.9 0.7 1.6 1.6 1.6h9.2c0.9 0 1.6-0.7 1.6-1.6v-9.2c0-0.9-0.7-1.6-1.6-1.6h-9.2z" display="none"/>
			</g>
				<path d="m171 22.8c0 1-0.8 1.7-1.7 1.7h-9.2c-1 0-1.7-0.8-1.7-1.7v-9.2c0-1 0.8-1.7 1.7-1.7h9.2c1 0 1.7 0.8 1.7 1.7v9.2z" fill="#fff"/>
				<path d="m138.9 25.6c-0.9 0-1.6 0.7-1.6 1.6v9.2c0 0.9 0.7 1.6 1.6 1.6h9.2c0.9 0 1.6-0.7 1.6-1.6v-9.2c0-0.9-0.7-1.6-1.6-1.6h-9.2z" fill="#fff"/>
			<g fill="#fff">
				<path d="m178.1 36.4c0 1-0.8 1.7-1.7 1.7h-9.2c-1 0-1.7-0.8-1.7-1.7v-9.2c0-1 0.8-1.7 1.7-1.7h9.2c1 0 1.7 0.8 1.7 1.7v9.2z"/>
				<path stroke="#585857" stroke-width=".2823" stroke-miterlimit="10" d="m176.3 38.2h-9.2c-1 0-1.9-0.8-1.9-1.9v-9.2c0-1 0.8-1.9 1.9-1.9h9.2c1 0 1.9 0.8 1.9 1.9v9.2c0 1.1-0.8 1.9-1.9 1.9zm-9.1-12.6c-0.9 0-1.6 0.7-1.6 1.6v9.2c0 0.9 0.7 1.6 1.6 1.6h9.2c0.9 0 1.6-0.7 1.6-1.6v-9.2c0-0.9-0.7-1.6-1.6-1.6h-9.2z" display="none"/>
			</g>
			<g fill="#fff">
				<path d="m164 36.4c0 1-0.8 1.7-1.7 1.7h-9.2c-1 0-1.7-0.8-1.7-1.7v-9.2c0-1 0.8-1.7 1.7-1.7h9.2c1 0 1.7 0.8 1.7 1.7v9.2z"/>
				<path stroke="#585857" stroke-width=".2823" stroke-miterlimit="10" d="m162.3 38.2h-9.2c-1 0-1.9-0.8-1.9-1.9v-9.2c0-1 0.8-1.9 1.9-1.9h9.2c1 0 1.9 0.8 1.9 1.9v9.2c-0.1 1.1-0.9 1.9-1.9 1.9zm-9.2-12.6c-0.9 0-1.6 0.7-1.6 1.6v9.2c0 0.9 0.7 1.6 1.6 1.6h9.2c0.9 0 1.6-0.7 1.6-1.6v-9.2c0-0.9-0.7-1.6-1.6-1.6h-9.2z" display="none"/>
			</g>
			<g fill="#fff">
				<path d="m206.2 36.4c0 1-0.8 1.7-1.7 1.7h-9.2c-1 0-1.7-0.8-1.7-1.7v-9.2c0-1 0.8-1.7 1.7-1.7h9.2c1 0 1.7 0.8 1.7 1.7v9.2z"/>
				<path stroke="#585857" stroke-width=".2823" stroke-miterlimit="10" d="m204.5 38.2h-9.2c-1 0-1.9-0.8-1.9-1.9v-9.2c0-1 0.8-1.9 1.9-1.9h9.2c1 0 1.9 0.8 1.9 1.9v9.2c0 1.1-0.9 1.9-1.9 1.9zm-9.2-12.6c-0.9 0-1.6 0.7-1.6 1.6v9.2c0 0.9 0.7 1.6 1.6 1.6h9.2c0.9 0 1.6-0.7 1.6-1.6v-9.2c0-0.9-0.7-1.6-1.6-1.6h-9.2z" display="none"/>
			</g>
			<g fill="#fff">
				<path d="m192.2 36.4c0 1-0.8 1.7-1.7 1.7h-9.2c-1 0-1.7-0.8-1.7-1.7v-9.2c0-1 0.8-1.7 1.7-1.7h9.2c1 0 1.7 0.8 1.7 1.7v9.2z"/>
				<path stroke="#585857" stroke-width=".2823" stroke-miterlimit="10" d="m190.4 38.2h-9.2c-1 0-1.9-0.8-1.9-1.9v-9.2c0-1 0.8-1.9 1.9-1.9h9.2c1 0 1.9 0.8 1.9 1.9v9.2c0 1.1-0.8 1.9-1.9 1.9zm-9.1-12.6c-0.9 0-1.6 0.7-1.6 1.6v9.2c0 0.9 0.7 1.6 1.6 1.6h9.2c0.9 0 1.6-0.7 1.6-1.6v-9.2c0-0.9-0.7-1.6-1.6-1.6h-9.2z" display="none"/>
			</g>
			<g fill="#fff">
				<path d="m79.2 36.4c0 1-0.8 1.7-1.7 1.7h-9.2c-1 0-1.7-0.8-1.7-1.7v-9.2c0-1 0.8-1.7 1.7-1.7h9.2c1 0 1.7 0.8 1.7 1.7v9.2z"/>
				<path stroke="#585857" stroke-width=".2823" stroke-miterlimit="10" d="m77.5 38.2h-9.2c-1 0-1.9-0.8-1.9-1.9v-9.2c0-1 0.8-1.9 1.9-1.9h9.2c1 0 1.9 0.8 1.9 1.9v9.2c-0.1 1.1-0.9 1.9-1.9 1.9zm-9.2-12.6c-0.9 0-1.6 0.7-1.6 1.6v9.2c0 0.9 0.7 1.6 1.6 1.6h9.2c0.9 0 1.6-0.7 1.6-1.6v-9.2c0-0.9-0.7-1.6-1.6-1.6h-9.2z" display="none"/>
			</g>
			<g fill="#fff">
				<path d="m107.5 36.4c0 1-0.8 1.7-1.7 1.7h-9.2c-1 0-1.7-0.8-1.7-1.7v-9.2c0-1 0.8-1.7 1.7-1.7h9.2c1 0 1.7 0.8 1.7 1.7v9.2z"/>
				<path stroke="#585857" stroke-width=".2823" stroke-miterlimit="10" d="m105.7 38.2h-9.2c-1 0-1.9-0.8-1.9-1.9v-9.2c0-1 0.8-1.9 1.9-1.9h9.2c1 0 1.9 0.8 1.9 1.9v9.2c0 1.1-0.8 1.9-1.9 1.9zm-9.1-12.6c-0.9 0-1.6 0.7-1.6 1.6v9.2c0 0.9 0.7 1.6 1.6 1.6h9.2c0.9 0 1.6-0.7 1.6-1.6v-9.2c0-0.9-0.7-1.6-1.6-1.6h-9.2z" display="none"/>
			</g>
			<g fill="#fff">
				<path d="m93.4 36.4c0 1-0.8 1.7-1.7 1.7h-9.2c-1 0-1.7-0.8-1.7-1.7v-9.2c0-1 0.8-1.7 1.7-1.7h9.2c1 0 1.7 0.8 1.7 1.7v9.2z"/>
				<path stroke="#585857" stroke-width=".2823" stroke-miterlimit="10" d="m91.6 38.2h-9.2c-1 0-1.9-0.8-1.9-1.9v-9.2c0-1 0.8-1.9 1.9-1.9h9.2c1 0 1.9 0.8 1.9 1.9v9.2c0 1.1-0.8 1.9-1.9 1.9zm-9.1-12.6c-0.9 0-1.6 0.7-1.6 1.6v9.2c0 0.9 0.7 1.6 1.6 1.6h9.2c0.9 0 1.6-0.7 1.6-1.6v-9.2c0-0.9-0.7-1.6-1.6-1.6h-9.2z" display="none"/>
			</g>
			<g fill="#fff">
				<path d="m36.9 36.4c0 1-0.8 1.7-1.7 1.7h-9.2c-1 0-1.7-0.8-1.7-1.7v-9.2c0-1 0.8-1.7 1.7-1.7h9.2c1 0 1.7 0.8 1.7 1.7v9.2z"/>
				<path stroke="#585857" stroke-width=".2823" stroke-miterlimit="10" d="m35.2 38.2h-9.2c-1 0-1.9-0.8-1.9-1.9v-9.2c0-1 0.8-1.9 1.9-1.9h9.2c1 0 1.9 0.8 1.9 1.9v9.2c0 1.1-0.9 1.9-1.9 1.9zm-9.2-12.6c-0.9 0-1.6 0.7-1.6 1.6v9.2c0 0.9 0.7 1.6 1.6 1.6h9.2c0.9 0 1.6-0.7 1.6-1.6v-9.2c0-0.9-0.7-1.6-1.6-1.6h-9.2z" display="none"/>
			</g>
			<g fill="#fff">
				<path d="m65.2 36.4c0 1-0.8 1.7-1.7 1.7h-9.2c-1 0-1.7-0.8-1.7-1.7v-9.2c0-1 0.8-1.7 1.7-1.7h9.2c1 0 1.7 0.8 1.7 1.7v9.2z"/>
				<path stroke="#585857" stroke-width=".2823" stroke-miterlimit="10" d="m63.5 38.2h-9.2c-1 0-1.9-0.8-1.9-1.9v-9.2c0-1 0.8-1.9 1.9-1.9h9.2c1 0 1.9 0.8 1.9 1.9v9.2c-0.1 1.1-0.9 1.9-1.9 1.9zm-9.2-12.6c-0.9 0-1.6 0.7-1.6 1.6v9.2c0 0.9 0.7 1.6 1.6 1.6h9.2c0.9 0 1.6-0.7 1.6-1.6v-9.2c0-0.9-0.7-1.6-1.6-1.6h-9.2z" display="none"/>
			</g>
			<g fill="#fff">
				<path d="m51.1 36.4c0 1-0.8 1.7-1.7 1.7h-9.2c-1 0-1.7-0.8-1.7-1.7v-9.2c0-1 0.8-1.7 1.7-1.7h9.2c1 0 1.7 0.8 1.7 1.7v9.2z"/>
				<path stroke="#585857" stroke-width=".2823" stroke-miterlimit="10" d="m49.4 38.2h-9.2c-1 0-1.9-0.8-1.9-1.9v-9.2c0-1 0.8-1.9 1.9-1.9h9.2c1 0 1.9 0.8 1.9 1.9v9.2c0 1.1-0.9 1.9-1.9 1.9zm-9.2-12.6c-0.9 0-1.6 0.7-1.6 1.6v9.2c0 0.9 0.7 1.6 1.6 1.6h9.2c0.9 0 1.6-0.7 1.6-1.6v-9.2c0-0.9-0.7-1.6-1.6-1.6h-9.2z" display="none"/>
			</g>
			<g fill="#fff">
				<path d="m135.6 36.4c0 1-0.8 1.7-1.7 1.7h-9.2c-1 0-1.7-0.8-1.7-1.7v-9.2c0-1 0.8-1.7 1.7-1.7h9.2c1 0 1.7 0.8 1.7 1.7v9.2z"/>
				<path stroke="#585857" stroke-width=".2823" stroke-miterlimit="10" d="m133.9 38.2h-9.2c-1 0-1.9-0.8-1.9-1.9v-9.2c0-1 0.8-1.9 1.9-1.9h9.2c1 0 1.9 0.8 1.9 1.9v9.2c0 1.1-0.9 1.9-1.9 1.9zm-9.2-12.6c-0.9 0-1.6 0.7-1.6 1.6v9.2c0 0.9 0.7 1.6 1.6 1.6h9.2c0.9 0 1.6-0.7 1.6-1.6v-9.2c0-0.9-0.7-1.6-1.6-1.6h-9.2z" display="none"/>
			</g>
			<g fill="#fff">
				<path d="m121.5 36.4c0 1-0.8 1.7-1.7 1.7h-9.2c-1 0-1.7-0.8-1.7-1.7v-9.2c0-1 0.8-1.7 1.7-1.7h9.2c1 0 1.7 0.8 1.7 1.7v9.2z"/>
				<path stroke="#585857" stroke-width=".2823" stroke-miterlimit="10" d="m119.8 38.2h-9.2c-1 0-1.9-0.8-1.9-1.9v-9.2c0-1 0.8-1.9 1.9-1.9h9.2c1 0 1.9 0.8 1.9 1.9v9.2c0 1.1-0.9 1.9-1.9 1.9zm-9.2-12.6c-0.9 0-1.6 0.7-1.6 1.6v9.2c0 0.9 0.7 1.6 1.6 1.6h9.2c0.9 0 1.6-0.7 1.6-1.6v-9.2c0-0.9-0.7-1.6-1.6-1.6h-9.2z" display="none"/>
			</g>
			<g fill="#fff">
				<path d="m153.2 50.2c0 1-0.8 1.7-1.7 1.7h-9.2c-1 0-1.7-0.8-1.7-1.7v-9.2c0-1 0.8-1.7 1.7-1.7h9.2c1 0 1.7 0.8 1.7 1.7v9.2z"/>
				<path stroke="#585857" stroke-width=".2823" stroke-miterlimit="10" d="m151.5 52.1h-9.2c-1 0-1.9-0.8-1.9-1.9v-9.2c0-1 0.8-1.9 1.9-1.9h9.2c1 0 1.9 0.8 1.9 1.9v9.2c0 1.1-0.9 1.9-1.9 1.9zm-9.2-12.6c-0.9 0-1.6 0.7-1.6 1.6v9.2c0 0.9 0.7 1.6 1.6 1.6h9.2c0.9 0 1.6-0.7 1.6-1.6v-9.2c0-0.9-0.7-1.6-1.6-1.6h-9.2z" display="none"/>
			</g>
			<g fill="#fff">
				<path d="m181.5 50.2c0 1-0.8 1.7-1.7 1.7h-9.2c-1 0-1.7-0.8-1.7-1.7v-9.2c0-1 0.8-1.7 1.7-1.7h9.2c1 0 1.7 0.8 1.7 1.7v9.2z"/>
				<path stroke="#585857" stroke-width=".2823" stroke-miterlimit="10" d="m179.8 52.1h-9.2c-1 0-1.9-0.8-1.9-1.9v-9.2c0-1 0.8-1.9 1.9-1.9h9.2c1 0 1.9 0.8 1.9 1.9v9.2c-0.1 1.1-0.9 1.9-1.9 1.9zm-9.2-12.6c-0.9 0-1.6 0.7-1.6 1.6v9.2c0 0.9 0.7 1.6 1.6 1.6h9.2c0.9 0 1.6-0.7 1.6-1.6v-9.2c0-0.9-0.7-1.6-1.6-1.6h-9.2z" display="none"/>
			</g>
			<g fill="#fff">
				<path d="m167.4 50.2c0 1-0.8 1.7-1.7 1.7h-9.2c-1 0-1.7-0.8-1.7-1.7v-9.2c0-1 0.8-1.7 1.7-1.7h9.2c1 0 1.7 0.8 1.7 1.7v9.2z"/>
				<path stroke="#585857" stroke-width=".2823" stroke-miterlimit="10" d="m165.7 52.1h-9.2c-1 0-1.9-0.8-1.9-1.9v-9.2c0-1 0.8-1.9 1.9-1.9h9.2c1 0 1.9 0.8 1.9 1.9v9.2c0 1.1-0.9 1.9-1.9 1.9zm-9.2-12.6c-0.9 0-1.6 0.7-1.6 1.6v9.2c0 0.9 0.7 1.6 1.6 1.6h9.2c0.9 0 1.6-0.7 1.6-1.6v-9.2c0-0.9-0.7-1.6-1.6-1.6h-9.2z" display="none"/>
			</g>
			<g fill="#fff">
				<path d="m82.6 50.2c0 1-0.8 1.7-1.7 1.7h-9.2c-1 0-1.7-0.8-1.7-1.7v-9.2c0-1 0.8-1.7 1.7-1.7h9.2c1 0 1.7 0.8 1.7 1.7v9.2z"/>
				<path stroke="#585857" stroke-width=".2823" stroke-miterlimit="10" d="m80.9 52.1h-9.2c-1 0-1.9-0.8-1.9-1.9v-9.2c0-1 0.8-1.9 1.9-1.9h9.2c1 0 1.9 0.8 1.9 1.9v9.2c0 1.1-0.9 1.9-1.9 1.9zm-9.2-12.6c-0.9 0-1.6 0.7-1.6 1.6v9.2c0 0.9 0.7 1.6 1.6 1.6h9.2c0.9 0 1.6-0.7 1.6-1.6v-9.2c0-0.9-0.7-1.6-1.6-1.6h-9.2z" display="none"/>
			</g>
			<g fill="#fff">
				<path d="m110.9 50.2c0 1-0.8 1.7-1.7 1.7h-9.2c-1 0-1.7-0.8-1.7-1.7v-9.2c0-1 0.8-1.7 1.7-1.7h9.2c1 0 1.7 0.8 1.7 1.7v9.2z"/>
				<path stroke="#585857" stroke-width=".2823" stroke-miterlimit="10" d="m109.1 52.1h-9.1c-1 0-1.9-0.8-1.9-1.9v-9.2c0-1 0.8-1.9 1.9-1.9h9.2c1 0 1.9 0.8 1.9 1.9v9.2c-0.1 1.1-0.9 1.9-2 1.9zm-9.1-12.6c-0.9 0-1.6 0.7-1.6 1.6v9.2c0 0.9 0.7 1.6 1.6 1.6h9.2c0.9 0 1.6-0.7 1.6-1.6v-9.2c0-0.9-0.7-1.6-1.6-1.6h-9.2z" display="none"/>
			</g>
			<g fill="#fff">
				<path d="m96.8 50.2c0 1-0.8 1.7-1.7 1.7h-9.2c-1 0-1.7-0.8-1.7-1.7v-9.2c0-1 0.8-1.7 1.7-1.7h9.2c1 0 1.7 0.8 1.7 1.7v9.2z"/>
				<path stroke="#585857" stroke-width=".2823" stroke-miterlimit="10" d="m95.1 52.1h-9.2c-1 0-1.9-0.8-1.9-1.9v-9.2c0-1 0.8-1.9 1.9-1.9h9.2c1 0 1.9 0.8 1.9 1.9v9.2c-0.1 1.1-0.9 1.9-1.9 1.9zm-9.2-12.6c-0.9 0-1.6 0.7-1.6 1.6v9.2c0 0.9 0.7 1.6 1.6 1.6h9.2c0.9 0 1.6-0.7 1.6-1.6v-9.2c0-0.9-0.7-1.6-1.6-1.6h-9.2z" display="none"/>
			</g>
			<g fill="#fff">
				<path d="m40.4 50.2c0 1-0.8 1.7-1.7 1.7h-9.2c-1 0-1.7-0.8-1.7-1.7v-9.2c0-1 0.8-1.7 1.7-1.7h9.2c1 0 1.7 0.8 1.7 1.7v9.2z"/>
				<path stroke="#585857" stroke-width=".2823" stroke-miterlimit="10" d="m38.6 52.1h-9.2c-1 0-1.9-0.8-1.9-1.9v-9.2c0-1 0.8-1.9 1.9-1.9h9.2c1 0 1.9 0.8 1.9 1.9v9.2c0 1.1-0.8 1.9-1.9 1.9zm-9.1-12.6c-0.9 0-1.6 0.7-1.6 1.6v9.2c0 0.9 0.7 1.6 1.6 1.6h9.2c0.9 0 1.6-0.7 1.6-1.6v-9.2c0-0.9-0.7-1.6-1.6-1.6h-9.2z" display="none"/>
			</g>
			<g fill="#fff">
				<path d="m68.6 50.2c0 1-0.8 1.7-1.7 1.7h-9.2c-1 0-1.7-0.8-1.7-1.7v-9.2c0-1 0.8-1.7 1.7-1.7h9.2c1 0 1.7 0.8 1.7 1.7v9.2z"/>
				<path stroke="#585857" stroke-width=".2823" stroke-miterlimit="10" d="m66.9 52.1h-9.2c-1 0-1.9-0.8-1.9-1.9v-9.2c0-1 0.8-1.9 1.9-1.9h9.2c1 0 1.9 0.8 1.9 1.9v9.2c0 1.1-0.9 1.9-1.9 1.9zm-9.2-12.6c-0.9 0-1.6 0.7-1.6 1.6v9.2c0 0.9 0.7 1.6 1.6 1.6h9.2c0.9 0 1.6-0.7 1.6-1.6v-9.2c0-0.9-0.7-1.6-1.6-1.6h-9.2z" display="none"/>
			</g>
			<g fill="#fff">
				<path d="m54.5 50.2c0 1-0.8 1.7-1.7 1.7h-9.2c-1 0-1.7-0.8-1.7-1.7v-9.2c0-1 0.8-1.7 1.7-1.7h9.2c1 0 1.7 0.8 1.7 1.7v9.2z"/>
				<path stroke="#585857" stroke-width=".2823" stroke-miterlimit="10" d="m52.8 52.1h-9.2c-1 0-1.9-0.8-1.9-1.9v-9.2c0-1 0.8-1.9 1.9-1.9h9.2c1 0 1.9 0.8 1.9 1.9v9.2c0 1.1-0.9 1.9-1.9 1.9zm-9.2-12.6c-0.9 0-1.6 0.7-1.6 1.6v9.2c0 0.9 0.7 1.6 1.6 1.6h9.2c0.9 0 1.6-0.7 1.6-1.6v-9.2c0-0.9-0.7-1.6-1.6-1.6h-9.2z" display="none"/>
			</g>
			<g fill="#fff">
				<path d="m139.1 50.2c0 1-0.8 1.7-1.7 1.7h-9.2c-1 0-1.7-0.8-1.7-1.7v-9.2c0-1 0.8-1.7 1.7-1.7h9.2c1 0 1.7 0.8 1.7 1.7v9.2z"/>
				<path stroke="#585857" stroke-width=".2823" stroke-miterlimit="10" d="m137.3 52.1h-9.2c-1 0-1.9-0.8-1.9-1.9v-9.2c0-1 0.8-1.9 1.9-1.9h9.2c1 0 1.9 0.8 1.9 1.9v9.2c0 1.1-0.8 1.9-1.9 1.9zm-9.1-12.6c-0.9 0-1.6 0.7-1.6 1.6v9.2c0 0.9 0.7 1.6 1.6 1.6h9.2c0.9 0 1.6-0.7 1.6-1.6v-9.2c0-0.9-0.7-1.6-1.6-1.6h-9.2z" display="none"/>
			</g>
			<g fill="#fff">
				<path d="m125 50.2c0 1-0.8 1.7-1.7 1.7h-9.2c-1 0-1.7-0.8-1.7-1.7v-9.2c0-1 0.8-1.7 1.7-1.7h9.2c1 0 1.7 0.8 1.7 1.7v9.2z"/>
				<path stroke="#585857" stroke-width=".2823" stroke-miterlimit="10" d="m123.2 52.1h-9.2c-1 0-1.9-0.8-1.9-1.9v-9.2c0-1 0.8-1.9 1.9-1.9h9.2c1 0 1.9 0.8 1.9 1.9v9.2c0 1.1-0.8 1.9-1.9 1.9zm-9.1-12.6c-0.9 0-1.6 0.7-1.6 1.6v9.2c0 0.9 0.7 1.6 1.6 1.6h9.2c0.9 0 1.6-0.7 1.6-1.6v-9.2c0-0.9-0.7-1.6-1.6-1.6h-9.2z" display="none"/>
			</g>
			<g fill="#fff">
				<path d="m160.2 64c0 1-0.8 1.7-1.7 1.7h-9.2c-1 0-1.7-0.8-1.7-1.7v-9.2c0-1 0.8-1.7 1.7-1.7h9.2c1 0 1.7 0.8 1.7 1.7v9.2z"/>
				<path stroke="#585857" stroke-width=".2823" stroke-miterlimit="10" d="m158.5 65.9h-9.2c-1 0-1.9-0.8-1.9-1.9v-9.2c0-1 0.8-1.9 1.9-1.9h9.2c1 0 1.9 0.8 1.9 1.9v9.2c0 1-0.9 1.9-1.9 1.9zm-9.2-12.7c-0.9 0-1.6 0.7-1.6 1.6v9.2c0 0.9 0.7 1.6 1.6 1.6h9.2c0.9 0 1.6-0.7 1.6-1.6v-9.2c0-0.9-0.7-1.6-1.6-1.6h-9.2z" display="none"/>
			</g>
			<g fill="#fff">
				<path d="m174.4 64c0 1-0.8 1.7-1.7 1.7h-9.2c-1 0-1.7-0.8-1.7-1.7v-9.2c0-1 0.8-1.7 1.7-1.7h9.2c1 0 1.7 0.8 1.7 1.7v9.2z"/>
				<path stroke="#585857" stroke-width=".2823" stroke-miterlimit="10" d="m172.7 65.9h-9.2c-1 0-1.9-0.8-1.9-1.9v-9.2c0-1 0.8-1.9 1.9-1.9h9.2c1 0 1.9 0.8 1.9 1.9v9.2c0 1-0.9 1.9-1.9 1.9zm-9.2-12.7c-0.9 0-1.6 0.7-1.6 1.6v9.2c0 0.9 0.7 1.6 1.6 1.6h9.2c0.9 0 1.6-0.7 1.6-1.6v-9.2c0-0.9-0.7-1.6-1.6-1.6h-9.2z" display="none"/>
			</g>
			<g fill="#fff">
				<path d="m89.6 64c0 1-0.8 1.7-1.7 1.7h-9.2c-1 0-1.7-0.8-1.7-1.7v-9.2c0-1 0.8-1.7 1.7-1.7h9.2c1 0 1.7 0.8 1.7 1.7v9.2z"/>
				<path stroke="#585857" stroke-width=".2823" stroke-miterlimit="10" d="m87.9 65.9h-9.2c-1 0-1.9-0.8-1.9-1.9v-9.2c0-1 0.8-1.9 1.9-1.9h9.2c1 0 1.9 0.8 1.9 1.9v9.2c0 1-0.9 1.9-1.9 1.9zm-9.2-12.7c-0.9 0-1.6 0.7-1.6 1.6v9.2c0 0.9 0.7 1.6 1.6 1.6h9.2c0.9 0 1.6-0.7 1.6-1.6v-9.2c0-0.9-0.7-1.6-1.6-1.6h-9.2z" display="none"/>
			</g>
			<g fill="#fff">
				<path d="m117.9 64c0 1-0.8 1.7-1.7 1.7h-9.2c-1 0-1.7-0.8-1.7-1.7v-9.2c0-1 0.8-1.7 1.7-1.7h9.2c1 0 1.7 0.8 1.7 1.7v9.2z"/>
				<path stroke="#585857" stroke-width=".2823" stroke-miterlimit="10" d="m116.1 65.9h-9.1c-1 0-1.9-0.8-1.9-1.9v-9.2c0-1 0.8-1.9 1.9-1.9h9.2c1 0 1.9 0.8 1.9 1.9v9.2c-0.1 1-0.9 1.9-2 1.9zm-9.1-12.7c-0.9 0-1.6 0.7-1.6 1.6v9.2c0 0.9 0.7 1.6 1.6 1.6h9.2c0.9 0 1.6-0.7 1.6-1.6v-9.2c0-0.9-0.7-1.6-1.6-1.6h-9.2z" display="none"/>
			</g>
			<g fill="#fff">
				<path d="m103.8 64c0 1-0.8 1.7-1.7 1.7h-9.2c-1 0-1.7-0.8-1.7-1.7v-9.2c0-1 0.8-1.7 1.7-1.7h9.2c1 0 1.7 0.8 1.7 1.7v9.2z"/>
				<path stroke="#585857" stroke-width=".2823" stroke-miterlimit="10" d="m102.1 65.9h-9.2c-1 0-1.9-0.8-1.9-1.9v-9.2c0-1 0.8-1.9 1.9-1.9h9.2c1 0 1.9 0.8 1.9 1.9v9.2c-0.1 1-0.9 1.9-1.9 1.9zm-9.2-12.7c-0.9 0-1.6 0.7-1.6 1.6v9.2c0 0.9 0.7 1.6 1.6 1.6h9.2c0.9 0 1.6-0.7 1.6-1.6v-9.2c0-0.9-0.7-1.6-1.6-1.6h-9.2z" display="none"/>
			</g>
			<g fill="#fff">
				<path d="m47.4 64c0 1-0.8 1.7-1.7 1.7h-9.2c-1 0-1.7-0.8-1.7-1.7v-9.2c0-1 0.8-1.7 1.7-1.7h9.2c1 0 1.7 0.8 1.7 1.7v9.2z"/>
				<path stroke="#585857" stroke-width=".2823" stroke-miterlimit="10" d="m45.6 65.9h-9.2c-1 0-1.9-0.8-1.9-1.9v-9.2c0-1 0.8-1.9 1.9-1.9h9.2c1 0 1.9 0.8 1.9 1.9v9.2c0 1-0.8 1.9-1.9 1.9zm-9.1-12.7c-0.9 0-1.6 0.7-1.6 1.6v9.2c0 0.9 0.7 1.6 1.6 1.6h9.2c0.9 0 1.6-0.7 1.6-1.6v-9.2c0-0.9-0.7-1.6-1.6-1.6h-9.2z" display="none"/>
			</g>
			<g fill="#fff">
				<path d="m15.8 79.2c0 1.1-0.8 2-1.7 2h-9.2c-1 0-1.7-0.9-1.7-2v-10.3c0-1.1 0.8-2 1.7-2h9.2c1 0 1.7 0.9 1.7 2v10.3z"/>
				<path stroke="#585857" stroke-width=".2823" stroke-miterlimit="10" d="m14.1 81.4h-9.2c-1 0-1.9-0.9-1.9-2.1v-10.4c0-1.2 0.8-2.1 1.9-2.1h9.2c1 0 1.9 0.9 1.9 2.1v10.4c0 1.1-0.9 2.1-1.9 2.1zm-9.2-14.4c-0.9 0-1.6 0.8-1.6 1.8v10.4c0 1 0.7 1.8 1.6 1.8h9.2c0.9 0 1.6-0.8 1.6-1.8v-10.3c0-1-0.7-1.8-1.6-1.8h-9.2z" display="none"/>
			</g>
			<g fill="#fff">
				<path d="m29.9 79.2c0 1.1-0.8 2-1.7 2h-9.2c-1 0-1.7-0.9-1.7-2v-10.3c0-1.1 0.8-2 1.7-2h9.2c1 0 1.7 0.9 1.7 2v10.3z"/>
				<path stroke="#585857" stroke-width=".2823" stroke-miterlimit="10" d="m28.2 81.4h-9.2c-1 0-1.9-0.9-1.9-2.1v-10.4c0-1.2 0.8-2.1 1.9-2.1h9.2c1 0 1.9 0.9 1.9 2.1v10.4c-0.1 1.1-0.9 2.1-1.9 2.1zm-9.2-14.4c-0.9 0-1.6 0.8-1.6 1.8v10.4c0 1 0.7 1.8 1.6 1.8h9.2c0.9 0 1.6-0.8 1.6-1.8v-10.3c0-1-0.7-1.8-1.6-1.8h-9.2z" display="none"/>
			</g>
			<g fill="#fff">
				<path d="m44 79.2c0 1.1-0.8 2-1.7 2h-9.2c-1 0-1.7-0.9-1.7-2v-10.3c0-1.1 0.8-2 1.7-2h9.2c1 0 1.7 0.9 1.7 2v10.3z"/>
				<path stroke="#585857" stroke-width=".2823" stroke-miterlimit="10" d="m42.2 81.4h-9.2c-1 0-1.9-0.9-1.9-2.1v-10.4c0-1.2 0.8-2.1 1.9-2.1h9.2c1 0 1.9 0.9 1.9 2.1v10.4c0 1.1-0.8 2.1-1.9 2.1zm-9.1-14.4c-0.9 0-1.6 0.8-1.6 1.8v10.4c0 1 0.7 1.8 1.6 1.8h9.2c0.9 0 1.6-0.8 1.6-1.8v-10.3c0-1-0.7-1.8-1.6-1.8h-9.2z" display="none"/>
			</g>
			<g fill="#fff">
				<path d="m164 79.2c0 1.1-0.8 2-1.7 2h-9.2c-1 0-1.7-0.9-1.7-2v-10.3c0-1.1 0.8-2 1.7-2h9.2c1 0 1.7 0.9 1.7 2v10.3z"/>
				<path stroke="#585857" stroke-width=".2823" stroke-miterlimit="10" d="m162.3 81.4h-9.2c-1 0-1.9-0.9-1.9-2.1v-10.4c0-1.2 0.8-2.1 1.9-2.1h9.2c1 0 1.9 0.9 1.9 2.1v10.4c-0.1 1.1-0.9 2.1-1.9 2.1zm-9.2-14.4c-0.9 0-1.6 0.8-1.6 1.8v10.4c0 1 0.7 1.8 1.6 1.8h9.2c0.9 0 1.6-0.8 1.6-1.8v-10.3c0-1-0.7-1.8-1.6-1.8h-9.2z" display="none"/>
			</g>
			<g fill="#fff">
				<path d="m75.6 64c0 1-0.8 1.7-1.7 1.7h-9.2c-1 0-1.7-0.8-1.7-1.7v-9.2c0-1 0.8-1.7 1.7-1.7h9.2c1 0 1.7 0.8 1.7 1.7v9.2z"/>
				<path stroke="#585857" stroke-width=".2823" stroke-miterlimit="10" d="m73.9 65.9h-9.2c-1 0-1.9-0.8-1.9-1.9v-9.2c0-1 0.8-1.9 1.9-1.9h9.2c1 0 1.9 0.8 1.9 1.9v9.2c0 1-0.9 1.9-1.9 1.9zm-9.2-12.7c-0.9 0-1.6 0.7-1.6 1.6v9.2c0 0.9 0.7 1.6 1.6 1.6h9.2c0.9 0 1.6-0.7 1.6-1.6v-9.2c0-0.9-0.7-1.6-1.6-1.6h-9.2z" display="none"/>
			</g>
			<g fill="#fff">
				<path d="m61.5 64c0 1-0.8 1.7-1.7 1.7h-9.2c-1 0-1.7-0.8-1.7-1.7v-9.2c0-1 0.8-1.7 1.7-1.7h9.2c1 0 1.7 0.8 1.7 1.7v9.2z"/>
				<path stroke="#585857" stroke-width=".2823" stroke-miterlimit="10" d="m59.8 65.9h-9.2c-1 0-1.9-0.8-1.9-1.9v-9.2c0-1 0.8-1.9 1.9-1.9h9.2c1 0 1.9 0.8 1.9 1.9v9.2c0 1-0.9 1.9-1.9 1.9zm-9.2-12.7c-0.9 0-1.6 0.7-1.6 1.6v9.2c0 0.9 0.7 1.6 1.6 1.6h9.2c0.9 0 1.6-0.7 1.6-1.6v-9.2c0-0.9-0.7-1.6-1.6-1.6h-9.2z" display="none"/>
			</g>
			<g fill="#fff">
				<path d="m146 64c0 1-0.8 1.7-1.7 1.7h-9.2c-1 0-1.7-0.8-1.7-1.7v-9.2c0-1 0.8-1.7 1.7-1.7h9.2c1 0 1.7 0.8 1.7 1.7v9.2z"/>
				<path stroke="#585857" stroke-width=".2823" stroke-miterlimit="10" d="m144.3 65.9h-9.2c-1 0-1.9-0.8-1.9-1.9v-9.2c0-1 0.8-1.9 1.9-1.9h9.2c1 0 1.9 0.8 1.9 1.9v9.2c0 1-0.9 1.9-1.9 1.9zm-9.2-12.7c-0.9 0-1.6 0.7-1.6 1.6v9.2c0 0.9 0.7 1.6 1.6 1.6h9.2c0.9 0 1.6-0.7 1.6-1.6v-9.2c0-0.9-0.7-1.6-1.6-1.6h-9.2z" display="none"/>
			</g>
			<g fill="#fff">
				<path d="m132 64c0 1-0.8 1.7-1.7 1.7h-9.2c-1 0-1.7-0.8-1.7-1.7v-9.2c0-1 0.8-1.7 1.7-1.7h9.2c1 0 1.7 0.8 1.7 1.7v9.2z"/>
				<path stroke="#585857" stroke-width=".2823" stroke-miterlimit="10" d="m130.2 65.9h-9.2c-1 0-1.9-0.8-1.9-1.9v-9.2c0-1 0.8-1.9 1.9-1.9h9.2c1 0 1.9 0.8 1.9 1.9v9.2c0 1-0.8 1.9-1.9 1.9zm-9.1-12.7c-0.9 0-1.6 0.7-1.6 1.6v9.2c0 0.9 0.7 1.6 1.6 1.6h9.2c0.9 0 1.6-0.7 1.6-1.6v-9.2c0-0.9-0.7-1.6-1.6-1.6h-9.2z" display="none"/>
			</g>
			<g fill="#fff">
				<path d="m15.8 8.9c0 1-0.8 1.7-1.7 1.7h-9.2c-1 0-1.7-0.8-1.7-1.7v-3.9c0-1 0.8-1.7 1.7-1.7h9.2c1 0 1.7 0.8 1.7 1.7v3.9z"/>
				<path stroke="#585857" stroke-width=".2823" stroke-miterlimit="10" d="m14.1 10.7h-9.2c-1 0-1.9-0.8-1.9-1.9v-3.8c0-1 0.8-1.9 1.9-1.9h9.2c1 0 1.9 0.8 1.9 1.9v3.9c0 1-0.9 1.8-1.9 1.8zm-9.2-7.3c-0.9 0-1.6 0.7-1.6 1.6v3.9c0 0.9 0.7 1.6 1.6 1.6h9.2c0.9 0 1.6-0.7 1.6-1.6v-3.9c0-0.9-0.7-1.6-1.6-1.6h-9.2z" display="none"/>
			</g>
			<g fill="#fff">
				<path d="m30.6 8.9c0 1-0.8 1.7-1.7 1.7h-9.2c-1 0-1.7-0.8-1.7-1.7v-3.9c0-1 0.8-1.7 1.7-1.7h9.2c1 0 1.7 0.8 1.7 1.7v3.9z"/>
				<path stroke="#585857" stroke-width=".2823" stroke-miterlimit="10" d="m28.9 10.7h-9.2c-1 0-1.9-0.8-1.9-1.9v-3.8c0-1 0.8-1.9 1.9-1.9h9.2c1 0 1.9 0.8 1.9 1.9v3.9c0 1-0.9 1.8-1.9 1.8zm-9.2-7.3c-0.9 0-1.6 0.7-1.6 1.6v3.9c0 0.9 0.7 1.6 1.6 1.6h9.2c0.9 0 1.6-0.7 1.6-1.6v-3.9c0-0.9-0.7-1.6-1.6-1.6h-9.2z" display="none"/>
			</g>
			<g fill="#fff">
				<path d="m45.1 8.9c0 1-0.8 1.7-1.7 1.7h-9.2c-1 0-1.7-0.8-1.7-1.7v-3.9c0-1 0.8-1.7 1.7-1.7h9.2c1 0 1.7 0.8 1.7 1.7v3.9z"/>
				<path stroke="#585857" stroke-width=".2823" stroke-miterlimit="10" d="m43.4 10.7h-9.2c-1 0-1.9-0.8-1.9-1.9v-3.8c0-1 0.8-1.9 1.9-1.9h9.2c1 0 1.9 0.8 1.9 1.9v3.9c-0.1 1-0.9 1.8-1.9 1.8zm-9.2-7.3c-0.9 0-1.6 0.7-1.6 1.6v3.9c0 0.9 0.7 1.6 1.6 1.6h9.2c0.9 0 1.6-0.7 1.6-1.6v-3.9c0-0.9-0.7-1.6-1.6-1.6h-9.2z" display="none"/>
			</g>
			<g fill="#fff">
				<path d="m59.9 8.9c0 1-0.8 1.7-1.7 1.7h-9.2c-1 0-1.7-0.8-1.7-1.7v-3.9c0-1 0.8-1.7 1.7-1.7h9.2c1 0 1.7 0.8 1.7 1.7v3.9z"/>
				<path stroke="#585857" stroke-width=".2823" stroke-miterlimit="10" d="m58.2 10.7h-9.2c-1 0-1.9-0.8-1.9-1.9v-3.8c0-1 0.8-1.9 1.9-1.9h9.2c1 0 1.9 0.8 1.9 1.9v3.9c-0.1 1-0.9 1.8-1.9 1.8zm-9.2-7.3c-0.9 0-1.6 0.7-1.6 1.6v3.9c0 0.9 0.7 1.6 1.6 1.6h9.2c0.9 0 1.6-0.7 1.6-1.6v-3.9c0-0.9-0.7-1.6-1.6-1.6h-9.2z" display="none"/>
			</g>
			<g fill="#fff">
				<path d="m74.2 8.9c0 1-0.8 1.7-1.7 1.7h-9.2c-1 0-1.7-0.8-1.7-1.7v-3.9c0-1 0.8-1.7 1.7-1.7h9.2c1 0 1.7 0.8 1.7 1.7v3.9z"/>
				<path stroke="#585857" stroke-width=".2823" stroke-miterlimit="10" d="m72.5 10.7h-9.2c-1 0-1.9-0.8-1.9-1.9v-3.8c0-1 0.8-1.9 1.9-1.9h9.2c1 0 1.9 0.8 1.9 1.9v3.9c0 1-0.9 1.8-1.9 1.8zm-9.2-7.3c-0.9 0-1.6 0.7-1.6 1.6v3.9c0 0.9 0.7 1.6 1.6 1.6h9.2c0.9 0 1.6-0.7 1.6-1.6v-3.9c0-0.9-0.7-1.6-1.6-1.6h-9.2z" display="none"/>
			</g>
			<g fill="#fff">
				<path d="m89.1 8.9c0 1-0.8 1.7-1.7 1.7h-9.2c-1 0-1.7-0.8-1.7-1.7v-3.9c0-1 0.8-1.7 1.7-1.7h9.2c1 0 1.7 0.8 1.7 1.7v3.9z"/>
				<path stroke="#585857" stroke-width=".2823" stroke-miterlimit="10" d="m87.3 10.7h-9.2c-1 0-1.9-0.8-1.9-1.9v-3.8c0-1 0.8-1.9 1.9-1.9h9.2c1 0 1.9 0.8 1.9 1.9v3.9c0 1-0.8 1.8-1.9 1.8zm-9.1-7.3c-0.9 0-1.6 0.7-1.6 1.6v3.9c0 0.9 0.7 1.6 1.6 1.6h9.2c0.9 0 1.6-0.7 1.6-1.6v-3.9c0-0.9-0.7-1.6-1.6-1.6h-9.2z" display="none"/>
			</g>
			<g fill="#fff">
				<path d="m103.6 8.9c0 1-0.8 1.7-1.7 1.7h-9.2c-1 0-1.7-0.8-1.7-1.7v-3.9c0-1 0.8-1.7 1.7-1.7h9.2c1 0 1.7 0.8 1.7 1.7v3.9z"/>
				<path stroke="#585857" stroke-width=".2823" stroke-miterlimit="10" d="m101.9 10.7h-9.2c-1 0-1.9-0.8-1.9-1.9v-3.8c0-1 0.8-1.9 1.9-1.9h9.2c1 0 1.9 0.8 1.9 1.9v3.9c0 1-0.9 1.8-1.9 1.8zm-9.2-7.3c-0.9 0-1.6 0.7-1.6 1.6v3.9c0 0.9 0.7 1.6 1.6 1.6h9.2c0.9 0 1.6-0.7 1.6-1.6v-3.9c0-0.9-0.7-1.6-1.6-1.6h-9.2z" display="none"/>
			</g>
			<g fill="#fff">
				<path d="m118.5 8.9c0 1-0.8 1.7-1.7 1.7h-9.2c-1 0-1.7-0.8-1.7-1.7v-3.9c0-1 0.8-1.7 1.7-1.7h9.2c1 0 1.7 0.8 1.7 1.7v3.9z"/>
				<path stroke="#585857" stroke-width=".2823" stroke-miterlimit="10" d="m116.7 10.7h-9.2c-1 0-1.9-0.8-1.9-1.9v-3.8c0-1 0.8-1.9 1.9-1.9h9.2c1 0 1.9 0.8 1.9 1.9v3.9c0 1-0.8 1.8-1.9 1.8zm-9.1-7.3c-0.9 0-1.6 0.7-1.6 1.6v3.9c0 0.9 0.7 1.6 1.6 1.6h9.2c0.9 0 1.6-0.7 1.6-1.6v-3.9c0-0.9-0.7-1.6-1.6-1.6h-9.2z" display="none"/>
			</g>
			<g fill="#fff">
				<path d="m132.9 8.9c0 1-0.8 1.7-1.7 1.7h-9.2c-1 0-1.7-0.8-1.7-1.7v-3.9c0-1 0.8-1.7 1.7-1.7h9.2c1 0 1.7 0.8 1.7 1.7v3.9z"/>
				<path stroke="#585857" stroke-width=".2823" stroke-miterlimit="10" d="m131.2 10.7h-9.2c-1 0-1.9-0.8-1.9-1.9v-3.8c0-1 0.8-1.9 1.9-1.9h9.2c1 0 1.9 0.8 1.9 1.9v3.9c0 1-0.9 1.8-1.9 1.8zm-9.2-7.3c-0.9 0-1.6 0.7-1.6 1.6v3.9c0 0.9 0.7 1.6 1.6 1.6h9.2c0.9 0 1.6-0.7 1.6-1.6v-3.9c0-0.9-0.7-1.6-1.6-1.6h-9.2z" display="none"/>
			</g>
			<g fill="#fff">
				<path d="m147.7 8.9c0 1-0.8 1.7-1.7 1.7h-9.2c-1 0-1.7-0.8-1.7-1.7v-3.9c0-1 0.8-1.7 1.7-1.7h9.2c1 0 1.7 0.8 1.7 1.7v3.9z"/>
				<path stroke="#585857" stroke-width=".2823" stroke-miterlimit="10" d="m146 10.7h-9.2c-1 0-1.9-0.8-1.9-1.9v-3.8c0-1 0.8-1.9 1.9-1.9h9.2c1 0 1.9 0.8 1.9 1.9v3.9c0 1-0.9 1.8-1.9 1.8zm-9.2-7.3c-0.9 0-1.6 0.7-1.6 1.6v3.9c0 0.9 0.7 1.6 1.6 1.6h9.2c0.9 0 1.6-0.7 1.6-1.6v-3.9c0-0.9-0.7-1.6-1.6-1.6h-9.2z" display="none"/>
			</g>
			<g fill="#fff">
				<path d="m162.1 8.9c0 1-0.8 1.7-1.7 1.7h-9.2c-1 0-1.7-0.8-1.7-1.7v-3.9c0-1 0.8-1.7 1.7-1.7h9.2c1 0 1.7 0.8 1.7 1.7v3.9z"/>
				<path stroke="#585857" stroke-width=".2823" stroke-miterlimit="10" d="m160.4 10.7h-9.2c-1 0-1.9-0.8-1.9-1.9v-3.8c0-1 0.8-1.9 1.9-1.9h9.2c1 0 1.9 0.8 1.9 1.9v3.9c-0.1 1-0.9 1.8-1.9 1.8zm-9.2-7.3c-0.9 0-1.6 0.7-1.6 1.6v3.9c0 0.9 0.7 1.6 1.6 1.6h9.2c0.9 0 1.6-0.7 1.6-1.6v-3.9c0-0.9-0.7-1.6-1.6-1.6h-9.2z" display="none"/>
			</g>
			<g fill="#fff">
				<path d="m176.9 8.9c0 1-0.8 1.7-1.7 1.7h-9.2c-1 0-1.7-0.8-1.7-1.7v-3.9c0-1 0.8-1.7 1.7-1.7h9.2c1 0 1.7 0.8 1.7 1.7v3.9z"/>
				<path stroke="#585857" stroke-width=".2823" stroke-miterlimit="10" d="m175.2 10.7h-9.2c-1 0-1.9-0.8-1.9-1.9v-3.8c0-1 0.8-1.9 1.9-1.9h9.2c1 0 1.9 0.8 1.9 1.9v3.9c-0.1 1-0.9 1.8-1.9 1.8zm-9.2-7.3c-0.9 0-1.6 0.7-1.6 1.6v3.9c0 0.9 0.7 1.6 1.6 1.6h9.2c0.9 0 1.6-0.7 1.6-1.6v-3.9c0-0.9-0.7-1.6-1.6-1.6h-9.2z" display="none"/>
			</g>
			<g fill="#fff">
				<path d="m191.4 8.9c0 1-0.8 1.7-1.7 1.7h-9.2c-1 0-1.7-0.8-1.7-1.7v-3.9c0-1 0.8-1.7 1.7-1.7h9.2c1 0 1.7 0.8 1.7 1.7v3.9z"/>
				<path stroke="#585857" stroke-width=".2823" stroke-miterlimit="10" d="m189.7 10.7h-9.2c-1 0-1.9-0.8-1.9-1.9v-3.8c0-1 0.8-1.9 1.9-1.9h9.2c1 0 1.9 0.8 1.9 1.9v3.9c0 1-0.9 1.8-1.9 1.8zm-9.2-7.3c-0.9 0-1.6 0.7-1.6 1.6v3.9c0 0.9 0.7 1.6 1.6 1.6h9.2c0.9 0 1.6-0.7 1.6-1.6v-3.9c0-0.9-0.7-1.6-1.6-1.6h-9.2z" display="none"/>
			</g>
			<g fill="#fff">
				<path d="m206.2 8.9c0 1-0.8 1.7-1.7 1.7h-9.2c-1 0-1.7-0.8-1.7-1.7v-3.9c0-1 0.8-1.7 1.7-1.7h9.2c1 0 1.7 0.8 1.7 1.7v3.9z"/>
				<path stroke="#585857" stroke-width=".2823" stroke-miterlimit="10" d="m204.5 10.7h-9.2c-1 0-1.9-0.8-1.9-1.9v-3.8c0-1 0.8-1.9 1.9-1.9h9.2c1 0 1.9 0.8 1.9 1.9v3.9c0 1-0.9 1.8-1.9 1.8zm-9.2-7.3c-0.9 0-1.6 0.7-1.6 1.6v3.9c0 0.9 0.7 1.6 1.6 1.6h9.2c0.9 0 1.6-0.7 1.6-1.6v-3.9c0-0.9-0.7-1.6-1.6-1.6h-9.2z" display="none"/>
			</g>
			<g fill="#fff">
				<path d="m22.7 36.4c0 1-0.8 1.7-1.7 1.7h-16.1c-1 0-1.7-0.8-1.7-1.7v-9.2c0-1 0.8-1.7 1.7-1.7h16.1c1 0 1.7 0.8 1.7 1.7v9.2z"/>
				<path stroke="#585857" stroke-width=".2823" stroke-miterlimit="10" d="m21 38.2h-16.1c-1 0-1.9-0.8-1.9-1.9v-9.2c0-1 0.8-1.9 1.9-1.9h16.1c1 0 1.9 0.8 1.9 1.9v9.2c-0.1 1.1-0.9 1.9-1.9 1.9zm-16.1-12.6c-0.9 0-1.6 0.7-1.6 1.6v9.2c0 0.9 0.7 1.6 1.6 1.6h16.1c0.9 0 1.6-0.7 1.6-1.6v-9.2c0-0.9-0.7-1.6-1.6-1.6h-16.1z" display="none"/>
			</g>
			<g fill="#fff">
				<path d="m26.3 50.2c0 1-0.8 1.7-1.7 1.7h-19.7c-1 0-1.7-0.8-1.7-1.7v-9.2c0-1 0.8-1.7 1.7-1.7h19.7c1 0 1.7 0.8 1.7 1.7v9.2z"/>
				<path stroke="#585857" stroke-width=".2823" stroke-miterlimit="10" d="m24.6 52.1h-19.7c-1 0-1.9-0.8-1.9-1.9v-9.2c0-1 0.8-1.9 1.9-1.9h19.7c1 0 1.9 0.8 1.9 1.9v9.2c0 1.1-0.9 1.9-1.9 1.9zm-19.7-12.6c-0.9 0-1.6 0.7-1.6 1.6v9.2c0 0.9 0.7 1.6 1.6 1.6h19.7c0.9 0 1.6-0.7 1.6-1.6v-9.2c0-0.9-0.7-1.6-1.6-1.6h-19.7z" display="none"/>
			</g>
			<g fill="#fff">
				<path d="m33.6 64c0 1-0.8 1.7-1.7 1.7h-27c-1 0-1.7-0.8-1.7-1.7v-9.2c0-1 0.8-1.7 1.7-1.7h26.9c1 0 1.7 0.8 1.7 1.7v9.2z"/>
				<path stroke="#585857" stroke-width=".2823" stroke-miterlimit="10" d="m31.8 65.9h-26.9c-1 0-1.9-0.9-1.9-1.9v-9.2c0-1 0.8-1.9 1.9-1.9h26.9c1 0 1.9 0.8 1.9 1.9v9.2c0 1-0.8 1.9-1.9 1.9zm-26.9-12.7c-0.9 0-1.6 0.7-1.6 1.6v9.2c0 0.9 0.7 1.6 1.6 1.6h26.9c0.9 0 1.6-0.7 1.6-1.6v-9.2c0-0.9-0.7-1.6-1.6-1.6h-26.9z" display="none"/>
			</g>
			<g fill="#fff">
				<path d="m61.5 79.5c0 1-0.8 1.7-1.7 1.7h-12.6c-1 0-1.7-0.8-1.7-1.7v-10.9c0-1 0.8-1.7 1.7-1.7h12.6c1 0 1.7 0.8 1.7 1.7v10.9z"/>
				<path stroke="#585857" stroke-width=".2823" stroke-miterlimit="10" d="m59.8 81.4h-12.6c-1 0-1.9-0.8-1.9-1.9v-10.9c0-1 0.8-1.9 1.9-1.9h12.6c1 0 1.9 0.8 1.9 1.9v10.9c0 1-0.9 1.9-1.9 1.9zm-12.6-14.4c-0.9 0-1.6 0.7-1.6 1.6v10.9c0 0.9 0.7 1.6 1.6 1.6h12.6c0.9 0 1.6-0.7 1.6-1.6v-10.9c0-0.9-0.7-1.6-1.6-1.6h-12.6z" display="none"/>
			</g>
			<g fill="#fff">
				<path d="m149.5 79.5c0 1-0.8 1.7-1.7 1.7h-12.6c-1 0-1.7-0.8-1.7-1.7v-10.9c0-1 0.8-1.7 1.7-1.7h12.6c1 0 1.7 0.8 1.7 1.7v10.9z"/>
				<path stroke="#585857" stroke-width=".2823" stroke-miterlimit="10" d="m147.7 81.4h-12.6c-1 0-1.9-0.8-1.9-1.9v-10.9c0-1 0.8-1.9 1.9-1.9h12.6c1 0 1.9 0.8 1.9 1.9v10.9c0 1-0.8 1.9-1.9 1.9zm-12.6-14.4c-0.9 0-1.6 0.7-1.6 1.6v10.9c0 0.9 0.7 1.6 1.6 1.6h12.6c0.9 0 1.6-0.7 1.6-1.6v-10.9c0-0.9-0.7-1.6-1.6-1.6h-12.6z" display="none"/>
			</g>
			<g fill="#fff">
				<path d="m206.2 22.8c0 1-0.8 1.7-1.7 1.7h-16.5c-1 0-1.7-0.8-1.7-1.7v-9.2c0-1 0.8-1.7 1.7-1.7h16.5c1 0 1.7 0.8 1.7 1.7v9.2z"/>
				<path stroke="#585857" stroke-width=".2823" stroke-miterlimit="10" d="m204.5 24.6h-16.5c-1 0-1.9-0.8-1.9-1.9v-9.2c0-1 0.8-1.9 1.9-1.9h16.5c1 0 1.9 0.8 1.9 1.9v9.2c0 1.1-0.9 1.9-1.9 1.9zm-16.5-12.6c-0.9 0-1.6 0.7-1.6 1.6v9.2c0 0.9 0.7 1.6 1.6 1.6h16.5c0.9 0 1.6-0.7 1.6-1.6v-9.2c0-0.9-0.7-1.6-1.6-1.6h-16.5z" display="none"/>
			</g>
			<g fill="#fff">
				<path d="m206.2 50.2c0 1-0.8 1.7-1.7 1.7h-19.9c-1 0-1.7-0.8-1.7-1.7v-9.2c0-1 0.8-1.7 1.7-1.7h19.9c1 0 1.7 0.8 1.7 1.7v9.2z"/>
				<path stroke="#585857" stroke-width=".2823" stroke-miterlimit="10" d="m204.5 52.1h-19.9c-1 0-1.9-0.8-1.9-1.9v-9.2c0-1 0.8-1.9 1.9-1.9h19.9c1 0 1.9 0.8 1.9 1.9v9.2c0 1.1-0.9 1.9-1.9 1.9zm-19.9-12.6c-0.9 0-1.6 0.7-1.6 1.6v9.2c0 0.9 0.7 1.6 1.6 1.6h19.9c0.9 0 1.6-0.7 1.6-1.6v-9.2c0-0.9-0.7-1.6-1.6-1.6h-19.9z" display="none"/>
			</g>
			<g fill="#fff">
				<path d="m206.2 64c0 1-0.8 1.7-1.7 1.7h-26.8c-1 0-1.7-0.8-1.7-1.7v-9.2c0-1 0.8-1.7 1.7-1.7h26.8c1 0 1.7 0.8 1.7 1.7v9.2z"/>
				<path stroke="#585857" stroke-width=".2823" stroke-miterlimit="10" d="m204.5 65.9h-26.8c-1 0-1.9-0.8-1.9-1.9v-9.2c0-1 0.8-1.9 1.9-1.9h26.8c1 0 1.9 0.8 1.9 1.9v9.2c0 1-0.9 1.9-1.9 1.9zm-26.8-12.7c-0.9 0-1.6 0.7-1.6 1.6v9.2c0 0.9 0.7 1.6 1.6 1.6h26.8c0.9 0 1.6-0.7 1.6-1.6v-9.2c0-0.9-0.7-1.6-1.6-1.6h-26.8z" display="none"/>
			</g>
			<g fill="#fff">
				<path d="m178.1 79.5c0 1-0.8 1.7-1.7 1.7h-9.2c-1 0-1.7-0.8-1.7-1.7v-3.7c0-1 0.8-1.7 1.7-1.7h9.2c1 0 1.7 0.8 1.7 1.7v3.7z"/>
				<path d="m176.3 81.4h-9.2c-1 0-1.9-0.8-1.9-1.9v-3.7c0-1 0.8-1.9 1.9-1.9h9.2c1 0 1.9 0.8 1.9 1.9v3.7c0 1-0.8 1.9-1.9 1.9zm-9.1-7.2c-0.9 0-1.6 0.7-1.6 1.6v3.7c0 0.9 0.7 1.6 1.6 1.6h9.2c0.9 0 1.6-0.7 1.6-1.6v-3.7c0-0.9-0.7-1.6-1.6-1.6h-9.2z" display="none"/>
			</g>
			<g fill="#fff">
				<path d="m206.2 79.5c0 1-0.8 1.7-1.7 1.7h-9.2c-1 0-1.7-0.8-1.7-1.7v-3.7c0-1 0.8-1.7 1.7-1.7h9.2c1 0 1.7 0.8 1.7 1.7v3.7z"/>
				<path d="m204.5 81.4h-9.2c-1 0-1.9-0.8-1.9-1.9v-3.7c0-1 0.8-1.9 1.9-1.9h9.2c1 0 1.9 0.8 1.9 1.9v3.7c0 1-0.9 1.9-1.9 1.9zm-9.2-7.2c-0.9 0-1.6 0.7-1.6 1.6v3.7c0 0.9 0.7 1.6 1.6 1.6h9.2c0.9 0 1.6-0.7 1.6-1.6v-3.7c0-0.9-0.7-1.6-1.6-1.6h-9.2z" display="none"/>
			</g>
			<g fill="#fff">
				<path d="m192.2 79.5c0 1-0.8 1.7-1.7 1.7h-9.2c-1 0-1.7-0.8-1.7-1.7v-10.9c0-1 0.8-1.7 1.7-1.7h9.2c1 0 1.7 0.8 1.7 1.7v10.9z"/>
				<path stroke="#585857" stroke-width=".2823" stroke-miterlimit="10" d="m190.4 81.4h-9.2c-1 0-1.9-0.8-1.9-1.9v-10.9c0-1 0.8-1.9 1.9-1.9h9.2c1 0 1.9 0.8 1.9 1.9v10.9c0 1-0.8 1.9-1.9 1.9zm-9.1-14.4c-0.9 0-1.6 0.7-1.6 1.6v10.9c0 0.9 0.7 1.6 1.6 1.6h9.2c0.9 0 1.6-0.7 1.6-1.6v-10.9c0-0.9-0.7-1.6-1.6-1.6h-9.2z" display="none"/>
			</g>
				<path d="m132 79.5c0 1-0.8 1.7-1.7 1.7h-65.6c-1 0-1.7-0.8-1.7-1.7v-10.9c0-1 0.8-1.7 1.7-1.7h65.5c1 0 1.7 0.8 1.7 1.7v10.9z" fill="#fff"/>
					<path d="m31.8 33.7c-0.4-0.1-0.7-0.2-1.1-0.4h-0.2c-0.6 0-1.2-0.5-1.2-1.4 0-0.8 0.5-1.4 1.3-1.4s1.3 0.6 1.3 1.4c0 0.7-0.3 1.1-0.7 1.3 0.2 0.1 0.5 0.1 0.7 0.2l-0.1 0.3zm-1.2-0.8c0.5 0 0.8-0.4 0.8-1 0-0.5-0.3-1-0.7-1-0.5 0-0.8 0.5-0.8 1 0 0.6 0.2 1 0.7 1z" fill="#868686"/>
					<path d="m23.4 19.9l-0.4 0.2-0.1-0.4 0.6-0.3h0.4v2.6h-0.5v-2.1z" fill="#868686"/>
					<path d="m36.7 22.1v-0.3l0.3-0.3c0.6-0.6 0.9-0.9 0.9-1.2 0-0.2-0.1-0.4-0.5-0.4-0.2 0-0.4 0.1-0.6 0.2l-0.1-0.4c0.2-0.2 0.5-0.3 0.8-0.3 0.6 0 0.9 0.4 0.9 0.8 0 0.5-0.3 0.8-0.8 1.3l-0.2 0.2h1.1v0.4h-1.8z" fill="#868686"/>
					<path d="m50.9 21.6c0.1 0.1 0.3 0.2 0.6 0.2 0.4 0 0.5-0.2 0.5-0.4 0-0.3-0.3-0.4-0.6-0.4h-0.2v-0.4h0.2c0.2 0 0.5-0.1 0.5-0.4 0-0.2-0.1-0.3-0.4-0.3-0.2 0-0.4 0.1-0.5 0.2l-0.1-0.4c0.1-0.1 0.4-0.2 0.8-0.2 0.5 0 0.8 0.3 0.8 0.6s-0.2 0.5-0.5 0.6c0.3 0.1 0.6 0.3 0.6 0.7s-0.4 0.8-1 0.8c-0.3 0-0.6-0.1-0.7-0.2v-0.4z" fill="#868686"/>
					<path d="m66.3 22.1v-0.7h-1.2v-0.3l1.1-1.6h0.6v1.5h0.3v0.4h-0.3v0.7h-0.5zm0-1.1v-1.2c-0.1 0.2-0.2 0.3-0.2 0.4l-0.5 0.8h0.7z" fill="#868686"/>
					<path d="m80.8 19.9h-1l-0.1 0.5h0.2c0.2 0 0.5 0.1 0.6 0.2 0.2 0.1 0.3 0.3 0.3 0.7 0 0.5-0.4 0.9-1.1 0.9-0.3 0-0.6-0.1-0.7-0.2l0.1-0.4c0.1 0.1 0.3 0.1 0.6 0.1s0.6-0.2 0.6-0.5-0.2-0.5-0.7-0.5h-0.4l0.2-1.3h1.4v0.5z" fill="#868686"/>
					<path d="m94.8 19.8h-0.3c-0.6 0.1-0.8 0.4-0.9 0.8 0.1-0.1 0.3-0.3 0.6-0.3 0.5 0 0.8 0.3 0.8 0.9 0 0.5-0.4 0.9-0.9 0.9-0.6 0-1-0.5-1-1.1 0-0.5 0.2-0.9 0.5-1.2 0.2-0.2 0.6-0.4 0.9-0.4h0.3v0.4zm-0.7 2c0.3 0 0.4-0.2 0.4-0.5s-0.2-0.5-0.5-0.5c-0.2 0-0.4 0.1-0.4 0.3v0.2c0 0.2 0.2 0.5 0.5 0.5z" fill="#868686"/>
					<path d="m109.1 19.4v0.3l-1.1 2.3h-0.5l1.1-2.2h-1.2v-0.4h1.7z" fill="#868686"/>
					<path d="m121.9 20.7c-0.3-0.1-0.4-0.4-0.4-0.6 0-0.4 0.4-0.7 0.9-0.7 0.6 0 0.8 0.3 0.8 0.7 0 0.2-0.1 0.5-0.4 0.6 0.3 0.1 0.5 0.3 0.5 0.7 0 0.5-0.4 0.8-1 0.8s-0.9-0.4-0.9-0.7c0-0.4 0.2-0.6 0.5-0.8zm0.9 0.7c0-0.3-0.2-0.4-0.5-0.5-0.2 0.1-0.4 0.2-0.4 0.5 0 0.2 0.2 0.4 0.4 0.4 0.3 0 0.5-0.2 0.5-0.4zm-0.8-1.3c0 0.2 0.2 0.3 0.4 0.4 0.2-0.1 0.3-0.2 0.3-0.4s-0.1-0.4-0.4-0.4c-0.2 0-0.3 0.2-0.3 0.4z" fill="#868686"/>
					<path d="m135.8 21.7h0.3c0.2 0 0.4-0.1 0.5-0.2 0.2-0.1 0.3-0.3 0.3-0.6-0.1 0.1-0.3 0.2-0.6 0.2-0.5 0-0.8-0.3-0.8-0.8s0.4-0.9 1-0.9 0.9 0.5 0.9 1.1-0.2 1-0.5 1.2c-0.2 0.2-0.5 0.3-0.9 0.4h-0.3v-0.4zm0.7-1.9c-0.2 0-0.4 0.2-0.4 0.5s0.2 0.5 0.4 0.5 0.3-0.1 0.4-0.2v-0.1c0.1-0.4 0-0.7-0.4-0.7z" fill="#868686"/>
					<path d="m151.6 20.7c0 0.8-0.3 1.4-1 1.4-0.6 0-0.9-0.6-0.9-1.4s0.3-1.4 1-1.4c0.6 0.1 0.9 0.7 0.9 1.4zm-1.4 0.1c0 0.6 0.2 1 0.5 1s0.4-0.4 0.4-1-0.1-1-0.4-1-0.5 0.3-0.5 1z" fill="#868686"/>
					<path d="m33.7 46.2l-0.3 0.8h-0.5l0.9-2.7h0.6l0.9 2.7h-0.5l-0.2-0.8h-0.9zm0.8-0.4l-0.2-0.7c-0.1-0.2-0.1-0.4-0.1-0.5 0 0.2-0.1 0.3-0.1 0.5l-0.2 0.7h0.6z" fill="#868686"/>
					<path d="m40 60.4l1.4-2h-1.3v-0.4h1.9v0.3l-1.4 2h1.4v0.4h-2v-0.3z" fill="#868686"/>
					<path d="m55.8 60.6l-0.3-0.5c-0.1-0.2-0.2-0.4-0.3-0.5-0.1 0.2-0.1 0.3-0.2 0.5l-0.3 0.5h-0.6l0.8-1.4-0.8-1.3h0.6l0.3 0.6c0.1 0.2 0.2 0.3 0.2 0.5 0.1-0.2 0.1-0.3 0.2-0.5l0.3-0.6h0.6l-0.8 1.3 0.8 1.4h-0.5z" fill="#868686"/>
					<path d="m70.4 60.6c-0.1 0.1-0.4 0.1-0.7 0.1-0.9 0-1.4-0.5-1.4-1.4s0.6-1.4 1.5-1.4c0.3 0 0.6 0.1 0.7 0.1l-0.1 0.4c-0.1-0.1-0.3-0.1-0.5-0.1-0.6 0-1 0.3-1 1 0 0.6 0.4 1 1 1 0.2 0 0.4 0 0.5-0.1v0.4z" fill="#868686"/>
					<path d="m83 60.6l-0.9-2.7h0.5l0.4 1.2c0.1 0.3 0.2 0.7 0.3 1 0.1-0.3 0.2-0.7 0.3-1l0.4-1.2h0.5l-0.9 2.7h-0.6z" fill="#868686"/>
					<path d="m96.6 58c0.2 0 0.4-0.1 0.7-0.1 0.4 0 0.6 0 0.8 0.2 0.2 0.1 0.3 0.3 0.3 0.5 0 0.3-0.2 0.5-0.5 0.6 0.3 0.1 0.6 0.3 0.6 0.7 0 0.2-0.1 0.4-0.3 0.6s-0.5 0.3-1 0.3h-0.6v-2.8zm0.5 1h0.3c0.3 0 0.5-0.2 0.5-0.4 0-0.3-0.2-0.4-0.5-0.4h-0.3v0.8zm0 1.3h0.3c0.3 0 0.6-0.1 0.6-0.5 0-0.3-0.3-0.4-0.6-0.4h-0.2v0.9z" fill="#868686"/>
					<path d="m110.5 60.6v-2.7h0.6l0.7 1.2c0.2 0.3 0.3 0.6 0.5 0.9v-2.1h0.5v2.7h-0.5l-0.7-1.2c-0.2-0.3-0.4-0.6-0.5-0.9v2.2h-0.6z" fill="#868686"/>
					<path d="m126.6 59.5v-1.2c-0.1 0.3-0.2 0.7-0.3 1l-0.4 1.2h-0.4l-0.4-1.2c-0.1-0.3-0.2-0.7-0.3-1.1v1.2l-0.1 1.1h-0.5l0.2-2.7h0.7l0.4 1.1 0.3 0.9c0.1-0.3 0.2-0.6 0.3-1l0.4-1.1h0.6l0.2 2.7h-0.5l-0.2-0.9z" fill="#868686"/>
					<path d="m47.4 46.4c0.2 0.1 0.4 0.2 0.7 0.2s0.5-0.1 0.5-0.4c0-0.2-0.1-0.3-0.5-0.5s-0.7-0.4-0.7-0.8 0.4-0.8 1-0.8c0.3 0 0.5 0.1 0.7 0.1l-0.1 0.4c-0.1-0.1-0.3-0.1-0.5-0.1-0.3 0-0.5 0.2-0.5 0.3 0 0.2 0.2 0.3 0.5 0.5 0.5 0.2 0.7 0.4 0.7 0.8s-0.3 0.8-1 0.8c-0.3 0-0.6-0.1-0.7-0.2l-0.1-0.3z" fill="#868686"/>
					<path d="m62.7 47.4c-0.4-0.1-0.7-0.2-1.1-0.4h-0.2c-0.6 0-1.2-0.5-1.2-1.4 0-0.8 0.5-1.4 1.3-1.4s1.3 0.6 1.3 1.4c0 0.7-0.3 1.1-0.7 1.3 0.2 0.1 0.5 0.1 0.7 0.2l-0.1 0.3zm-1.2-0.8c0.5 0 0.8-0.4 0.8-1 0-0.5-0.3-1-0.7-1-0.5 0-0.8 0.5-0.8 1 0 0.6 0.3 1 0.7 1z" fill="#868686"/>
					<path d="m75.6 44.2h1.6v0.4h-1.1v0.8h1v0.4h-1v1.2h-0.5v-2.8z" fill="#868686"/>
					<path d="m91.6 46.8c-0.2 0.1-0.5 0.2-0.9 0.2-0.5 0-0.8-0.1-1.1-0.4-0.2-0.2-0.4-0.6-0.4-1 0-0.9 0.6-1.4 1.5-1.4 0.3 0 0.6 0.1 0.7 0.1l-0.1 0.4c-0.1-0.1-0.3-0.1-0.6-0.1-0.6 0-1 0.3-1 1 0 0.6 0.4 1 0.9 1 0.2 0 0.3 0 0.4-0.1v-0.7h-0.5v-0.4h1v1.4z" fill="#868686"/>
					<path d="m104.1 44.2v1.1h1.2v-1.1h0.5v2.8h-0.5v-1.2h-1.2v1.2h-0.5v-2.7h0.5z" fill="#868686"/>
					<path d="m118.7 44.2h0.5v1.8c0 0.8-0.4 1-0.9 1-0.1 0-0.3 0-0.4-0.1l0.1-0.4h0.3c0.3 0 0.5-0.1 0.5-0.6v-1.7z" fill="#868686"/>
					<path d="m132 44.2h0.5v1.3c0.1-0.1 0.1-0.2 0.2-0.3l0.7-1h0.6l-0.9 1.2 1 1.6h-0.6l-0.8-1.3-0.2 0.3v1h-0.5v-2.8z" fill="#868686"/>
					<path d="m146.2 44.2h0.5v2.3h1.1v0.5h-1.6v-2.8z" fill="#868686"/>
					<path d="m161.1 43c-0.2 0-0.3-0.1-0.3-0.3s0.1-0.3 0.3-0.3 0.3 0.1 0.3 0.3-0.1 0.3-0.3 0.3zm0 1.4c-0.2 0-0.3-0.1-0.3-0.3s0.1-0.3 0.3-0.3 0.3 0.1 0.3 0.3-0.1 0.3-0.3 0.3z" fill="#868686"/>
					<path d="m160.7 49.8c0.1-0.3 0.2-0.7 0.3-1.1h0.5c-0.1 0.4-0.3 0.8-0.5 1.1h-0.3zm0.5-1.8c-0.2 0-0.3-0.1-0.3-0.3s0.1-0.3 0.3-0.3 0.3 0.1 0.3 0.3-0.2 0.3-0.3 0.3z" fill="#868686"/>
					<path d="m138.8 56.9l1.9-0.9v0.4l-1.5 0.7 1.5 0.7v0.4l-1.9-0.9v-0.4z" fill="#868686"/>
					<path d="m139.3 63.6c0.1-0.3 0.2-0.7 0.3-1.1h0.5c-0.1 0.4-0.3 0.8-0.5 1.1h-0.3z" fill="#868686"/>
					<path d="m8.5 15.8c0-0.5 0.2-0.7 0.5-0.7 0.2 0 0.3 0.1 0.6 0.2 0.2 0.1 0.3 0.2 0.4 0.2s0.2-0.1 0.2-0.3h0.3c0 0.5-0.2 0.7-0.5 0.7-0.2 0-0.3-0.1-0.6-0.2-0.2-0.1-0.3-0.2-0.4-0.2s-0.2 0.1-0.2 0.3h-0.3z" fill="#868686"/>
					<path d="m9.4 18.8l0.4 0.6h-0.4l-0.5-0.6h0.5z" fill="#868686"/>
					<path d="m154.9 57.2l-1.9 0.9v-0.4l1.5-0.7-1.5-0.7v-0.3l1.9 0.9v0.3z" fill="#868686"/>
					<path d="m153.9 63.2c-0.2 0-0.3-0.1-0.3-0.3s0.1-0.3 0.3-0.3 0.3 0.1 0.3 0.3c0.1 0.2-0.1 0.3-0.3 0.3z" fill="#868686"/>
					<path d="m167.8 57.3v-0.1c0-0.2 0.1-0.4 0.2-0.7 0.2-0.2 0.3-0.3 0.3-0.5s-0.1-0.3-0.3-0.3c-0.1 0-0.3 0-0.4 0.1l-0.1-0.4c0.1-0.1 0.4-0.2 0.6-0.2 0.5 0 0.7 0.3 0.7 0.6s-0.2 0.5-0.4 0.7-0.2 0.4-0.2 0.5v0.1h-0.4zm0.2 0.9c-0.2 0-0.3-0.1-0.3-0.3s0.1-0.3 0.3-0.3 0.3 0.1 0.3 0.3-0.1 0.3-0.3 0.3z" fill="#868686"/>
					<path d="m167.4 63.3l1-2.9h0.3l-1 2.9h-0.3z" fill="#868686"/>
					<path d="m179 15v0.9h0.9v0.3h-0.9v0.9h-0.3v-0.9h-0.9v-0.3h0.9v-0.9h0.3z" fill="#868686"/>
					<path d="m177.8 20.8v-0.3h2.1v0.3h-2.1zm0 0.8v-0.3h2.1v0.3h-2.1z" fill="#868686"/>
					<path d="m165.7 17.2v0.3h-2v-0.3h2z" fill="#868686"/>
					<path d="m150.1 17.9c0.3-0.5 0.5-1.2 0.5-2.2 0-0.9-0.2-1.6-0.5-2.2h0.4c0.2 0.4 0.5 1.1 0.5 2.2 0 1-0.3 1.7-0.5 2.2h-0.4z" fill="#868686"/>
					<path d="m137 13.5c-0.3 0.5-0.5 1.2-0.5 2.2 0 0.9 0.2 1.6 0.5 2.1h-0.4c-0.2-0.4-0.5-1.1-0.5-2.1s0.3-1.7 0.5-2.2h0.4z" fill="#868686"/>
					<path d="m122.9 13.8l-0.4 0.7 0.6-0.1v0.5l-0.6-0.1 0.4 0.6-0.3 0.2-0.2-0.8-0.2 0.8-0.3-0.2 0.4-0.7-0.6 0.1v-0.5l0.6 0.1-0.4-0.7 0.3-0.2 0.2 0.8 0.2-0.8 0.3 0.3z" fill="#868686"/>
					<path d="m108.9 17.2c-0.1-0.1-0.1-0.2-0.2-0.3-0.2 0.2-0.5 0.4-0.8 0.4-0.6 0-0.9-0.5-0.9-1s0.2-0.8 0.5-1c-0.1-0.2-0.2-0.5-0.2-0.7 0-0.4 0.3-0.9 0.8-0.9 0.4 0 0.7 0.3 0.7 0.8 0 0.4-0.2 0.7-0.6 0.9 0.2 0.3 0.4 0.6 0.6 0.8 0.1-0.2 0.2-0.6 0.2-1h0.4c-0.1 0.6-0.2 1-0.4 1.3 0.1 0.2 0.3 0.4 0.5 0.7h-0.6zm-0.9-0.4c0.2 0 0.4-0.1 0.5-0.2-0.2-0.2-0.4-0.6-0.7-1-0.1 0.1-0.3 0.3-0.3 0.6s0.2 0.6 0.5 0.6zm0-2.8c-0.2 0-0.3 0.2-0.3 0.4s0.1 0.4 0.2 0.6c0.2-0.2 0.4-0.4 0.4-0.6s-0.1-0.4-0.3-0.4z" fill="#868686"/>
					<path d="m94.3 13.5l0.4 0.8h-0.3l-0.2-0.5-0.2 0.5h-0.3l0.4-0.8h0.2z" fill="#868686"/>
					<path d="m79.1 13.7c0.4 0 0.7 0.4 0.7 1 0 0.7-0.3 1.1-0.7 1.1s-0.7-0.4-0.7-1c0-0.7 0.3-1.1 0.7-1.1zm0 0.4c-0.2 0-0.3 0.3-0.3 0.7s0.1 0.7 0.3 0.7 0.3-0.3 0.3-0.7c0-0.4-0.1-0.7-0.3-0.7zm0 3.2l1.5-3.6h0.3l-1.5 3.6h-0.3zm1.8-2.2c0.4 0 0.7 0.4 0.7 1 0 0.7-0.3 1.1-0.7 1.1s-0.7-0.4-0.7-1 0.3-1.1 0.7-1.1zm0 0.4c-0.2 0-0.3 0.3-0.3 0.7s0.1 0.7 0.3 0.7 0.3-0.3 0.3-0.7-0.1-0.7-0.3-0.7z" fill="#868686"/>
					<path d="m65.9 17.7v-0.5c-0.3 0-0.5-0.1-0.7-0.2l0.1-0.5c0.2 0.1 0.4 0.2 0.6 0.2 0.3 0 0.4-0.2 0.4-0.4s-0.1-0.4-0.4-0.5c-0.4-0.2-0.7-0.5-0.7-1s0.2-0.8 0.7-0.9v-0.5h0.3v0.5c0.3 0 0.4 0.1 0.6 0.2l-0.1 0.5c-0.1-0.1-0.3-0.2-0.6-0.2s-0.4 0.2-0.4 0.4 0.1 0.3 0.5 0.5c0.5 0.2 0.7 0.5 0.7 1s-0.2 0.9-0.7 0.9v0.5h-0.3z" fill="#868686"/>
					<path d="m51.1 17.2l0.1-1h-0.3v-0.4h0.4l0.1-0.7h-0.3v-0.4h0.4l0.1-1h0.3l-0.1 1h0.2l0.1-1h0.3l-0.1 1h0.3v0.4h-0.4l-0.1 0.7h0.3v0.4h-0.4l-0.1 1h-0.3l0.1-1h-0.4l-0.1 1h-0.1zm0.8-1.4l0.1-0.7h-0.4l-0.1 0.7h0.4z" fill="#868686"/>
					<path d="m38.3 17.6c-0.2 0.1-0.5 0.2-0.7 0.2-0.7 0-1.2-0.6-1.2-1.7s0.6-2 1.5-2c0.7 0 1.2 0.6 1.2 1.5 0 0.8-0.3 1.3-0.7 1.3-0.2 0-0.3-0.1-0.3-0.4-0.1 0.3-0.3 0.4-0.5 0.4-0.3 0-0.4-0.3-0.4-0.7 0-0.7 0.4-1.2 1-1.2 0.2 0 0.4 0.1 0.5 0.1l-0.1 1c0 0.4 0 0.5 0.1 0.5 0.2 0 0.4-0.3 0.4-0.9 0-0.7-0.3-1.3-1-1.3-0.6 0-1.2 0.7-1.2 1.7 0 0.9 0.4 1.4 1 1.4 0.2 0 0.4-0.1 0.6-0.2l-0.2 0.3zm-0.3-2.3h-0.2c-0.3 0-0.6 0.4-0.6 0.8 0 0.2 0.1 0.4 0.2 0.4 0.2 0 0.4-0.3 0.4-0.6l0.2-0.6z" fill="#868686"/>
					<path d="m23.6 17.3c-0.2 0-0.3-0.2-0.3-0.4s0.1-0.4 0.3-0.4 0.3 0.2 0.3 0.4-0.1 0.4-0.3 0.4zm-0.2-1.2l-0.1-2.5h0.5l-0.1 2.5h-0.3z" fill="#868686"/>
					<path d="m165.2 20.2v0.3h-1v-0.3h1z" fill="#868686"/>
					<path d="m171.3 29c0.3 0 0.3-0.2 0.3-0.3v-0.6c0-0.4 0.2-0.5 0.6-0.5h0.1v0.3h-0.1c-0.2 0-0.3 0.1-0.3 0.3v0.6c0 0.3-0.1 0.4-0.3 0.5 0.2 0 0.3 0.2 0.3 0.5v0.6c0 0.2 0.1 0.3 0.3 0.3h0.1v0.3h-0.1c-0.4 0-0.6-0.1-0.6-0.6v-0.6c0-0.1 0-0.3-0.3-0.3v-0.5z" fill="#868686"/>
					<path d="m171.4 35.8v-3.2h0.8v0.3h-0.4v2.7h0.4v0.3h-0.8z" fill="#868686"/>
					<path d="m186.5 29.3c-0.3 0-0.3 0.2-0.3 0.3v0.6c0 0.4-0.3 0.6-0.6 0.6h-0.1v-0.3h0.1c0.2 0 0.3-0.1 0.3-0.3v-0.6c0-0.3 0.1-0.4 0.3-0.5-0.2 0-0.3-0.2-0.3-0.5v-0.6c0-0.2-0.1-0.3-0.3-0.3h-0.1v-0.3h0.1c0.4 0 0.6 0.2 0.6 0.5v0.6c0 0.1 0 0.3 0.3 0.3v0.5z" fill="#868686"/>
					<path d="m186.3 32.5v3.2h-0.8v-0.3h0.4v-2.7h-0.4v-0.3h0.8z" fill="#868686"/>
					<path d="m199.6 27.3v4.1h-0.4v-4.1h0.4z" fill="#868686"/>
					<path d="m199.8 35.5l-0.9-2.9h0.3l0.9 2.9h-0.3z" fill="#868686"/>
					<path d="m174.5 42.6c0.1-0.4 0.3-0.8 0.4-1h0.3c-0.1 0.3-0.2 0.7-0.3 1h-0.4zm0.7 0c0.1-0.4 0.3-0.8 0.4-1h0.3c-0.1 0.3-0.2 0.7-0.3 1h-0.4z" fill="#868686"/>
					<path d="m174.8 47.6c0.1-0.4 0.3-0.8 0.4-1h0.3c-0.1 0.3-0.2 0.7-0.3 1h-0.4z" fill="#868686"/>
					<path d="m43.8 33.3l-0.7-2.7h0.5l0.3 1.2c0.1 0.3 0.1 0.7 0.2 1 0-0.3 0.1-0.6 0.2-1l0.3-1.2h0.5l0.3 1.3c0.1 0.3 0.1 0.6 0.2 0.9 0-0.3 0.1-0.6 0.2-0.9l0.3-1.2h0.5l-0.7 2.7h-0.5l-0.4-1.4c-0.1-0.3-0.1-0.6-0.1-0.9 0 0.3-0.1 0.6-0.2 0.9l-0.3 1.3h-0.6z" fill="#868686"/>
					<path d="m59.7 32.1h-1v0.8h1.2v0.4h-1.6v-2.7h1.6v0.4h-1.1v0.7h1v0.4z" fill="#868686"/>
					<path d="m72 30.6c0.2 0 0.5-0.1 0.8-0.1 0.4 0 0.7 0.1 0.8 0.2s0.2 0.3 0.2 0.5c0 0.4-0.2 0.6-0.5 0.7 0.2 0.1 0.3 0.3 0.4 0.5 0.1 0.3 0.2 0.7 0.2 0.8h-0.5c0-0.1-0.1-0.3-0.2-0.6-0.1-0.4-0.2-0.5-0.5-0.5h-0.3v1.1h-0.4v-2.6zm0.5 1.2h0.3c0.3 0 0.5-0.2 0.5-0.4 0-0.3-0.2-0.4-0.5-0.4h-0.3v0.8z" fill="#868686"/>
					<path d="m86.8 31h-0.8v-0.4h2.1v0.4h-0.8v2.3h-0.5v-2.3z" fill="#868686"/>
					<path d="m100.9 33.3v-1.1l-0.9-1.6h0.6l0.3 0.7c0.1 0.2 0.2 0.4 0.2 0.5 0.1-0.2 0.1-0.3 0.2-0.5l0.3-0.7h0.6l-0.9 1.6v1.1h-0.4z" fill="#868686"/>
					<path d="m114.7 30.6v1.6c0 0.5 0.2 0.8 0.6 0.8s0.6-0.2 0.6-0.8v-1.6h0.5v1.6c0 0.8-0.4 1.2-1.1 1.2-0.6 0-1-0.4-1-1.2v-1.6h0.4z" fill="#868686"/>
					<path d="m129.6 30.6v2.7h-0.5v-2.7h0.5z" fill="#868686"/>
					<path d="m144.8 31.9c0 0.9-0.6 1.4-1.3 1.4-0.8 0-1.3-0.6-1.3-1.4s0.5-1.4 1.3-1.4 1.3 0.6 1.3 1.4zm-2.1 0c0 0.6 0.3 1 0.8 1s0.8-0.4 0.8-1c0-0.5-0.3-1-0.8-1s-0.8 0.5-0.8 1z" fill="#868686"/>
					<path d="m156.8 30.6c0.2 0 0.4-0.1 0.8-0.1s0.6 0.1 0.8 0.2 0.3 0.3 0.3 0.6-0.1 0.5-0.2 0.6c-0.2 0.2-0.5 0.3-0.9 0.3h-0.2v1h-0.5v-2.6zm0.5 1.3h0.2c0.4 0 0.6-0.2 0.6-0.5s-0.2-0.5-0.6-0.5h-0.3v1z" fill="#868686"/>
				<g fill="#868686">
					<path d="m5.5 62.4c0.1 0.1 0.3 0.1 0.4 0.1 0.2 0 0.3-0.1 0.3-0.2s-0.1-0.2-0.3-0.2c-0.3-0.1-0.4-0.3-0.4-0.5 0-0.3 0.2-0.5 0.6-0.5 0.2 0 0.3 0 0.4 0.1l-0.1 0.3c-0.1 0-0.2-0.1-0.3-0.1s-0.2 0.1-0.2 0.2 0.1 0.2 0.3 0.2c0.3 0.1 0.4 0.3 0.4 0.5 0 0.3-0.2 0.5-0.7 0.5-0.2 0-0.4-0.1-0.5-0.1l0.1-0.3z"/>
					<path d="m6.9 60.4h0.4v1c0-0.1 0.1-0.1 0.2-0.2 0.1 0 0.2-0.1 0.3-0.1 0.3 0 0.6 0.2 0.6 0.7v1h-0.4v-0.9c0-0.2-0.1-0.4-0.3-0.4s-0.3 0.1-0.3 0.2v1.1h-0.5v-2.4z"/>
					<path d="m9.2 60.7c0 0.1-0.1 0.2-0.2 0.2s-0.2-0.1-0.2-0.2 0.1-0.2 0.2-0.2 0.2 0.1 0.2 0.2zm-0.4 2.1v-1.6h0.4v1.6h-0.4z"/>
					<path d="m9.7 62.8v-1.3h-0.2v-0.3h0.2v-0.1c0-0.2 0.1-0.4 0.2-0.6 0.1-0.1 0.3-0.2 0.4-0.2h0.3v0.3h-0.2c-0.2 0-0.3 0.2-0.3 0.4v0.1h0.4v0.3h-0.4v1.3h-0.4z"/>
					<path d="m11.2 60.8v0.4h0.4v0.3h-0.4v0.7c0 0.2 0.1 0.3 0.2 0.3h0.2v0.3h-0.3c-0.1 0-0.3-0.1-0.4-0.1-0.1-0.1-0.1-0.2-0.1-0.5v-0.8h-0.2v-0.3h0.2v-0.3h0.4z"/>
				</g>
				<g fill="#868686">
					<path d="m198.3 62.4c0.1 0.1 0.3 0.1 0.4 0.1 0.2 0 0.3-0.1 0.3-0.2s-0.1-0.2-0.3-0.2c-0.3-0.1-0.4-0.3-0.4-0.5 0-0.3 0.2-0.5 0.6-0.5 0.2 0 0.3 0 0.4 0.1l-0.1 0.3c-0.1 0-0.2-0.1-0.3-0.1s-0.2 0.1-0.2 0.2 0.1 0.2 0.3 0.2c0.3 0.1 0.4 0.3 0.4 0.5 0 0.3-0.2 0.5-0.7 0.5-0.2 0-0.4-0.1-0.5-0.1l0.1-0.3z"/>
					<path d="m199.8 60.4h0.4v1l0.2-0.2c0.1 0 0.2-0.1 0.3-0.1 0.3 0 0.6 0.2 0.6 0.7v1h-0.4v-0.9c0-0.2-0.1-0.4-0.3-0.4s-0.3 0.1-0.3 0.2v1.1h-0.4v-2.4z"/>
					<path d="m202.1 60.7c0 0.1-0.1 0.2-0.2 0.2s-0.2-0.1-0.2-0.2 0.1-0.2 0.2-0.2 0.2 0.1 0.2 0.2zm-0.4 2.1v-1.6h0.4v1.6h-0.4z"/>
					<path d="m202.6 62.8v-1.3h-0.2v-0.3h0.2v-0.1c0-0.2 0.1-0.4 0.2-0.6 0.1-0.1 0.3-0.2 0.4-0.2h0.3v0.3h-0.2c-0.2 0-0.3 0.2-0.3 0.4v0.1h0.4v0.3h-0.4v1.3h-0.4z"/>
					<path d="m204.1 60.8v0.4h0.4v0.3h-0.4v0.7c0 0.2 0.1 0.3 0.2 0.3h0.2v0.3h-0.3c-0.1 0-0.3-0.1-0.4-0.1-0.1-0.1-0.1-0.2-0.1-0.5v-0.8h-0.2v-0.3h0.2v-0.3h0.4z"/>
				</g>
				<g fill="#868686">
					<path d="m195.9 48.8v-0.5h0.4v0.3c0.1-0.2 0.3-0.3 0.4-0.3h0.1v0.4h-0.1c-0.2 0-0.3 0.1-0.4 0.3v0.9h-0.4v-1.1z"/>
					<path d="m197.3 49.2c0 0.3 0.2 0.4 0.5 0.4 0.2 0 0.3 0 0.4-0.1l0.1 0.3c-0.1 0.1-0.3 0.1-0.6 0.1-0.5 0-0.8-0.3-0.8-0.8 0-0.4 0.3-0.9 0.8-0.9s0.7 0.4 0.7 0.8v0.2h-1.1zm0.7-0.2c0-0.1-0.1-0.4-0.3-0.4-0.3 0-0.4 0.2-0.4 0.4h0.7z"/>
					<path d="m199.2 47.9v0.4h0.4v0.3h-0.4v0.7c0 0.2 0.1 0.3 0.2 0.3h0.2v0.3h-0.3c-0.2 0-0.3-0.1-0.4-0.1-0.1-0.1-0.1-0.2-0.1-0.5v-0.8h-0.2v-0.3h0.2v-0.2l0.4-0.1z"/>
					<path d="m201.3 49.4v0.5h-0.3v-0.2c-0.1 0.1-0.2 0.3-0.5 0.3s-0.6-0.2-0.6-0.7v-1h0.4v0.9c0 0.3 0.1 0.4 0.3 0.4s0.3-0.1 0.3-0.2v-1.1h0.4v1.1z"/>
					<path d="m201.8 48.8v-0.5h0.4v0.3c0.1-0.2 0.3-0.3 0.4-0.3h0.1v0.4h-0.1c-0.2 0-0.3 0.1-0.4 0.3v0.9h-0.4v-1.1z"/>
					<path d="m203 48.8v-0.5h0.4v0.2c0.1-0.1 0.2-0.3 0.5-0.3s0.6 0.2 0.6 0.7v1h-0.5v-0.9c0-0.2-0.1-0.4-0.3-0.4s-0.3 0.1-0.3 0.2v1.1h-0.4v-1.1z"/>
				</g>
				<g fill="#868686">
					<path d="m197.3 19.7v2.4h-0.4v-0.3c-0.1 0.2-0.3 0.3-0.5 0.3-0.4 0-0.7-0.3-0.7-0.8s0.3-0.9 0.7-0.9c0.2 0 0.4 0.1 0.5 0.2v-0.9h0.4zm-0.4 1.4v-0.1c0-0.2-0.2-0.3-0.4-0.3-0.3 0-0.4 0.2-0.4 0.5s0.1 0.5 0.4 0.5c0.2 0 0.3-0.1 0.4-0.3v-0.3z"/>
					<path d="m198 21.4c0 0.3 0.2 0.4 0.5 0.4 0.2 0 0.3 0 0.4-0.1l0.1 0.3c-0.1 0.1-0.3 0.1-0.6 0.1-0.5 0-0.8-0.3-0.8-0.8 0-0.4 0.3-0.9 0.8-0.9s0.7 0.4 0.7 0.8v0.2h-1.1zm0.7-0.3c0-0.1-0.1-0.4-0.3-0.4-0.3 0-0.4 0.2-0.4 0.4h0.7z"/>
					<path d="m199.4 19.7h0.4v2.4h-0.4v-2.4z"/>
					<path d="m200.6 21.4c0 0.3 0.2 0.4 0.5 0.4 0.2 0 0.3 0 0.4-0.1l0.1 0.3c-0.1 0.1-0.3 0.1-0.6 0.1-0.5 0-0.8-0.3-0.8-0.8 0-0.4 0.3-0.9 0.8-0.9s0.7 0.4 0.7 0.8v0.2h-1.1zm0.7-0.3c0-0.1-0.1-0.4-0.3-0.4-0.3 0-0.4 0.2-0.4 0.4h0.7z"/>
					<path d="m202.5 20v0.4h0.4v0.3h-0.4v0.7c0 0.2 0.1 0.3 0.2 0.3h0.2v0.3h-0.3c-0.2 0-0.3-0.1-0.4-0.1-0.1-0.1-0.1-0.2-0.1-0.5v-0.8h-0.2v-0.3h0.2v-0.3h0.4z"/>
					<path d="m203.4 21.4c0 0.3 0.2 0.4 0.5 0.4 0.2 0 0.3 0 0.4-0.1l0.1 0.3c-0.1 0.1-0.3 0.1-0.6 0.1-0.5 0-0.8-0.3-0.8-0.8 0-0.4 0.3-0.9 0.8-0.9s0.7 0.4 0.7 0.8v0.2h-1.1zm0.8-0.3c0-0.1-0.1-0.4-0.3-0.4-0.3 0-0.4 0.2-0.4 0.4h0.7z"/>
				</g>
				<g fill="#868686">
					<path d="m199.1 43c0 0.2 0.2 0.3 0.4 0.3 0.1 0 0.3 0 0.4-0.1v0.2c-0.1 0-0.3 0.1-0.4 0.1-0.4 0-0.7-0.3-0.7-0.6 0-0.4 0.2-0.7 0.6-0.7s0.5 0.3 0.5 0.6v0.1h-0.8zm0.5-0.3c0-0.1 0-0.3-0.3-0.3-0.2 0-0.3 0.2-0.3 0.3h0.6z"/>
					<path d="m200.2 42.6v-0.4h0.3v0.2c0.1-0.1 0.2-0.2 0.4-0.2s0.5 0.1 0.5 0.5v0.8h-0.4v-0.7c0-0.2-0.1-0.3-0.2-0.3s-0.2 0.1-0.2 0.2v0.8h-0.3v-0.9z"/>
					<path d="m202 41.9v0.3h0.3v0.2h-0.3v0.6c0 0.2 0 0.2 0.2 0.2h0.1v0.2h-0.2c-0.1 0-0.2 0-0.3-0.1s-0.1-0.2-0.1-0.4v-0.6h-0.2v-0.2h0.2v-0.1l0.3-0.1z"/>
					<path d="m202.8 43c0 0.2 0.2 0.3 0.4 0.3 0.1 0 0.3 0 0.4-0.1v0.2c-0.1 0-0.3 0.1-0.4 0.1-0.4 0-0.7-0.3-0.7-0.6 0-0.4 0.2-0.7 0.6-0.7s0.5 0.3 0.5 0.6v0.1h-0.8zm0.5-0.3c0-0.1 0-0.3-0.3-0.3-0.2 0-0.3 0.2-0.3 0.3h0.6z"/>
					<path d="m203.9 42.7v-0.4h0.3v0.2c0.1-0.2 0.2-0.3 0.3-0.3h0.1v0.3h-0.1c-0.2 0-0.3 0.1-0.3 0.2v0.8h-0.3v-0.8z"/>
				</g>
				<g fill="#868686">
					<path d="m27 7.5h0.7v0.2h-0.5v0.3h0.5v0.2h-0.5v0.5h-0.2v-1.2z"/>
					<path d="m28.3 7.8l-0.3 0.1v-0.2l0.3-0.1h0.2v1.2h-0.2v-1z"/>
				</g>
				<g fill="#868686">
					<path d="m41.1 7.5h0.7v0.2h-0.5v0.3h0.5v0.2h-0.5v0.5h-0.2v-1.2z"/>
					<path d="m42 8.8v-0.1l0.1-0.1c0.3-0.3 0.4-0.4 0.4-0.6 0-0.1-0.1-0.2-0.2-0.2s-0.2 0.1-0.3 0.1v-0.2c0.1-0.1 0.2-0.1 0.4-0.1 0.3 0 0.4 0.2 0.4 0.4s-0.2 0.4-0.4 0.6l-0.1 0.1h0.5v0.2h-0.8z"/>
				</g>
				<g fill="#868686">
					<path d="m56.2 7.5h0.8v0.2h-0.5v0.3h0.5v0.2h-0.5v0.5h-0.2v-1.2z"/>
					<path d="m57.2 8.6s0.2 0.1 0.3 0.1c0.2 0 0.2-0.1 0.2-0.2s-0.1-0.2-0.3-0.2h-0.1v-0.2h0.1c0.1 0 0.2 0 0.2-0.2 0-0.1-0.1-0.2-0.2-0.2s-0.2 0-0.3 0.1l-0.1-0.2c0.1 0 0.2-0.1 0.4-0.1 0.3 0 0.4 0.1 0.4 0.3 0 0.1-0.1 0.2-0.2 0.3 0.1 0 0.3 0.1 0.3 0.3s-0.2 0.4-0.5 0.4c-0.1 0-0.3 0-0.3-0.1l0.1-0.1z"/>
				</g>
				<g fill="#868686">
					<path d="m70.4 7.5h0.7v0.2h-0.5v0.3h0.5v0.2h-0.5v0.5h-0.2v-1.2z"/>
					<path d="m71.8 8.8v-0.3h-0.6v-0.2l0.5-0.8h0.3v0.7h0.2v0.2h-0.2v0.3h-0.2zm0-0.5v-0.5c0 0.1-0.1 0.1-0.1 0.2l-0.2 0.3h0.3z"/>
				</g>
				<g fill="#868686">
					<path d="m85.2 7.5h0.8v0.2h-0.5v0.3h0.5v0.2h-0.5v0.5h-0.2v-1.2z"/>
					<path d="m86.9 7.8h-0.5v0.2h0.1c0.1 0 0.2 0 0.3 0.1s0.2 0.2 0.2 0.3c0 0.2-0.2 0.4-0.5 0.4-0.1 0-0.3 0-0.3-0.1v-0.2c0.1 0 0.2 0.1 0.3 0.1s0.3-0.1 0.3-0.2-0.1-0.2-0.3-0.2h-0.2l0.1-0.6h0.6v0.2z"/>
				</g>
				<g fill="#868686">
					<path d="m100 7.5h0.7v0.2h-0.5v0.3h0.5v0.2h-0.5v0.5h-0.2v-1.2z"/>
					<path d="m101.7 7.7h-0.1c-0.3 0-0.4 0.2-0.4 0.4 0.1-0.1 0.2-0.1 0.3-0.1 0.2 0 0.4 0.1 0.4 0.4 0 0.2-0.2 0.4-0.4 0.4-0.3 0-0.5-0.2-0.5-0.5 0-0.2 0.1-0.4 0.2-0.5s0.3-0.2 0.4-0.2h0.1v0.1zm-0.3 0.9c0.1 0 0.2-0.1 0.2-0.3 0-0.1-0.1-0.2-0.2-0.2s-0.2 0.1-0.2 0.1v0.1c-0.1 0.2 0 0.3 0.2 0.3z"/>
				</g>
				<g fill="#868686">
					<path d="m114.2 7.5h0.7v0.2h-0.5v0.3h0.5v0.2h-0.5v0.5h-0.2v-1.2z"/>
					<path d="m116 7.6v0.1l-0.5 1.1h-0.2l0.5-1h-0.6v-0.2h0.8z"/>
				</g>
				<g fill="#868686">
					<path d="m129.3 7.5h0.7v0.2h-0.5v0.3h0.5v0.2h-0.5v0.5h-0.2v-1.2z"/>
					<path d="m130.4 8.2c-0.1-0.1-0.2-0.2-0.2-0.3 0-0.2 0.2-0.3 0.4-0.3 0.3 0 0.4 0.2 0.4 0.3s-0.1 0.2-0.2 0.3c0.1 0.1 0.2 0.2 0.2 0.3 0 0.2-0.2 0.4-0.4 0.4-0.3 0-0.4-0.2-0.4-0.3-0.1-0.3 0-0.4 0.2-0.4zm0.4 0.3c0-0.1-0.1-0.2-0.2-0.2s-0.2 0.1-0.2 0.2 0.1 0.2 0.2 0.2 0.2-0.1 0.2-0.2zm-0.4-0.6c0 0.1 0.1 0.2 0.2 0.2s0.2-0.1 0.2-0.2-0.1-0.2-0.2-0.2-0.2 0.1-0.2 0.2z"/>
				</g>
				<g fill="#868686">
					<path d="m144.2 7.5h0.7v0.2h-0.5v0.3h0.5v0.2h-0.5v0.5h-0.2v-1.2z"/>
					<path d="m145.2 8.6h0.1c0.1 0 0.2 0 0.2-0.1 0.1-0.1 0.1-0.2 0.2-0.3-0.1 0.1-0.1 0.1-0.3 0.1s-0.4-0.2-0.4-0.4 0.2-0.4 0.4-0.4c0.3 0 0.4 0.2 0.4 0.5s-0.1 0.4-0.2 0.6c-0.1 0.1-0.3 0.2-0.4 0.2h-0.1v-0.2zm0.3-0.9c-0.1 0-0.2 0.1-0.2 0.3 0 0.1 0.1 0.2 0.2 0.2s0.2 0 0.2-0.1v-0.1c0-0.1 0-0.3-0.2-0.3z"/>
				</g>
				<g fill="#868686">
					<path d="m157.4 7.5h0.7v0.2h-0.5v0.3h0.5v0.2h-0.5v0.5h-0.2v-1.2z"/>
					<path d="m158.7 7.8l-0.2 0.1v-0.2l0.3-0.1h0.2v1.2h-0.2v-1z"/>
					<path d="m160.2 8.2c0 0.4-0.2 0.6-0.4 0.6-0.3 0-0.4-0.3-0.4-0.6 0-0.4 0.2-0.6 0.4-0.6s0.4 0.2 0.4 0.6zm-0.7 0c0 0.3 0.1 0.5 0.2 0.5s0.2-0.2 0.2-0.5-0.1-0.5-0.2-0.5-0.2 0.2-0.2 0.5z"/>
				</g>
				<g fill="#868686">
					<path d="m172.3 7.5h0.7v0.2h-0.5v0.3h0.5v0.2h-0.5v0.5h-0.2v-1.2z"/>
					<path d="m173.6 7.8l-0.2 0.1v-0.2l0.3-0.1h0.2v1.2h-0.2v-1z"/>
					<path d="m174.6 7.8l-0.2 0.1v-0.2l0.3-0.1h0.2v1.2h-0.2v-1z"/>
				</g>
				<g fill="#868686">
					<path d="m186.9 7.5h0.7v0.2h-0.5v0.3h0.5v0.2h-0.5v0.5h-0.2v-1.2z"/>
					<path d="m188.2 7.8l-0.2 0.1v-0.2l0.3-0.1h0.2v1.2h-0.2v-1z"/>
					<path d="m188.8 8.8v-0.1l0.1-0.1c0.3-0.3 0.4-0.4 0.4-0.6 0-0.1-0.1-0.2-0.2-0.2s-0.2 0.1-0.3 0.1l-0.1-0.2c0.1-0.1 0.2-0.1 0.4-0.1 0.3 0 0.4 0.2 0.4 0.4s-0.2 0.4-0.4 0.6l-0.1 0.1h0.5v0.2h-0.7z"/>
				</g>
				<g fill="#868686">
					<path d="m160.3 70.7v0.3h-0.3v-0.1c-0.1 0.1-0.2 0.2-0.4 0.2-0.3 0-0.4-0.2-0.4-0.4 0-0.3 0.3-0.5 0.8-0.5 0-0.1 0-0.2-0.3-0.2-0.1 0-0.3 0-0.3 0.1l-0.1-0.2c0.1-0.1 0.3-0.1 0.5-0.1 0.4 0 0.5 0.3 0.5 0.5v0.4zm-0.3-0.3c-0.2 0-0.4 0-0.4 0.2 0 0.1 0.1 0.2 0.2 0.2s0.2-0.1 0.2-0.2v-0.2z"/>
					<path d="m160.7 69.1h0.3v1.9h-0.3v-1.9z"/>
					<path d="m161.7 69.4v0.3h0.3v0.3h-0.3v0.6c0 0.2 0 0.2 0.2 0.2h0.1v0.2h-0.2c-0.1 0-0.2 0-0.3-0.1s-0.1-0.2-0.1-0.4v-0.5h-0.2v-0.2h0.2v-0.2l0.3-0.2z"/>
				</g>
				<g fill="#868686">
					<path d="m34.1 70.7v0.3h-0.3v-0.1c-0.1 0.1-0.2 0.2-0.4 0.2-0.3 0-0.4-0.2-0.4-0.4 0-0.3 0.3-0.5 0.8-0.5 0-0.1 0-0.2-0.3-0.2-0.1 0-0.3 0-0.3 0.1l-0.1-0.2c0.1-0.1 0.3-0.1 0.5-0.1 0.4 0 0.5 0.3 0.5 0.5v0.4zm-0.3-0.3c-0.2 0-0.4 0-0.4 0.2 0 0.1 0.1 0.2 0.2 0.2s0.2-0.1 0.3-0.2v-0.2z"/>
					<path d="m34.5 69.1h0.3v1.9h-0.3v-1.9z"/>
					<path d="m35.5 69.4v0.3h0.3v0.3h-0.3v0.6c0 0.2 0 0.2 0.2 0.2h0.1v0.2h-0.2c-0.1 0-0.2 0-0.3-0.1s-0.1-0.2-0.1-0.4v-0.5h-0.2v-0.2h0.2v-0.2l0.3-0.2z"/>
				</g>
				<g fill="#868686">
					<path d="m6.7 49.9c-0.1 0-0.3 0.1-0.5 0.1-0.5 0-0.8-0.3-0.8-0.8s0.3-0.9 0.9-0.9c0.1 0 0.3 0 0.4 0.1l-0.1 0.3c-0.1 0-0.2-0.1-0.3-0.1-0.3 0-0.5 0.2-0.5 0.5s0.2 0.5 0.5 0.5c0.1 0 0.2 0 0.3-0.1l0.1 0.4z"/>
					<path d="m8.3 49.5v0.4h-0.4v-0.2c-0.1 0.2-0.3 0.3-0.5 0.3-0.3 0-0.5-0.2-0.5-0.5 0-0.4 0.4-0.6 1-0.6 0-0.1 0-0.3-0.3-0.3-0.2 0-0.3 0-0.4 0.1l-0.2-0.3c0.1-0.1 0.3-0.1 0.6-0.1 0.5 0 0.7 0.3 0.7 0.7v0.5zm-0.4-0.4c-0.3 0-0.6 0.1-0.6 0.3s0.1 0.2 0.2 0.2c0.2 0 0.3-0.1 0.3-0.2v-0.3z"/>
					<path d="m8.7 48.9v-0.5h0.3v0.2c0.1-0.2 0.3-0.3 0.6-0.3 0.4 0 0.7 0.3 0.7 0.8 0 0.6-0.4 0.9-0.7 0.9-0.2 0-0.4-0.1-0.5-0.2v0.8h-0.4v-1.7zm0.4 0.4v0.1c0 0.2 0.2 0.3 0.4 0.3 0.3 0 0.4-0.2 0.4-0.5s-0.1-0.5-0.4-0.5c-0.2 0-0.3 0.1-0.4 0.3v0.3z"/>
					<path d="m10.6 49.6c0.1 0.1 0.3 0.1 0.4 0.1 0.2 0 0.3-0.1 0.3-0.2s-0.1-0.2-0.3-0.2c-0.3-0.1-0.4-0.3-0.4-0.5 0-0.3 0.2-0.5 0.6-0.5 0.2 0 0.3 0 0.4 0.1l-0.1 0.3c-0.1 0-0.2-0.1-0.3-0.1s-0.2 0.1-0.2 0.2 0.1 0.2 0.3 0.2c0.3 0.1 0.4 0.3 0.4 0.5 0 0.3-0.2 0.5-0.7 0.5-0.2 0-0.4-0.1-0.5-0.1l0.1-0.3z"/>
					<path d="m12.7 47.6h0.4v2.4h-0.4v-2.4z"/>
					<path d="m15.1 49.1c0 0.6-0.4 0.9-0.8 0.9-0.5 0-0.8-0.3-0.8-0.8s0.3-0.9 0.8-0.9 0.8 0.3 0.8 0.8zm-1.2 0c0 0.3 0.2 0.5 0.4 0.5s0.4-0.2 0.4-0.6c0-0.3-0.1-0.5-0.4-0.5-0.3 0.1-0.4 0.4-0.4 0.6z"/>
					<path d="m16.6 49.9c-0.1 0-0.3 0.1-0.5 0.1-0.5 0-0.8-0.3-0.8-0.8s0.3-0.9 0.9-0.9c0.1 0 0.3 0 0.4 0.1l-0.1 0.3c-0.1 0-0.2-0.1-0.3-0.1-0.3 0-0.5 0.2-0.5 0.5s0.2 0.5 0.5 0.5c0.1 0 0.2 0 0.3-0.1l0.1 0.4z"/>
					<path d="m17.4 49c0-0.1 0.1-0.1 0.1-0.2l0.4-0.5h0.5l-0.6 0.7 0.7 1h-0.5l-0.5-0.7-0.1 0.2v0.6h-0.4v-2.4h0.4v1.3z"/>
				</g>
				<g fill="#868686">
					<path d="m6 33.8v0.4h0.4v0.3h-0.4v0.7c0 0.2 0.1 0.3 0.2 0.3h0.2v0.3h-0.3c-0.1 0-0.3-0.1-0.4-0.1-0.1-0.1-0.1-0.2-0.1-0.5v-0.8h-0.3v-0.3h0.2v-0.3h0.5z"/>
					<path d="m7.9 35.4v0.4h-0.3v-0.2c-0.1 0.1-0.3 0.2-0.5 0.2-0.3 0-0.5-0.2-0.5-0.5 0-0.4 0.4-0.6 1-0.6 0-0.1 0-0.3-0.3-0.3-0.2 0-0.3 0.1-0.4 0.1l-0.1-0.3c0.1-0.1 0.3-0.1 0.6-0.1 0.5 0 0.7 0.3 0.7 0.7v0.6zm-0.4-0.4c-0.3 0-0.5 0.1-0.5 0.3s0.1 0.2 0.2 0.2c0.2 0 0.3-0.1 0.3-0.2v-0.3z"/>
					<path d="m8.4 33.4h0.4v1c0.1-0.2 0.3-0.3 0.5-0.3 0.4 0 0.7 0.3 0.7 0.8 0 0.6-0.4 0.9-0.7 0.9-0.2 0-0.4-0.1-0.5-0.3v0.2h-0.4v-2.3zm0.4 1.7c0.1 0.3 0.2 0.4 0.4 0.4 0.3 0 0.4-0.2 0.4-0.5s-0.1-0.5-0.4-0.5c-0.2 0-0.3 0.1-0.4 0.3v0.3z"/>
				</g>
				<g fill="#868686">
					<path d="m7.5 7.2c0 0.3 0.2 0.4 0.5 0.4 0.2 0 0.3 0 0.4-0.1l0.1 0.3c-0.1 0.1-0.3 0.2-0.5 0.2-0.5 0-0.9-0.4-0.9-0.9 0-0.4 0.3-0.9 0.8-0.9s0.7 0.4 0.7 0.8v0.2h-1.1zm0.7-0.2c0-0.1-0.1-0.4-0.3-0.4s-0.3 0.2-0.4 0.4h0.7z"/>
					<path d="m8.9 7.6c0.1 0 0.3 0.1 0.5 0.1s0.3-0.1 0.3-0.2-0.1-0.2-0.3-0.2c-0.4-0.2-0.5-0.3-0.5-0.5 0-0.3 0.2-0.5 0.6-0.5 0.2 0 0.3 0 0.4 0.1v0.3c-0.1 0-0.2-0.1-0.3-0.1s-0.2 0.1-0.2 0.2 0.1 0.2 0.3 0.2c0.2 0.1 0.3 0.2 0.3 0.5s-0.2 0.5-0.6 0.5c-0.2 0-0.4-0.1-0.5-0.1v-0.3z"/>
					<path d="m11.5 7.9c-0.1 0-0.3 0.1-0.5 0.1-0.5 0-0.8-0.3-0.8-0.8s0.3-0.9 0.9-0.9c0.1 0 0.3 0 0.4 0.1l-0.1 0.3c-0.1 0-0.2-0.1-0.3-0.1-0.3 0-0.5 0.2-0.5 0.5s0.2 0.5 0.5 0.5c0.1 0 0.2 0 0.3-0.1l0.1 0.4z"/>
				</g>
				<g fill="#868686">
					<path d="m6 78.2v-1.3h-0.2v-0.3h0.2v-0.1c0-0.2 0-0.4 0.2-0.5 0.1-0.1 0.3-0.2 0.4-0.2h0.3v0.3h-0.2c-0.2 0-0.3 0.2-0.3 0.4v0.1h0.4v0.3h-0.4v1.3h-0.4z"/>
					<path d="m7 77.1v-0.5h0.4v0.2c0.1-0.1 0.2-0.3 0.5-0.3s0.6 0.2 0.6 0.7v1h-0.4v-0.9c0-0.2-0.1-0.4-0.3-0.4s-0.3 0.1-0.3 0.2v1.1h-0.5v-1.1z"/>
				</g>
				<g fill="#868686">
					<path d="m21 78.2c-0.1 0-0.3 0.1-0.5 0.1-0.5 0-0.8-0.3-0.8-0.8s0.3-0.9 0.9-0.9c0.1 0 0.3 0 0.4 0.1v0.3c-0.1 0-0.2-0.1-0.3-0.1-0.3 0-0.5 0.2-0.5 0.5s0.2 0.5 0.5 0.5c0.1 0 0.2 0 0.3-0.1v0.4z"/>
					<path d="m21.8 76.2v0.4h0.4v0.3h-0.4v0.7c0 0.2 0.1 0.3 0.2 0.3h0.2v0.3h-0.3c-0.1 0-0.3-0.1-0.4-0.1-0.1-0.1-0.1-0.2-0.1-0.5v-0.8h-0.2v-0.3h0.2v-0.3h0.4z"/>
					<path d="m22.5 77.1v-0.5h0.4v0.3c0.1-0.2 0.3-0.3 0.4-0.3h0.1v0.4h-0.1c-0.2 0-0.3 0.1-0.4 0.3v0.9h-0.4v-1.1z"/>
					<path d="m23.7 75.9h0.4v2.4h-0.4v-2.4z"/>
				</g>
				<g fill="#868686">
					<path d="m34.2 77.4c0 0.6-0.4 0.9-0.8 0.9-0.5 0-0.8-0.3-0.8-0.8s0.3-0.9 0.8-0.9 0.8 0.3 0.8 0.8zm-1.2 0c0 0.3 0.2 0.5 0.4 0.5s0.4-0.2 0.4-0.6c0-0.3-0.1-0.5-0.4-0.5-0.3 0.1-0.4 0.4-0.4 0.6z"/>
					<path d="m34.5 77.2v-0.5h0.4v0.2c0.1-0.2 0.3-0.3 0.6-0.3 0.4 0 0.7 0.3 0.7 0.8 0 0.6-0.4 0.9-0.7 0.9-0.2 0-0.4-0.1-0.5-0.2v0.8h-0.4v-1.7zm0.5 0.4v0.1c0 0.2 0.2 0.3 0.4 0.3 0.3 0 0.4-0.2 0.4-0.5s-0.1-0.5-0.4-0.5c-0.2 0-0.3 0.1-0.4 0.3v0.3z"/>
					<path d="m37 76.2v0.4h0.4v0.3h-0.4v0.7c0 0.2 0.1 0.3 0.2 0.3h0.2v0.3h-0.3c-0.1 0-0.3-0.1-0.4-0.1-0.1-0.1-0.1-0.2-0.1-0.5v-0.8h-0.2v-0.3h0.2v-0.3h0.4z"/>
					<path d="m38.1 76.2c0 0.1-0.1 0.2-0.2 0.2s-0.2-0.1-0.2-0.2 0.1-0.2 0.2-0.2c0.1-0.1 0.2 0 0.2 0.2zm-0.4 2v-1.6h0.4v1.6h-0.4z"/>
					<path d="m40.1 77.4c0 0.6-0.4 0.9-0.8 0.9-0.5 0-0.8-0.3-0.8-0.8s0.3-0.9 0.8-0.9c0.4 0 0.8 0.3 0.8 0.8zm-1.3 0c0 0.3 0.2 0.5 0.4 0.5s0.4-0.2 0.4-0.6c0-0.3-0.1-0.5-0.4-0.5-0.3 0.1-0.4 0.4-0.4 0.6z"/>
					<path d="m40.4 77.1v-0.5h0.4v0.2c0.1-0.1 0.2-0.3 0.5-0.3s0.6 0.2 0.6 0.7v1h-0.4v-0.9c0-0.2-0.1-0.4-0.3-0.4s-0.3 0.1-0.3 0.2v1.1h-0.4v-1.1z"/>
				</g>
				<g fill="#868686">
					<path d="m154.6 77.4c0 0.6-0.4 0.9-0.8 0.9-0.5 0-0.8-0.3-0.8-0.8s0.3-0.9 0.8-0.9c0.4 0 0.8 0.3 0.8 0.8zm-1.3 0c0 0.3 0.2 0.5 0.4 0.5s0.4-0.2 0.4-0.6c0-0.3-0.1-0.5-0.4-0.5-0.2 0.1-0.4 0.4-0.4 0.6z"/>
					<path d="m154.9 77.2v-0.5h0.4v0.2c0.1-0.2 0.3-0.3 0.6-0.3 0.4 0 0.7 0.3 0.7 0.8 0 0.6-0.4 0.9-0.7 0.9-0.2 0-0.4-0.1-0.5-0.2v0.8h-0.4v-1.7zm0.4 0.4v0.1c0 0.2 0.2 0.3 0.4 0.3 0.3 0 0.4-0.2 0.4-0.5s-0.1-0.5-0.4-0.5c-0.2 0-0.3 0.1-0.4 0.3v0.3z"/>
					<path d="m157.3 76.2v0.4h0.4v0.3h-0.4v0.7c0 0.2 0.1 0.3 0.2 0.3h0.2v0.3h-0.3c-0.1 0-0.3-0.1-0.4-0.1-0.1-0.1-0.1-0.2-0.1-0.5v-0.8h-0.2v-0.3h0.2v-0.3h0.4z"/>
					<path d="m158.4 76.2c0 0.1-0.1 0.2-0.2 0.2s-0.2-0.1-0.2-0.2 0.1-0.2 0.2-0.2c0.2-0.1 0.2 0 0.2 0.2zm-0.4 2v-1.6h0.4v1.6h-0.4z"/>
					<path d="m160.4 77.4c0 0.6-0.4 0.9-0.8 0.9-0.5 0-0.8-0.3-0.8-0.8s0.3-0.9 0.8-0.9 0.8 0.3 0.8 0.8zm-1.2 0c0 0.3 0.2 0.5 0.4 0.5s0.4-0.2 0.4-0.6c0-0.3-0.1-0.5-0.4-0.5-0.3 0.1-0.4 0.4-0.4 0.6z"/>
					<path d="m160.7 77.1v-0.5h0.4v0.2c0.1-0.1 0.2-0.3 0.5-0.3s0.6 0.2 0.6 0.7v1h-0.4v-0.9c0-0.2-0.1-0.4-0.3-0.4s-0.3 0.1-0.3 0.2v1.1h-0.4v-1.1z"/>
				</g>
				<g fill="#868686">
					<path d="m47.7 78.2c-0.1 0-0.3 0.1-0.5 0.1-0.5 0-0.8-0.3-0.8-0.8s0.3-0.9 0.9-0.9c0.1 0 0.3 0 0.4 0.1l-0.1 0.3c-0.1 0-0.2-0.1-0.3-0.1-0.3 0-0.5 0.2-0.5 0.5s0.2 0.5 0.5 0.5c0.1 0 0.2 0 0.3-0.1l0.1 0.4z"/>
					<path d="m49.5 77.4c0 0.6-0.4 0.9-0.8 0.9-0.5 0-0.8-0.3-0.8-0.8s0.3-0.9 0.8-0.9c0.4 0 0.8 0.3 0.8 0.8zm-1.3 0c0 0.3 0.2 0.5 0.4 0.5s0.4-0.2 0.4-0.6c0-0.3-0.1-0.5-0.4-0.5-0.2 0.1-0.4 0.4-0.4 0.6z"/>
					<path d="m49.8 77.1v-0.5h0.4v0.2c0.1-0.1 0.2-0.3 0.5-0.3 0.2 0 0.4 0.1 0.4 0.3 0.1-0.1 0.1-0.2 0.2-0.2 0.1-0.1 0.2-0.1 0.3-0.1 0.3 0 0.5 0.2 0.5 0.7v1h-0.4v-0.9c0-0.3-0.1-0.4-0.3-0.4-0.1 0-0.2 0.1-0.3 0.2v1.1h-0.4v-0.9c0-0.2-0.1-0.4-0.3-0.4s-0.3 0.1-0.3 0.2v1.1h-0.4v-1.1z"/>
					<path d="m52.6 77.1v-0.5h0.4v0.2c0.1-0.1 0.2-0.3 0.5-0.3 0.2 0 0.4 0.1 0.4 0.3 0.1-0.1 0.1-0.2 0.2-0.2 0.1-0.1 0.2-0.1 0.3-0.1 0.3 0 0.5 0.2 0.5 0.7v1h-0.4v-0.9c0-0.3-0.1-0.4-0.3-0.4-0.1 0-0.2 0.1-0.3 0.2v1.1h-0.4v-0.9c0-0.2-0.1-0.4-0.3-0.4s-0.3 0.1-0.3 0.2v1.1h-0.4v-1.1z"/>
					<path d="m56.7 77.8v0.4h-0.4v-0.2c-0.1 0.1-0.3 0.2-0.5 0.2-0.3 0-0.5-0.2-0.5-0.5 0-0.4 0.4-0.6 1-0.6 0-0.1 0-0.3-0.3-0.3-0.2 0-0.3 0.1-0.4 0.1l-0.1-0.3c0.1-0.1 0.3-0.1 0.6-0.1 0.5 0 0.7 0.3 0.7 0.7v0.6zm-0.4-0.4c-0.3 0-0.6 0.1-0.6 0.3s0.1 0.2 0.2 0.2c0.2 0 0.3-0.1 0.3-0.2v-0.3z"/>
					<path d="m57.1 77.1v-0.5h0.4v0.2c0.1-0.1 0.2-0.3 0.5-0.3s0.6 0.2 0.6 0.7v1h-0.4v-0.9c0-0.2-0.1-0.4-0.3-0.4s-0.3 0.1-0.3 0.2v1.1h-0.4v-1.1z"/>
					<path d="m60.5 75.9v2.4h-0.4v-0.3c-0.1 0.2-0.3 0.3-0.5 0.3-0.4 0-0.7-0.3-0.7-0.8s0.3-0.9 0.7-0.9c0.2 0 0.4 0.1 0.5 0.2v-0.9h0.4zm-0.4 1.4v-0.1c0-0.2-0.2-0.3-0.4-0.3-0.3 0-0.4 0.2-0.4 0.5s0.1 0.5 0.4 0.5c0.2 0 0.3-0.1 0.4-0.3v-0.3z"/>
				</g>
				<g fill="#868686">
					<path d="m135.5 78.2c-0.1 0-0.3 0.1-0.5 0.1-0.5 0-0.8-0.3-0.8-0.8s0.3-0.9 0.9-0.9c0.2 0 0.3 0 0.4 0.1l-0.1 0.3c-0.1 0-0.2-0.1-0.3-0.1-0.3 0-0.5 0.2-0.5 0.5s0.2 0.5 0.5 0.5c0.1 0 0.2 0 0.3-0.1l0.1 0.4z"/>
					<path d="m137.4 77.4c0 0.6-0.4 0.9-0.8 0.9-0.5 0-0.8-0.3-0.8-0.8s0.4-0.9 0.8-0.9 0.8 0.3 0.8 0.8zm-1.3 0c0 0.3 0.2 0.5 0.4 0.5s0.4-0.2 0.4-0.6c0-0.3-0.1-0.5-0.4-0.5-0.2 0.1-0.4 0.4-0.4 0.6z"/>
					<path d="m137.7 77.1v-0.5h0.4v0.2c0.1-0.1 0.2-0.3 0.5-0.3 0.2 0 0.4 0.1 0.4 0.3 0.1-0.1 0.1-0.2 0.2-0.2 0.1-0.1 0.2-0.1 0.3-0.1 0.3 0 0.5 0.2 0.5 0.7v1h-0.4v-0.9c0-0.3-0.1-0.4-0.3-0.4-0.1 0-0.2 0.1-0.3 0.2v1.1h-0.4v-0.9c0-0.2-0.1-0.4-0.3-0.4s-0.3 0.1-0.3 0.2v1.1h-0.4v-1.1z"/>
					<path d="m140.5 77.1v-0.5h0.4v0.2c0.1-0.1 0.2-0.3 0.5-0.3 0.2 0 0.4 0.1 0.4 0.3 0.1-0.1 0.1-0.2 0.2-0.2 0.1-0.1 0.2-0.1 0.3-0.1 0.3 0 0.5 0.2 0.5 0.7v1h-0.4v-0.9c0-0.3-0.1-0.4-0.3-0.4-0.1 0-0.2 0.1-0.3 0.2v1.1h-0.4v-0.9c0-0.2-0.1-0.4-0.3-0.4s-0.3 0.1-0.3 0.2v1.1h-0.4v-1.1z"/>
					<path d="m144.6 77.8v0.4h-0.4v-0.2c-0.1 0.1-0.3 0.2-0.5 0.2-0.3 0-0.5-0.2-0.5-0.5 0-0.4 0.4-0.6 1-0.6 0-0.1 0-0.3-0.3-0.3-0.2 0-0.3 0.1-0.4 0.1l-0.1-0.3c0.1-0.1 0.3-0.1 0.6-0.1 0.5 0 0.7 0.3 0.7 0.7v0.6zm-0.4-0.4c-0.3 0-0.6 0.1-0.6 0.3s0.1 0.2 0.2 0.2c0.2 0 0.3-0.1 0.3-0.2v-0.3z"/>
					<path d="m145 77.1v-0.5h0.4v0.2c0.1-0.1 0.2-0.3 0.5-0.3s0.6 0.2 0.6 0.7v1h-0.4v-0.9c0-0.2-0.1-0.4-0.3-0.4s-0.3 0.1-0.3 0.2v1.1h-0.5v-1.1z"/>
					<path d="m148.4 75.9v2.4h-0.4v-0.3c-0.1 0.2-0.3 0.3-0.5 0.3-0.4 0-0.7-0.3-0.7-0.8s0.3-0.9 0.7-0.9c0.2 0 0.4 0.1 0.5 0.2v-0.9h0.4zm-0.4 1.4v-0.1c0-0.2-0.2-0.3-0.4-0.3-0.3 0-0.4 0.2-0.4 0.5s0.1 0.5 0.4 0.5c0.2 0 0.3-0.1 0.4-0.3v-0.3z"/>
				</g>
				<polygon points="171.1 77.6 172.1 78.6 172.1 76.7" fill="#868686"/>
				<polygon points="200.4 77.6 199.5 76.7 199.5 78.6" fill="#868686"/>
				<polygon points="185.8 70 184.9 71 186.8 71" fill="#868686"/>
				<polygon points="185.8 78.1 186.8 77.2 184.9 77.2" fill="#868686"/>
				<path fill-rule="evenodd" clip-rule="evenodd" d="m25.3 6.1l-0.1-0.1h-0.1l-0.1 0.1v0.2h0.2l0.1-0.2m-0.9-0.2v-0.2c0-0.1-0.1-0.1-0.1-0.1-0.1 0-0.1 0.1-0.1 0.1v0.1c0 0.1 0.1 0.1 0.1 0.1 0.1 0.1 0.1 0 0.1 0zm1.2 1.1c0-0.1-0.1-0.1-0.1-0.1h-0.1c-0.1 0-0.1 0.1-0.1 0.1 0 0.1 0.1 0.1 0.1 0.1h0.1c0.1 0 0.1-0.1 0.1-0.1zm-2-0.8l-0.1-0.2h-0.2v0.2l0.1 0.1h0.1c0.1 0 0.1 0 0.1-0.1zm1.3 0.8c0-0.3-0.3-0.6-0.6-0.6s-0.6 0.3-0.6 0.6 0.3 0.6 0.6 0.6 0.6-0.3 0.6-0.6zm0.4 0.8l-0.1-0.2h-0.2v0.2l0.1 0.1h0.1c0 0.1 0 0 0.1-0.1zm-2-0.8c0-0.1-0.1-0.1-0.1-0.1h-0.1c-0.1-0.1-0.1 0-0.1 0.1 0 0 0 0.1 0.1 0.1h0.1c0.1 0 0.1-0.1 0.1-0.1zm1.1 1.2v-0.1c0-0.1-0.1-0.1-0.1-0.1-0.1 0-0.1 0.1-0.1 0.1v0.1c0 0.1 0.1 0.1 0.1 0.1 0.1 0 0.1 0 0.1-0.1zm-0.8-0.5l-0.1-0.1h-0.1l-0.1 0.1v0.2h0.2l0.1-0.2zm1.1-0.7c0 0.2-0.2 0.4-0.4 0.4s-0.4-0.2-0.4-0.4 0.2-0.4 0.4-0.4c0.2-0.1 0.4 0.1 0.4 0.4z" fill="#868686"/>
				<path fill-rule="evenodd" clip-rule="evenodd" d="m39.7 6.1c0-0.1-0.1-0.1-0.1-0.1s-0.1 0-0.1 0l-0.2 0.2v0.2h0.2l0.2-0.3m-0.8 0v-0.3c0-0.1 0-0.1-0.1-0.1s-0.1 0-0.1 0.1v0.3c0 0.1 0 0.1 0.1 0.1l0.1-0.1zm1.2 0.9c0-0.1 0-0.1-0.1-0.1h-0.3c-0.1 0-0.1 0-0.1 0.1s0 0.1 0.1 0.1h0.3l0.1-0.1zm-1.9-0.6l-0.2-0.3h-0.2v0.2l0.2 0.2h0.1c0.1 0 0.1-0.1 0.1-0.1zm1.2 0.6c0-0.3-0.3-0.6-0.6-0.6s-0.6 0.3-0.6 0.6 0.3 0.6 0.6 0.6 0.6-0.3 0.6-0.6zm0.3 0.8l-0.2-0.3h-0.2v0.2l0.2 0.2h0.1s0.1 0 0.1-0.1zm-1.7-0.8c0-0.1 0-0.1-0.1-0.1h-0.3c-0.1 0-0.1 0-0.1 0.1s0 0.1 0.1 0.1h0.3l0.1-0.1zm0.9 1.2v-0.3c0-0.1 0-0.1-0.1-0.1s-0.1 0-0.1 0.1v0.3c0 0.1 0 0.1 0.1 0.1l0.1-0.1zm-0.7-0.6c0-0.1-0.1-0.1-0.1-0.1h-0.1l-0.2 0.2v0.2h0.2l0.2-0.3zm1-0.6c0 0.2-0.2 0.4-0.4 0.4s-0.4-0.2-0.4-0.4 0.2-0.4 0.4-0.4 0.4 0.2 0.4 0.4z" fill="#868686"/>
				<path fill-rule="evenodd" clip-rule="evenodd" d="m54.9 7.1v-0.8c0-0.1-0.1-0.2-0.2-0.2h-0.7c-0.1 0-0.2 0.1-0.2 0.2v0.9c0 0.1 0.1 0.2 0.2 0.2h0.7c0.1-0.1 0.2-0.2 0.2-0.3m-1.5-0.6v-0.4c0-0.1-0.1-0.1-0.1-0.1h-1c-0.1 0-0.2 0.1-0.2 0.2v0.4c0 0.1 0.1 0.2 0.2 0.2h1c0-0.1 0.1-0.2 0.1-0.3zm0.3 1v-0.5c0-0.1-0.1-0.2-0.2-0.2h-0.9c-0.1 0-0.2 0.1-0.2 0.2v0.5c0 0.1 0.1 0.2 0.2 0.2h0.9c0.2 0 0.2-0.1 0.2-0.2zm1.1-0.4l-0.7 0.1s-0.1 0-0.1-0.1v-0.8s0-0.1 0.1-0.1h0.7s0.1 0 0.1 0.1v0.8zm-1.5-0.6l-1 0.1s-0.1 0-0.1-0.1v-0.4s0-0.1 0.1-0.1h1s0.1 0 0.1 0.1v0.4zm0.3 1l-0.9 0.1s-0.1 0-0.1-0.1v-0.5s0-0.1 0.1-0.1h0.9s0.1 0 0.1 0.1v0.5zm1.6 0.5v-2.3s0-0.1-0.1-0.1h-3.3s-0.1 0-0.1 0.1v2.3s0 0.1 0.1 0.1l3.4-0.1zm-0.1-0.1h-3.2v-2.2h3.2v2.2z" fill="#868686"/>
				<path fill-rule="evenodd" clip-rule="evenodd" d="m68.9 6.8c0-0.6-0.5-1.1-1.1-1.1s-1.1 0.5-1.1 1.1 0.5 1.1 1.1 1.1c0.6-0.1 1.1-0.5 1.1-1.1m-0.1 0c0 0.5-0.4 1-1 1-0.5 0-1-0.4-1-1 0-0.5 0.4-1 1-1s1 0.4 1 1zm-0.9-0.6v-0.2 0.2c-0.1 0-0.1 0 0 0zm0.2 0.1l0.1-0.2-0.1 0.2c0.1 0 0.1 0 0 0zm0.2 0.2l0.1-0.2-0.1 0.2c0.1 0 0.1 0 0 0 0.1 0 0.1 0 0 0zm-0.3 0.8c0-0.1-0.1-0.2-0.1-0.2v-0.5s0-0.1-0.1-0.1-0.1 0-0.1 0.1v0.6c-0.1 0-0.1 0.1-0.1 0.2s0.1 0.2 0.2 0.2c0.1-0.1 0.2-0.2 0.2-0.3zm-0.4-1l-0.1-0.2 0.1 0.2c-0.1 0-0.1 0 0 0zm-0.2 0.2l-0.1-0.2 0.1 0.2c-0.1 0-0.1 0 0 0-0.1 0-0.1 0 0 0z" fill="#868686"/>
				<path fill-rule="evenodd" clip-rule="evenodd" d="m111.9 5.8v1.5l-1.5-0.8 1.5-0.7c-0.1 0-0.1 0 0 0m1.5 0v1.5l-1.5-0.8 1.5-0.7z" fill="#868686"/>
				<path fill-rule="evenodd" clip-rule="evenodd" d="m141.4 7.3v-1.5l1.5 0.8-1.5 0.7c0.1 0.1 0.1 0.1 0 0m-1.5 0v-1.5l1.5 0.8-1.5 0.7z" fill="#868686"/>
				<path fill-rule="evenodd" clip-rule="evenodd" d="m127.9 7.4v-1.6h-0.3v1.6h0.3m-0.8 0v-1.6h-0.4v1.6h0.4zm-2.2-1.6v1.5l1.3-0.8-1.3-0.7c0.1 0 0.1 0 0 0z" fill="#868686"/>
				<path d="m155.5 6.4h-0.4v0.7h0.4l0.6 0.6v-1.9l-0.6 0.6" fill="#868686"/>
				<path fill-rule="evenodd" clip-rule="evenodd" d="m171.5 6.8c0-0.3-0.1-0.6-0.4-0.8h-0.1s-0.1 0-0.1 0.1v0.1c0.2 0.2 0.3 0.4 0.3 0.7s-0.1 0.5-0.3 0.7v0.1c0 0.1 0.1 0.1 0.1 0.1h0.1c0.3-0.4 0.4-0.7 0.4-1m-1.6-0.4h-0.4v0.7h0.4l0.6 0.6v-1.9l-0.6 0.6z" fill="#868686"/>
				<path fill-rule="evenodd" clip-rule="evenodd" d="m186.1 6.8c0-0.3-0.1-0.7-0.4-0.9 0 0-0.1 0-0.1 0.1 0.2 0.2 0.3 0.5 0.3 0.9 0 0.3-0.1 0.6-0.3 0.9 0 0 0 0.1 0.1 0.1 0.2-0.4 0.4-0.8 0.4-1.1m-0.4 0c0-0.3-0.1-0.5-0.3-0.7 0 0-0.1 0-0.1 0.1 0.2 0.2 0.3 0.4 0.3 0.6s-0.1 0.5-0.3 0.6 0 0.1 0.1 0.1c0.2-0.2 0.3-0.5 0.3-0.7zm-0.3 0c0-0.2-0.1-0.4-0.2-0.5 0 0-0.1 0-0.1 0.1 0.1 0.1 0.2 0.3 0.2 0.4s0 0.3-0.2 0.4 0 0.1 0.1 0.1c0.1-0.2 0.2-0.3 0.2-0.5zm-1-0.2h-0.2v0.4h0.2l0.4 0.4v-1.2l-0.4 0.4z" fill="#868686"/>
				<path fill-rule="evenodd" clip-rule="evenodd" d="m200.9 6.7l-0.9-0.9-1 0.9h1.9m0 0.8v-0.3h-1.9v0.2l1.9 0.1z" fill="#868686"/>
					<path d="m136.6 69.8v0.1s0 0.1-0.1 0.1l-0.1 0.1h-0.2s-0.1 0-0.1-0.1l-0.1-0.1v-0.3h-0.4v0.3s0 0.1-0.1 0.1l-0.1 0.1h-0.3s-0.1 0-0.1-0.1l-0.1-0.1v-0.2s0-0.1 0.1-0.1l0.1-0.1h0.3v-0.5h-0.3s-0.1 0-0.1-0.1l-0.1-0.1v-0.3s0-0.1 0.1-0.1l0.1-0.1h0.3s0.1 0 0.1 0.1l0.1 0.1v0.4h0.4v-0.4s0-0.1 0.1-0.1l0.1-0.1h0.2s0.1 0 0.1 0.1l0.1 0.1v0.3s0 0.1-0.1 0.1l-0.1 0.1h-0.4v0.4h0.3s0.1 0 0.1 0.1l0.1 0.1c0.1 0.1 0.1 0.2 0.1 0.2zm-1.3-1.1c0-0.1-0.1-0.1 0 0 0-0.1 0-0.1-0.1-0.1h-0.4v0.4h0.4v-0.3zm0 0.9h-0.4v0.2s0 0.1 0 0.1v0.1h0.4v-0.4zm0.5-0.6h-0.4v0.4h0.4v-0.4zm0.6-0.3c0-0.1 0-0.1-0.1-0.1h-0.4v0.4h0.4c0.1-0.2 0.1-0.2 0.1-0.3zm0 1.1c0-0.1 0-0.1-0.1-0.1h-0.3v0.4h0.4v-0.3z" fill="#868686"/>
					<path d="m59.8 69.8v0.1s0 0.1-0.1 0.1l-0.1 0.1h-0.2s-0.1 0-0.1-0.1l-0.1-0.1v-0.3h-0.4v0.3s0 0.1-0.1 0.1l-0.1 0.1h-0.4s-0.1 0-0.1-0.1h-0.1v-0.2s0-0.1 0.1-0.1l0.1-0.1h0.4v-0.6h-0.4s-0.1 0-0.1-0.1l-0.1-0.1v-0.3s0-0.1 0.1-0.1l0.1-0.1h0.4s0.1 0 0.1 0.1l0.1 0.1v0.4h0.4v-0.4s0-0.1 0.1-0.1l0.1-0.1h0.2s0.1 0 0.1 0.1l0.1 0.1v0.3s0 0.1-0.1 0.1l-0.1 0.1h-0.3v0.4h0.3s0.1 0 0.1 0.1l0.1 0.1v0.2zm-1.3-1.1c0-0.1 0-0.1-0.1-0.1h-0.4v0.4h0.4v-0.3zm0 0.9h-0.4v0.2s0 0.1 0 0.1v0.1h0.4v-0.4zm0.6-0.6h-0.4v0.4h0.4v-0.4zm0.6-0.3c0-0.1-0.1-0.1 0 0 0-0.1 0-0.1-0.1-0.1h-0.4v0.4h0.4c0-0.2 0-0.2 0.1-0.3-0.1 0 0 0 0 0zm0 1.1s-0.1 0 0 0c0-0.1 0-0.1-0.1-0.1h-0.4v0.4h0.4c0-0.2 0-0.2 0.1-0.3-0.1 0.1 0 0 0 0z" fill="#868686"/>
			<rect opacity=".1" height=".8" width="12.6" y="73.7" x="179.5" fill="#1D1E1C"/>
		<circle cy="28.1" cx="5.9" r=".4" fill="#3D3D3C"/>
</svg>
