<?xml version="1.0" encoding="UTF-8" standalone="no"?>
<!-- Generator: Adobe Illustrator 17.1.0, SVG Export Plug-In . SVG Version: 6.00 Build 0)  -->
<!DOCTYPE svg  PUBLIC '-//W3C//DTD SVG 1.1//EN'  'http://www.w3.org/Graphics/SVG/1.1/DTD/svg11.dtd'>
<svg id="Layer_1" xmlns="http://www.w3.org/2000/svg" xml:space="preserve" viewBox="0 0 153.7 229.7" version="1.1" y="0px" x="0px" xmlns:xlink="http://www.w3.org/1999/xlink" enable-background="new 0 0 153.7 229.7">
		<path opacity=".2" d="m107.6 25.7l-23.2-3v-4.9c2.5-1.6 4.3-4.3 4.5-7.4 0.4-4.9-3.2-8.9-8.2-8.9-4.9 0-9.2 4-9.7 8.9-0.3 3.1 1.1 5.8 3.3 7.4l-0.8 4.9-23.7 3c-1.5 0.2-2.8 1.5-2.9 3l-0.7 7.8c-0.1 1.5 1 2.7 2.4 2.7h57.7c1.5 0 2.8-1.2 2.9-2.7l0.7-7.8c0.2-1.5-0.8-2.8-2.3-3zm-28-10.9c-2.4 0-4.2-2-4-4.4s2.4-4.4 4.8-4.4 4.2 2 4 4.4-2.3 4.4-4.8 4.4z" fill="#1D1D1B"/>
		<path opacity=".2" d="m153.7 221.4c0 4.5-3.7 8.3-8.3 8.3h-135.6c-4.5 0-8.3-3.7-8.3-8.3v-184.6c0-4.5 3.7-8.3 8.3-8.3h135.7c4.5 0 8.3 3.7 8.3 8.3v184.6z" fill="#1D1D1B"/>
		<path d="m152.2 219.9c0 4.5-3.7 8.3-8.3 8.3h-135.6c-4.5 0-8.3-3.7-8.3-8.3v-184.7c0-4.5 3.7-8.2 8.3-8.2h135.7c4.5 0 8.3 3.7 8.3 8.3v184.6z" fill="#E4BD97"/>
		<path d="m80.5 9c0.5-2.4-1.1-4.4-3.5-4.4s-4.8 2-5.2 4.4c-0.5 2.4 1.1 4.4 3.5 4.4s4.7-2 5.2-4.4z" fill="none"/>
			<rect transform="matrix(.9995 -.030774 .030774 .9995 -3.8474 2.4016)" height="184" width="130" y="34.2" x="11.1" fill="#F1F0F0"/>
		<rect y="34.2" x="11.1" height="184" width="130" fill="#fff"/>
		<path opacity=".15" d="m44.6 34.8c-0.3 1.5 0.7 2.7 2.2 2.7h57.7c1.5 0 2.9-1.2 3.2-2.7l1.5-7.8h-63.1l-1.5 7.8z" fill="#1D1E1C"/>
		<path d="m105 24.2l-23.5-3-0.4-4.9c2.4-1.6 3.9-4.3 3.9-7.4 0-4.9-4-8.9-8.9-8.9s-8.9 4-8.9 8.9c0 3.1 1.6 5.8 3.9 7.4l-0.4 4.9-23.5 3c-1.5 0.2-2.7 1.5-2.7 3v7.8c0 1.5 1.2 2.7 2.7 2.7h57.8c1.5 0 2.7-1.2 2.7-2.7v-7.8c-0.1-1.5-1.3-2.8-2.7-3zm-28.9-10.9c-2.4 0-4.4-2-4.4-4.4s2-4.4 4.4-4.4 4.4 2 4.4 4.4-2 4.4-4.4 4.4z" fill="#D0CFCE"/>
		<g fill="#fff">
			<path opacity=".6" d="m76.1 13.8c2.4 0 4.4-2 4.4-4.4v-0.2c-0.1 2.3-2 4.2-4.4 4.2s-4.3-1.8-4.4-4.2v0.2c0 2.4 2 4.4 4.4 4.4z"/>
			<path opacity=".6" d="m76.1 0.5c4.8 0 8.8 3.9 8.9 8.7v-0.2c0-5-4-9-8.9-9s-8.9 4-8.9 8.9v0.2c0.1-4.8 4.1-8.6 8.9-8.6z"/>
			<path opacity=".6" d="m47.2 24.6l23.5-3 0.4-4.9-0.4 4.4-23.5 3c-1.5 0.2-2.7 1.5-2.7 3v0.5c0.1-1.4 1.3-2.8 2.7-3z"/>
			<path opacity=".6" d="m105 24.2l-23.5-3-0.4-4.4 0.4 4.9 23.5 3c1.5 0.2 2.7 1.5 2.7 3v-0.5c-0.1-1.5-1.3-2.8-2.7-3z"/>
		</g>
		<polygon opacity=".6" points="101.1 28.5 51.8 28.5 56.4 27.7 96.9 27.7" fill="#fff"/>
		<polygon opacity=".2" points="51.8 28.7 101.1 28.7 96.6 29.5 56.1 29.5" fill="#1D1D1B"/>
		<polygon opacity=".6" points="101.1 33 51.8 33 56.4 32.2 96.9 32.2" fill="#fff"/>
		<polygon opacity=".2" points="51.8 33.2 101.1 33.2 96.6 34 56.1 34" fill="#1D1D1B"/>
			<path opacity=".2" d="m71.1 16.3v0.2c1.5 1.2 3.4 1.9 5.5 1.9 1.7 0 3.2-0.5 4.6-1.3l-0.1-0.9c-1.4 1-3.1 1.5-5 1.5s-3.7-0.6-5.2-1.7c0.1 0.2 0.2 0.3 0.2 0.3z" fill="#1D1D1B"/>
		<g opacity=".8" stroke="#585857" stroke-width="2.2669" stroke-miterlimit="10" fill="none">
			<line y2="73.1" x1="40.6" x2="128.2" y1="73.1"/>
			<line y2="78.8" x1="40.6" x2="105.9" y1="78.8"/>
		</g>
		<g opacity=".8">
				<line opacity=".5" x1="21.1" y2="62" x2="131" stroke="#585857" stroke-miterlimit="10" y1="62" stroke-width=".7556" fill="none"/>
		</g>
		<g opacity=".8" stroke="#585857" stroke-width="2.2669" stroke-miterlimit="10" fill="none">
			<line y2="88.2" x1="40.6" x2="128.2" y1="88.2"/>
			<line y2="93.9" x1="40.6" x2="98.4" y1="93.9"/>
		</g>
		<g opacity=".8" stroke="#585857" stroke-width="2.2669" stroke-miterlimit="10" fill="none">
			<line y2="103.3" x1="40.6" x2="128.2" y1="103.3"/>
			<line y2="109" x1="40.6" x2="113.5" y1="109"/>
		</g>
		<g opacity=".8" stroke="#585857" stroke-width="2.2669" stroke-miterlimit="10" fill="none">
			<line y2="118.4" x1="40.6" x2="128.2" y1="118.4"/>
			<line y2="124.1" x1="40.6" x2="105.9" y1="124.1"/>
		</g>
		<g opacity=".8" stroke="#585857" stroke-width="2.2669" stroke-miterlimit="10" fill="none">
			<line y2="133.5" x1="40.6" x2="128.2" y1="133.5"/>
			<line y2="139.2" x1="40.6" x2="75.7" y1="139.2"/>
		</g>
		<g opacity=".8" stroke="#585857" stroke-width="2.2669" stroke-miterlimit="10" fill="none">
			<line y2="148.7" x1="40.6" x2="128.2" y1="148.7"/>
			<line y2="154.3" x1="40.6" x2="90.8" y1="154.3"/>
		</g>
		<g opacity=".8" stroke="#585857" stroke-width="2.2669" stroke-miterlimit="10" fill="none">
			<line y2="163.8" x1="40.6" x2="128.2" y1="163.8"/>
			<line y2="169.4" x1="40.6" x2="98.4" y1="169.4"/>
		</g>
		<g opacity=".8" stroke="#585857" stroke-width="2.2669" stroke-miterlimit="10" fill="none">
			<line y2="178.9" x1="40.6" x2="128.2" y1="178.9"/>
			<line y2="184.6" x1="40.6" x2="105.9" y1="184.6"/>
		</g>
		<g opacity=".8" stroke="#585857" stroke-width="2.2669" stroke-miterlimit="10" fill="none">
			<line y2="194" x1="40.6" x2="128.2" y1="194"/>
			<line y2="199.7" x1="40.6" x2="75.7" y1="199.7"/>
		</g>
		<circle opacity=".5" r="5.7" cy="75.6" stroke="#585857" cx="26.8" stroke-miterlimit="10" stroke-width=".7556" fill="none"/>
		<circle opacity=".5" r="5.7" cy="90.7" stroke="#585857" cx="26.8" stroke-miterlimit="10" stroke-width=".7556" fill="none"/>
		<circle opacity=".5" r="5.7" cy="105.9" stroke="#585857" cx="26.8" stroke-miterlimit="10" stroke-width=".7556" fill="none"/>
		<circle opacity=".5" r="5.7" cy="121" stroke="#585857" cx="26.8" stroke-miterlimit="10" stroke-width=".7556" fill="none"/>
		<circle opacity=".5" r="5.7" cy="136.1" stroke="#585857" cx="26.8" stroke-miterlimit="10" stroke-width=".7556" fill="none"/>
		<circle opacity=".5" r="5.7" cy="151.3" stroke="#585857" cx="26.8" stroke-miterlimit="10" stroke-width=".7556" fill="none"/>
		<circle opacity=".5" r="5.7" cy="166.4" stroke="#585857" cx="26.8" stroke-miterlimit="10" stroke-width=".7556" fill="none"/>
		<circle opacity=".5" r="5.7" cy="181.6" stroke="#585857" cx="26.8" stroke-miterlimit="10" stroke-width=".7556" fill="none"/>
		<circle opacity=".5" r="5.7" cy="196.7" stroke="#585857" cx="26.8" stroke-miterlimit="10" stroke-width=".7556" fill="none"/>
			<path d="m67.2 52.5c2.4 0.2 3.2 1.5 4.2 2.6 0.6 0.7 1.4 1.4 2.5 1.5 0.4 0 0.7 0 1.1-0.2 0.3-0.1 0.6-0.3 1-0.6 0.8-0.6 1.6-1.6 2.4-2.4 1-1.1 5.5-6.3 5.5-6.3l0.1 0.1v0.1c-0.1 0.1-3.3 3.8-3.7 4.2-2 2.3-3.8 4.6-5.1 5.1-1.4 0.5-2.7 0.3-4.2-1.5-1.1-1.3-1.7-1.8-2.7-2-0.6-0.1-1.4-0.3-2.2-0.1-0.4 0.1-0.8 0.1-1.8 0.5s-1.7 0.9-2 1.1c-0.4 0.3-0.6 0.5-0.7 0.6-0.1 0-0.3 0-0.4-0.1-0.1-0.2-0.1-0.4 0-0.5 0.1-0.2 0.3-0.3 0.7-0.6 0.5-0.5 2.5-1.7 5.3-1.5z" fill="#EC7B23"/>
				<path d="m74.5 44.8z" fill="#EC6D24"/>
				<path d="m74.5 44.8z" fill="#EC6D24"/>
				<polygon points="80.1 41.4 80.1 41.4" fill="#EC6D24"/>
				<polygon points="80.2 41.4 80.2 41.4" fill="#EC6D24"/>
				<path d="m76.7 55.2s0.9-0.9 1.3-1.4c0.4-0.4 5.9-6.4 5.9-6.4-2.2 0-4.1-0.4-5.5-0.7-0.5 2.1-1.6 7.7-1.7 8.5z" fill="#EC7B23"/>
				<path opacity=".5" d="m80.2 41.4z" fill="#fff"/>
				<path opacity=".5" d="m80.1 41.4s0.1 0 0 0c0.1 0 0 0 0 0z" fill="#fff"/>
				<path d="m74.5 44.8z" fill="#EC6D24"/>
				<path opacity=".5" d="m74.5 44.8z" fill="#fff"/>
				<path d="m80.2 41.4s-0.1 0 0 0c-0.1 0 0 0 0 0z" fill="#EC6D24"/>
				<path opacity=".5" d="m80.2 41.4s-0.1 0 0 0c-0.1 0 0 0 0 0z" fill="#fff"/>
				<path d="m78.4 46.6c-2.1-0.6-3.4-1.3-4-1.8 0.1 0.6 2.2 10.3 2.2 10.3s1.3-6.5 1.8-8.5z" fill="#F59E34"/>
				<polygon opacity=".5" points="74.5 44.8 74.5 44.8" fill="#fff"/>
				<polygon opacity=".5" points="83.9 47.3 83.9 47.3" fill="#fff"/>
				<path d="m74.5 44.8z" fill="#EC6D24"/>
				<path opacity=".5" d="m74.5 44.8z" fill="#fff"/>
				<polygon points="80.2 41.4 80.2 41.4" fill="#EC6D24"/>
				<polygon opacity=".5" points="80.2 41.4 80.2 41.4" fill="#fff"/>
				<path d="m83.9 47.3c-1-1.7-3.2-5.2-3.6-5.8 0 0 0-0.1-0.1-0.1-0.3 0.9-1.1 2.7-1.8 5.1v0.1c1.5 0.3 3.3 0.7 5.5 0.7z" fill="#F2912F"/>
				<path d="m74.5 44.8c0.1-0.1 4.3-2.6 5.6-3.4-1.3 0.8-5.5 3.3-5.6 3.4z" fill="#EC6D24"/>
				<path opacity=".5" d="m74.5 44.8c0.1-0.1 4.3-2.6 5.6-3.4-1.3 0.8-5.5 3.3-5.6 3.4z" fill="#fff"/>
				<path d="m80.1 41.4c-1.3 0.8-5.6 3.3-5.6 3.4 0.6 0.4 1.9 1.2 4 1.8v-0.1c0.6-2.5 1.4-4.3 1.6-5.1 0.1 0 0.1 0 0 0 0.1 0 0 0 0 0z" fill="#F7B45A"/>
			<path stroke-linejoin="round" d="m24.1 75.6s2.1 0.7 2.7 2.3c0 0 3.5-7.2 7.9-8.9" stroke="#0787C3" stroke-linecap="round" stroke-miterlimit="10" stroke-width="1.6291" fill="none"/>
			<path stroke-linejoin="round" d="m24.1 91.1s1.9 1.6 2.7 2.5c0 0 6-6.5 7.9-7.8" stroke="#0787C3" stroke-linecap="round" stroke-miterlimit="10" stroke-width="1.6291" fill="none"/>
			<path stroke-linejoin="round" d="m24.8 107.1s1.7 0.8 2 1.9c0 0 4.8-7.6 6.2-8.8" stroke="#0787C3" stroke-linecap="round" stroke-miterlimit="10" stroke-width="1.6291" fill="none"/>
</svg>
