<?xml version="1.0" encoding="UTF-8" standalone="no"?>
<!-- Generator: Adobe Illustrator 17.1.0, SVG Export Plug-In . SVG Version: 6.00 Build 0)  -->
<!DOCTYPE svg  PUBLIC '-//W3C//DTD SVG 1.1//EN'  'http://www.w3.org/Graphics/SVG/1.1/DTD/svg11.dtd'>
<svg id="Layer_1" xmlns="http://www.w3.org/2000/svg" xml:space="preserve" viewBox="0 0 45.1 85.9" version="1.1" y="0px" x="0px" xmlns:xlink="http://www.w3.org/1999/xlink" enable-background="new 0 0 45.1 85.9">
	<path opacity=".2" d="m45.1 44.6c0.3-8.8-0.8-18.4-1.8-24.5-2.1-13.9-6-16.9-18.5-17.4h-1.5-1.5c-12.5 0-17.1 3-18.6 16.7-0.7 6.2-1.1 15.7-1.2 24.5-0.3 8.8-0.2 18.4 0.2 24.5 1 13.7 5.5 16.9 18 17.4 0.1 0 2.9 0.1 3 0.1 12.5 0 17.5-2 19.7-15.7 1.2-6.1 2.1-16.7 2.2-25.6z" fill="#1D1E1C"/>
	<path d="m41.2 42c0.3-8.8 0.2-18.4-0.2-24.5-1-13.7-5.5-16.9-18-17.4h-1.5-1.5c-12.6-0.1-17.2 3-18.7 16.6-0.7 6.2-1.1 15.7-1.1 24.5-0.3 8.9-0.2 18.4 0.2 24.6 1 13.7 5.5 16.9 18 17.4 0.1 0 2.9 0.1 3 0.1 12.5 0 17.1-3.1 18.6-16.7 0.7-6.2 1.2-15.8 1.2-24.6z" fill="#F5F6F6"/>
	<path opacity=".1" d="m3.6 77.7c2.7 3.9 7.3 5.2 14.8 5.5 0.1 0 2.9 0.1 3 0.1 12.5 0 17.1-3.1 18.6-16.7 0.7-6.2 1.1-15.7 1.1-24.5 0.3-8.8 0.2-18.4-0.2-24.5-0.6-7.7-2.3-12.1-5.9-14.6 0.9 11.6 2.6 44.4-5.5 59.1-5.2 9.5-16.5 13.7-25.9 15.6z" fill="#1D1D1B"/>
	<path opacity=".05" d="m24.5 59.5c-1.1-0.2-1.8-1.2-1.6-2.3 0.1-0.7 0.6-1.3 1.3-1.5-0.6-0.8-1.4-1.4-2.5-1.5-2.1-0.4-4.2 1-4.6 3.2-0.4 2.1 1 4.2 3.2 4.6 1.9 0.3 3.7-0.7 4.3-2.4 0-0.1 0-0.1-0.1-0.1z" fill="#1D1E1C"/>
</svg>
