<?xml version="1.0" encoding="UTF-8" standalone="no"?>
<!-- Generator: Adobe Illustrator 17.1.0, SVG Export Plug-In . SVG Version: 6.00 Build 0)  -->
<!DOCTYPE svg  PUBLIC '-//W3C//DTD SVG 1.1//EN'  'http://www.w3.org/Graphics/SVG/1.1/DTD/svg11.dtd'>
<svg id="Layer_1" xmlns="http://www.w3.org/2000/svg" xml:space="preserve" viewBox="0 0 96.4 141.4" version="1.1" y="0px" x="0px" xmlns:xlink="http://www.w3.org/1999/xlink" enable-background="new 0 0 96.4 141.4">
	<path opacity=".2" d="m85 2h-83v13.6 108.8 11.3h11.3 71.7c6.2 0 11.3-5.1 11.3-11.3v-111.1c0.1-6.2-5.1-11.3-11.3-11.3z" fill="#1D1D1B"/>
		<path d="m83 0h-39.5-43.5v11.3 111.1 11.3h11.3 71.7c6.2 0 11.3-5.1 11.3-11.3v-111.1c0.1-6.2-5.1-11.3-11.3-11.3z" fill="#F1F0F0"/>
		<rect y="0" x="0" height="133.8" width="3.2" fill="#fff"/>
			<g fill="#717070">
				<path d="m23.8 38.6h1.5l3.4 4.4v-4.4h1.6v7.2h-1.3l-3.5-4.5v4.5h-1.6l-0.1-7.2z"/>
				<path d="m34.6 42.2c0-2.1 1.6-3.7 3.8-3.7s3.8 1.6 3.8 3.7c0 2-1.6 3.7-3.8 3.7s-3.8-1.7-3.8-3.7zm6 0c0-1.2-0.9-2.3-2.2-2.3s-2.1 1-2.1 2.2 0.9 2.2 2.2 2.2c1.2 0.1 2.1-0.9 2.1-2.1z"/>
				<path d="m48.1 40h-2.2v-1.5h5.9v1.5h-2.2v5.7h-1.6v-5.7z"/>
				<path d="m57.6 38.5h1.5l3.1 7.2h-1.6l-0.7-1.6h-3l-0.7 1.6h-1.6l3-7.2zm1.7 4.2l-0.9-2.3-0.9 2.3h1.8z"/>
				<path d="m65.7 44.7l0.9-1.1c0.6 0.5 1.3 0.9 2.1 0.9 0.6 0 1-0.3 1-0.7s-0.2-0.6-1.4-0.9c-1.4-0.4-2.4-0.8-2.4-2.2 0-1.3 1-2.2 2.5-2.2 1 0 1.9 0.3 2.7 0.9l-0.8 1.2c-0.6-0.4-1.3-0.7-1.9-0.7s-0.9 0.3-0.9 0.6c0 0.5 0.3 0.6 1.5 0.9 1.5 0.4 2.3 0.9 2.3 2.1 0 1.4-1.1 2.2-2.6 2.2-1 0.1-2.1-0.2-3-1z"/>
			</g>
				<rect height="16.4" width="63.9" stroke="#717070" stroke-miterlimit="10" y="33.9" x="15.6" stroke-width="1.1348" fill="none"/>
	<polygon points="10.6 141.4 6.9 140 3.2 141.4 3.2 133.8 10.6 133.8" fill="#EC7B23"/>
</svg>
