<?xml version="1.0" encoding="UTF-8" standalone="no"?>
<!-- Generator: Adobe Illustrator 17.1.0, SVG Export Plug-In . SVG Version: 6.00 Build 0)  -->
<!DOCTYPE svg  PUBLIC '-//W3C//DTD SVG 1.1//EN'  'http://www.w3.org/Graphics/SVG/1.1/DTD/svg11.dtd'>
<svg id="Layer_1" xmlns="http://www.w3.org/2000/svg" xml:space="preserve" viewBox="0 0 13.4 118.9" version="1.1" y="0px" x="0px" xmlns:xlink="http://www.w3.org/1999/xlink" enable-background="new 0 0 13.4 118.9">
	<g opacity=".2">
				<path d="m11.8 117.9c0 0.5-0.2 0.9-0.6 1-0.4 0-0.7-0.4-0.7-0.9v-0.1c0-0.5 0.2-0.9 0.6-1 0.3 0 0.6 0.4 0.7 1z" fill="#1D1D1B"/>
				<rect transform="matrix(-.9981 .061964 -.061964 -.9981 19.949 132.05)" height="87.1" width="5.6" y="22.8" x="5.1" fill="#1D1D1B"/>
				<rect opacity=".2" transform="matrix(-.9981 .061964 -.061964 -.9981 22.718 131.79)" height="87.1" width="2.8" y="22.7" x="7.9" fill="#1D1D1B"/>
				<polygon points="13.4 109.6 7.8 110 8.8 114.4 13 114.1" fill="#1D1D1B"/>
			<polygon points="12 117.6 10.2 117.7 9 114.3 12.8 114.1" fill="#1D1D1B"/>
			<polygon opacity=".2" points="12 117.6 11.1 117.6 10.9 114.2 12.8 114.1" fill="#1D1D1B"/>
			<g opacity=".2">
				<polygon points="13.4 109.6 10.6 109.8 10.9 114.2 13 114.1" fill="#1D1D1B"/>
			</g>
			<path d="m6.6 27.6c-0.1-1.9-0.7-3.4-1.3-3.4s-1 1.6-0.9 3.5l0.7 10.5c0.1 1.9 0.7 3.4 1.3 3.4s1-1.6 0.9-3.5l-0.7-10.5z" fill="#1D1D1B"/>
			<g opacity=".2">
				<path d="m5.3 24.3l1.1 17.4c0.6 0 1-1.6 0.9-3.5l-0.7-10.6c-0.1-1.9-0.7-3.4-1.3-3.3z" fill="#1D1D1B"/>
			</g>
				<path d="m8.4 19.2c-0.6-9.9-2.6-17.9-4.5-17.8s-2.9 8.3-2.3 18.2l0.5 7.8 6.8-0.4-0.5-7.8z" fill="#1D1D1B"/>
			<g opacity=".2">
				<path d="m8.4 19.2c-0.6-9.9-2.6-17.9-4.5-17.8l1.6 25.7 3.4-0.1-0.5-7.8z" fill="#1D1D1B"/>
			</g>
	</g>
				<path d="m10.3 116.4c0 0.5-0.2 0.9-0.6 1-0.4 0-0.7-0.4-0.7-0.9v-0.1c0-0.5 0.2-0.9 0.6-1 0.4 0 0.7 0.4 0.7 1z" fill="#B99D68"/>
				<rect transform="matrix(-.9981 .061964 -.061964 -.9981 16.96 129.29)" height="87.1" width="5.6" y="21.3" x="3.7" fill="#209DD8"/>
				<rect opacity=".2" transform="matrix(-.9981 .061964 -.061964 -.9981 19.729 129.03)" height="87.1" width="2.8" y="21.3" x="6.5" fill="#1D1E1C"/>
				<polygon points="11.9 108.2 6.4 108.6 7.3 112.9 11.6 112.7" fill="#209DD8"/>
			<polygon points="10.5 116.1 8.8 116.3 7.6 112.9 11.3 112.7" fill="#C9AB73"/>
			<polygon opacity=".2" points="10.5 116.1 9.7 116.2 9.4 112.8 11.3 112.7" fill="#1D1E1C"/>
			<g opacity=".2">
				<polygon points="11.9 108.2 9.2 108.4 9.4 112.8 11.6 112.7" fill="#1D1E1C"/>
			</g>
			<path d="m5.1 26.2c-0.1-1.9-0.7-3.4-1.3-3.4s-1 1.6-0.9 3.5l0.7 10.5c0.1 1.9 0.7 3.4 1.3 3.4s1-1.6 0.9-3.5l-0.7-10.5z" fill="#EDECEC"/>
			<g opacity=".2">
				<path d="m3.9 22.8l1.1 17.4c0.6 0 1-1.6 0.9-3.5l-0.8-10.5c-0.1-1.9-0.6-3.4-1.2-3.4z" fill="#1D1E1C"/>
			</g>
				<path d="m6.9 17.7c-0.6-9.8-2.6-17.8-4.5-17.7s-2.9 8.3-2.3 18.2l0.5 7.8 6.8-0.4-0.5-7.9z" fill="#EDECEC"/>
			<g opacity=".2">
				<path d="m6.9 17.7c-0.6-9.8-2.6-17.8-4.5-17.7l1.6 25.7 3.4-0.2-0.5-7.8z" fill="#1D1E1C"/>
			</g>
</svg>
