<?xml version="1.0" encoding="UTF-8" standalone="no"?>
<!-- Generator: Adobe Illustrator 17.1.0, SVG Export Plug-In . SVG Version: 6.00 Build 0)  -->
<!DOCTYPE svg  PUBLIC '-//W3C//DTD SVG 1.1//EN'  'http://www.w3.org/Graphics/SVG/1.1/DTD/svg11.dtd'>
<svg id="Layer_1" xmlns="http://www.w3.org/2000/svg" xml:space="preserve" viewBox="0 0 8.2 119.1" version="1.1" y="0px" x="0px" xmlns:xlink="http://www.w3.org/1999/xlink" enable-background="new 0 0 8.2 119.1">
	<g opacity=".2">
				<path d="m5.2 118.2c0 0.5-0.3 0.9-0.6 0.9-0.4 0-0.6-0.4-0.6-0.9v-0.1c0-0.5 0.3-0.9 0.6-0.9s0.6 0.4 0.6 1z" fill="#1D1D1B"/>
				<rect transform="matrix(-1 -.0024377 .0024377 -1 9.1369 133.1)" height="87.1" width="5.6" y="23" x="1.9" fill="#1D1D1B"/>
				<rect opacity=".2" transform="matrix(-1 -.0024377 .0024377 -1 11.919 133.11)" height="87.1" width="2.8" y="23" x="4.6" fill="#1D1D1B"/>
				<polygon points="7.3 110.1 1.8 110.1 2.4 114.5 6.7 114.5" fill="#1D1D1B"/>
			<polygon points="5.4 117.9 3.6 117.9 2.7 114.5 6.4 114.5" fill="#1D1D1B"/>
			<polygon opacity=".2" points="5.4 117.9 4.5 117.9 4.5 114.5 6.4 114.5" fill="#1D1D1B"/>
			<g opacity=".2">
				<polygon points="7.3 110.1 4.5 110.1 4.5 114.5 6.7 114.5" fill="#1D1D1B"/>
			</g>
			<path d="m5.8 27.8c0-1.9-0.5-3.4-1.1-3.4s-1.1 1.5-1.1 3.4v10.5c0 1.9 0.5 3.4 1.1 3.4s1.1-1.5 1.1-3.4v-10.5z" fill="#1D1D1B"/>
			<g opacity=".2">
				<path d="m4.8 24.4v17.4c0.6 0 1.1-1.5 1.1-3.4v-10.5c-0.1-2-0.6-3.5-1.1-3.5z" fill="#1D1D1B"/>
			</g>
				<path d="m8.2 19.5c0-9.9-1.5-18-3.3-18-1.9 0-3.4 8.1-3.4 18v7.8h6.8l-0.1-7.8z" fill="#1D1D1B"/>
			<g opacity=".2">
				<path d="m8.2 19.5c0-9.9-1.5-18-3.3-18l-0.2 25.8h3.4l0.1-7.8z" fill="#1D1D1B"/>
			</g>
	</g>
				<path d="m3.8 116.7c0 0.5-0.3 0.9-0.6 0.9s-0.6-0.4-0.6-0.9v-0.1c0-0.5 0.3-0.9 0.6-0.9s0.6 0.4 0.6 1z" fill="#B99D68"/>
				<rect transform="matrix(-1 -.0024377 .0024377 -1 6.427 130.07)" height="87.1" width="5.6" y="21.5" x=".5" fill="#209DD8"/>
				<rect opacity=".2" transform="matrix(-1 -.0024377 .0024377 -1 9.209 130.08)" height="87.1" width="2.8" y="21.5" x="3.3" fill="#1D1E1C"/>
				<polygon points="6 108.6 0.4 108.6 1.1 113 5.3 113" fill="#209DD8"/>
			<polygon points="4 116.4 2.3 116.4 1.3 113 5 113" fill="#C9AB73"/>
			<polygon opacity=".2" points="4 116.4 3.2 116.4 3.2 113 5 113" fill="#1D1E1C"/>
			<g opacity=".2">
				<polygon points="6 108.6 3.2 108.6 3.2 113 5.3 113" fill="#1D1E1C"/>
			</g>
			<path d="m4.5 26.3c0-1.9-0.5-3.4-1.1-3.4s-1.1 1.5-1.1 3.4v10.5c0 1.9 0.5 3.4 1.1 3.4s1.1-1.5 1.1-3.4v-10.5z" fill="#EDECEC"/>
			<g opacity=".2">
				<path d="m3.4 22.9v17.4c0.6 0 1.1-1.5 1.1-3.4v-10.5c0-2-0.5-3.5-1.1-3.5z" fill="#1D1E1C"/>
			</g>
				<path d="m6.8 18c0-9.9-1.5-18-3.3-18s-3.5 8.1-3.5 18v7.8h6.8v-7.8z" fill="#EDECEC"/>
			<g opacity=".2">
				<path d="m6.8 18c0-9.9-1.5-18-3.3-18l-0.1 25.8h3.4v-7.8z" fill="#1D1E1C"/>
			</g>
</svg>
