<?xml version="1.0" encoding="UTF-8" standalone="no"?>
<!-- Generator: Adobe Illustrator 17.1.0, SVG Export Plug-In . SVG Version: 6.00 Build 0)  -->
<!DOCTYPE svg  PUBLIC '-//W3C//DTD SVG 1.1//EN'  'http://www.w3.org/Graphics/SVG/1.1/DTD/svg11.dtd'>
<svg id="Layer_1" xmlns="http://www.w3.org/2000/svg" xml:space="preserve" viewBox="0 0 6.7 115.2" version="1.1" y="0px" x="0px" xmlns:xlink="http://www.w3.org/1999/xlink" enable-background="new 0 0 6.7 115.2">
	<g opacity=".2" fill="#1D1E1C">
			<path d="m6.7 2.8c0-0.9-0.7-1.6-1.6-1.6h-2c-0.9 0-1.6 0.7-1.6 1.6v2c0 0.9 0.7 1.6 1.6 1.6h2c0.9 0 1.6-0.7 1.6-1.6v-2z"/>
			<path opacity=".1" d="m5.1 1.2h-1v5.2h1c0.9 0 1.6-0.7 1.6-1.6v-2c0-0.9-0.7-1.6-1.6-1.6z"/>
			<rect y="10.8" x="1.5" height="96.2" width="5.2"/>
			<rect y="10.8" x="1.5" height="96.2" width="2.6"/>
			<rect y="4.9" x="1.5" height="5.9" width="5.2"/>
			<rect opacity=".1" height="5.9" width="2.6" y="4.9" x="4.1"/>
			<polygon points="4.1 115.2 1.5 107 6.7 107"/>
			<polygon opacity=".1" points="4.1 115.2 4.1 107 6.7 107"/>
			<polygon points="4.1 115.2 3.3 112.5 4.8 113"/>
		<path d="m4.1 107s-0.3-0.6-1.3-0.6-1.3 0.6-1.3 0.6h2.6z"/>
		<path d="m6.7 107s-0.3-0.6-1.3-0.6-1.3 0.6-1.3 0.6h2.6z"/>
		<path opacity=".1" d="m6.7 107s-0.3-0.6-1.3-0.6-1.3 0.6-1.3 0.6h2.6z"/>
	</g>
			<path d="m5.2 1.6c0-0.9-0.7-1.6-1.6-1.6h-2c-0.9 0-1.6 0.7-1.6 1.6v2c0 0.9 0.7 1.6 1.6 1.6h2c0.9 0 1.6-0.7 1.6-1.6v-2z" fill="#EC6851"/>
			<path opacity=".1" d="m3.6 0h-1v5.2h1c0.9 0 1.6-0.7 1.6-1.6v-2c0-0.9-0.7-1.6-1.6-1.6z" fill="#1D1E1C"/>
			<rect y="9.6" x="0" height="96.2" width="5.2" fill="#D2B82B"/>
			<rect y="9.6" x="0" height="96.2" width="2.6" fill="#FEDA03"/>
			<rect y="3.7" x="0" height="5.9" width="5.2" fill="#D2C098"/>
			<rect opacity=".1" height="5.9" width="2.6" y="3.7" x="2.6" fill="#1D1E1C"/>
			<polygon points="2.6 114 0 105.8 5.2 105.8" fill="#FCE9C0"/>
			<polygon opacity=".1" points="2.6 114 2.6 105.8 5.2 105.8" fill="#1D1E1C"/>
			<polygon points="2.6 114 1.7 111.3 3.3 111.8" fill="#535352"/>
		<path d="m2.6 105.8s-0.3-0.6-1.3-0.6-1.3 0.6-1.3 0.6h2.6z" fill="#FCE9C0"/>
		<path d="m5.2 105.8s-0.3-0.6-1.3-0.6-1.3 0.6-1.3 0.6h2.6z" fill="#FCE9C0"/>
		<path opacity=".1" d="m5.2 105.8s-0.3-0.6-1.3-0.6-1.3 0.6-1.3 0.6h2.6z" fill="#1D1E1C"/>
</svg>
