<?xml version="1.0" encoding="UTF-8" standalone="no"?>
<!-- Generator: Adobe Illustrator 17.1.0, SVG Export Plug-In . SVG Version: 6.00 Build 0)  -->
<!DOCTYPE svg  PUBLIC '-//W3C//DTD SVG 1.1//EN'  'http://www.w3.org/Graphics/SVG/1.1/DTD/svg11.dtd'>
<svg id="Layer_1" xmlns="http://www.w3.org/2000/svg" xml:space="preserve" viewBox="0 0 13.9 31.6" version="1.1" y="0px" x="0px" xmlns:xlink="http://www.w3.org/1999/xlink" enable-background="new 0 0 13.9 31.6">
	<g opacity=".2" fill="#1D1D1B">
		<rect y="22.4" x="3.2" height="9.2" width="9.5"/>
		<rect y="22.4" x="12.3" height="9.2" width=".5"/>
		<rect y="22.4" x="3.2" height="9.2" width=".4"/>
		<path d="m11.4 0.8h-6.8c-1.5 0-2.6 1.1-2.6 2.5v11.1 5.3 2.6h2.6 6.8 2.6v-2.6-5.3-11.1c-0.1-1.4-1.2-2.5-2.6-2.5z"/>
		<path opacity=".2" d="m11.6 0.8c0.4 0.5 0.6 1 0.6 1.6v11.7 5.6 2.7h1.8v-2.6-5.3-11.1c-0.1-1.4-1.1-2.5-2.4-2.6z"/>
		<rect y="26.1" x="4.9" height="1.7" width="2.1"/>
		<rect y="26.1" x="9" height="1.7" width="2.1"/>
		<rect y="24.1" x="9.7" height=".5" width=".6"/>
		<polygon points="5.6 24.1 5.6 24.6 6.2 24.1"/>
		<polygon points="5.6 24.6 6.2 24.6 6.2 24.1"/>
		<polygon points="9.7 24.1 9.7 24.6 10.3 24.1"/>
		<polygon points="9.7 24.6 10.3 24.6 10.3 24.1"/>
		<rect opacity=".2" height=".9" width="9.1" y="22.4" x="3.2"/>
	</g>
		<rect y="21.6" x="1.2" height="9.2" width="9.5" fill="#BCBABB"/>
		<rect y="21.6" x="10.3" height="9.2" width=".5" fill="#717070"/>
		<rect y="21.6" x="1.2" height="9.2" width=".4" fill="#F0EFEF"/>
		<path d="m9.4 0h-6.8c-1.4 0-2.6 1.2-2.6 2.6v11.1 5.3 2.6h2.6 6.8 2.6v-2.6-5.3-11.1c-0.1-1.4-1.2-2.6-2.6-2.6z" fill="#fff"/>
		<path opacity=".2" d="m9.6 0c0.4 0.5 0.6 1 0.6 1.6v11.7 5.6 2.7h1.8v-2.6-5.3-11.1c-0.1-1.4-1.1-2.5-2.4-2.6z" fill="#1D1D1B"/>
		<rect y="25.3" x="2.9" height="1.7" width="2.1" fill="#626362"/>
		<rect y="25.3" x="7" height="1.7" width="2.1" fill="#626362"/>
		<rect y="23.4" x="7.8" height=".5" width=".6" fill="#626362"/>
		<polygon points="3.6 23.4 3.6 23.9 4.2 23.4" fill="#9C9B99"/>
		<polygon points="3.6 23.9 4.2 23.9 4.2 23.4" fill="#F0EFEF"/>
		<polygon points="7.8 23.4 7.8 23.9 8.3 23.4" fill="#9C9B99"/>
		<polygon points="7.8 23.9 8.3 23.9 8.3 23.4" fill="#F0EFEF"/>
		<rect opacity=".2" height=".9" width="9.1" y="21.6" x="1.2" fill="#1D1E1C"/>
</svg>
