<?xml version="1.0" encoding="UTF-8" standalone="no"?>
<!-- Generator: Adobe Illustrator 17.1.0, SVG Export Plug-In . SVG Version: 6.00 Build 0)  -->
<!DOCTYPE svg  PUBLIC '-//W3C//DTD SVG 1.1//EN'  'http://www.w3.org/Graphics/SVG/1.1/DTD/svg11.dtd'>
<svg id="Layer_1" xmlns="http://www.w3.org/2000/svg" xml:space="preserve" viewBox="0 0 105 53" version="1.1" y="0px" x="0px" xmlns:xlink="http://www.w3.org/1999/xlink" enable-background="new 0 0 105 53">
	<g opacity=".2">
		<path d="m3.7 46c0 3.6 2.9 6.4 6.4 6.4h87.8c3.6 0 6.4-2.9 6.4-6.4v-34.1c0-3.6-2.9-6.4-6.4-6.4h-87.8c-3.6 0-6.4 2.9-6.4 6.4v34.1" fill="#1D1D1B"/>
		<g fill="#1D1D1B">
			<path d="m6.2 51c1.1 0.9 2.5 1.4 4 1.4h87.8c3.6 0 6.4-2.9 6.4-6.4v-34.1c0-1.7-0.7-3.3-1.8-4.5l0.5-0.2c1.1 1.2 1.8 2.9 1.8 4.7v34.1c0 3.8-3.1 7-7 7h-87.8c-1.7 0-3.3-0.6-4.5-1.7l0.6-0.3z"/>
			<path d="m98 5.4h-87.8c-3.6 0-6.4 2.9-6.4 6.4v34.1c0 2 1 3.9 2.4 5l-0.5 0.2c-1.6-1.1-2.5-3-2.5-5.1v-34.1c0-3.8 3.1-7 7-7h87.8c2 0 3.9 0.9 5.1 2.3l-0.5 0.2c-1.1-1.2-2.8-2-4.6-2z"/>
		</g>
		<circle cy="28.9" cx="97.5" r="4.6" fill="#1D1D1B"/>
		<circle cy="28.9" cx="7.9" r=".9" fill="#1D1D1B"/>
		<circle cy="28.9" cx="7.9" r=".4" fill="#1D1D1B"/>
		<g fill="#1D1D1B">
			<path d="m11.7 24.9c-0.3 0-0.5 0.2-0.5 0.5v7c0 0.2 0.1 0.3 0.2 0.4l-0.1 0.6c-0.4-0.1-0.7-0.5-0.7-1v-7c0-0.6 0.5-1.1 1-1.1 0.2 0 0.3 0.1 0.5 0.1l-0.1 0.7c0.1 0-0.1-0.2-0.3-0.2z"/>
			<path d="m11.5 32.9c0.1 0.1 0.2 0.1 0.3 0.1 0.3 0 0.5-0.2 0.5-0.5v-7c0-0.1 0-0.2-0.1-0.2l0.1-0.7c0.3 0.2 0.5 0.5 0.5 0.9v7c0 0.6-0.5 1.1-1 1.1-0.1 0-0.2 0-0.3-0.1v-0.6z"/>
		</g>
		<path d="m11.3 32.4c0 0.3 0.2 0.5 0.5 0.5s0.5-0.2 0.5-0.5v-7c0-0.3-0.2-0.5-0.5-0.5s-0.5 0.2-0.5 0.5v7" fill="#1D1D1B"/>
			<rect y="8.4" x="17.6" height="41.2" width="73.6" fill="#1D1D1B"/>
				<rect opacity=".8" height="6.9" width="1.5" y="25.6" x="18.8" fill="#1D1D1B"/>
				<rect opacity=".8" height="3.5" width="1.5" y="10.5" x="18.8" fill="#1D1D1B"/>
			<circle opacity=".8" cy="47" cx="19.5" r=".9" fill="#1D1D1B"/>
			<circle opacity=".8" cy="44.1" cx="19.5" r=".9" fill="#1D1D1B"/>
			<circle opacity=".8" cy="16" cx="19.5" r=".9" fill="#1D1D1B"/>
			<rect y="8.4" x="23.4" height="41.2" width="9.7" fill="#1D1D1B"/>
			<rect y="8.4" x="33.1" height="41.2" width="9.7" fill="#1D1D1B"/>
			<rect y="8.4" x="42.7" height="41.2" width="9.7" fill="#1D1D1B"/>
			<rect y="8.4" x="52.4" height="41.2" width="9.7" fill="#1D1D1B"/>
			<rect y="8.4" x="62.1" height="41.2" width="9.7" fill="#1D1D1B"/>
			<rect y="8.4" x="71.8" height="41.2" width="9.7" fill="#1D1D1B"/>
			<rect y="8.4" x="81.4" height="41.2" width="9.7" fill="#1D1D1B"/>
				<rect opacity=".8" height="28.4" width="1.5" y="12.2" x="37.2" fill="#1D1D1B"/>
				<rect opacity=".8" height="14.2" width="1.5" y="12.2" x="27.5" fill="#1D1D1B"/>
				<rect opacity=".8" height="19.4" width="1.5" y="12.2" x="46.8" fill="#1D1D1B"/>
				<rect opacity=".8" height="24.7" width="1.5" y="12.2" x="56.6" fill="#1D1D1B"/>
				<rect opacity=".8" height="32.6" width="1.5" y="12.2" x="66.2" fill="#1D1D1B"/>
				<rect opacity=".8" height="14.2" width="1.5" y="12.2" x="75.9" fill="#1D1D1B"/>
				<rect opacity=".8" height="20.3" width="1.5" y="12.2" x="85.6" fill="#1D1D1B"/>
		<path opacity=".1" d="m10.2 52.4h80.7l-78.1-24.1v4.2c0 0.6-0.5 1.1-1 1.1-0.1 0-0.2 0-0.3-0.1-0.4-0.1-0.7-0.5-0.7-1v-4.8l-7-2.2v20.5c-0.1 3.5 2.8 6.4 6.4 6.4zm-2.3-22.6c-0.5 0-0.9-0.4-0.9-0.9s0.4-0.9 0.9-0.9 0.9 0.4 0.9 0.9-0.4 0.9-0.9 0.9z" fill="#1D1D1B"/>
	</g>
		<path d="m0.5 41.1c0 3.6 2.9 6.4 6.4 6.4h87.8c3.6 0 6.4-2.9 6.4-6.4v-34.1c0-3.6-2.9-6.4-6.4-6.4l-87.7-0.1c-3.6 0-6.5 2.9-6.5 6.5v34.1" fill="#4B4B4A"/>
			<path d="m3 46.1c1.1 0.9 2.5 1.4 4 1.4h87.8c3.6 0 6.4-2.9 6.4-6.4v-34.1c0-1.7-0.7-3.3-1.8-4.5l0.5-0.2c1.1 1.2 1.8 2.9 1.8 4.7v34.1c0 3.8-3.1 7-7 7h-87.7c-1.7 0-3.3-0.6-4.5-1.7l0.5-0.3z" fill="#2F2D2C"/>
			<path d="m94.8 0.5h-87.8c-3.6 0-6.5 2.9-6.5 6.5v34.1c0 2 1 3.9 2.4 5l-0.5 0.2c-1.4-1.2-2.4-3.1-2.4-5.2v-34.1c0-3.8 3.1-7 7-7h87.8c2 0 3.9 0.9 5.1 2.3l-0.5 0.2c-1.1-1.2-2.8-2-4.6-2z" fill="#666564"/>
		<circle cy="24" cx="94.3" r="4.6" fill="#40403F"/>
		<circle cy="24" cx="4.7" r=".9" fill="#2F2D2C"/>
		<circle cy="24" cx="4.7" r=".4" fill="#406F6E"/>
			<path d="m8.6 20.1c-0.3 0-0.5 0.2-0.5 0.5v7c0 0.2 0.1 0.3 0.2 0.4l-0.1 0.6c-0.4-0.1-0.7-0.5-0.7-1v-7c0-0.6 0.5-1.1 1-1.1 0.2 0 0.3 0.1 0.5 0.1v0.8c-0.1-0.2-0.3-0.3-0.4-0.3z" fill="#2F2D2C"/>
			<path d="m8.3 28c0.1 0.1 0.2 0.1 0.3 0.1 0.3 0 0.5-0.2 0.5-0.5v-7c0-0.1 0-0.2-0.1-0.2v-0.7c0.3 0.2 0.5 0.5 0.5 0.9v7c0 0.6-0.5 1.1-1 1.1-0.1 0-0.2 0-0.3-0.1l0.1-0.6z" fill="#666564"/>
		<path d="m8.1 27.6c0 0.3 0.2 0.5 0.5 0.5s0.4-0.2 0.4-0.5v-7c0-0.3-0.2-0.5-0.5-0.5s-0.5 0.2-0.5 0.5l0.1 7" fill="#1D1E1C"/>
			<rect y="3.5" x="75.9" height="41.2" width="12.1" fill="#FED600"/>
			<rect y="3.5" x="66.2" height="41.2" width="12.1" fill="#FAC113"/>
			<rect y="3.5" x="56.6" height="41.2" width="12" fill="#F9B617"/>
			<rect y="3.5" x="47.6" height="41.2" width="11.3" fill="#F6A75D"/>
			<rect y="3.5" x="37.9" height="41.2" width="11.3" fill="#F28F5E"/>
			<rect y="3.5" x="28.2" height="41.2" width="11.4" fill="#EE7C5B"/>
			<rect y="3.5" x="14.4" height="41.2" width="7.8" fill="#40403F"/>
				<rect opacity=".8" height="6.9" width="1.5" y="20.6" x="15.6" fill="#fff"/>
				<rect opacity=".8" height="3.5" width="1.5" y="39.2" x="15.6" fill="#fff"/>
			<circle opacity=".8" cy="6.1" cx="16.4" r=".9" fill="#fff"/>
			<circle opacity=".8" cy="9" cx="16.4" r=".9" fill="#fff"/>
			<circle opacity=".8" cy="37.1" cx="16.4" r=".9" fill="#fff"/>
			<rect y="3.5" x="20.2" height="41.2" width="9.7" fill="#EC6852"/>
				<rect opacity=".8" height="28.4" width="1.5" y="12.5" x="34" fill="#fff"/>
				<rect opacity=".8" height="14.2" width="1.5" y="26.7" x="24.3" fill="#fff"/>
				<rect opacity=".8" height="19.4" width="1.5" y="21.5" x="43.7" fill="#fff"/>
				<rect opacity=".8" height="24.7" width="1.5" y="16.2" x="53.4" fill="#fff"/>
				<rect opacity=".8" height="32.6" width="1.5" y="8.3" x="63" fill="#fff"/>
				<rect opacity=".8" height="14.2" width="1.5" y="26.7" x="72.7" fill="#fff"/>
				<rect opacity=".8" height="20.3" width="1.5" y="20.6" x="82.4" fill="#fff"/>
		<path opacity=".1" d="m7 47.5h80.7l-78.1-24.1v4.2c0 0.6-0.5 1.1-1 1.1-0.1 0-0.2 0-0.3-0.1-0.4-0.1-0.7-0.5-0.7-1v-4.8l-7-2.2v20.5c-0.1 3.6 2.8 6.4 6.4 6.4zm-2.3-22.6c-0.5 0-0.9-0.4-0.9-0.9s0.4-0.9 0.9-0.9 0.9 0.4 0.9 0.9-0.4 0.9-0.9 0.9z" fill="#fff"/>
</svg>
