<?xml version="1.0" encoding="UTF-8" standalone="no"?>
<!-- Generator: Adobe Illustrator 17.1.0, SVG Export Plug-In . SVG Version: 6.00 Build 0)  -->
<!DOCTYPE svg  PUBLIC '-//W3C//DTD SVG 1.1//EN'  'http://www.w3.org/Graphics/SVG/1.1/DTD/svg11.dtd'>
<svg id="Layer_1" xmlns="http://www.w3.org/2000/svg" xml:space="preserve" viewBox="0 0 67.6 72.1" version="1.1" y="0px" x="0px" xmlns:xlink="http://www.w3.org/1999/xlink" enable-background="new 0 0 67.6 72.1">
	<polygon opacity=".2" points="67.6 72.1 0 69.2 0 0 65 0" fill="#1D1D1B"/>
	<rect y="0" x="0" height="69.3" width="65" fill="#fff"/>
		<rect y="4.2" x="4.3" height="54.9" width="56.5" fill="#DFD8AE"/>
			<defs>
				<rect id="SVGID_1_" y="4.2" x="6" height="54.9" width="53.2"/>
			</defs>
			<clipPath id="SVGID_2_">
				<use overflow="visible" xlink:href="#SVGID_1_"/>
			</clipPath>
			<g clip-path="url(#SVGID_2_)">
				<ellipse cy="51.9" cx="32.9" rx="18.2" ry="16.5" fill="#3D3D3C"/>
				<ellipse cy="68.4" cx="32.9" rx="23.3" ry="21.1" fill="#3D3D3C"/>
				<polygon points="27.6 47.8 32.9 51.9 38.2 47.8 36.5 43 29 42.7" fill="#DDDB65"/>
				<polygon points="21.3 39.3 31 43.6 25.5 50.5" fill="#F5F6F6"/>
				<polygon points="44.5 39.3 34.8 43.6 40.3 50.5" fill="#F5F6F6"/>
					<ellipse cy="28.9" cx="32.9" rx="16.3" ry="14.8" fill="#3D3D3C"/>
					<circle cy="26.7" cx="25.5" r="2.9" fill="#FCE32E"/>
					<ellipse cy="26.7" cx="25.5" rx="1.6" ry="1.8" fill="#202016"/>
					<circle cy="26.7" cx="39.8" r="2.9" fill="#FCE32E"/>
					<ellipse cy="26.7" cx="39.8" rx="1.6" ry="1.8" fill="#202016"/>
					<path d="m16.6 28.9s-0.1-12.5 2.8-21.6l7.4 7.9-10.2 13.7z" fill="#3D3D3C"/>
					<path d="m49.2 28.9s0.1-12.5-2.8-21.6l-7.4 7.9 10.2 13.7z" fill="#3D3D3C"/>
				<polygon points="38 62.1 32.9 65.9 27.8 62.1 30.4 50 35.5 50" fill="#DDDB65"/>
			</g>
</svg>
