<?xml version="1.0" encoding="UTF-8" standalone="no"?>
<!-- Generator: Adobe Illustrator 17.1.0, SVG Export Plug-In . SVG Version: 6.00 Build 0)  -->
<!DOCTYPE svg  PUBLIC '-//W3C//DTD SVG 1.1//EN'  'http://www.w3.org/Graphics/SVG/1.1/DTD/svg11.dtd'>
<svg id="Layer_1" xmlns="http://www.w3.org/2000/svg" xml:space="preserve" viewBox="0 0 76.1 60.9" version="1.1" y="0px" x="0px" xmlns:xlink="http://www.w3.org/1999/xlink" enable-background="new 0 0 76.1 60.9">
			<rect transform="matrix(.9976 -.069732 .069732 .9976 -2.0353 1.6678)" height="42.9" width="42.9" y="8.6" x="1.4" fill="#F1F0F0"/>
			<line y2="14.9" x1="6" x2="31.8" stroke="#585857" stroke-linecap="round" stroke-miterlimit="10" y1="17.4" stroke-width="1.1207" fill="none"/>
			<line y2="20.1" x1="6.3" x2="36.8" stroke="#585857" stroke-linecap="round" stroke-miterlimit="10" y1="22.8" stroke-width="1.1207" fill="none"/>
			<line y2="27.1" x1="7.2" x2="24.2" stroke="#585857" stroke-linecap="round" stroke-miterlimit="10" y1="28.7" stroke-width="1.1207" fill="none"/>
			<line y2="34.7" x1="10.6" x2="41.1" stroke="#585857" stroke-linecap="round" stroke-miterlimit="10" y1="37.4" stroke-width="1.1207" fill="none"/>
			<line y2="41.7" x1="11.6" x2="28.5" stroke="#585857" stroke-linecap="round" stroke-miterlimit="10" y1="43.3" stroke-width="1.1207" fill="none"/>
		<rect transform="matrix(.9985 -.054627 .054627 .9985 -1.1776 2.0496)" height="42.9" width="42.9" y="1.1" x="15.5" fill="#B0D57A"/>
		<rect transform="matrix(.9993 -.037594 .037594 .9993 -1.2795 2.0492)" height="42.9" width="42.9" y="13.6" x="32.4" fill="#FEDE41"/>
		<rect transform="matrix(.9985 -.054627 .054627 .9985 -2.0364 2.1582)" height="42.9" width="42.9" y="16.9" x="17" fill="#B0D57A"/>
			<rect transform="matrix(1 -.0064120 .0064120 1 -.1884 .2813)" height="42.9" width="42.9" y="8.1" x="22.3" fill="#F1F0F0"/>
			<line y2="20.3" x1="29.1" x2="55" stroke="#585857" stroke-linecap="round" stroke-miterlimit="10" y1="21.5" stroke-width="1.1207" fill="none"/>
			<line y2="25.7" x1="29.2" x2="59.7" stroke="#585857" stroke-linecap="round" stroke-miterlimit="10" y1="27" stroke-width="1.1207" fill="none"/>
			<line y2="32.1" x1="29.9" x2="46.8" stroke="#585857" stroke-linecap="round" stroke-miterlimit="10" y1="32.9" stroke-width="1.1207" fill="none"/>
			<line y2="44.3" x1="34" x2="59.9" stroke="#585857" stroke-linecap="round" stroke-miterlimit="10" y1="45.5" stroke-width="1.1207" fill="none"/>
			<rect transform="matrix(.994 -.1096 .1096 .994 -3.4188 3.7625)" height="42.9" width="42.9" y="11.6" x="11.1" fill="#FEDE41"/>
		<path d="m18 19.5c-0.2 0.6-0.5 1.3-0.5 2-0.1 1.4 1.6 1.5 2.7 1.2 1.4-0.3 1.8-2 2.8-2.3 0.4-0.1 1.2 0.3 1.6 0.4 1 0.2 1.9 0.3 2.9 0.3 2.6-0.1 4.9-1.2 7.4-1.8 2.9-0.7 5.2 0.7 8.1 0.6" stroke="#585857" stroke-linecap="round" stroke-miterlimit="10" stroke-width="1.1207" fill="none"/>
		<path d="m18.5 29.9c1.1-1.5 2-2.1 3.8-1.5 1.5 0.5 2.6 1.2 4.2 0.9 1.5-0.3 2.7-1.3 4.2-1.5 1.6-0.2 3.3 0 4.9 0 1.5 0 3.1 0.2 4.7 0 2.3-0.3 4.5-1.1 6.7-1.6" stroke="#585857" stroke-linecap="round" stroke-miterlimit="10" stroke-width="1.1207" fill="none"/>
		<path d="m19.2 36.5c0.8-0.6 1.6-1.3 2.7-1.5s1.3 0.2 2.2 0.6c1.2 0.4 2.3 0.5 3.4 0.2 0.4-0.1 0.5-0.3 1.1-0.3 1.2-0.1 2.4 0.1 3.6 0.2" stroke="#585857" stroke-linecap="round" stroke-miterlimit="10" stroke-width="1.1207" fill="none"/>
		<path d="m39 47c1-0.6 2.1-1.8 3.2-2.2 1.2-0.4 1 1 2.1 1.3 1.2 0.4 2.7-1 4.1-0.8" stroke="#585857" stroke-linecap="round" stroke-miterlimit="10" stroke-width="1.1207" fill="none"/>
</svg>
