<?xml version="1.0" encoding="UTF-8" standalone="no"?>
<!-- Generator: Adobe Illustrator 17.1.0, SVG Export Plug-In . SVG Version: 6.00 Build 0)  -->
<!DOCTYPE svg  PUBLIC '-//W3C//DTD SVG 1.1//EN'  'http://www.w3.org/Graphics/SVG/1.1/DTD/svg11.dtd'>
<svg id="Layer_1" xmlns="http://www.w3.org/2000/svg" xml:space="preserve" viewBox="0 0 150.9 24" version="1.1" y="0px" x="0px" xmlns:xlink="http://www.w3.org/1999/xlink" enable-background="new 0 0 150.9 24">
	<path opacity=".2" d="m150.9 1.1h-149.8v22.9h149.8v-22.9zm-8.8 11.5c0-1.1 0.9-2 2-2s2 0.9 2 2-0.9 2-2 2-2-0.9-2-2z" fill="#1D1E1C"/>
	<path d="m149.8 0h-149.8v22.9h149.8v-22.9zm-8.9 11.5c0-1.1 0.9-2 2-2s2 0.9 2 2-0.9 2-2 2-2-1-2-2z" fill="#FEDA03"/>
		<line opacity=".2" x1="149.8" y2="3.4" x2="0" stroke="#1D1E1C" stroke-miterlimit="10" y1="3.4" stroke-width=".7986" fill="none"/>
		<line opacity=".5" x1="147.8" y2="17.7" x2="147.8" stroke="#1D1E1C" stroke-miterlimit="10" y1="22.9" stroke-width=".5324" fill="none"/>
		<line opacity=".5" x1="140.4" y2="17.7" x2="140.4" stroke="#1D1E1C" stroke-miterlimit="10" y1="22.9" stroke-width=".5324" fill="none"/>
		<line opacity=".5" x1="132.7" y2="17.7" x2="132.7" stroke="#1D1E1C" stroke-miterlimit="10" y1="22.9" stroke-width=".5324" fill="none"/>
		<line opacity=".5" x1="128.6" y2="19.7" x2="128.6" stroke="#1D1E1C" stroke-miterlimit="10" y1="22.9" stroke-width=".5324" fill="none"/>
		<line opacity=".5" x1="136.4" y2="19.7" x2="136.4" stroke="#1D1E1C" stroke-miterlimit="10" y1="22.9" stroke-width=".5324" fill="none"/>
		<line opacity=".5" x1="144" y2="19.7" x2="144" stroke="#1D1E1C" stroke-miterlimit="10" y1="22.9" stroke-width=".5324" fill="none"/>
		<line opacity=".5" x1="124.6" y2="17.7" x2="124.6" stroke="#1D1E1C" stroke-miterlimit="10" y1="22.9" stroke-width=".5324" fill="none"/>
		<line opacity=".5" x1="117.2" y2="17.7" x2="117.2" stroke="#1D1E1C" stroke-miterlimit="10" y1="22.9" stroke-width=".5324" fill="none"/>
		<line opacity=".5" x1="109.4" y2="17.7" x2="109.4" stroke="#1D1E1C" stroke-miterlimit="10" y1="22.9" stroke-width=".5324" fill="none"/>
		<line opacity=".5" x1="105.4" y2="19.7" x2="105.4" stroke="#1D1E1C" stroke-miterlimit="10" y1="22.9" stroke-width=".5324" fill="none"/>
		<line opacity=".5" x1="113.2" y2="19.7" x2="113.2" stroke="#1D1E1C" stroke-miterlimit="10" y1="22.9" stroke-width=".5324" fill="none"/>
		<line opacity=".5" x1="120.7" y2="19.7" x2="120.7" stroke="#1D1E1C" stroke-miterlimit="10" y1="22.9" stroke-width=".5324" fill="none"/>
		<line opacity=".5" x1="101.6" y2="17.7" x2="101.6" stroke="#1D1E1C" stroke-miterlimit="10" y1="22.9" stroke-width=".5324" fill="none"/>
		<line opacity=".5" x1="94.2" y2="17.7" x2="94.2" stroke="#1D1E1C" stroke-miterlimit="10" y1="22.9" stroke-width=".5324" fill="none"/>
		<line opacity=".5" x1="86.4" y2="17.7" x2="86.4" stroke="#1D1E1C" stroke-miterlimit="10" y1="22.9" stroke-width=".5324" fill="none"/>
		<line opacity=".5" x1="82.4" y2="19.7" x2="82.4" stroke="#1D1E1C" stroke-miterlimit="10" y1="22.9" stroke-width=".5324" fill="none"/>
		<line opacity=".5" x1="90.2" y2="19.7" x2="90.2" stroke="#1D1E1C" stroke-miterlimit="10" y1="22.9" stroke-width=".5324" fill="none"/>
		<line opacity=".5" x1="97.7" y2="19.7" x2="97.7" stroke="#1D1E1C" stroke-miterlimit="10" y1="22.9" stroke-width=".5324" fill="none"/>
		<line opacity=".5" x1="78.8" y2="17.7" x2="78.8" stroke="#1D1E1C" stroke-miterlimit="10" y1="22.9" stroke-width=".5324" fill="none"/>
		<line opacity=".5" x1="71.1" y2="17.7" x2="71.1" stroke="#1D1E1C" stroke-miterlimit="10" y1="22.9" stroke-width=".5324" fill="none"/>
		<line opacity=".5" x1="67" y2="19.7" x2="67" stroke="#1D1E1C" stroke-miterlimit="10" y1="22.9" stroke-width=".5324" fill="none"/>
		<line opacity=".5" x1="74.8" y2="19.7" x2="74.8" stroke="#1D1E1C" stroke-miterlimit="10" y1="22.9" stroke-width=".5324" fill="none"/>
		<line opacity=".5" x1="63" y2="17.7" x2="63" stroke="#1D1E1C" stroke-miterlimit="10" y1="22.9" stroke-width=".5324" fill="none"/>
		<line opacity=".5" x1="55.6" y2="17.7" x2="55.6" stroke="#1D1E1C" stroke-miterlimit="10" y1="22.9" stroke-width=".5324" fill="none"/>
		<line opacity=".5" x1="47.8" y2="17.7" x2="47.8" stroke="#1D1E1C" stroke-miterlimit="10" y1="22.9" stroke-width=".5324" fill="none"/>
		<line opacity=".5" x1="43.8" y2="19.7" x2="43.8" stroke="#1D1E1C" stroke-miterlimit="10" y1="22.9" stroke-width=".5324" fill="none"/>
		<line opacity=".5" x1="51.6" y2="19.7" x2="51.6" stroke="#1D1E1C" stroke-miterlimit="10" y1="22.9" stroke-width=".5324" fill="none"/>
		<line opacity=".5" x1="59.1" y2="19.7" x2="59.1" stroke="#1D1E1C" stroke-miterlimit="10" y1="22.9" stroke-width=".5324" fill="none"/>
		<line opacity=".5" x1="40" y2="17.7" x2="40" stroke="#1D1E1C" stroke-miterlimit="10" y1="22.9" stroke-width=".5324" fill="none"/>
		<line opacity=".5" x1="32.6" y2="17.7" x2="32.6" stroke="#1D1E1C" stroke-miterlimit="10" y1="22.9" stroke-width=".5324" fill="none"/>
		<line opacity=".5" x1="24.8" y2="17.7" x2="24.8" stroke="#1D1E1C" stroke-miterlimit="10" y1="22.9" stroke-width=".5324" fill="none"/>
		<line opacity=".5" x1="20.8" y2="19.7" x2="20.8" stroke="#1D1E1C" stroke-miterlimit="10" y1="22.9" stroke-width=".5324" fill="none"/>
		<line opacity=".5" x1="28.6" y2="19.7" x2="28.6" stroke="#1D1E1C" stroke-miterlimit="10" y1="22.9" stroke-width=".5324" fill="none"/>
		<line opacity=".5" x1="36.1" y2="19.7" x2="36.1" stroke="#1D1E1C" stroke-miterlimit="10" y1="22.9" stroke-width=".5324" fill="none"/>
		<line opacity=".5" x1="16.9" y2="17.7" x2="16.9" stroke="#1D1E1C" stroke-miterlimit="10" y1="22.9" stroke-width=".5324" fill="none"/>
		<line opacity=".5" x1="9.6" y2="17.7" x2="9.6" stroke="#1D1E1C" stroke-miterlimit="10" y1="22.9" stroke-width=".5324" fill="none"/>
		<line opacity=".5" x1="1.8" y2="17.7" x2="1.8" stroke="#1D1E1C" stroke-miterlimit="10" y1="22.9" stroke-width=".5324" fill="none"/>
		<line opacity=".5" x1="5.6" y2="19.7" x2="5.6" stroke="#1D1E1C" stroke-miterlimit="10" y1="22.9" stroke-width=".5324" fill="none"/>
		<line opacity=".5" x1="13.1" y2="19.7" x2="13.1" stroke="#1D1E1C" stroke-miterlimit="10" y1="22.9" stroke-width=".5324" fill="none"/>
	<rect opacity=".05" height="7.1" width="149.8" y="15.8" x="0" fill="#1D1E1C"/>
</svg>
