<?xml version="1.0" encoding="UTF-8" standalone="no"?>
<!-- Generator: Adobe Illustrator 17.1.0, SVG Export Plug-In . SVG Version: 6.00 Build 0)  -->
<!DOCTYPE svg  PUBLIC '-//W3C//DTD SVG 1.1//EN'  'http://www.w3.org/Graphics/SVG/1.1/DTD/svg11.dtd'>
<svg id="Layer_1" xmlns="http://www.w3.org/2000/svg" xml:space="preserve" viewBox="0 0 140.9 140.9" version="1.1" y="0px" x="0px" xmlns:xlink="http://www.w3.org/1999/xlink" enable-background="new 0 0 140.9 140.9">
	<circle opacity=".2" cy="73.7" cx="73.7" r="67.2" fill="#1D1D1B"/>
	<circle cy="67.2" cx="67.2" r="67.2" fill="#F1F0F0"/>
	<circle r="58.7" cy="67.2" stroke="#0787C3" cx="67.2" stroke-miterlimit="10" stroke-width=".7769" fill="none"/>
	<circle cy="67.2" cx="67.2" r="46.6" fill="#fff"/>
	<path d="m1.4 68.6c0-37.1 30.1-67.2 67.2-67.2 18.2 0 34.7 7.2 46.8 19-12.2-12.6-29.3-20.4-48.2-20.4-37.1 0-67.2 30.1-67.2 67.2 0 18.9 7.8 36 20.4 48.2-11.7-12-19-28.6-19-46.8z" fill="#fff"/>
	<path d="m114 19c11.7 12.1 19 28.6 19 46.8 0 37.1-30.1 67.2-67.2 67.2-18.2 0-34.7-7.2-46.8-19 12.2 12.6 29.3 20.4 48.2 20.4 37.1 0 67.2-30.1 67.2-67.2 0-18.9-7.8-36-20.4-48.2z" fill="#D9D9D8"/>
	<path opacity=".2" d="m118.6 51.9c0.6-3.2-1.8-6.4-6.4-9.3l-0.8-5.6-11.6-2.1-9.2-3.1-7.5 0.8c-0.7-0.1-1.3-0.3-2-0.4-2-0.4-3.9-0.7-5.8-0.9l-6.2-3.3-4.2 2.3c-5.1-0.3-9.7-0.2-13.6 0.4l-9.3-1.8-0.2 4.8c-1.5 1.1-2.4 2.4-2.7 3.9-0.6 3.1 0.5 5.3 1.8 6.6l-3.9 8.1c-2.1 2.3-3.7 5.3-4.3 8.7-0.2 1.1-0.3 2.2-0.3 3.2l-2.1 1.5 3.5 5c0.2 0.5 0.4 0.9 0.6 1.3l-3 5.5-0.4 9.8-3.2 9.9 4.9 3.7c0.1 1.2 0.2 2.2 0.5 2.8 0.7 1.5 2.3 2.9 4.7 4l1.2 3 7.9 4.1 5.8-2.5c1.9 0.4 3.8 0.8 5.8 1.2l5.3 4.3 8.5-1.8c5.4 0.9 10.8 1.8 15.6 2.1l10.2 3.2 0.6-3.9c1.1-0.4 1.9-0.8 2.6-1.5 0.8-0.8 1.6-2.6 2.5-5.2l5.7-4.4-0.5-2.6c1.6-2.1 2.7-4.5 3.2-7.3 0.7-3.7 0.1-7.4-1.4-10.6l6.5-4.5-5.7-8.2c0.1-1.3 0.3-2.6 0.4-3.8l5.6-6.8-1.8-5.6c0.9-0.9 2.2-2.4 2.7-5z" fill="#1D1D1B"/>
		<polygon points="21.4 90.9 24.7 81 25 71.3 30.8 60.6 30.4 46.5 35.1 36.7 35.7 22.5 54.7 26 62.8 21.5 72.2 26.6 84.2 25.4 93.4 28.5 105 30.6 106.9 43.7 110.9 56.2 100.3 69.3 106.2 75.3 100.2 85.1 103 100.1 92.7 107.9 91.6 115 71.3 108.6 57.4 111.5 49.1 104.8 40.5 108.5 32.7 104.4 29.9 97.3" fill="#AECF78"/>
		<circle cy="57.8" cx="43.4" r="17.4" fill="#EC6852"/>
		<circle cy="87.1" cx="88.6" r="17.4" fill="#EC6852"/>
		<path d="m66.8 69.4c11.1 2 19.9 9.6 24.1 19.4l19.8-13.8-20.1-29c-5.2 1.9-10.9 2.5-16.7 1.5-7.3-1.3-13.6-5-18.2-10.2l-31.8 22.1 13.6 19.6c7.4-7.6 18.3-11.6 29.3-9.6z" fill="#FEE171"/>
		<path stroke="#B68E6A" stroke-width=".9317" stroke-miterlimit="10" d="m112.2 45.6c1.4-7.8-15.1-15.7-37.4-19.8s-40.6-2.3-42 5.5c-1.2 6.4 4.5 8.6 4.5 8.6-5.3 5.5-13.2 51.3-10.5 57.5 2.6 5.8 19.1 8.7 33 11.3 14 2.5 30.4 5.5 34.9 1 4.8-4.9 13.3-50.5 10.2-57.6 0.1 0 6.2-0.1 7.3-6.5z" fill="#F6E1CC"/>
		<circle cy="34.1" cx="48.3" r=".9" fill="#E5D1BE"/>
		<circle cy="71.3" cx="78.3" r=".9" fill="#E5D1BE"/>
		<circle cy="83" cx="56.1" r=".9" fill="#E5D1BE"/>
		<circle cy="53.4" cx="74.8" r=".9" fill="#E5D1BE"/>
		<circle cy="98.1" cx="69.3" r=".9" fill="#E5D1BE"/>
		<circle cy="39" cx="76.4" r=".9" fill="#E5D1BE"/>
		<circle cy="55" cx="49.9" r=".9" fill="#E5D1BE"/>
		<circle cy="44.4" cx="99.5" r=".9" fill="#E5D1BE"/>
		<circle cy="93.2" cx="90.2" r=".9" fill="#E5D1BE"/>
		<circle cy="94.2" cx="41.1" r=".9" fill="#E5D1BE"/>
		<circle cy="81.4" cx="41.8" r=".7" fill="#E5D1BE"/>
		<circle cy="61.1" cx="62.4" r=".7" fill="#E5D1BE"/>
		<circle cy="83.7" cx="70" r=".7" fill="#E5D1BE"/>
		<circle cy="65.8" cx="48.8" r=".7" fill="#E5D1BE"/>
		<circle cy="45.1" cx="51" r=".7" fill="#E5D1BE"/>
		<circle cy="53.9" cx="62.4" r=".7" fill="#E5D1BE"/>
		<circle cy="72.9" cx="67.3" r=".7" fill="#E5D1BE"/>
		<circle cy="79.2" cx="31.1" r=".7" fill="#E5D1BE"/>
		<circle cy="89.5" cx="47.2" r=".7" fill="#E5D1BE"/>
		<circle cy="101.8" cx="47.2" r=".7" fill="#E5D1BE"/>
		<circle cy="99.2" cx="34.5" r=".7" fill="#E5D1BE"/>
		<circle cy="83.7" cx="79.5" r=".7" fill="#E5D1BE"/>
		<circle cy="90.2" cx="63.9" r=".7" fill="#E5D1BE"/>
		<circle cy="106.5" cx="75.3" r=".7" fill="#E5D1BE"/>
		<circle cy="85.2" cx="96.8" r=".7" fill="#E5D1BE"/>
		<circle cy="105.8" cx="90.9" r=".7" fill="#E5D1BE"/>
		<circle cy="55" cx="97.5" r=".7" fill="#E5D1BE"/>
		<circle cy="45.8" cx="81.8" r=".7" fill="#E5D1BE"/>
		<circle cy="46.5" cx="70.4" r=".7" fill="#E5D1BE"/>
		<circle cy="27.8" cx="54.5" r=".7" fill="#E5D1BE"/>
		<circle cy="59.7" cx="37.1" r=".7" fill="#E5D1BE"/>
		<circle cy="76.7" cx="49.9" r=".7" fill="#E5D1BE"/>
		<circle cy="72.4" cx="88.6" r=".7" fill="#E5D1BE"/>
		<circle cy="63.8" cx="103" r=".7" fill="#E5D1BE"/>
		<circle cy="63.8" cx="73.2" r=".7" fill="#E5D1BE"/>
		<circle cy="97.2" cx="54.5" r=".7" fill="#E5D1BE"/>
		<circle cy="102.6" cx="82.6" r=".7" fill="#E5D1BE"/>
		<circle cy="80.7" cx="88.6" r=".7" fill="#E5D1BE"/>
		<circle cy="51.8" cx="87.9" r=".7" fill="#E5D1BE"/>
		<circle cy="32.5" cx="63.2" r=".7" fill="#E5D1BE"/>
		<circle cy="49.2" cx="41.8" r=".7" fill="#E5D1BE"/>
		<circle cy="30.3" cx="76.7" r=".7" fill="#E5D1BE"/>
		<circle cy="31.8" cx="37.9" r=".7" fill="#E5D1BE"/>
		<circle cy="37.3" cx="90.9" r=".7" fill="#E5D1BE"/>
		<circle cy="63.8" cx="81.8" r=".7" fill="#E5D1BE"/>
		<circle cy="89.5" cx="31.1" r=".7" fill="#E5D1BE"/>
		<circle cy="92.6" cx="79" r=".7" fill="#E5D1BE"/>
		<circle cy="72.2" cx="99.5" r=".7" fill="#E5D1BE"/>
		<circle cy="105.8" cx="62.4" r=".7" fill="#E5D1BE"/>
		<circle cy="68.3" cx="37.9" r=".9" fill="#E5D1BE"/>
		<circle cy="44.4" cx="60.8" r=".9" fill="#E5D1BE"/>
		<circle cy="69.9" cx="57.7" r=".9" fill="#E5D1BE"/>
		<circle cy="64.7" cx="93.4" r=".9" fill="#E5D1BE"/>
</svg>
