<?xml version="1.0" encoding="UTF-8" standalone="no"?>
<!-- Generator: Adobe Illustrator 17.1.0, SVG Export Plug-In . SVG Version: 6.00 Build 0)  -->
<!DOCTYPE svg  PUBLIC '-//W3C//DTD SVG 1.1//EN'  'http://www.w3.org/Graphics/SVG/1.1/DTD/svg11.dtd'>
<svg id="Layer_1" xmlns="http://www.w3.org/2000/svg" xml:space="preserve" viewBox="0 0 140.9 140.9" version="1.1" y="0px" x="0px" xmlns:xlink="http://www.w3.org/1999/xlink" enable-background="new 0 0 140.9 140.9">
	<circle opacity=".2" cy="73.7" cx="73.7" r="67.2" fill="#1D1D1B"/>
	<circle cy="67.2" cx="67.2" r="67.2" fill="#F1F0F0"/>
	<circle r="58.7" cy="67.2" stroke="#0787C3" cx="67.2" stroke-miterlimit="10" stroke-width=".7769" fill="none"/>
	<circle cy="67.2" cx="67.2" r="46.6" fill="#fff"/>
	<path d="m1.4 68.6c0-37.1 30.1-67.2 67.2-67.2 18.2 0 34.7 7.2 46.8 19-12.2-12.6-29.3-20.4-48.2-20.4-37.1 0-67.2 30.1-67.2 67.2 0 18.9 7.8 36 20.4 48.2-11.7-12-19-28.6-19-46.8z" fill="#fff"/>
	<path d="m114 19c11.7 12.1 19 28.6 19 46.8 0 37.1-30.1 67.2-67.2 67.2-18.2 0-34.7-7.2-46.8-19 12.2 12.6 29.3 20.4 48.2 20.4 37.1 0 67.2-30.1 67.2-67.2 0-18.9-7.8-36-20.4-48.2z" fill="#D9D9D8"/>
	<path opacity=".2" d="m117.1 81.4l-1.6-2.3c-0.7 0.1-1.3 0.1-2 0.1-1 0-1.9-0.1-2.9-0.2-0.1 0-0.2 0-0.3-0.1l-1.6-5.2s-2.8 1.8-5.2 3.3c-0.1 0-0.1 0-0.2-0.1-0.3-0.2-0.7-0.3-1-0.5-0.1-0.1-0.2-0.1-0.3-0.2-0.2-0.1-0.4-0.2-0.6-0.4-0.2-0.1-0.4-0.3-0.7-0.4-0.1 0-0.1-0.1-0.2-0.1-0.2-0.1-0.3-0.2-0.5-0.3-0.5-0.3-0.9-0.6-1.4-1-0.3 0.1-0.6 0.1-0.9 0.2-1.2-0.5-2.4-0.9-3.7-1.1-1.9-0.3-3.8-0.4-5.7-0.1l-1.1-1.6-2.9 2.2c-0.5-0.2-0.9-0.3-1.4-0.5l1.6-3.7-5.1-2.7-1-2.6-7.5-2.1c0-0.1-0.1-0.1-0.1-0.2-0.1-0.1-0.1-0.2-0.2-0.3-0.1-0.3-0.3-0.6-0.4-0.9 0-0.1-0.1-0.2-0.1-0.3-0.2-0.4-0.3-0.8-0.5-1.2l3.4-5.5-3.3-2.5c0.6-1 1-2.1 1.2-3.3 0.4-2.3 0.1-4.6-0.8-6.5 0-0.1 0.1-0.2 0.1-0.3l0.3-0.6c0.2-0.4 0.4-0.9 0.6-1.3-0.2-0.4-0.3-0.8-0.5-1.3 0-0.1-0.1-0.2-0.1-0.3-0.1-0.4-0.2-0.7-0.3-1.1 0-0.1 0-0.1-0.1-0.2-0.1-0.5-0.2-0.9-0.3-1.4v-0.2c-0.1-0.4-0.1-0.8-0.2-1.2v-0.2l2.1-1.9-2.2-3.2-0.3-0.1-4.2 2.2c-5.1-0.3-9.7-0.2-13.6 0.4l-9.3-1.7-0.2 4.8c-1.5 1.1-2.4 2.4-2.7 3.9-0.6 3.1 0.5 5.3 1.8 6.6l-4 8.2c-2.1 2.3-3.7 5.3-4.3 8.7-0.2 1.1-0.3 2.2-0.3 3.2l-2.1 1.5 3.5 5c0.2 0.5 0.4 0.9 0.6 1.3l-3 5.5-0.3 9.7-3.2 9.9 4.9 3.7c0.1 1.2 0.2 2.2 0.5 2.8 0.7 1.5 2.3 2.9 4.7 4l1.2 3 7.9 4.1 5.8-2.5c1.9 0.4 3.8 0.8 5.8 1.2l5.3 4.3 8.5-1.8c5.4 0.9 10.8 1.8 15.6 2.1l10.2 3.2 0.6-3.9c1.1-0.4 1.9-0.8 2.6-1.5 0.8-0.8 1.6-2.6 2.5-5.2l5.7-4.4-0.5-2.6c1.6-2.1 2.7-4.5 3.2-7.3 0.7-3.7 0.1-7.4-1.4-10.6l6.1-4.4z" fill="#1D1D1B"/>
		<g fill="#AECF78">
			<path d="m85.9 68.6c-13.4 0-24.2-10.8-24.2-24.2 0-4.2 1.1-8.2 3-11.6-1.1-2.8-1.8-5.9-1.8-9.1 0-0.7 0-1.3 0.1-2l-0.3-0.1-8 4.4-19-3.4-0.6 14.1-4.7 9.8 0.4 14.2-5.8 10.6-0.3 9.7-3.2 9.9 8.4 6.4 2.8 7.1 7.9 4.1 8.6-3.7 8.3 6.7 13.9-2.9 20.3 6.4 1.1-7.1 10.4-7.9-2.8-15 6.1-9.8-2.7-2.8c-4.2-0.6-8-2.3-11.2-4.8-2.4 0.7-4.5 1-6.7 1z"/>
			<polygon points="57.7 40.4 66.6 47.3 59.4 59"/>
			<polygon points="72.2 71.7 80.9 65.1 85.5 72.2"/>
			<path d="m93.7 72.4c1.2-0.2 8.6-5.1 8.6-5.1l2 6.3-10.6-1.2z"/>
			<polyline points="63 21.7 65.3 24.9 49.2 39.5 54.5 28.6"/>
		</g>
		<circle cy="57.8" cx="43.4" r="17.4" fill="#EC6852"/>
		<circle cy="83.9" cx="84.6" r="17.4" fill="#EC6852"/>
		<circle cy="39.5" cx="53.8" r="10.9" fill="#EC6852"/>
		<circle cy="87.1" cx="88.6" r="17.4" fill="#EC6852"/>
		<g fill="#FEE171">
			<path d="m92.3 67.7c-2 0.6-4.2 0.9-6.4 0.9-13.4 0-24.2-10.8-24.2-24.2 0-0.6 0-1.2 0.1-1.7-2.2-1.5-4.3-3.3-6.1-5.3l-31.8 22 13.6 19.6c7.4-7.6 18.3-11.6 29.3-9.6 11.1 2 19.9 9.6 24.1 19.4l19.8-13.8-1.6-2.3c-0.7 0.1-1.3 0.1-2 0.1-5.6 0-10.7-1.9-14.8-5.1z"/>
			<polygon points="61.7 54.8 72.2 57.8 73.2 60.4 78.3 63.1 76 68.3"/>
		</g>
			<path d="m85.9 68.6c-13.4 0-24.2-10.8-24.2-24.2 0-4.2 1.1-8.2 3-11.6-1.1-2.7-1.7-5.6-1.7-8.6-16.6-1.6-29 0.7-30.1 7.1-1.2 6.4 4.5 8.6 4.5 8.6-5.4 5.5-13.3 51.3-10.6 57.5 2.6 5.8 19.1 8.7 33 11.3 14 2.5 30.4 5.5 34.9 1 2.9-3 7.3-21.6 9.5-37-4.5-0.5-8.6-2.3-12-4.9-2 0.5-4.1 0.8-6.3 0.8z" fill="#F6E1CC"/>
		<g fill="#E5D1BE">
			<circle cy="34.1" cx="48.3" r=".9"/>
			<circle cy="71.3" cx="78.3" r=".9"/>
			<circle cy="83" cx="56.1" r=".9"/>
			<circle cy="98.1" cx="69.3" r=".9"/>
			<circle cy="55" cx="49.9" r=".9"/>
			<circle cy="93.2" cx="90.2" r=".9"/>
			<circle cy="94.2" cx="41.1" r=".9"/>
			<circle cy="81.4" cx="41.8" r=".7"/>
			<circle cy="61.1" cx="62.4" r=".7"/>
			<circle cy="83.7" cx="70" r=".7"/>
			<circle cy="65.8" cx="48.8" r=".7"/>
			<circle cy="45.1" cx="51" r=".7"/>
			<circle cy="54.1" cx="58.6" r=".7"/>
			<circle cy="72.9" cx="67.3" r=".7"/>
			<circle cy="79.2" cx="31.1" r=".7"/>
			<circle cy="89.5" cx="47.2" r=".7"/>
			<circle cy="101.8" cx="47.2" r=".7"/>
			<circle cy="99.2" cx="34.5" r=".7"/>
			<circle cy="83.7" cx="79.5" r=".7"/>
			<circle cy="90.2" cx="63.9" r=".7"/>
			<circle cy="106.5" cx="75.3" r=".7"/>
			<circle cy="85.2" cx="96.8" r=".7"/>
			<circle cy="105.8" cx="90.9" r=".7"/>
			<circle cy="27.8" cx="54.5" r=".7"/>
			<circle cy="59.7" cx="37.1" r=".7"/>
			<circle cy="76.7" cx="49.9" r=".7"/>
			<circle cy="72.4" cx="88.6" r=".7"/>
			<circle cy="97.2" cx="54.5" r=".7"/>
			<circle cy="102.6" cx="82.6" r=".7"/>
			<circle cy="80.7" cx="88.6" r=".7"/>
			<circle cy="33.2" cx="59.4" r=".7"/>
			<circle cy="49.2" cx="41.8" r=".7"/>
			<circle cy="31.8" cx="37.9" r=".7"/>
			<circle cy="89.5" cx="31.1" r=".7"/>
			<circle cy="92.6" cx="79" r=".7"/>
			<circle cy="76" cx="96.8" r=".7"/>
			<circle cy="105.8" cx="62.4" r=".7"/>
			<circle cy="68.3" cx="37.9" r=".9"/>
			<circle cy="44.4" cx="57.7" r=".9"/>
			<circle cy="69.9" cx="57.7" r=".9"/>
		</g>
			<path stroke="#B68E6A" stroke-width=".9317" stroke-miterlimit="10" d="m63 24.2c-16.6-1.6-29 0.7-30.1 7.1-1.2 6.4 4.5 8.6 4.5 8.6-5.4 5.5-13.3 51.3-10.6 57.5 2.6 5.8 19.1 8.7 33 11.3 14 2.5 30.4 5.5 34.9 1 2.9-3 7.3-21.6 9.5-37" fill="none"/>
		<g fill="#1D1D1B">
			<polygon opacity=".2" points="80 39.9 79.6 42.8 82 41.3"/>
			<polygon opacity=".2" points="98.3 46.2 97.2 47.7 96.5 45.7"/>
			<polygon opacity=".2" points="86.9 53.8 86.9 55.4 89 54.5"/>
			<polygon opacity=".2" points="89.7 36.7 89.7 38.2 91.4 36.7"/>
			<polygon opacity=".2" points="79.2 28.3 79.6 30.3 80.3 29.3"/>
			<polygon opacity=".2" points="79.8 49.5 79.2 51.3 80.8 51.3"/>
			<polygon opacity=".2" points="100.1 60.1 100.1 62.7 101.2 61.5"/>
			<polygon opacity=".2" points="104.7 53 104.7 54.6 106 53"/>
			<polygon opacity=".2" points="103.2 39.9 103.2 41.3 101.9 40.6"/>
			<polygon opacity=".2" points="90.6 63.5 90.6 64.6 92 63.5"/>
		</g>
		<polygon points="79.6 39.5 79.2 42.4 81.6 40.9" fill="#F6E1CC"/>
		<polygon points="97.9 45.8 96.8 47.4 96.1 45.3" fill="#EC6852"/>
		<polygon points="86.5 53.4 86.5 55 88.6 54.1" fill="#F6E1CC"/>
		<polygon points="89.3 36.3 89.3 37.8 91 36.3" fill="#F6E1CC"/>
		<polygon points="78.8 27.9 79.2 29.9 79.9 28.9" fill="#F6E1CC"/>
		<polygon points="79.4 49.2 78.8 50.9 80.4 50.9" fill="#EC6852"/>
		<polygon points="99.7 59.7 99.7 62.3 100.8 61.1" fill="#F6E1CC"/>
		<polygon points="104.3 52.6 104.3 54.2 105.6 52.6" fill="#F6E1CC"/>
		<polygon points="102.8 39.5 102.8 40.9 101.5 40.2" fill="#AECF78"/>
		<polygon points="90.2 63.1 90.2 64.2 91.6 63.1" fill="#AECF78"/>
</svg>
