<?xml version="1.0" encoding="UTF-8" standalone="no"?>
<!-- Generator: Adobe Illustrator 17.1.0, SVG Export Plug-In . SVG Version: 6.00 Build 0)  -->
<!DOCTYPE svg  PUBLIC '-//W3C//DTD SVG 1.1//EN'  'http://www.w3.org/Graphics/SVG/1.1/DTD/svg11.dtd'>
<svg id="Layer_1" xmlns="http://www.w3.org/2000/svg" xml:space="preserve" viewBox="0 0 167.4 26.7" version="1.1" y="0px" x="0px" xmlns:xlink="http://www.w3.org/1999/xlink" enable-background="new 0 0 167.4 26.7">
	<g opacity=".2" fill="#1D1E1C">
		<rect y="13.8" x="17" height="4.6" width="82.5"/>
		<rect y="13.8" x="17" height="3.2" width="82.5"/>
		<rect y="14.5" x="17" height=".9" width="82.5"/>
		<polygon points="5.3 18.4 5.3 13.8 13.9 12.3 17 13.8 17 18.4 13.8 19.9"/>
		<polygon points="5.3 18.4 5.3 18 13.8 19.2 17 17 17 18.4 13.8 19.9"/>
			<rect transform="matrix(.00045712 1 -1 .00045712 121.55 -89.5)" height="15.9" width="11.8" y="8.1" x="99.6"/>
		<path d="m97.3 26.7c-1.6 0-2.9-1.3-2.9-2.9v-15.7c0-1.6 1.3-2.9 2.9-2.9h1.3c1.6 0 2.9 1.3 2.9 2.9v15.7c0 1.6-1.3 2.9-2.9 2.9h-1.3z"/>
		<path opacity=".3" d="m95.3 25.9h0.2 1.6c1.9 0 3.5-1.6 3.5-3.5v-16.2c0.5 0.5 0.9 1.2 0.9 2v15.7c0 1.6-1.3 2.9-2.9 2.9h-1.3c-0.8-0.1-1.5-0.4-2-0.9z"/>
		<path d="m161 26.7c3.5 0 6.4-2.9 6.4-6.4v-8.5c0-3.5-2.9-6.4-6.4-6.4h-50.7c-3.5 0-6.4 2.9-6.4 6.4v8.5c0 3.5 2.9 6.4 6.4 6.4h50.7z"/>
			<path d="m113.9 20.8c-2.5 0-4.6-2.1-4.6-4.6v-0.4c0-2.5 2.1-4.6 4.6-4.6h43.4c2.5 0 4.6 2.1 4.6 4.6v0.4c0 2.5-2.1 4.6-4.6 4.6h-43.4z"/>
				<path d="m110.3 26.7h-0.4c-0.3-0.4-0.5-0.9-0.5-1.4v-0.3c0-1.7 2.1-3.1 4.6-3.1h43.4c2.5 0 4.6 1.4 4.6 3.1v0.3c0 0.5-0.2 1-0.5 1.4h-0.4-50.8z"/>
				<path d="m161.9 7c0 1.7-2.1 3.1-4.6 3.1h-43.4c-2.5 0-4.6-1.4-4.6-3.1v-0.3c0-0.5 0.2-1 0.5-1.4h0.4 50.7 0.4c0.3 0.4 0.5 0.9 0.5 1.4l0.1 0.3z"/>
			<path d="m161.2 16.2v-0.4c0-2.5-2.1-4.6-4.6-4.6h0.8c2.5 0 4.6 2.1 4.6 4.6v0.4c0 2.5-2.1 4.6-4.6 4.6h-0.8c2.5 0 4.6-2.1 4.6-4.6z"/>
			<path d="m161.1 7v-0.3c0-0.5-0.2-1-0.5-1.4h-0.4 0.8 0.4c0.3 0.4 0.5 0.9 0.5 1.4v0.3c0 1.7-2.1 3.1-4.6 3.1h-0.8c2.6 0 4.6-1.4 4.6-3.1z"/>
			<path d="m109.4 16.2v-0.4c0-2.5 2.1-4.6 4.6-4.6h0.8c-2.5 0-4.6 2.1-4.6 4.6v0.4c0 2.5 2.1 4.6 4.6 4.6h-0.8c-2.6 0-4.6-2-4.6-4.6z"/>
			<path d="m109.8 26.7c-0.3-0.4-0.5-0.9-0.5-1.4v-0.3c0-1.7 2.1-3.1 4.6-3.1h0.8c-2.5 0-4.6 1.4-4.6 3.1v0.3c0 0.5 0.2 1 0.5 1.4h0.4-0.8-0.4z"/>
			<path d="m109.4 7v-0.3c0-0.5 0.2-1 0.5-1.4h0.4 0.8-0.4c-0.3 0.4-0.5 0.9-0.5 1.4v0.3c0 1.7 2.1 3.1 4.6 3.1h-0.8c-2.6 0-4.6-1.4-4.6-3.1z"/>
		<path opacity=".3" d="m104 21.4h54.5c3.8 0 6.9-3.1 6.9-6.9v-7.3c1.2 1.2 2 2.8 2 4.6v8.5c0 3.5-2.9 6.4-6.4 6.4h-50.7c-3.2 0-5.8-2.3-6.3-5.3z"/>
		<polygon points="17 14.5 13.9 13.7 5.3 14.5 5.3 15.4 13.9 16.1 17 15.4"/>
	</g>
		<rect y="8.4" x="11.6" height="4.6" width="82.5" fill="#B2B2B2"/>
		<rect y="8.4" x="11.6" height="3.2" width="82.5" fill="#CFD0D0"/>
		<rect y="9.1" x="11.6" height=".9" width="82.5" fill="#F3F3F3"/>
		<polygon points="0 13 0 8.5 8.6 6.9 11.6 8.5 11.6 13 8.5 14.6" fill="#CFD0D0"/>
		<polygon points="0 13 0 12.7 8.5 13.9 11.6 11.7 11.6 13 8.5 14.6" fill="#B2B2B2"/>
			<rect transform="matrix(.00045712 1 -1 .00045712 110.87 -89.493)" height="15.9" width="11.8" y="2.7" x="94.3" fill="#EEAA1F"/>
		<path d="m92 21.4c-1.6 0-2.9-1.3-2.9-2.9v-15.7c0-1.5 1.3-2.8 2.9-2.8h1.3c1.6 0 2.9 1.3 2.9 2.9v15.7c0 1.6-1.3 2.9-2.9 2.9l-1.3-0.1z" fill="#FFCB07"/>
		<path opacity=".3" d="m89.1 18.5v-2c0.3 0.1 0.5 0.1 0.8 0.1h1.7c2 0 3.7-1.7 3.7-3.7v-12.1c0.5 0.5 0.8 1.2 0.9 2v15.7c0 1.6-1.3 2.9-2.9 2.9h-1.3c-1.6 0-2.9-1.3-2.9-2.9z" fill="#EEAA1F"/>
		<path d="m155.6 21.4c3.5 0 6.4-2.9 6.4-6.4v-8.5c0-3.5-2.9-6.4-6.4-6.4h-50.7c-3.5 0-6.4 2.9-6.4 6.4v8.5c0 3.5 2.9 6.4 6.4 6.4h50.7z" fill="#FFCB07"/>
		<g fill="#F8B916">
			<path d="m108.6 15.5c-2.5 0-4.6-2.1-4.6-4.6v-0.4c0-2.5 2.1-4.6 4.6-4.6h43.4c2.5 0 4.6 2.1 4.6 4.6v0.4c0 2.5-2.1 4.6-4.6 4.6h-43.4z"/>
				<path d="m104.9 21.4h-0.4c-0.3-0.4-0.5-0.9-0.5-1.4v-0.3c0-1.7 2.1-3.1 4.6-3.1h43.4c2.5 0 4.6 1.4 4.6 3.1v0.3c0 0.5-0.2 1-0.5 1.4h-0.4-50.8z"/>
				<path d="m156.6 1.7c0 1.7-2.1 3.1-4.6 3.1h-43.4c-2.5 0-4.6-1.4-4.6-3.1v-0.3c0-0.5 0.2-1 0.5-1.4h0.4 50.7 0.4c0.3 0.4 0.5 0.9 0.5 1.4l0.1 0.3z"/>
		</g>
		<g fill="#FEE000">
			<path d="m155.8 10.9v-0.4c0-2.5-2.1-4.6-4.6-4.6h0.8c2.5 0 4.6 2.1 4.6 4.6v0.4c0 2.5-2.1 4.6-4.6 4.6h-0.8c2.5 0 4.6-2.1 4.6-4.6z"/>
			<path d="m155.8 1.7v-0.3c0-0.5-0.2-1-0.5-1.4h-0.4 0.8 0.4c0.3 0.4 0.5 0.9 0.5 1.4v0.3c0 1.7-2.1 3.1-4.6 3.1h-0.8c2.5 0 4.6-1.4 4.6-3.1z"/>
		</g>
		<g fill="#E4A424">
			<path d="m104 10.9v-0.4c0-2.5 2.1-4.6 4.6-4.6h0.8c-2.5 0-4.6 2.1-4.6 4.6v0.4c0 2.5 2.1 4.6 4.6 4.6h-0.8c-2.5 0-4.6-2.1-4.6-4.6z"/>
			<path d="m104.5 21.4c-0.3-0.4-0.5-0.9-0.5-1.4v-0.3c0-1.7 2.1-3.1 4.6-3.1h0.8c-2.5 0-4.6 1.4-4.6 3.1v0.3c0 0.5 0.2 1 0.5 1.4h0.4-0.8-0.4z"/>
			<path d="m104 1.7v-0.3c0-0.5 0.2-1 0.5-1.4h0.4 0.8-0.4c-0.3 0.4-0.5 0.9-0.5 1.4v0.3c0 1.7 2.1 3.1 4.6 3.1h-0.8c-2.5 0-4.6-1.4-4.6-3.1z"/>
		</g>
		<path opacity=".3" d="m98.6 16.1h0.8 1.2 52.5c3.8 0 6.9-3.1 6.9-6.9v-7.3c1.2 1.2 2 2.8 2 4.6v8.5c0 3.5-2.9 6.4-6.4 6.4h-50.7c-3.1 0-5.8-2.3-6.3-5.3z" fill="#EEAA1F"/>
		<polygon points="11.6 9.1 8.5 8.3 0 9.1 0 10.1 8.5 10.8 11.6 10.1" fill="#F3F3F3"/>
</svg>
