<?xml version="1.0" encoding="UTF-8" standalone="no"?>
<!-- Generator: Adobe Illustrator 17.1.0, SVG Export Plug-In . SVG Version: 6.00 Build 0)  -->
<!DOCTYPE svg  PUBLIC '-//W3C//DTD SVG 1.1//EN'  'http://www.w3.org/Graphics/SVG/1.1/DTD/svg11.dtd'>
<svg id="Layer_1" xmlns="http://www.w3.org/2000/svg" xml:space="preserve" viewBox="0 0 59.6 58.7" version="1.1" y="0px" x="0px" xmlns:xlink="http://www.w3.org/1999/xlink" enable-background="new 0 0 59.6 58.7">
	<polygon opacity=".2" points="57.2 51.7 41.9 56.6 20.4 53.4 4.5 58.7 0 5.3 56.8 3.3 54.3 18.2 59.6 36.3" fill="#1D1E1C"/>
	<polygon points="54.8 51 39.3 55.9 18 52.7 1.9 58 0 5.3 56.8 3.3 53.6 18 58 35.9" fill="#fff"/>
		<rect opacity=".4" transform="matrix(-.086999 -.9962 .9962 -.086999 28.59 34.714)" height="21.3" width="6.7" y="-6.4" x="26.9" fill="#E3E8EB"/>
	<g opacity=".6" fill="#1D1D1B">
		<path d="m19 33.5h-0.2l-8.2-3.6c-0.2-0.1-0.3-0.2-0.3-0.4s0.1-0.4 0.2-0.4l7.9-4.2c0.1 0 0.1-0.1 0.2-0.1 0.3 0 0.5 0.2 0.5 0.5 0 0.2-0.1 0.4-0.3 0.4l-7.1 3.7 7.3 3.2c0.2 0.1 0.3 0.2 0.3 0.4 0.2 0.2-0.1 0.4-0.3 0.5z"/>
		<path d="m32.6 19.8l-7 16.4c-0.1 0.3-0.3 0.4-0.5 0.4s-0.5-0.2-0.5-0.4c0-0.1 0-0.2 0.1-0.4l7-16.4c0.2-0.3 0.3-0.4 0.5-0.4s0.5 0.2 0.5 0.4c0 0.1 0 0.2-0.1 0.4z"/>
		<path d="m46.8 28.5l-7.9 4.2c-0.1 0-0.1 0.1-0.2 0.1-0.3 0-0.5-0.2-0.5-0.5 0-0.2 0.1-0.4 0.3-0.4l7.1-3.7-7.4-3.2c-0.2-0.1-0.3-0.2-0.3-0.4 0-0.3 0.2-0.5 0.5-0.5h0.2l8.2 3.6c0.2 0.1 0.3 0.2 0.3 0.4s-0.1 0.3-0.3 0.4z"/>
	</g>
</svg>
