<?xml version="1.0" encoding="UTF-8" standalone="no"?>
<!-- Generator: Adobe Illustrator 17.1.0, SVG Export Plug-In . SVG Version: 6.00 Build 0)  -->
<!DOCTYPE svg  PUBLIC '-//W3C//DTD SVG 1.1//EN'  'http://www.w3.org/Graphics/SVG/1.1/DTD/svg11.dtd'>
<svg id="Layer_1" xmlns="http://www.w3.org/2000/svg" xml:space="preserve" viewBox="0 0 145.8 61.3" version="1.1" y="0px" x="0px" xmlns:xlink="http://www.w3.org/1999/xlink" enable-background="new 0 0 145.8 61.3">
	<path opacity=".2" d="m16.1 11.7c-8.3 0-15.1 6.7-15.1 15.1 0 8.2 6.6 14.9 14.7 15.1v2.5c0 0.6 0.2 1.1 0.5 1.5l0.3 0.3 0.1 0.1c0.1 0.1 0.2 0.2 0.3 0.2 0 0 0.1 0.1 0.2 0.1s0.2 0.1 0.3 0.1 0.2 0.1 0.3 0.1 0.1 0 0.2 0.1c0.2 0 0.3 0.1 0.5 0.1h15v-1.2h9.2v-9.5h-9.2v-1.3h-15c-1.4 0-2.6 1.2-2.6 2.6v2c-7-0.2-12.5-5.9-12.5-12.8v-0.5c0.1-2.6 0.9-5 2.3-6.9 0.2-0.3 0.5-0.6 0.7-0.9l0.1-0.1c0.2-0.3 0.5-0.6 0.8-0.8l0.1-0.1c0.3-0.2 0.5-0.5 0.8-0.7 0.1-0.1 0.1-0.1 0.2-0.1 0.3-0.2 0.5-0.4 0.8-0.6 0.1-0.1 0.2-0.1 0.3-0.2 0.2-0.2 0.5-0.3 0.7-0.4 0.1-0.1 0.3-0.1 0.4-0.2 0.2-0.1 0.5-0.2 0.7-0.3s0.3-0.1 0.5-0.2 0.4-0.2 0.7-0.2c0.2-0.1 0.4-0.1 0.6-0.2 0.2 0 0.4-0.1 0.6-0.1 0.3-0.1 0.5-0.1 0.8-0.1 0.2 0 0.3-0.1 0.5-0.1 0.4 0 0.9-0.1 1.3-0.1h40.6v-2.4h-40.7z" fill="#1D1D1B"/>
		<path d="m15.1 10.7c-8.3 0-15.1 6.7-15.1 15.1s6.8 15.1 15.1 15.1v-2.3c-7.1 0-12.8-5.7-12.8-12.8s5.7-12.9 12.8-12.9h40.6v-2.3h-40.6z" fill="#585857"/>
		<g fill="#4B4B4A">
			<path d="m0 25.3v0.5c0 8.3 6.8 15.1 15.1 15.1v-0.9c-8.2 0-14.8-6.6-15.1-14.7z"/>
			<path d="m2.3 24.9v0.5c0.2-6.9 5.9-12.4 12.8-12.4h40.6v-1h-40.6c-7.1 0-12.8 5.8-12.8 12.9z"/>
		</g>
				<rect y="35.2" x="32.3" height="9.5" width="9.2" fill="#BCBABB"/>
				<rect y="44.3" x="32.3" height=".5" width="9.2" fill="#717070"/>
				<rect y="35.2" x="32.3" height=".4" width="9.2" fill="#F0EFEF"/>
				<path d="m14.7 43.4v-6.8c0-1.4 1.2-2.6 2.6-2.6h7.1 5.3 2.6v2.6 6.8 2.6h-2.6-5.3-7.1c-1.4 0-2.6-1.2-2.6-2.6z" fill="#4B4B4A"/>
				<path opacity=".2" d="m14.7 43.6c0.5 0.4 1 0.6 1.6 0.6h7.7 5.6 2.7v1.8h-2.6-5.3-7.1c-1.3 0-2.4-1.1-2.6-2.4z" fill="#1D1D1B"/>
				<rect y="36.9" x="36.1" height="2.1" width="1.7" fill="#626362"/>
				<rect y="41" x="36.1" height="2.1" width="1.7" fill="#626362"/>
				<rect y="41.8" x="34.1" height=".6" width=".5" fill="#626362"/>
				<polygon points="34.1 37.6 34.6 37.6 34.1 38.2" fill="#9C9B99"/>
				<polygon points="34.6 37.6 34.6 38.2 34.1 38.2" fill="#F0EFEF"/>
				<polygon points="34.1 41.8 34.6 41.8 34.1 42.4" fill="#9C9B99"/>
				<polygon points="34.6 41.8 34.6 42.4 34.1 42.4" fill="#F0EFEF"/>
				<rect opacity=".2" height="9.1" width=".9" y="35.2" x="32.3" fill="#1D1E1C"/>
		<path opacity=".2" d="m58.8 10c0-3.8 3.2-7 7-7h73c3.8 0 7 3.2 7 7v44.3c0 3.9-3.2 7-7 7h-73c-3.8 0-7-3.2-7-7v-44.3z" fill="#1D1D1B"/>
		<path d="m55.8 51.3c0 3.8 3.1 7 7 7h73c3.9 0 7-3.2 7-7v-44.3c0-3.8-3.1-7-7-7h-73c-3.9 0-7 3.2-7 7v44.3z" fill="#4B4B4A"/>
		<path opacity=".2" d="m62.2 57.5h74c2.3 0 4.3-1.1 5.6-2.8-1.2 2.2-3.5 3.7-6.1 3.7h-73c-2.6 0-5-1.5-6.1-3.7 1.3 1.7 3.4 2.8 5.6 2.8z" fill="#1D1D1B"/>
			<path opacity=".1" d="m55.8 43.5v-36.5c0-3.9 3.1-7 7-7h73c3.8 0 7 3.1 7 7v9.3l-87 27.2z" fill="#fff"/>
</svg>
