<?xml version="1.0" encoding="UTF-8" standalone="no"?>
<!-- Generator: Adobe Illustrator 17.1.0, SVG Export Plug-In . SVG Version: 6.00 Build 0)  -->
<!DOCTYPE svg  PUBLIC '-//W3C//DTD SVG 1.1//EN'  'http://www.w3.org/Graphics/SVG/1.1/DTD/svg11.dtd'>
<svg id="Layer_1" xmlns="http://www.w3.org/2000/svg" xml:space="preserve" viewBox="0 0 165.5 36.8" version="1.1" y="0px" x="0px" xmlns:xlink="http://www.w3.org/1999/xlink" enable-background="new 0 0 165.5 36.8">
	<g opacity=".2" fill="#1D1E1C">
		<path d="m165.5 24.7l-8 1.5-8.1 1.5s-2.2-2.1-3.1-7.1c-0.1-0.3-0.1-0.5-0.1-0.8 0-0.2 0-0.3-0.1-0.5v-0.3-0.6-0.1-0.7-0.6c0-2.3 0.5-3.8 0.7-4.1l8-1.5 7.6-1.4 0.4-0.1c-0.1-0.1-0.2-0.2-0.3-0.4l-0.1-0.1c-3.7-4.6-9.8-7-16-5.9-0.5 0.1-0.9 0.2-1.4 0.3h-0.2c-0.4 0.1-0.9 0.3-1.3 0.4-0.1 0-0.1 0.1-0.2 0.1-0.4 0.2-0.8 0.3-1.2 0.5-0.1 0-0.1 0.1-0.2 0.1l-1.2 0.6s-0.1 0-0.1 0.1c-0.4 0.2-0.8 0.5-1.1 0.8-0.4 0.3-0.7 0.6-1.1 0.9l-0.1 0.1c-0.3 0.3-0.7 0.6-1 0.9l-0.1 0.1c-0.3 0.3-0.6 0.6-0.9 1 0 0 0 0.1-0.1 0.1-0.6 0.8-1.2 1.6-1.7 2.5h-60.5-44.8c-0.8-1.2-1.8-2.3-2.9-3.3-0.5-0.4-1-0.8-1.5-1.1-3-2-6.8-2.8-10.6-2.1-5.7 1-10 5.2-11.5 10.4l14.3-2.7 0.3 0.3c0.1 0.2 0.3 0.4 0.5 0.7 0 0 0.1 0.1 0.1 0.2 0.1 0.2 0.2 0.3 0.3 0.5 0.2 0.3 0.3 0.7 0.5 1.1 0.4 0.9 0.7 2 1 3.4 0.1 0.5 0.1 0.9 0.2 1.3v0.1c0 0.4 0.1 0.8 0.1 1.2v0.4c0 2.1-0.5 3.4-0.6 3.7v0.1l-13.7 2.6-0.4 0.1 0.2 0.2 0.1 0.1c1.4 1.8 3.3 3.2 5.4 4.2 0.8 0.4 1.6 0.6 2.4 0.9 0.1 0 0.2 0.1 0.3 0.1 1.9 0.5 4 0.5 6.1 0.2 0.5-0.1 0.9-0.2 1.4-0.3 0.1 0 0.3-0.1 0.4-0.1 0.3-0.1 0.6-0.2 0.9-0.3 0.2-0.1 0.3-0.1 0.5-0.2 0.3-0.1 0.5-0.2 0.8-0.4 0.2-0.1 0.3-0.2 0.5-0.3s0.5-0.3 0.7-0.4 0.3-0.2 0.5-0.3 0.4-0.3 0.6-0.5c0.2-0.1 0.3-0.2 0.5-0.4s0.4-0.3 0.6-0.5l0.4-0.4c0.2-0.2 0.3-0.4 0.5-0.6 0.1-0.2 0.3-0.3 0.4-0.5 0.2-0.2 0.3-0.4 0.5-0.6 0.1-0.2 0.2-0.3 0.3-0.5 0.1-0.1 0.1-0.2 0.2-0.3h105.1c3.4 6.2 10.4 9.8 17.7 8.5 1.9-0.3 3.7-1 5.3-1.9 3.8-2.2 6.6-5.7 7.9-9.9z"/>
		<path d="m165.4 24.7l-8 1.5-8.1 1.5s-2.2-2.1-3.1-7.1c-0.1-0.3-0.1-0.5-0.1-0.8 0-0.2 0-0.3-0.1-0.5v-0.3-0.6-0.1-0.7-0.6c0-2.3 0.5-3.8 0.7-4.1l8-1.5 7.6-1.4 0.4-0.1c-0.1-0.1-0.2-0.2-0.3-0.4l-0.1-0.1c-3.7-4.6-9.8-7-16-5.9-0.5 0.1-0.9 0.2-1.4 0.3h-0.2c-0.4 0.1-0.9 0.3-1.3 0.4-0.1 0-0.1 0.1-0.2 0.1-0.4 0.2-0.8 0.3-1.2 0.5-0.1 0-0.1 0.1-0.2 0.1l-1.2 0.6s-0.1 0-0.1 0.1c-0.4 0.2-0.8 0.5-1.1 0.8-0.4 0.3-0.7 0.6-1.1 0.9l-0.1 0.1c-0.3 0.3-0.7 0.6-1 0.9l-0.1 0.1c-0.3 0.3-0.6 0.6-0.9 1 0 0 0 0.1-0.1 0.1-0.6 0.8-1.2 1.6-1.7 2.5h-60.5-44.8c-0.8-1.2-1.8-2.3-2.9-3.3-0.5-0.4-1-0.8-1.5-1.1-3-2-6.8-2.8-10.6-2.1-5.7 1-10 5.2-11.5 10.4l14.4-2.7 0.3 0.3c0.1 0.2 0.3 0.4 0.5 0.7 0 0 0.1 0.1 0.1 0.2 0.1 0.2 0.2 0.3 0.3 0.5 0.2 0.3 0.3 0.7 0.5 1.1 0.4 0.9 0.7 2 1 3.4 0.1 0.5 0.1 0.9 0.2 1.3v0.1c0 0.4 0.1 0.8 0.1 1.2v0.4c0 2.1-0.5 3.4-0.6 3.7v0.1l-13.8 2.5-0.4 0.1 0.2 0.2 0.1 0.1c1.4 1.8 3.3 3.2 5.4 4.2 0.8 0.4 1.6 0.6 2.4 0.9 0.1 0 0.2 0.1 0.3 0.1 1.9 0.5 4 0.5 6.1 0.2 0.5-0.1 0.9-0.2 1.4-0.3 0.1 0 0.3-0.1 0.4-0.1 0.3-0.1 0.6-0.2 0.9-0.3 0.2-0.1 0.3-0.1 0.5-0.2 0.3-0.1 0.5-0.2 0.8-0.4 0.2-0.1 0.3-0.2 0.5-0.3s0.5-0.3 0.7-0.4 0.3-0.2 0.5-0.3 0.4-0.3 0.6-0.5c0.2-0.1 0.3-0.2 0.5-0.4s0.4-0.3 0.6-0.5l0.4-0.4c0.2-0.2 0.3-0.4 0.5-0.6 0.1-0.2 0.3-0.3 0.4-0.5 0.2-0.2 0.3-0.4 0.5-0.6 0.1-0.2 0.2-0.3 0.3-0.5 0.1-0.1 0.1-0.2 0.2-0.3l105.2 0.1c3.4 6.2 10.4 9.8 17.7 8.5 1.9-0.3 3.7-1 5.3-1.9 3.8-2.2 6.6-5.8 7.8-9.9z"/>
		<path d="m165.3 24.6l-8 1.5-8.1 1.5s-2.2-2.1-3.1-7.1c-0.1-0.3-0.1-0.5-0.1-0.8 0-0.2 0-0.3-0.1-0.5v-0.3-0.6-0.1-0.7-0.6c0-2.3 0.5-3.8 0.7-4.1l8-1.5 7.6-1.4 0.4-0.1c-0.1-0.1-0.2-0.2-0.3-0.4l-0.1-0.1c-3.7-4.6-9.8-7-16-5.9-0.5 0.1-0.9 0.2-1.4 0.3h-0.2c-0.4 0.1-0.9 0.3-1.3 0.4-0.1 0-0.1 0.1-0.2 0.1-0.4 0.2-0.8 0.3-1.2 0.5-0.1 0-0.1 0.1-0.2 0.1l-1.2 0.6s-0.1 0-0.1 0.1c-0.4 0.2-0.8 0.5-1.1 0.8-0.4 0.3-0.7 0.6-1.1 0.9l-0.1 0.1c-0.3 0.3-0.7 0.6-1 0.9l-0.1 0.1c-0.3 0.3-0.6 0.6-0.9 1 0 0 0 0.1-0.1 0.1-0.6 0.8-1.2 1.6-1.7 2.5h-60.5-44.8c-0.8-1.2-1.8-2.3-2.9-3.3-0.5-0.4-1-0.8-1.5-1.1-3-2-6.8-2.8-10.6-2.1-5.7 1-10 5.2-11.5 10.4l14.1-2.6 0.3 0.3c0.1 0.2 0.3 0.4 0.5 0.7 0 0 0.1 0.1 0.1 0.2 0.1 0.2 0.2 0.3 0.3 0.5 0.2 0.3 0.3 0.7 0.5 1.1 0.4 0.9 0.7 2 1 3.4 0.1 0.5 0.1 0.9 0.2 1.3v0.1c0 0.4 0.1 0.8 0.1 1.2v0.4c0 2.1-0.5 3.4-0.6 3.7v0.1l-13.5 2.4-0.4 0.1 0.2 0.2 0.1 0.1c1.4 1.8 3.3 3.2 5.4 4.2 0.8 0.4 1.6 0.6 2.4 0.9 0.1 0 0.2 0.1 0.3 0.1 1.9 0.5 4 0.5 6.1 0.2 0.5-0.1 0.9-0.2 1.4-0.3 0.1 0 0.3-0.1 0.4-0.1 0.3-0.1 0.6-0.2 0.9-0.3 0.2-0.1 0.3-0.1 0.5-0.2 0.3-0.1 0.5-0.2 0.8-0.4 0.2-0.1 0.3-0.2 0.5-0.3s0.5-0.3 0.7-0.4 0.3-0.2 0.5-0.3 0.4-0.3 0.6-0.5c0.2-0.1 0.3-0.2 0.5-0.4s0.4-0.3 0.6-0.5l0.4-0.4c0.2-0.2 0.3-0.4 0.5-0.6 0.1-0.2 0.3-0.3 0.4-0.5 0.2-0.2 0.3-0.4 0.5-0.6 0.1-0.2 0.2-0.3 0.3-0.5 0.1-0.1 0.1-0.2 0.2-0.3l105.2 0.1c3.4 6.2 10.4 9.8 17.7 8.5 1.9-0.3 3.7-1 5.3-1.9 3.8-2.2 6.6-5.8 7.8-9.9z"/>
		<path d="m165.3 24.5l-8 1.5-8.1 1.5s-2.2-2.1-3.1-7.1c-0.1-0.3-0.1-0.5-0.1-0.8 0-0.2 0-0.3-0.1-0.5v-0.3-0.6-0.1-0.7-0.6c0-2.3 0.5-3.8 0.7-4.1l8-1.5 7.6-1.4 0.4-0.1c-0.1-0.1-0.2-0.2-0.3-0.4l-0.1-0.1c-3.7-4.6-9.8-7-16-5.9-0.5 0.1-0.9 0.2-1.4 0.3h-0.2c-0.4 0.1-0.9 0.3-1.3 0.4-0.1 0-0.1 0.1-0.2 0.1-0.4 0.2-0.8 0.3-1.2 0.5-0.1 0-0.1 0.1-0.2 0.1l-1.2 0.6s-0.1 0-0.1 0.1c-0.4 0.2-0.8 0.5-1.1 0.8-0.4 0.3-0.7 0.6-1.1 0.9l-0.1 0.1c-0.3 0.3-0.7 0.6-1 0.9l-0.1 0.1c-0.3 0.3-0.6 0.6-0.9 1 0 0 0 0.1-0.1 0.1-0.6 0.8-1.2 1.6-1.7 2.5h-60.5-44.8c-0.8-1.2-1.8-2.3-2.9-3.3-0.5-0.4-1-0.8-1.5-1.1-3-2-6.8-2.8-10.6-2.1-5.7 1-10 5.2-11.5 10.4l14.4-2.7 0.3 0.3c0.1 0.2 0.3 0.4 0.5 0.7 0 0 0.1 0.1 0.1 0.2 0.1 0.2 0.2 0.3 0.3 0.5 0.2 0.3 0.3 0.7 0.5 1.1 0.4 0.9 0.7 2 1 3.4 0.1 0.5 0.1 0.9 0.2 1.3v0.1c0 0.4 0.1 0.8 0.1 1.2v0.4c0 2.1-0.5 3.4-0.6 3.7v0.1l-13.8 2.6-0.4 0.1 0.2 0.2 0.1 0.1c1.4 1.8 3.3 3.2 5.4 4.2 0.8 0.4 1.6 0.6 2.4 0.9 0.1 0 0.2 0.1 0.3 0.1 1.9 0.5 4 0.5 6.1 0.2 0.5-0.1 0.9-0.2 1.4-0.3 0.1 0 0.3-0.1 0.4-0.1 0.3-0.1 0.6-0.2 0.9-0.3 0.2-0.1 0.3-0.1 0.5-0.2 0.3-0.1 0.5-0.2 0.8-0.4 0.2-0.1 0.3-0.2 0.5-0.3s0.5-0.3 0.7-0.4 0.3-0.2 0.5-0.3 0.4-0.3 0.6-0.5c0.2-0.1 0.3-0.2 0.5-0.4s0.4-0.3 0.6-0.5l0.4-0.4c0.2-0.2 0.3-0.4 0.5-0.6 0.1-0.2 0.3-0.3 0.4-0.5 0.2-0.2 0.3-0.4 0.5-0.6 0.1-0.2 0.2-0.3 0.3-0.5 0.1-0.1 0.1-0.2 0.2-0.3l105.2 0.1c3.4 6.2 10.4 9.8 17.7 8.5 1.9-0.3 3.7-1 5.3-1.9 3.8-2.3 6.6-5.8 7.8-10z"/>
		<path d="m165.2 24.5l-8 1.5-8.1 1.5s-2.2-2.1-3.1-7.1c-0.1-0.3-0.1-0.5-0.1-0.8 0-0.2 0-0.3-0.1-0.5v-0.3-0.6-0.1-0.7-0.6c0-2.3 0.5-3.8 0.7-4.1l8-1.5 7.6-1.4 0.4-0.1c-0.1-0.1-0.2-0.2-0.3-0.4l-0.1-0.1c-3.7-4.6-9.8-7-16-5.9-0.5 0.1-0.9 0.2-1.4 0.3h-0.2c-0.4 0.1-0.9 0.3-1.3 0.4-0.1 0-0.1 0.1-0.2 0.1-0.4 0.2-0.8 0.3-1.2 0.5-0.1 0-0.1 0.1-0.2 0.1l-1.2 0.6s-0.1 0-0.1 0.1c-0.4 0.2-0.8 0.5-1.1 0.8-0.4 0.3-0.7 0.6-1.1 0.9l-0.1 0.1c-0.3 0.3-0.7 0.6-1 0.9l-0.1 0.1c-0.3 0.3-0.6 0.6-0.9 1 0 0 0 0.1-0.1 0.1-0.6 0.8-1.2 1.6-1.7 2.5h-60.5-44.8c-0.8-1.2-1.8-2.3-2.9-3.3-0.5-0.4-1-0.8-1.5-1.1-3-2-6.8-2.8-10.6-2.1-5.7 1-10 5.2-11.5 10.4l14.4-2.7 0.3 0.3c0.1 0.2 0.3 0.4 0.5 0.7 0 0 0.1 0.1 0.1 0.2 0.1 0.2 0.2 0.3 0.3 0.5 0.2 0.3 0.3 0.7 0.5 1.1 0.4 0.9 0.7 2 1 3.4 0.1 0.5 0.1 0.9 0.2 1.3v0.1c0 0.4 0.1 0.8 0.1 1.2v0.4c0 2.1-0.5 3.4-0.6 3.7v0.1l-13.8 2.5-0.4 0.1 0.2 0.2 0.1 0.1c1.4 1.8 3.3 3.2 5.4 4.2 0.8 0.4 1.6 0.6 2.4 0.9 0.1 0 0.2 0.1 0.3 0.1 1.9 0.5 4 0.5 6.1 0.2 0.5-0.1 0.9-0.2 1.4-0.3 0.1 0 0.3-0.1 0.4-0.1 0.3-0.1 0.6-0.2 0.9-0.3 0.2-0.1 0.3-0.1 0.5-0.2 0.3-0.1 0.5-0.2 0.8-0.4 0.2-0.1 0.3-0.2 0.5-0.3s0.5-0.3 0.7-0.4 0.3-0.2 0.5-0.3 0.4-0.3 0.6-0.5c0.2-0.1 0.3-0.2 0.5-0.4s0.4-0.3 0.6-0.5l0.4-0.4c0.2-0.2 0.3-0.4 0.5-0.6 0.1-0.2 0.3-0.3 0.4-0.5 0.2-0.2 0.3-0.4 0.5-0.6 0.1-0.2 0.2-0.3 0.3-0.5 0.1-0.1 0.1-0.2 0.2-0.3l105.2 0.1c3.4 6.2 10.4 9.8 17.7 8.5 1.9-0.3 3.7-1 5.3-1.9 3.8-2.2 6.6-5.8 7.8-9.9z"/>
		<path d="m165.2 24.4l-8 1.5-8.1 1.5s-2.2-2.1-3.1-7.1c-0.1-0.3-0.1-0.5-0.1-0.8 0-0.2 0-0.3-0.1-0.5v-0.3-0.6-0.1-0.7-0.6c0-2.3 0.5-3.8 0.7-4.1l8-1.5 7.6-1.4 0.4-0.1c-0.1-0.1-0.2-0.2-0.3-0.4l-0.1-0.1c-3.7-4.6-9.8-7-16-5.9-0.5 0.1-0.9 0.2-1.4 0.3h-0.2c-0.4 0.1-0.9 0.3-1.3 0.4-0.1 0-0.1 0.1-0.2 0.1-0.4 0.2-0.8 0.3-1.2 0.5-0.1 0-0.1 0.1-0.2 0.1l-1.2 0.6s-0.1 0-0.1 0.1c-0.4 0.2-0.8 0.5-1.1 0.8-0.4 0.3-0.7 0.6-1.1 0.9l-0.1 0.1c-0.3 0.3-0.7 0.6-1 0.9l-0.1 0.1c-0.3 0.3-0.6 0.6-0.9 1 0 0 0 0.1-0.1 0.1-0.6 0.8-1.2 1.6-1.7 2.5h-60.5-44.8c-0.8-1.2-1.8-2.3-2.9-3.3-0.5-0.4-1-0.8-1.5-1.1-3-2-6.8-2.8-10.6-2.1-5.7 1-10 5.2-11.5 10.4l14.1-2.6 0.3 0.3c0.1 0.2 0.3 0.4 0.5 0.7 0 0 0.1 0.1 0.1 0.2 0.1 0.2 0.2 0.3 0.3 0.5 0.2 0.3 0.3 0.7 0.5 1.1 0.4 0.9 0.7 2 1 3.4 0.1 0.5 0.1 0.9 0.2 1.3v0.1c0 0.4 0.1 0.8 0.1 1.2v0.4c0 2.1-0.5 3.4-0.6 3.7v0.1l-13.5 2.5h-0.4l0.2 0.2 0.1 0.1c1.4 1.8 3.3 3.2 5.4 4.2 0.8 0.4 1.6 0.6 2.4 0.9 0.1 0 0.2 0.1 0.3 0.1 1.9 0.5 4 0.5 6.1 0.2 0.5-0.1 0.9-0.2 1.4-0.3 0.1 0 0.3-0.1 0.4-0.1 0.3-0.1 0.6-0.2 0.9-0.3 0.2-0.1 0.3-0.1 0.5-0.2 0.3-0.1 0.5-0.2 0.8-0.4 0.2-0.1 0.3-0.2 0.5-0.3s0.5-0.3 0.7-0.4 0.3-0.2 0.5-0.3 0.4-0.3 0.6-0.5c0.2-0.1 0.3-0.2 0.5-0.4s0.4-0.3 0.6-0.5l0.4-0.4c0.2-0.2 0.3-0.4 0.5-0.6 0.1-0.2 0.3-0.3 0.4-0.5 0.2-0.2 0.3-0.4 0.5-0.6 0.1-0.2 0.2-0.3 0.3-0.5 0.1-0.1 0.1-0.2 0.2-0.3l105.2 0.1c3.4 6.2 10.4 9.8 17.7 8.5 1.9-0.3 3.7-1 5.3-1.9 3.8-2.2 6.6-5.7 7.8-9.9z"/>
		<path d="m165.1 24.4l-8 1.5-8.1 1.5s-2.2-2.1-3.1-7.1c-0.1-0.3-0.1-0.5-0.1-0.8 0-0.2 0-0.3-0.1-0.5v-0.3-0.6-0.1-0.7-0.6c0-2.3 0.5-3.8 0.7-4.1l8-1.5 7.6-1.4 0.4-0.1c-0.1-0.1-0.2-0.2-0.3-0.4l-0.1-0.1c-3.7-4.6-9.8-7-16-5.9-0.5 0.1-0.9 0.2-1.4 0.3h-0.2c-0.4 0.1-0.9 0.3-1.3 0.4 0 0.1 0 0.1-0.1 0.1-0.4 0.2-0.8 0.3-1.2 0.5-0.1 0-0.1 0.1-0.2 0.1l-1.2 0.6s-0.1 0-0.1 0.1c-0.4 0.2-0.8 0.5-1.1 0.8-0.4 0.3-0.7 0.6-1.1 0.9l-0.1 0.1c-0.3 0.3-0.7 0.6-1 0.9l-0.1 0.1c-0.3 0.3-0.6 0.6-0.9 1 0 0 0 0.1-0.1 0.1-0.6 0.8-1.2 1.6-1.7 2.5h-60.5-44.8c-0.8-1.2-1.8-2.3-2.9-3.3-0.5-0.4-1-0.8-1.5-1.1-3-2-6.8-2.8-10.6-2.1-5.7 1-10 5.2-11.5 10.4l14.1-2.6 0.3 0.3c0.1 0.2 0.3 0.4 0.5 0.7 0 0 0.1 0.1 0.1 0.2 0.1 0.2 0.2 0.3 0.3 0.5 0.2 0.3 0.3 0.7 0.5 1.1 0.4 0.9 0.7 2 1 3.4 0.1 0.5 0.1 0.9 0.2 1.3v0.1c0 0.4 0.1 0.8 0.1 1.2v0.4c0 2.1-0.5 3.4-0.6 3.7v0.1l-13.6 2.4-0.4 0.1 0.2 0.2 0.1 0.1c1.4 1.8 3.3 3.2 5.4 4.2 0.8 0.4 1.6 0.6 2.4 0.9 0.1 0 0.2 0.1 0.3 0.1 1.9 0.5 4 0.5 6.1 0.2 0.5-0.1 0.9-0.2 1.4-0.3 0.1 0 0.3-0.1 0.4-0.1 0.3-0.1 0.6-0.2 0.9-0.3 0.2-0.1 0.3-0.1 0.5-0.2 0.3-0.1 0.5-0.2 0.8-0.4 0.2-0.1 0.3-0.2 0.5-0.3s0.5-0.3 0.7-0.4 0.3-0.2 0.5-0.3 0.4-0.3 0.6-0.5c0.2-0.1 0.3-0.2 0.5-0.4s0.4-0.3 0.6-0.5l0.4-0.4c0.2-0.2 0.3-0.4 0.5-0.6 0.1-0.2 0.3-0.3 0.4-0.5 0.2-0.2 0.3-0.4 0.5-0.6 0.1-0.2 0.2-0.3 0.3-0.5 0.1-0.1 0.1-0.2 0.2-0.3l105.2 0.1c3.4 6.2 10.4 9.8 17.7 8.5 1.9-0.3 3.7-1 5.3-1.9 3.8-2.3 6.6-5.8 7.8-9.9z"/>
		<path d="m165.1 24.3l-8 1.5-8.1 1.5s-2.2-2.1-3.1-7.1c-0.1-0.3-0.1-0.5-0.1-0.8 0-0.2 0-0.3-0.1-0.5v-0.3-0.6-0.1-0.7-0.6c0-2.3 0.5-3.8 0.7-4.1l8-1.5 7.6-1.4 0.4-0.1c-0.1-0.1-0.2-0.2-0.3-0.4l-0.1-0.1c-3.7-4.6-9.8-7-16-5.9-0.5 0.1-0.9 0.2-1.4 0.3h-0.2c-0.4 0.1-0.9 0.3-1.3 0.4-0.1 0-0.1 0.1-0.2 0.1-0.4 0.2-0.8 0.3-1.2 0.5-0.1 0-0.1 0.1-0.2 0.1l-1.2 0.6s-0.1 0-0.1 0.1c-0.4 0.2-0.8 0.5-1.1 0.8-0.4 0.3-0.7 0.6-1.1 0.9l-0.1 0.1c-0.3 0.3-0.7 0.6-1 0.9l-0.1 0.1c-0.3 0.3-0.6 0.6-0.9 1 0 0 0 0.1-0.1 0.1-0.6 0.8-1.2 1.6-1.7 2.5h-60.5-44.8c-0.8-1.2-1.8-2.3-2.9-3.3-0.5-0.4-1-0.8-1.5-1.1-3-2-6.8-2.8-10.6-2.1-5.5 0.9-9.8 5.1-11.3 10.3l14.1-2.6 0.3 0.3c0.1 0.2 0.3 0.4 0.5 0.7 0 0 0.1 0.1 0.1 0.2 0.1 0.2 0.2 0.3 0.3 0.5 0.2 0.3 0.3 0.7 0.5 1.1 0.4 0.9 0.7 2 1 3.4 0.1 0.5 0.1 0.9 0.2 1.3v0.1c0 0.4 0.1 0.8 0.1 1.2v0.4c0 2.1-0.5 3.4-0.6 3.7v0.1l-13.7 2.5-0.4 0.1 0.2 0.2 0.1 0.1c1.4 1.8 3.3 3.2 5.4 4.2 0.8 0.4 1.6 0.6 2.4 0.9 0.1 0 0.2 0.1 0.3 0.1 1.9 0.5 4 0.5 6.1 0.2 0.5-0.1 0.9-0.2 1.4-0.3 0.1 0 0.3-0.1 0.4-0.1 0.3-0.1 0.6-0.2 0.9-0.3 0.2-0.1 0.3-0.1 0.5-0.2 0.3-0.1 0.5-0.2 0.8-0.4 0.2-0.1 0.3-0.2 0.5-0.3s0.5-0.3 0.7-0.4 0.3-0.2 0.5-0.3 0.4-0.3 0.6-0.5c0.2-0.1 0.3-0.2 0.5-0.4s0.4-0.3 0.6-0.5l0.4-0.4c0.2-0.2 0.3-0.4 0.5-0.6 0.1-0.2 0.3-0.3 0.4-0.5 0.2-0.2 0.3-0.4 0.5-0.6 0.1-0.2 0.2-0.3 0.3-0.5 0.1-0.1 0.1-0.2 0.2-0.3l105.2 0.1c3.4 6.2 10.4 9.8 17.7 8.5 1.9-0.3 3.7-1 5.3-1.9 3.7-2.2 6.5-5.8 7.8-9.9z"/>
		<path d="m165 24.2l-8 1.5-8.1 1.5s-2.2-2.1-3.1-7.1c-0.1-0.3-0.1-0.5-0.1-0.8 0-0.2 0-0.3-0.1-0.5v-0.3-0.6-0.1-0.7-0.6c0-2.3 0.5-3.8 0.7-4.1l8-1.5 7.6-1.4 0.4-0.1c-0.1-0.1-0.2-0.2-0.3-0.4l-0.1-0.1c-3.7-4.6-9.8-7-16-5.9-0.5 0.1-0.9 0.2-1.4 0.3h-0.2c-0.4 0.1-0.9 0.3-1.3 0.4-0.1 0-0.1 0.1-0.2 0.1-0.4 0.2-0.8 0.3-1.2 0.5-0.1 0-0.1 0.1-0.2 0.1l-1.2 0.6s-0.1 0-0.1 0.1c-0.4 0.2-0.8 0.5-1.1 0.8-0.4 0.3-0.7 0.6-1.1 0.9l-0.1 0.1c-0.3 0.3-0.7 0.6-1 0.9l-0.1 0.1c-0.3 0.3-0.6 0.6-0.9 1 0 0 0 0.1-0.1 0.1-0.6 0.8-1.2 1.6-1.7 2.5h-60.5-44.8c-0.8-1.2-1.8-2.3-2.9-3.3-0.5-0.4-1-0.8-1.5-1.1-3-2-6.8-2.8-10.6-2.1-5.4 1-9.7 5.1-11.3 10.3l14.1-2.6 0.3 0.3c0.1 0.2 0.3 0.4 0.5 0.7 0 0 0.1 0.1 0.1 0.2 0.1 0.2 0.2 0.3 0.3 0.5 0.2 0.3 0.3 0.7 0.5 1.1 0.4 0.9 0.7 2 1 3.4 0.1 0.5 0.1 0.9 0.2 1.3v0.1c0 0.4 0.1 0.8 0.1 1.2v0.4c0 2.1-0.5 3.4-0.6 3.7v0.1l-13.7 2.6-0.4 0.1 0.2 0.2 0.1 0.1c1.4 1.8 3.3 3.2 5.4 4.2 0.8 0.4 1.6 0.6 2.4 0.9 0.1 0 0.2 0.1 0.3 0.1 1.9 0.5 4 0.5 6.1 0.2 0.5-0.1 0.9-0.2 1.4-0.3 0.1 0 0.3-0.1 0.4-0.1 0.3-0.1 0.6-0.2 0.9-0.3 0.2-0.1 0.3-0.1 0.5-0.2 0.3-0.1 0.5-0.2 0.8-0.4 0.2-0.1 0.3-0.2 0.5-0.3s0.5-0.3 0.7-0.4 0.3-0.2 0.5-0.3 0.4-0.3 0.6-0.5c0.2-0.1 0.3-0.2 0.5-0.4s0.4-0.3 0.6-0.5l0.4-0.4c0.2-0.2 0.3-0.4 0.5-0.6 0.1-0.2 0.3-0.3 0.4-0.5 0.2-0.2 0.3-0.4 0.5-0.6 0.1-0.2 0.2-0.3 0.3-0.5 0.1-0.1 0.1-0.2 0.2-0.3l105.2 0.1c3.4 6.2 10.4 9.8 17.7 8.5 1.9-0.3 3.7-1 5.3-1.9 3.8-2.3 6.6-5.8 7.8-10z"/>
		<path d="m164.9 24.2l-8 1.5-8.1 1.5s-2.2-2.1-3.1-7.1c-0.1-0.3-0.1-0.5-0.1-0.8 0-0.2 0-0.3-0.1-0.5v-0.3-0.6-0.1-0.7-0.6c0-2.3 0.5-3.8 0.7-4.1l8-1.5 7.6-1.4 0.4-0.1c-0.1-0.1-0.2-0.2-0.3-0.4l-0.1-0.1c-3.7-4.6-9.8-7-16-5.9-0.5 0.1-0.9 0.2-1.4 0.3h-0.2c-0.4 0.1-0.9 0.3-1.3 0.4-0.1 0-0.1 0.1-0.2 0.1-0.4 0.2-0.8 0.3-1.2 0.5-0.1 0-0.1 0.1-0.2 0.1l-1.2 0.6s-0.1 0-0.1 0.1c-0.4 0.2-0.8 0.5-1.1 0.8-0.4 0.3-0.7 0.6-1.1 0.9l-0.1 0.1c-0.3 0.3-0.7 0.6-1 0.9l-0.1 0.1c-0.3 0.3-0.6 0.6-0.9 1 0 0 0 0.1-0.1 0.1-0.6 0.8-1.2 1.6-1.7 2.5h-60.5-44.8c-0.8-1.2-1.8-2.3-2.9-3.3-0.5-0.4-1-0.8-1.5-1.1-3-2-6.8-2.8-10.6-2.1-5.7 1-10 5.2-11.5 10.4l14.1-2.6 0.3 0.3c0.1 0.2 0.3 0.4 0.5 0.7 0 0 0.1 0.1 0.1 0.2 0.1 0.2 0.2 0.3 0.3 0.5 0.2 0.3 0.3 0.7 0.5 1.1 0.4 0.9 0.7 2 1 3.4 0.1 0.5 0.1 0.9 0.2 1.3v0.1c0 0.4 0.1 0.8 0.1 1.2v0.4c0 2.1-0.5 3.4-0.6 3.7v0.1l-13.5 2.4-0.4 0.1 0.2 0.2 0.1 0.1c1.4 1.8 3.3 3.2 5.4 4.2 0.8 0.4 1.6 0.6 2.4 0.9 0.1 0 0.2 0.1 0.3 0.1 1.9 0.5 4 0.5 6.1 0.2 0.5-0.1 0.9-0.2 1.4-0.3 0.1 0 0.3-0.1 0.4-0.1 0.3-0.1 0.6-0.2 0.9-0.3 0.2-0.1 0.3-0.1 0.5-0.2 0.3-0.1 0.5-0.2 0.8-0.4 0.2-0.1 0.3-0.2 0.5-0.3s0.5-0.3 0.7-0.4 0.3-0.2 0.5-0.3 0.4-0.3 0.6-0.5c0.2-0.1 0.3-0.2 0.5-0.4s0.4-0.3 0.6-0.5l0.4-0.4c0.2-0.2 0.3-0.4 0.5-0.6 0.1-0.2 0.3-0.3 0.4-0.5 0.2-0.2 0.3-0.4 0.5-0.6 0.1-0.2 0.2-0.3 0.3-0.5 0.1-0.1 0.1-0.2 0.2-0.3l105.2 0.1c3.4 6.2 10.4 9.8 17.7 8.5 1.9-0.3 3.7-1 5.3-1.9 3.8-2.2 6.6-5.8 7.8-9.9z"/>
		<path d="m164.9 24.1l-8 1.5-8.1 1.5s-2.2-2.1-3.1-7.1c-0.1-0.3-0.1-0.5-0.1-0.8 0-0.2 0-0.3-0.1-0.5v-0.3-0.6-0.1-0.7-0.6c0-2.3 0.5-3.8 0.7-4.1l8-1.5 7.6-1.4 0.4-0.1c-0.1-0.1-0.2-0.2-0.3-0.4l-0.1-0.1c-3.7-4.6-9.8-7-16-5.9-0.5 0.1-0.9 0.2-1.4 0.3h-0.2c-0.4 0.1-0.9 0.3-1.3 0.4-0.1 0-0.1 0.1-0.2 0.1-0.4 0.2-0.8 0.3-1.2 0.5-0.1 0-0.1 0.1-0.2 0.1l-1.2 0.6s-0.1 0-0.1 0.1c-0.4 0.2-0.8 0.5-1.1 0.8-0.4 0.3-0.7 0.6-1.1 0.9l-0.1 0.1c-0.3 0.3-0.7 0.6-1 0.9l-0.1 0.1c-0.3 0.3-0.6 0.6-0.9 1 0 0 0 0.1-0.1 0.1-0.6 0.8-1.2 1.6-1.7 2.5h-60.5-44.8c-0.5-1.3-1.5-2.4-2.6-3.4-0.5-0.4-1-0.8-1.5-1.1-3-2-6.8-2.8-10.6-2.1-5.7 1-10 5.2-11.5 10.4l14.1-2.6 0.3 0.3c0.1 0.2 0.3 0.4 0.5 0.7 0 0 0.1 0.1 0.1 0.2 0.1 0.2 0.2 0.3 0.3 0.5 0.2 0.3 0.3 0.7 0.5 1.1 0.4 0.9 0.7 2 1 3.4 0.1 0.5 0.1 0.9 0.2 1.3v0.1c0 0.4 0.1 0.8 0.1 1.2v0.4c0 2.1-0.5 3.4-0.6 3.7v0.1l-13.8 2.5-0.4 0.1 0.2 0.2 0.1 0.1c1.4 1.8 3.3 3.2 5.4 4.2 0.8 0.4 1.6 0.6 2.4 0.9 0.1 0 0.2 0.1 0.3 0.1 1.9 0.5 4 0.5 6.1 0.2 0.5-0.1 0.9-0.2 1.4-0.3 0.1 0 0.3-0.1 0.4-0.1 0.3-0.1 0.6-0.2 0.9-0.3 0.2-0.1 0.3-0.1 0.5-0.2 0.3-0.1 0.5-0.2 0.8-0.4 0.2-0.1 0.3-0.2 0.5-0.3s0.5-0.3 0.7-0.4 0.3-0.2 0.5-0.3 0.4-0.3 0.6-0.5c0.2-0.1 0.3-0.2 0.5-0.4s0.4-0.3 0.6-0.5l0.4-0.4c0.2-0.2 0.3-0.4 0.5-0.6 0.1-0.2 0.3-0.3 0.4-0.5 0.2-0.2 0.3-0.4 0.5-0.6 0.1-0.2 0.2-0.3 0.3-0.5 0.1-0.1 0.1-0.2 0.2-0.3l105.2 0.1c3.4 6.2 10.4 9.8 17.7 8.5 1.9-0.3 3.7-1 5.3-1.9 3.8-2.2 6.6-5.8 7.8-9.9z"/>
		<path d="m164.8 24l-8 1.5-8.1 1.5s-2.2-2.1-3.1-7.1c-0.1-0.3-0.1-0.5-0.1-0.8 0-0.2 0-0.3-0.1-0.5v-0.3-0.6-0.1-0.7-0.6c0-2.3 0.5-3.8 0.7-4.1l8-1.5 7.6-1.4 0.4-0.1c-0.1-0.1-0.2-0.2-0.3-0.4l-0.1-0.1c-3.7-4.6-9.8-7-16-5.9-0.5 0.1-0.9 0.2-1.4 0.3h-0.2c-0.4 0.1-0.9 0.3-1.3 0.4-0.1 0-0.1 0.1-0.2 0.1-0.4 0.2-0.8 0.3-1.2 0.5-0.1 0-0.1 0.1-0.2 0.1l-1.2 0.6s-0.1 0-0.1 0.1c-0.4 0.2-0.8 0.5-1.1 0.8-0.4 0.3-0.7 0.6-1.1 0.9l-0.1 0.1c-0.3 0.3-0.7 0.6-1 0.9l-0.1 0.1c-0.3 0.3-0.6 0.6-0.9 1 0 0 0 0.1-0.1 0.1-0.6 0.8-1.2 1.6-1.7 2.5h-60.5-44.8c-0.5-1.3-1.4-2.4-2.6-3.3-0.5-0.4-1-0.8-1.5-1.1-3-2-6.8-2.8-10.6-2.1-5.7 1-10 5.2-11.5 10.4l14.1-2.6 0.3 0.3c0.1 0.2 0.3 0.4 0.5 0.7 0 0 0.1 0.1 0.1 0.2 0.1 0.2 0.2 0.3 0.3 0.5 0.2 0.3 0.3 0.7 0.5 1.1 0.4 0.9 0.7 2 1 3.4 0.1 0.5 0.1 0.9 0.2 1.3v0.1c0 0.4 0.1 0.8 0.1 1.2v0.4c0 2.1-0.5 3.4-0.6 3.7v0.1l-13.8 2.5-0.4 0.1 0.2 0.2 0.1 0.1c1.4 1.8 3.3 3.2 5.4 4.2 0.8 0.4 1.6 0.6 2.4 0.9 0.1 0 0.2 0.1 0.3 0.1 1.9 0.5 4 0.5 6.1 0.2 0.5-0.1 0.9-0.2 1.4-0.3 0.1 0 0.3-0.1 0.4-0.1 0.3-0.1 0.6-0.2 0.9-0.3 0.2-0.1 0.3-0.1 0.5-0.2 0.3-0.1 0.5-0.2 0.8-0.4 0.2-0.1 0.3-0.2 0.5-0.3s0.5-0.3 0.7-0.4 0.3-0.2 0.5-0.3 0.4-0.3 0.6-0.5c0.2-0.1 0.3-0.2 0.5-0.4s0.4-0.3 0.6-0.5l0.4-0.4c0.2-0.2 0.3-0.4 0.5-0.6 0.1-0.2 0.3-0.3 0.4-0.5 0.2-0.2 0.3-0.4 0.5-0.6 0.1-0.2 0.2-0.3 0.3-0.5 0.1-0.1 0.1-0.2 0.2-0.3h105.2c3.4 6.2 10.4 9.8 17.7 8.5 1.9-0.3 3.7-1 5.3-1.9 3.8-2.2 6.6-5.7 7.8-9.9z"/>
		<path d="m164.8 24l-8 1.5-8.1 1.5s-2.2-2.1-3.1-7.1c-0.1-0.3-0.1-0.5-0.1-0.8 0-0.2 0-0.3-0.1-0.5v-0.3-0.6-0.1-0.7-0.6c0-2.3 0.5-3.8 0.7-4.1l8-1.5 7.6-1.4 0.4-0.1c-0.1-0.1-0.2-0.2-0.3-0.4l-0.1-0.1c-3.7-4.6-9.8-7-16-5.9-0.5 0.1-0.9 0.2-1.4 0.3h-0.2c-0.4 0.1-0.9 0.3-1.3 0.4-0.1 0-0.1 0.1-0.2 0.1-0.4 0.2-0.8 0.3-1.2 0.5-0.1 0-0.1 0.1-0.2 0.1l-1.2 0.6s-0.1 0-0.1 0.1c-0.4 0.2-0.8 0.5-1.1 0.8-0.4 0.3-0.7 0.6-1.1 0.9l-0.1 0.1c-0.3 0.3-0.7 0.6-1 0.9l-0.1 0.1c-0.3 0.3-0.6 0.6-0.9 1 0 0 0 0.1-0.1 0.1-0.6 0.8-1.2 1.6-1.7 2.5h-60.5-44.8c-0.5-1.4-1.5-2.5-2.6-3.4-0.5-0.4-1-0.8-1.5-1.1-3-2-6.8-2.8-10.6-2.1-5.8 1-10.1 5.2-11.6 10.3l14.1-2.6 0.3 0.3c0.1 0.2 0.3 0.4 0.5 0.7 0 0 0.1 0.1 0.1 0.2 0.1 0.2 0.2 0.3 0.3 0.5 0.2 0.3 0.3 0.7 0.5 1.1 0.4 0.9 0.7 2 1 3.4 0.1 0.5 0.1 0.9 0.2 1.3v0.1c0 0.4 0.1 0.8 0.1 1.2v0.4c0 2.1-0.5 3.4-0.6 3.7v0.1l-13.7 2.6-0.4 0.1 0.2 0.2 0.1 0.1c1.4 1.8 3.3 3.2 5.4 4.2 0.8 0.4 1.6 0.6 2.4 0.9 0.1 0 0.2 0.1 0.3 0.1 1.9 0.5 4 0.5 6.1 0.2 0.5-0.1 0.9-0.2 1.4-0.3 0.1 0 0.3-0.1 0.4-0.1 0.3-0.1 0.6-0.2 0.9-0.3 0.2-0.1 0.3-0.1 0.5-0.2 0.3-0.1 0.5-0.2 0.8-0.4 0.2-0.1 0.3-0.2 0.5-0.3s0.5-0.3 0.7-0.4 0.3-0.2 0.5-0.3 0.4-0.3 0.6-0.5c0.2-0.1 0.3-0.2 0.5-0.4s0.4-0.3 0.6-0.5l0.4-0.4c0.2-0.2 0.3-0.4 0.5-0.6 0.1-0.2 0.3-0.3 0.4-0.5 0.2-0.2 0.3-0.4 0.5-0.6 0.1-0.2 0.2-0.3 0.3-0.5 0.1-0.1 0.1-0.2 0.2-0.3l105.2 0.1c3.4 6.2 10.4 9.8 17.7 8.5 1.9-0.3 3.7-1 5.3-1.9 3.8-2.2 6.6-5.8 7.8-9.9z"/>
		<path d="m164.7 23.9l-8 1.5-8.1 1.5s-2.2-2.1-3.1-7.1c-0.1-0.3-0.1-0.5-0.1-0.8 0-0.2 0-0.3-0.1-0.5v-0.3-0.6-0.1-0.7-0.6c0-2.3 0.5-3.8 0.7-4.1l8-1.5 7.6-1.4 0.4-0.1c-0.1-0.1-0.2-0.2-0.3-0.4l-0.1-0.1c-3.7-4.6-9.8-7-16-5.9-0.5 0.1-0.9 0.2-1.4 0.3h-0.2c-0.4 0.1-0.9 0.3-1.3 0.4-0.1 0-0.1 0.1-0.2 0.1-0.4 0.2-0.8 0.3-1.2 0.5-0.1 0-0.1 0.1-0.2 0.1l-1.2 0.6s-0.1 0-0.1 0.1c-0.4 0.2-0.8 0.5-1.1 0.8-0.4 0.3-0.7 0.6-1.1 0.9l-0.1 0.1c-0.3 0.3-0.7 0.6-1 0.9l-0.1 0.1c-0.3 0.3-0.6 0.6-0.9 1 0 0 0 0.1-0.1 0.1-0.6 0.8-1.2 1.6-1.7 2.5h-60.5-44.8c-0.8-1.2-1.8-2.3-2.9-3.3-0.5-0.4-1-0.8-1.5-1.1-3-2-6.8-2.8-10.6-2.1-5.4 0.9-9.7 5.1-11.2 10.3l14.1-2.6 0.3 0.3c0.1 0.2 0.3 0.4 0.5 0.7 0 0 0.1 0.1 0.1 0.2 0.1 0.2 0.2 0.3 0.3 0.5 0.2 0.3 0.3 0.7 0.5 1.1 0.4 0.9 0.7 2 1 3.4 0.1 0.5 0.1 0.9 0.2 1.3v0.1c0 0.4 0.1 0.8 0.1 1.2v0.4c0 2.1-0.5 3.4-0.6 3.7v0.1l-13.8 2.5-0.4 0.1 0.2 0.2 0.1 0.1c1.4 1.8 3.3 3.2 5.4 4.2 0.8 0.4 1.6 0.6 2.4 0.9 0.1 0 0.2 0.1 0.3 0.1 1.9 0.5 4 0.5 6.1 0.2 0.5-0.1 0.9-0.2 1.4-0.3 0.1 0 0.3-0.1 0.4-0.1 0.3-0.1 0.6-0.2 0.9-0.3 0.2-0.1 0.3-0.1 0.5-0.2 0.3-0.1 0.5-0.2 0.8-0.4 0.2-0.1 0.3-0.2 0.5-0.3s0.5-0.3 0.7-0.4 0.3-0.2 0.5-0.3 0.4-0.3 0.6-0.5c0.2-0.1 0.3-0.2 0.5-0.4s0.4-0.3 0.6-0.5l0.4-0.4c0.2-0.2 0.3-0.4 0.5-0.6 0.1-0.2 0.3-0.3 0.4-0.5 0.2-0.2 0.3-0.4 0.5-0.6 0.1-0.2 0.2-0.3 0.3-0.5 0.1-0.1 0.1-0.2 0.2-0.3l105.2 0.1c3.4 6.2 10.4 9.8 17.7 8.5 1.9-0.3 3.7-1 5.3-1.9 3.8-2.2 6.6-5.8 7.8-9.9z"/>
		<path d="m164.7 23.8l-8 1.5-8.1 1.5s-2.2-2.1-3.1-7.1c-0.1-0.3-0.1-0.5-0.1-0.8 0-0.2 0-0.3-0.1-0.5v-0.3-0.6-0.1-0.7-0.6c0-2.3 0.5-3.8 0.7-4.1l8-1.5 7.6-1.4 0.4-0.1c-0.1-0.1-0.2-0.2-0.3-0.4l-0.1-0.1c-3.7-4.6-9.8-7-16-5.9-0.5 0.1-0.9 0.2-1.4 0.3h-0.2c-0.4 0.1-0.9 0.3-1.3 0.4-0.1 0-0.1 0.1-0.2 0.1-0.4 0.2-0.8 0.3-1.2 0.5-0.1 0-0.1 0.1-0.2 0.1l-1.2 0.6s-0.1 0-0.1 0.1c-0.4 0.2-0.8 0.5-1.1 0.8-0.4 0.3-0.7 0.6-1.1 0.9l-0.1 0.1c-0.3 0.3-0.7 0.6-1 0.9l-0.1 0.1c-0.3 0.3-0.6 0.6-0.9 1 0 0 0 0.1-0.1 0.1-0.6 0.8-1.2 1.6-1.7 2.5h-60.5-44.8c-0.8-1.2-1.8-2.3-2.9-3.3-0.5-0.4-1-0.8-1.5-1.1-3-2-6.8-2.8-10.6-2.1-5.7 1-10 5.2-11.5 10.4l14.1-2.6 0.3 0.3c0.1 0.2 0.3 0.4 0.5 0.7 0 0 0.1 0.1 0.1 0.2 0.1 0.2 0.2 0.3 0.3 0.5 0.2 0.3 0.3 0.7 0.5 1.1 0.4 0.9 0.7 2 1 3.4 0.1 0.5 0.1 0.9 0.2 1.3v0.1c0 0.4 0.1 0.8 0.1 1.2v0.4c0 2.1-0.5 3.4-0.6 3.7v0.1l-13.5 2.5-0.4 0.1 0.2 0.2 0.1 0.1c1.4 1.8 3.3 3.2 5.4 4.2 0.8 0.4 1.6 0.6 2.4 0.9 0.1 0 0.2 0.1 0.3 0.1 1.9 0.5 4 0.5 6.1 0.2 0.5-0.1 0.9-0.2 1.4-0.3 0.1 0 0.3-0.1 0.4-0.1 0.3-0.1 0.6-0.2 0.9-0.3 0.2-0.1 0.3-0.1 0.5-0.2 0.3-0.1 0.5-0.2 0.8-0.4 0.2-0.1 0.3-0.2 0.5-0.3s0.5-0.3 0.7-0.4 0.3-0.2 0.5-0.3 0.4-0.3 0.6-0.5c0.2-0.1 0.3-0.2 0.5-0.4s0.4-0.3 0.6-0.5l0.4-0.4c0.2-0.2 0.3-0.4 0.5-0.6 0.1-0.2 0.3-0.3 0.4-0.5 0.2-0.2 0.3-0.4 0.5-0.6 0.1-0.2 0.2-0.3 0.3-0.5 0.1-0.1 0.1-0.2 0.2-0.3l105.2 0.1c3.4 6.2 10.4 9.8 17.7 8.5 1.9-0.3 3.7-1 5.3-1.9 3.8-2.3 6.5-5.8 7.8-10z"/>
		<path d="m164.6 23.8l-8 1.5-8.1 1.5s-2.2-2.1-3.1-7.1c-0.1-0.3-0.1-0.5-0.1-0.8 0-0.2 0-0.3-0.1-0.5v-0.3-0.6-0.1-0.7-0.6c0-2.3 0.5-3.8 0.7-4.1l8-1.5 7.6-1.4 0.4-0.1c-0.1-0.1-0.2-0.2-0.3-0.4l-0.1-0.1c-3.7-4.6-9.8-7-16-5.9-0.5 0.1-0.9 0.2-1.4 0.3h-0.2c-0.4 0.1-0.9 0.3-1.3 0.4-0.1 0-0.1 0.1-0.2 0.1-0.4 0.2-0.8 0.3-1.2 0.5-0.1 0-0.1 0.1-0.2 0.1l-1.2 0.6s-0.1 0-0.1 0.1c-0.4 0.2-0.8 0.5-1.1 0.8-0.4 0.3-0.7 0.6-1.1 0.9l-0.1 0.1c-0.3 0.3-0.7 0.6-1 0.9l-0.1 0.1c-0.3 0.3-0.6 0.6-0.9 1 0 0 0 0.1-0.1 0.1-0.6 0.8-1.2 1.6-1.7 2.5h-60.5-44.8c-0.8-1.2-1.8-2.3-2.9-3.3-0.5-0.4-1-0.8-1.5-1.1-3-2-6.8-2.8-10.6-2.1-5.4 0.9-9.7 5.1-11.3 10.2l14.1-2.6 0.3 0.3c0.1 0.2 0.3 0.4 0.5 0.7 0 0 0.1 0.1 0.1 0.2 0.1 0.2 0.2 0.3 0.3 0.5 0.2 0.3 0.3 0.7 0.5 1.1 0.4 0.9 0.7 2 1 3.4 0.1 0.5 0.1 0.9 0.2 1.3v0.1c0 0.4 0.1 0.8 0.1 1.2v0.4c0 2.1-0.5 3.4-0.6 3.7v0.1l-13.7 2.6-0.4 0.1 0.2 0.2 0.1 0.1c1.4 1.8 3.3 3.2 5.4 4.2 0.8 0.4 1.6 0.6 2.4 0.9 0.1 0 0.2 0.1 0.3 0.1 1.9 0.5 4 0.5 6.1 0.2 0.5-0.1 0.9-0.2 1.4-0.3 0.1 0 0.3-0.1 0.4-0.1 0.3-0.1 0.6-0.2 0.9-0.3 0.2-0.1 0.3-0.1 0.5-0.2 0.3-0.1 0.5-0.2 0.8-0.4 0.2-0.1 0.3-0.2 0.5-0.3s0.5-0.3 0.7-0.4 0.3-0.2 0.5-0.3 0.4-0.3 0.6-0.5c0.2-0.1 0.3-0.2 0.5-0.4s0.4-0.3 0.6-0.5l0.4-0.4c0.2-0.2 0.3-0.4 0.5-0.6 0.1-0.2 0.3-0.3 0.4-0.5 0.2-0.2 0.3-0.4 0.5-0.6 0.1-0.2 0.2-0.3 0.3-0.5 0.1-0.1 0.1-0.2 0.2-0.3l105.2 0.1c3.4 6.2 10.4 9.8 17.7 8.5 1.9-0.3 3.7-1 5.3-1.9 3.8-2.2 6.6-5.8 7.8-9.9z"/>
		<path d="m164.5 23.7l-8 1.5-8.1 1.5s-2.2-2.1-3.1-7.1c-0.1-0.3-0.1-0.5-0.1-0.8 0-0.2 0-0.3-0.1-0.5v-0.3-0.6-0.1-0.7-0.6c0-2.3 0.5-3.8 0.7-4.1l8-1.5 7.6-1.4 0.4-0.1c-0.1-0.1-0.2-0.2-0.3-0.4l-0.1-0.1c-3.7-4.6-9.8-7-16-5.9-0.5 0.1-0.9 0.2-1.4 0.3h-0.2c-0.4 0.1-0.9 0.3-1.3 0.4-0.1 0-0.1 0.1-0.2 0.1-0.4 0.2-0.8 0.3-1.2 0.5-0.1 0-0.1 0.1-0.2 0.1l-1.2 0.6s-0.1 0-0.1 0.1c-0.4 0.2-0.8 0.5-1.1 0.8-0.4 0.3-0.7 0.6-1.1 0.9l-0.1 0.1c-0.3 0.3-0.7 0.6-1 0.9l-0.1 0.1c-0.3 0.3-0.6 0.6-0.9 1 0 0 0 0.1-0.1 0.1-0.6 0.8-1.2 1.6-1.7 2.5h-60.5-44.8c-0.8-1.2-1.8-2.3-2.9-3.3-0.5-0.4-1-0.8-1.5-1.1-3-2-6.8-2.8-10.6-2.1-5.4 0.9-9.7 5.1-11.2 10.3l14.1-2.6 0.3 0.3c0.1 0.2 0.3 0.4 0.5 0.7 0 0 0.1 0.1 0.1 0.2 0.1 0.2 0.2 0.3 0.3 0.5 0.2 0.3 0.3 0.7 0.5 1.1 0.4 0.9 0.7 2 1 3.4 0.1 0.5 0.1 0.9 0.2 1.3v0.1c0 0.4 0.1 0.8 0.1 1.2v0.4c0 2.1-0.5 3.4-0.6 3.7v0.1l-13.7 2.6-0.4 0.1 0.1 0.1 0.1 0.1c1.4 1.8 3.3 3.2 5.4 4.2 0.8 0.4 1.6 0.6 2.4 0.9 0.1 0 0.2 0.1 0.3 0.1 1.9 0.5 4 0.5 6.1 0.2 0.5-0.1 0.9-0.2 1.4-0.3 0.1 0 0.3-0.1 0.4-0.1 0.3-0.1 0.6-0.2 0.9-0.3 0.2-0.1 0.3-0.1 0.5-0.2 0.3-0.1 0.5-0.2 0.8-0.4 0.2-0.1 0.3-0.2 0.5-0.3s0.5-0.3 0.7-0.4 0.3-0.2 0.5-0.3 0.4-0.3 0.6-0.5c0.2-0.1 0.3-0.2 0.5-0.4s0.4-0.3 0.6-0.5l0.4-0.4c0.2-0.2 0.3-0.4 0.5-0.6 0.1-0.2 0.3-0.3 0.4-0.5 0.2-0.2 0.3-0.4 0.5-0.6 0.1-0.2 0.2-0.3 0.3-0.5 0.1-0.1 0.1-0.2 0.2-0.3l105.2 0.1c3.4 6.2 10.4 9.8 17.7 8.5 1.9-0.3 3.7-1 5.3-1.9 3.8-2.2 6.6-5.7 7.8-9.9z"/>
		<path d="m164.5 23.7l-8 1.5-8.1 1.5s-2.2-2.1-3.1-7.1c-0.1-0.3-0.1-0.5-0.1-0.8 0-0.2 0-0.3-0.1-0.5v-0.3-0.6-0.1-0.7-0.6c0-2.3 0.5-3.8 0.7-4.1l8-1.5 7.6-1.4 0.4-0.1c-0.1-0.1-0.2-0.2-0.3-0.4l-0.1-0.1c-3.7-4.6-9.8-7-16-5.9-0.5 0.1-0.9 0.2-1.4 0.3h-0.2c-0.4 0.1-0.9 0.3-1.3 0.4-0.1 0-0.1 0.1-0.2 0.1-0.4 0.2-0.8 0.3-1.2 0.5-0.1 0-0.1 0.1-0.2 0.1l-1.2 0.6s-0.1 0-0.1 0.1c-0.4 0.2-0.8 0.5-1.1 0.8-0.4 0.3-0.7 0.6-1.1 0.9l-0.1 0.1c-0.3 0.3-0.7 0.6-1 0.9l-0.1 0.1c-0.3 0.3-0.6 0.6-0.9 1 0 0 0 0.1-0.1 0.1-0.6 0.8-1.2 1.6-1.7 2.5h-60.5-44.8c-0.8-1.2-1.8-2.3-2.9-3.3-0.5-0.4-1-0.8-1.5-1.1-3-2-6.8-2.8-10.6-2.1-5.7 1-10 5.2-11.5 10.4l14.1-2.6 0.3 0.3c0.1 0.2 0.3 0.4 0.5 0.7 0 0 0.1 0.1 0.1 0.2 0.1 0.2 0.2 0.3 0.3 0.5 0.2 0.3 0.3 0.7 0.5 1.1 0.4 0.9 0.7 2 1 3.4 0.1 0.5 0.1 0.9 0.2 1.3v0.1c0 0.4 0.1 0.8 0.1 1.2v0.4c0 2.1-0.5 3.4-0.6 3.7v0.1l-13.5 2.4-0.4 0.1 0.2 0.2 0.1 0.1c1.4 1.8 3.3 3.2 5.4 4.2 0.8 0.4 1.6 0.6 2.4 0.9 0.1 0 0.2 0.1 0.3 0.1 1.9 0.5 4 0.5 6.1 0.2 0.5-0.1 0.9-0.2 1.4-0.3 0.1 0 0.3-0.1 0.4-0.1 0.3-0.1 0.6-0.2 0.9-0.3 0.2-0.1 0.3-0.1 0.5-0.2 0.3-0.1 0.5-0.2 0.8-0.4 0.2-0.1 0.3-0.2 0.5-0.3s0.5-0.3 0.7-0.4 0.3-0.2 0.5-0.3 0.4-0.3 0.6-0.5c0.2-0.1 0.3-0.2 0.5-0.4s0.4-0.3 0.6-0.5l0.4-0.4c0.2-0.2 0.3-0.4 0.5-0.6 0.1-0.2 0.3-0.3 0.4-0.5 0.2-0.2 0.3-0.4 0.5-0.6 0.1-0.2 0.2-0.3 0.3-0.5 0.1-0.1 0.1-0.2 0.2-0.3l105.2 0.1c3.4 6.2 10.4 9.8 17.7 8.5 1.9-0.3 3.7-1 5.3-1.9 3.8-2.3 6.6-5.8 7.8-9.9z"/>
		<path d="m164.4 23.6l-8 1.5-8.1 1.5s-2.2-2.1-3.1-7.1c-0.1-0.3-0.1-0.5-0.1-0.8 0-0.2 0-0.3-0.1-0.5v-0.3-0.6-0.1-0.7-0.6c0-2.3 0.5-3.8 0.7-4.1l8-1.5 7.6-1.4 0.4-0.1c-0.1-0.1-0.2-0.2-0.3-0.4l-0.1-0.1c-3.7-4.6-9.8-7-16-5.9-0.5 0.1-0.9 0.2-1.4 0.3h-0.2c-0.4 0.1-0.9 0.3-1.3 0.4-0.1 0-0.1 0.1-0.2 0.1-0.4 0.2-0.8 0.3-1.2 0.5-0.1 0-0.1 0.1-0.2 0.1l-1.2 0.6s-0.1 0-0.1 0.1c-0.4 0.2-0.8 0.5-1.1 0.8-0.4 0.3-0.7 0.6-1.1 0.9l-0.1 0.1c-0.3 0.3-0.7 0.6-1 0.9l-0.1 0.1c-0.3 0.3-0.6 0.6-0.9 1 0 0 0 0.1-0.1 0.1-0.6 0.8-1.2 1.6-1.7 2.5h-60.5-44.8c-0.8-1.2-1.8-2.3-2.9-3.3-0.5-0.4-1-0.8-1.5-1.1-3-2-6.8-2.8-10.6-2.1-5.7 1-10 5.2-11.5 10.4l14.4-2.7 0.3 0.3c0.1 0.2 0.3 0.4 0.5 0.7 0 0 0.1 0.1 0.1 0.2 0.1 0.2 0.2 0.3 0.3 0.5 0.2 0.3 0.3 0.7 0.5 1.1 0.4 0.9 0.7 2 1 3.4 0.1 0.5 0.1 0.9 0.2 1.3v0.1c0 0.4 0.1 0.8 0.1 1.2v0.4c0 2.1-0.5 3.4-0.6 3.7v0.1l-13.8 2.5-0.4 0.1 0.2 0.2 0.1 0.1c1.4 1.8 3.3 3.2 5.4 4.2 0.8 0.4 1.6 0.6 2.4 0.9 0.1 0 0.2 0.1 0.3 0.1 1.9 0.5 4 0.5 6.1 0.2 0.5-0.1 0.9-0.2 1.4-0.3 0.1 0 0.3-0.1 0.4-0.1 0.3-0.1 0.6-0.2 0.9-0.3 0.2-0.1 0.3-0.1 0.5-0.2 0.3-0.1 0.5-0.2 0.8-0.4 0.2-0.1 0.3-0.2 0.5-0.3s0.5-0.3 0.7-0.4 0.3-0.2 0.5-0.3 0.4-0.3 0.6-0.5c0.2-0.1 0.3-0.2 0.5-0.4s0.4-0.3 0.6-0.5l0.4-0.4c0.2-0.2 0.3-0.4 0.5-0.6 0.1-0.2 0.3-0.3 0.4-0.5 0.2-0.2 0.3-0.4 0.5-0.6 0.1-0.2 0.2-0.3 0.3-0.5 0.1-0.1 0.1-0.2 0.2-0.3l105.2 0.1c3.4 6.2 10.4 9.8 17.7 8.5 1.9-0.3 3.7-1 5.3-1.9 3.8-2.2 6.6-5.8 7.8-9.9z"/>
		<path d="m164.4 23.5l-8 1.5-8.1 1.5s-2.2-2.1-3.1-7.1c-0.1-0.3-0.1-0.5-0.1-0.8 0-0.2 0-0.3-0.1-0.5v-0.3-0.6-0.1-0.7-0.6c0-2.3 0.5-3.8 0.7-4.1l8-1.5 7.6-1.4 0.4-0.1c-0.1-0.1-0.2-0.2-0.3-0.4l-0.1-0.1c-3.7-4.6-9.8-7-16-5.9-0.5 0.1-0.9 0.2-1.4 0.3h-0.2c-0.4 0.1-0.9 0.3-1.3 0.4-0.1 0-0.1 0.1-0.2 0.1-0.4 0.2-0.8 0.3-1.2 0.5-0.1 0-0.1 0.1-0.2 0.1l-1.2 0.6s-0.1 0-0.1 0.1c-0.4 0.2-0.8 0.5-1.1 0.8-0.4 0.3-0.7 0.6-1.1 0.9l-0.1 0.1c-0.3 0.3-0.7 0.6-1 0.9l-0.1 0.1c-0.3 0.3-0.6 0.6-0.9 1 0 0 0 0.1-0.1 0.1-0.6 0.8-1.2 1.6-1.7 2.5h-60.5-44.8c-0.8-1.2-1.8-2.3-2.9-3.3-0.5-0.4-1-0.8-1.5-1.1-3-2-6.8-2.8-10.6-2.1-5.7 1-10 5.2-11.5 10.4l14.4-2.7 0.3 0.3c0.1 0.2 0.3 0.4 0.5 0.7 0 0 0.1 0.1 0.1 0.2 0.1 0.2 0.2 0.3 0.3 0.5 0.2 0.3 0.3 0.7 0.5 1.1 0.4 0.9 0.7 2 1 3.4 0.1 0.5 0.1 0.9 0.2 1.3v0.1c0 0.4 0.1 0.8 0.1 1.2v0.4c0 2.1-0.5 3.4-0.6 3.7v0.1l-13.8 2.6-0.4 0.1 0.2 0.2 0.1 0.1c1.4 1.8 3.3 3.2 5.4 4.2 0.8 0.4 1.6 0.6 2.4 0.9 0.1 0 0.2 0.1 0.3 0.1 1.9 0.5 4 0.5 6.1 0.2 0.5-0.1 0.9-0.2 1.4-0.3 0.1 0 0.3-0.1 0.4-0.1 0.3-0.1 0.6-0.2 0.9-0.3 0.2-0.1 0.3-0.1 0.5-0.2 0.3-0.1 0.5-0.2 0.8-0.4 0.2-0.1 0.3-0.2 0.5-0.3s0.5-0.3 0.7-0.4 0.3-0.2 0.5-0.3 0.4-0.3 0.6-0.5c0.2-0.1 0.3-0.2 0.5-0.4s0.4-0.3 0.6-0.5l0.4-0.4c0.2-0.2 0.3-0.4 0.5-0.6 0.1-0.2 0.3-0.3 0.4-0.5 0.2-0.2 0.3-0.4 0.5-0.6 0.1-0.2 0.2-0.3 0.3-0.5 0.1-0.1 0.1-0.2 0.2-0.3l105.2 0.1c3.4 6.2 10.4 9.8 17.7 8.5 1.9-0.3 3.7-1 5.3-1.9 3.8-2.3 6.6-5.8 7.8-10z"/>
		<path d="m164.3 23.5l-8 1.5-8.1 1.5s-2.2-2.1-3.1-7.1c-0.1-0.3-0.1-0.5-0.1-0.8 0-0.2 0-0.3-0.1-0.5v-0.3-0.6-0.1-0.7-0.6c0-2.3 0.5-3.8 0.7-4.1l8-1.5 7.6-1.4 0.4-0.1c-0.1-0.1-0.2-0.2-0.3-0.4l-0.1-0.1c-3.7-4.6-9.8-7-16-5.9-0.5 0.1-0.9 0.2-1.4 0.3h-0.2c-0.4 0.1-0.9 0.3-1.3 0.4-0.1 0-0.1 0.1-0.2 0.1-0.4 0.2-0.8 0.3-1.2 0.5-0.1 0-0.1 0.1-0.2 0.1l-1.2 0.6s-0.1 0-0.1 0.1c-0.4 0.2-0.8 0.5-1.1 0.8-0.4 0.3-0.7 0.6-1.1 0.9l-0.1 0.1c-0.3 0.3-0.7 0.6-1 0.9l-0.1 0.1c-0.3 0.3-0.6 0.6-0.9 1 0 0 0 0.1-0.1 0.1-0.6 0.8-1.2 1.6-1.7 2.5h-60.5-44.8c-0.8-1.2-1.8-2.3-2.9-3.3-0.5-0.4-1-0.8-1.5-1.1-3-2-6.8-2.8-10.6-2.1-5.7 1-10 5.2-11.5 10.4l14.1-2.6 0.3 0.3c0.1 0.2 0.3 0.4 0.5 0.7 0 0 0.1 0.1 0.1 0.2 0.1 0.2 0.2 0.3 0.3 0.5 0.2 0.3 0.3 0.7 0.5 1.1 0.4 0.9 0.7 2 1 3.4 0.1 0.5 0.1 0.9 0.2 1.3v0.1c0 0.4 0.1 0.8 0.1 1.2v0.4c0 2.1-0.5 3.4-0.6 3.7v0.1l-13.5 2.4-0.4 0.1 0.2 0.2 0.1 0.1c1.4 1.8 3.3 3.2 5.4 4.2 0.8 0.4 1.6 0.6 2.4 0.9 0.1 0 0.2 0.1 0.3 0.1 1.9 0.5 4 0.5 6.1 0.2 0.5-0.1 0.9-0.2 1.4-0.3 0.1 0 0.3-0.1 0.4-0.1 0.3-0.1 0.6-0.2 0.9-0.3 0.2-0.1 0.3-0.1 0.5-0.2 0.3-0.1 0.5-0.2 0.8-0.4 0.2-0.1 0.3-0.2 0.5-0.3s0.5-0.3 0.7-0.4 0.3-0.2 0.5-0.3 0.4-0.3 0.6-0.5c0.2-0.1 0.3-0.2 0.5-0.4s0.4-0.3 0.6-0.5l0.4-0.4c0.2-0.2 0.3-0.4 0.5-0.6 0.1-0.2 0.3-0.3 0.4-0.5 0.2-0.2 0.3-0.4 0.5-0.6 0.1-0.2 0.2-0.3 0.3-0.5 0.1-0.1 0.1-0.2 0.2-0.3l105.2 0.1c3.4 6.2 10.4 9.8 17.7 8.5 1.9-0.3 3.7-1 5.3-1.9 3.8-2.2 6.6-5.8 7.8-9.9z"/>
		<path d="m164.3 23.4l-8 1.5-8.1 1.5s-2.2-2.1-3.1-7.1c-0.1-0.3-0.1-0.5-0.1-0.8 0-0.2 0-0.3-0.1-0.5v-0.3-0.6-0.1-0.7-0.6c0-2.3 0.5-3.8 0.7-4.1l8-1.5 7.6-1.4 0.4-0.1c-0.1-0.1-0.2-0.2-0.3-0.4l-0.1-0.1c-3.7-4.6-9.8-7-16-5.9-0.5 0.1-0.9 0.2-1.4 0.3h-0.2c-0.4 0.1-0.9 0.3-1.3 0.4-0.1 0-0.1 0.1-0.2 0.1-0.4 0.2-0.8 0.3-1.2 0.5-0.1 0-0.1 0.1-0.2 0.1l-1.2 0.6s-0.1 0-0.1 0.1c-0.4 0.2-0.8 0.5-1.1 0.8-0.4 0.3-0.7 0.6-1.1 0.9l-0.1 0.1c-0.3 0.3-0.7 0.6-1 0.9l-0.1 0.1c-0.3 0.3-0.6 0.6-0.9 1 0 0 0 0.1-0.1 0.1-0.6 0.8-1.2 1.6-1.7 2.5h-60.5-44.8c-0.8-1.2-1.8-2.3-2.9-3.3-0.5-0.4-1-0.8-1.5-1.1-3-2-6.8-2.8-10.6-2.1-5.7 1-10 5.2-11.5 10.4l14.1-2.6 0.3 0.3c0.1 0.2 0.3 0.4 0.5 0.7 0 0 0.1 0.1 0.1 0.2 0.1 0.2 0.2 0.3 0.3 0.5 0.2 0.3 0.3 0.7 0.5 1.1 0.4 0.9 0.7 2 1 3.4 0.1 0.5 0.1 0.9 0.2 1.3v0.1c0 0.4 0.1 0.8 0.1 1.2v0.4c0 2.1-0.5 3.4-0.6 3.7v0.1l-13.5 2.4-0.4 0.1 0.2 0.2 0.1 0.1c1.4 1.8 3.3 3.2 5.4 4.2 0.8 0.4 1.6 0.6 2.4 0.9 0.1 0 0.2 0.1 0.3 0.1 1.9 0.5 4 0.5 6.1 0.2 0.5-0.1 0.9-0.2 1.4-0.3 0.1 0 0.3-0.1 0.4-0.1 0.3-0.1 0.6-0.2 0.9-0.3 0.2-0.1 0.3-0.1 0.5-0.2 0.3-0.1 0.5-0.2 0.8-0.4 0.2-0.1 0.3-0.2 0.5-0.3s0.5-0.3 0.7-0.4 0.3-0.2 0.5-0.3 0.4-0.3 0.6-0.5c0.2-0.1 0.3-0.2 0.5-0.4s0.4-0.3 0.6-0.5l0.4-0.4c0.2-0.2 0.3-0.4 0.5-0.6 0.1-0.2 0.3-0.3 0.4-0.5 0.2-0.2 0.3-0.4 0.5-0.6 0.1-0.2 0.2-0.3 0.3-0.5 0.1-0.1 0.1-0.2 0.2-0.3l105.2 0.1c3.4 6.2 10.4 9.8 17.7 8.5 1.9-0.3 3.7-1 5.3-1.9 3.8-2.2 6.5-5.8 7.8-9.9z"/>
		<path d="m164.2 23.3l-8 1.5-8.1 1.5s-2.2-2.1-3.1-7.1c-0.1-0.3-0.1-0.5-0.1-0.8 0-0.2 0-0.3-0.1-0.5v-0.3-0.6-0.1-0.7-0.6c0-2.3 0.5-3.8 0.7-4.1l8-1.5 7.6-1.4 0.4-0.1c-0.1-0.1-0.2-0.2-0.3-0.4l-0.1-0.1c-3.7-4.6-9.8-7-16-5.9-0.5 0.1-0.9 0.2-1.4 0.3h-0.2c-0.4 0.1-0.9 0.3-1.3 0.4-0.1 0-0.1 0.1-0.2 0.1-0.4 0.2-0.8 0.3-1.2 0.5-0.1 0-0.1 0.1-0.2 0.1l-1.2 0.6s-0.1 0-0.1 0.1c-0.4 0.2-0.8 0.5-1.1 0.8-0.4 0.3-0.7 0.6-1.1 0.9l-0.1 0.1c-0.3 0.3-0.7 0.6-1 0.9l-0.1 0.1c-0.3 0.3-0.6 0.6-0.9 1 0 0 0 0.1-0.1 0.1-0.6 0.8-1.2 1.6-1.7 2.5h-60.5-44.8c-0.8-1.2-1.8-2.3-2.9-3.3-0.5-0.4-1-0.8-1.5-1.1-3-2-6.8-2.8-10.6-2.1-5.7 1-10 5.2-11.5 10.4l14.1-2.6 0.3 0.3c0.1 0.2 0.3 0.4 0.5 0.7 0 0 0.1 0.1 0.1 0.2 0.1 0.2 0.2 0.3 0.3 0.5 0.2 0.3 0.3 0.7 0.5 1.1 0.4 0.9 0.7 2 1 3.4 0.1 0.5 0.1 0.9 0.2 1.3v0.1c0 0.4 0.1 0.8 0.1 1.2v0.4c0 2.1-0.5 3.4-0.6 3.7v0.1l-13.5 2.5h-0.4l0.2 0.2 0.1 0.1c1.4 1.9 3.3 3.3 5.4 4.3 0.8 0.4 1.6 0.6 2.4 0.9 0.1 0 0.2 0.1 0.3 0.1 1.9 0.5 4 0.5 6.1 0.2 0.5-0.1 0.9-0.2 1.4-0.3 0.1 0 0.3-0.1 0.4-0.1 0.3-0.1 0.6-0.2 0.9-0.3 0.2-0.1 0.3-0.1 0.5-0.2 0.3-0.1 0.5-0.2 0.8-0.4 0.2-0.1 0.3-0.2 0.5-0.3s0.5-0.3 0.7-0.4 0.3-0.2 0.5-0.3 0.4-0.3 0.6-0.5c0.2-0.1 0.3-0.2 0.5-0.4s0.4-0.3 0.6-0.5l0.4-0.4c0.2-0.2 0.3-0.4 0.5-0.6 0.1-0.2 0.3-0.3 0.4-0.5 0.2-0.2 0.3-0.4 0.5-0.6 0.1-0.2 0.2-0.3 0.3-0.5 0.1-0.1 0.1-0.2 0.2-0.3l105.2 0.1c3.4 6.2 10.4 9.8 17.7 8.5 1.9-0.3 3.7-1 5.3-1.9 3.8-2.3 6.6-5.8 7.8-10z"/>
		<path d="m164.1 23.3l-8 1.5-8.1 1.5s-2.2-2.1-3.1-7.1c-0.1-0.3-0.1-0.5-0.1-0.8 0-0.2 0-0.3-0.1-0.5v-0.3-0.6-0.1-0.7-0.6c0-2.3 0.5-3.8 0.7-4.1l8-1.5 7.6-1.4 0.4-0.1c-0.1-0.1-0.2-0.2-0.3-0.4l-0.1-0.1c-3.7-4.6-9.8-7-16-5.9-0.5 0.1-0.9 0.2-1.4 0.3h-0.2c-0.4 0.1-0.9 0.3-1.3 0.4-0.1 0-0.1 0.1-0.2 0.1-0.4 0.2-0.8 0.3-1.2 0.5-0.1 0-0.1 0.1-0.2 0.1l-1.2 0.6s-0.1 0-0.1 0.1c-0.4 0.2-0.8 0.5-1.1 0.8-0.4 0.3-0.7 0.6-1.1 0.9l-0.1 0.1c-0.3 0.3-0.7 0.6-1 0.9l-0.1 0.1c-0.3 0.3-0.6 0.6-0.9 1 0 0 0 0.1-0.1 0.1-0.6 0.8-1.2 1.6-1.7 2.5h-60.5-44.8c-0.8-1.2-1.8-2.3-2.9-3.3-0.5-0.4-1-0.8-1.5-1.1-3-2-6.8-2.8-10.6-2.1-5.4 0.9-9.7 5.1-11.2 10.2l14.1-2.6 0.3 0.3c0.1 0.2 0.3 0.4 0.5 0.7 0 0 0.1 0.1 0.1 0.2 0.1 0.2 0.2 0.3 0.3 0.5 0.2 0.3 0.3 0.7 0.5 1.1 0.4 0.9 0.7 2 1 3.4 0.1 0.5 0.1 0.9 0.2 1.3v0.1c0 0.4 0.1 0.8 0.1 1.2v0.4c0 2.1-0.5 3.4-0.6 3.7v0.1l-13.7 2.6-0.4 0.1 0.2 0.2 0.1 0.1c1.4 1.8 3.3 3.2 5.4 4.2 0.8 0.4 1.6 0.6 2.4 0.9 0.1 0 0.2 0.1 0.3 0.1 1.9 0.5 4 0.5 6.1 0.2 0.5-0.1 0.9-0.2 1.4-0.3 0.1 0 0.3-0.1 0.4-0.1 0.3-0.1 0.6-0.2 0.9-0.3 0.2-0.1 0.3-0.1 0.5-0.2 0.3-0.1 0.5-0.2 0.8-0.4 0.2-0.1 0.3-0.2 0.5-0.3s0.5-0.3 0.7-0.4 0.3-0.2 0.5-0.3 0.4-0.3 0.6-0.5c0.2-0.1 0.3-0.2 0.5-0.4s0.4-0.3 0.6-0.5l0.4-0.4c0.2-0.2 0.3-0.4 0.5-0.6 0.1-0.2 0.3-0.3 0.4-0.5 0.2-0.2 0.3-0.4 0.5-0.6 0.1-0.2 0.2-0.3 0.3-0.5 0.1-0.1 0.1-0.2 0.2-0.3l105.2 0.1c3.4 6.2 10.4 9.8 17.7 8.5 1.9-0.3 3.7-1 5.3-1.9 3.7-2.2 6.5-5.8 7.7-9.9z"/>
		<path d="m164.1 23.2l-8 1.5-8.1 1.5s-2.2-2.1-3.1-7.1c-0.1-0.3-0.1-0.5-0.1-0.8 0-0.2 0-0.3-0.1-0.5v-0.3-0.6-0.1-0.7-0.6c0-2.3 0.5-3.8 0.7-4.1l8-1.5 7.6-1.4 0.4-0.1c-0.1-0.1-0.2-0.2-0.3-0.4l-0.1-0.1c-3.7-4.6-9.8-7-16-5.9-0.5 0.1-0.9 0.2-1.4 0.3h-0.2c-0.4 0.1-0.9 0.3-1.3 0.4-0.1 0-0.1 0.1-0.2 0.1-0.4 0.2-0.8 0.3-1.2 0.5-0.1 0-0.1 0.1-0.2 0.1l-1.2 0.6s-0.1 0-0.1 0.1c-0.4 0.2-0.8 0.5-1.1 0.8-0.4 0.3-0.7 0.6-1.1 0.9l-0.1 0.1c-0.3 0.3-0.7 0.6-1 0.9l-0.1 0.1c-0.3 0.3-0.6 0.6-0.9 1 0 0 0 0.1-0.1 0.1-0.6 0.8-1.2 1.6-1.7 2.5h-60.5-44.8c-0.8-1.2-1.8-2.3-2.9-3.3-0.5-0.4-1-0.8-1.5-1.1-3-2-6.8-2.8-10.6-2.1-5.7 1-10 5.2-11.5 10.4l14.1-2.6 0.3 0.3c0.1 0.2 0.3 0.4 0.5 0.7 0 0 0.1 0.1 0.1 0.2 0.1 0.2 0.2 0.3 0.3 0.5 0.2 0.3 0.3 0.7 0.5 1.1 0.4 0.9 0.7 2 1 3.4 0.1 0.5 0.1 0.9 0.2 1.3v0.1c0 0.4 0.1 0.8 0.1 1.2v0.4c0 2.1-0.5 3.4-0.6 3.7v0.1l-13.5 2.4-0.4 0.1c0.1 0.1 0.1 0.2 0.2 0.2l0.1 0.1c1.4 1.8 3.3 3.2 5.4 4.2 0.8 0.4 1.6 0.6 2.4 0.9 0.1 0 0.2 0.1 0.3 0.1 1.9 0.5 4 0.5 6.1 0.2 0.5-0.1 0.9-0.2 1.4-0.3 0.1 0 0.3-0.1 0.4-0.1 0.3-0.1 0.6-0.2 0.9-0.3 0.2-0.1 0.3-0.1 0.5-0.2 0.3-0.1 0.5-0.2 0.8-0.4 0.2-0.1 0.3-0.2 0.5-0.3s0.5-0.3 0.7-0.4 0.3-0.2 0.5-0.3 0.4-0.3 0.6-0.5c0.2-0.1 0.3-0.2 0.5-0.4s0.4-0.3 0.6-0.5l0.4-0.4c0.2-0.2 0.3-0.4 0.5-0.6 0.1-0.2 0.3-0.3 0.4-0.5 0.2-0.2 0.3-0.4 0.5-0.6 0.1-0.2 0.2-0.3 0.3-0.5 0.1-0.1 0.1-0.2 0.2-0.3l105.2 0.1c3.4 6.2 10.4 9.8 17.7 8.5 1.9-0.3 3.7-1 5.3-1.9 3.8-2.2 6.6-5.8 7.8-9.9z"/>
		<path d="m164 23.1l-8 1.5-8.1 1.5s-2.2-2.1-3.1-7.1c-0.1-0.3-0.1-0.5-0.1-0.8 0-0.2 0-0.3-0.1-0.5v-0.3-0.6-0.1-0.7-0.6c0-2.3 0.5-3.8 0.7-4.1l8-1.5 7.6-1.4 0.4-0.1c-0.1-0.1-0.2-0.2-0.3-0.4l-0.1-0.1c-3.7-4.6-9.8-7-16-5.9-0.5 0.1-0.9 0.2-1.4 0.3h-0.2c-0.4 0.1-0.9 0.3-1.3 0.4-0.1 0-0.1 0.1-0.2 0.1-0.4 0.2-0.8 0.3-1.2 0.5-0.1 0-0.1 0.1-0.2 0.1l-1.2 0.6s-0.1 0-0.1 0.1c-0.4 0.2-0.8 0.5-1.1 0.8-0.4 0.3-0.7 0.6-1.1 0.9l-0.1 0.1c-0.3 0.3-0.7 0.6-1 0.9l-0.1 0.1c-0.3 0.3-0.6 0.6-0.9 1 0 0 0 0.1-0.1 0.1-0.6 0.8-1.2 1.6-1.7 2.5h-60.5-44.8c-0.8-1.2-1.8-2.3-2.9-3.3-0.5-0.4-1-0.8-1.5-1.1-3-2-6.8-2.8-10.6-2.1-5.4 1-9.7 5.1-11.2 10.3l14.1-2.6 0.3 0.3c0.1 0.2 0.3 0.4 0.5 0.7 0 0 0.1 0.1 0.1 0.2 0.1 0.2 0.2 0.3 0.3 0.5 0.2 0.3 0.3 0.7 0.5 1.1 0.4 0.9 0.7 2 1 3.4 0.1 0.5 0.1 0.9 0.2 1.3v0.1c0 0.4 0.1 0.8 0.1 1.2v0.4c0 2.1-0.5 3.4-0.6 3.7v0.1l-13.8 2.6-0.4 0.1c0.1 0 0.2 0.1 0.2 0.2l0.1 0.1c1.4 1.8 3.3 3.2 5.4 4.2 0.8 0.4 1.6 0.6 2.4 0.9 0.1 0 0.2 0.1 0.3 0.1 1.9 0.5 4 0.5 6.1 0.2 0.5-0.1 0.9-0.2 1.4-0.3 0.1 0 0.3-0.1 0.4-0.1 0.3-0.1 0.6-0.2 0.9-0.3 0.2-0.1 0.3-0.1 0.5-0.2 0.3-0.1 0.5-0.2 0.8-0.4 0.2-0.1 0.3-0.2 0.5-0.3s0.5-0.3 0.7-0.4 0.3-0.2 0.5-0.3 0.4-0.3 0.6-0.5c0.2-0.1 0.3-0.2 0.5-0.4s0.4-0.3 0.6-0.5l0.4-0.4c0.2-0.2 0.3-0.4 0.5-0.6 0.1-0.2 0.3-0.3 0.4-0.5 0.2-0.2 0.3-0.4 0.5-0.6 0.1-0.2 0.2-0.3 0.3-0.5 0.1-0.1 0.1-0.2 0.2-0.3l105.2 0.1c3.4 6.2 10.4 9.8 17.7 8.5 1.9-0.3 3.7-1 5.3-1.9 3.8-2.3 6.6-5.8 7.8-10z"/>
		<path d="m164 23.1l-8 1.5-8.1 1.5s-2.2-2.1-3.1-7.1c-0.1-0.3-0.1-0.5-0.1-0.8 0-0.2 0-0.3-0.1-0.5v-0.3-0.6-0.1-0.7-0.6c0-2.3 0.5-3.8 0.7-4.1l8-1.5 7.6-1.4 0.4-0.1c-0.1-0.1-0.2-0.2-0.3-0.4l-0.1-0.1c-3.7-4.6-9.8-7-16-5.9-0.5 0.1-0.9 0.2-1.4 0.3h-0.2c-0.4 0.1-0.9 0.3-1.3 0.4-0.1 0-0.1 0.1-0.2 0.1-0.4 0.2-0.8 0.3-1.2 0.5-0.1 0-0.1 0.1-0.2 0.1l-1.2 0.6s-0.1 0-0.1 0.1c-0.4 0.2-0.8 0.5-1.1 0.8-0.4 0.3-0.7 0.6-1.1 0.9l-0.1 0.1c-0.3 0.3-0.7 0.6-1 0.9l-0.1 0.1c-0.3 0.3-0.6 0.6-0.9 1 0 0 0 0.1-0.1 0.1-0.6 0.8-1.2 1.6-1.7 2.5h-60.5-44.8c-0.5-1.4-1.5-2.5-2.6-3.4-0.5-0.4-1-0.8-1.5-1.1-3-2-6.8-2.8-10.6-2.1-5.7 1-10.1 5.2-11.6 10.3l14.1-2.6 0.3 0.3c0.1 0.2 0.3 0.4 0.5 0.7 0 0 0.1 0.1 0.1 0.2 0.1 0.2 0.2 0.3 0.3 0.5 0.2 0.3 0.3 0.7 0.5 1.1 0.4 0.9 0.7 2 1 3.4 0.1 0.5 0.1 0.9 0.2 1.3v0.1c0 0.4 0.1 0.8 0.1 1.2v0.4c0 2.1-0.5 3.4-0.6 3.7v0.1l-13.7 2.6-0.4 0.1 0.2 0.2 0.1 0.1c1.4 1.8 3.3 3.2 5.4 4.2 0.8 0.4 1.6 0.6 2.4 0.9 0.1 0 0.2 0.1 0.3 0.1 1.9 0.5 4 0.5 6.1 0.2 0.5-0.1 0.9-0.2 1.4-0.3 0.1 0 0.3-0.1 0.4-0.1 0.3-0.1 0.6-0.2 0.9-0.3 0.2-0.1 0.3-0.1 0.5-0.2 0.3-0.1 0.5-0.2 0.8-0.4 0.2-0.1 0.3-0.2 0.5-0.3s0.5-0.3 0.7-0.4 0.3-0.2 0.5-0.3 0.4-0.3 0.6-0.5c0.2-0.1 0.3-0.2 0.5-0.4s0.4-0.3 0.6-0.5l0.4-0.4c0.2-0.2 0.3-0.4 0.5-0.6 0.1-0.2 0.3-0.3 0.4-0.5 0.2-0.2 0.3-0.4 0.5-0.6 0.1-0.2 0.2-0.3 0.3-0.5 0.1-0.1 0.1-0.2 0.2-0.3l105.2 0.1c3.4 6.2 10.4 9.8 17.7 8.5 1.9-0.3 3.7-1 5.3-1.9 3.8-2.2 6.6-5.8 7.8-9.9z"/>
		<path d="m163.9 23l-8 1.5-8.1 1.5s-2.2-2.1-3.1-7.1c-0.1-0.3-0.1-0.5-0.1-0.8 0-0.2 0-0.3-0.1-0.5v-0.3-0.6-0.1-0.7-0.6c0-2.3 0.5-3.8 0.7-4.1l8-1.5 7.6-1.4 0.4-0.1c-0.1-0.1-0.2-0.2-0.3-0.4l-0.1-0.1c-3.7-4.6-9.8-7-16-5.9-0.5 0.1-0.9 0.2-1.4 0.3h-0.2c-0.4 0.1-0.9 0.3-1.3 0.4-0.1 0-0.1 0.1-0.2 0.1-0.4 0.2-0.8 0.3-1.2 0.5-0.1 0-0.1 0.1-0.2 0.1l-1.2 0.6s-0.1 0-0.1 0.1c-0.4 0.2-0.8 0.5-1.1 0.8-0.4 0.3-0.7 0.6-1.1 0.9l-0.1 0.1c-0.3 0.3-0.7 0.6-1 0.9l-0.1 0.1c-0.3 0.3-0.6 0.6-0.9 1 0 0 0 0.1-0.1 0.1-0.6 0.8-1.2 1.6-1.7 2.5h-60.5-44.8c-0.5-1.3-1.5-2.4-2.6-3.4-0.5-0.4-1-0.8-1.5-1.1-3-2-6.8-2.8-10.6-2.1-5.7 1-10 5.2-11.5 10.4l14.1-2.6 0.3 0.3c0.1 0.2 0.3 0.4 0.5 0.7 0 0 0.1 0.1 0.1 0.2 0.1 0.2 0.2 0.3 0.3 0.5 0.2 0.3 0.3 0.7 0.5 1.1 0.4 0.9 0.7 2 1 3.4 0.1 0.5 0.1 0.9 0.2 1.3v0.1c0 0.4 0.1 0.8 0.1 1.2v0.4c0 2.1-0.5 3.4-0.6 3.7v0.1l-13.8 2.5-0.4 0.1 0.2 0.2 0.1 0.1c1.4 1.8 3.3 3.2 5.4 4.2 0.8 0.4 1.6 0.6 2.4 0.9 0.1 0 0.2 0.1 0.3 0.1 1.9 0.5 4 0.5 6.1 0.2 0.5-0.1 0.9-0.2 1.4-0.3 0.1 0 0.3-0.1 0.4-0.1 0.3-0.1 0.6-0.2 0.9-0.3 0.2-0.1 0.3-0.1 0.5-0.2 0.3-0.1 0.5-0.2 0.8-0.4 0.2-0.1 0.3-0.2 0.5-0.3s0.5-0.3 0.7-0.4 0.3-0.2 0.5-0.3 0.4-0.3 0.6-0.5c0.2-0.1 0.3-0.2 0.5-0.4s0.4-0.3 0.6-0.5l0.4-0.4c0.2-0.2 0.3-0.4 0.5-0.6 0.1-0.2 0.3-0.3 0.4-0.5 0.2-0.2 0.3-0.4 0.5-0.6 0.1-0.2 0.2-0.3 0.3-0.5 0.1-0.1 0.1-0.2 0.2-0.3l105.2 0.1c3.4 6.2 10.4 9.8 17.7 8.5 1.9-0.3 3.7-1 5.3-1.9 3.8-2.2 6.6-5.8 7.8-9.9z"/>
		<path d="m163.9 22.9l-8 1.5-8.1 1.5s-2.2-2.1-3.1-7.1c-0.1-0.3-0.1-0.5-0.1-0.8 0-0.2 0-0.3-0.1-0.5v-0.3-0.6-0.1-0.7-0.6c0-2.3 0.5-3.8 0.7-4.1l8-1.5 7.6-1.4 0.4-0.1c-0.1-0.1-0.2-0.2-0.3-0.4l-0.1-0.1c-3.7-4.6-9.8-7-16-5.9-0.5 0.1-0.9 0.2-1.4 0.3h-0.2c-0.4 0.1-0.9 0.3-1.3 0.4-0.1 0-0.1 0.1-0.2 0.1-0.4 0.2-0.8 0.3-1.2 0.5-0.1 0-0.1 0.1-0.2 0.1l-1.2 0.6s-0.1 0-0.1 0.1c-0.4 0.2-0.8 0.5-1.1 0.8-0.4 0.3-0.7 0.6-1.1 0.9l-0.1 0.1c-0.3 0.3-0.7 0.6-1 0.9l-0.1 0.1c-0.3 0.3-0.6 0.6-0.9 1 0 0 0 0.1-0.1 0.1-0.6 0.8-1.2 1.6-1.7 2.5h-60.5-44.8c-0.8-1.2-1.8-2.3-2.9-3.3-0.5-0.4-1-0.8-1.5-1.1-3-2-6.8-2.8-10.6-2.1-5.5 1-9.8 5.1-11.3 10.3l14.1-2.6 0.3 0.3c0.1 0.2 0.3 0.4 0.5 0.7 0 0 0.1 0.1 0.1 0.2 0.1 0.2 0.2 0.3 0.3 0.5 0.2 0.3 0.3 0.7 0.5 1.1 0.4 0.9 0.7 2 1 3.4 0.1 0.5 0.1 0.9 0.2 1.3v0.1c0 0.4 0.1 0.8 0.1 1.2v0.4c0 2.1-0.5 3.4-0.6 3.7v0.1l-13.7 2.6-0.4 0.1 0.2 0.2 0.1 0.1c1.4 1.8 3.3 3.2 5.4 4.2 0.8 0.4 1.6 0.6 2.4 0.9 0.1 0 0.2 0.1 0.3 0.1 1.9 0.5 4 0.5 6.1 0.2 0.5-0.1 0.9-0.2 1.4-0.3 0.1 0 0.3-0.1 0.4-0.1 0.3-0.1 0.6-0.2 0.9-0.3 0.2-0.1 0.3-0.1 0.5-0.2 0.3-0.1 0.5-0.2 0.8-0.4 0.2-0.1 0.3-0.2 0.5-0.3s0.5-0.3 0.7-0.4 0.3-0.2 0.5-0.3 0.4-0.3 0.6-0.5c0.2-0.1 0.3-0.2 0.5-0.4s0.4-0.3 0.6-0.5l0.4-0.4c0.2-0.2 0.3-0.4 0.5-0.6 0.1-0.2 0.3-0.3 0.4-0.5 0.2-0.2 0.3-0.4 0.5-0.6 0.1-0.2 0.2-0.3 0.3-0.5 0.1-0.1 0.1-0.2 0.2-0.3l105.2 0.1c3.4 6.2 10.4 9.8 17.7 8.5 1.9-0.3 3.7-1 5.3-1.9 3.8-2.3 6.5-5.8 7.8-10z"/>
		<path d="m163.8 22.9l-8 1.5-8.1 1.5s-2.2-2.1-3.1-7.1c-0.1-0.3-0.1-0.5-0.1-0.8 0-0.2 0-0.3-0.1-0.5v-0.3-0.6-0.1-0.7-0.6c0-2.3 0.5-3.8 0.7-4.1l8-1.5 7.6-1.4 0.4-0.1c-0.1-0.1-0.2-0.2-0.3-0.4l-0.1-0.1c-3.7-4.6-9.8-7-16-5.9-0.5 0.1-0.9 0.2-1.4 0.3h-0.2c-0.4 0.1-0.9 0.3-1.3 0.4-0.1 0-0.1 0.1-0.2 0.1-0.4 0.2-0.8 0.3-1.2 0.5-0.1 0-0.1 0.1-0.2 0.1l-1.2 0.6s-0.1 0-0.1 0.1c-0.4 0.2-0.8 0.5-1.1 0.8-0.4 0.3-0.7 0.6-1.1 0.9l-0.1 0.1c-0.3 0.3-0.7 0.6-1 0.9l-0.1 0.1c-0.3 0.3-0.6 0.6-0.9 1 0 0 0 0.1-0.1 0.1-0.6 0.8-1.2 1.6-1.7 2.5h-60.5-44.8c-0.5-1.3-1.5-2.5-2.6-3.4-0.5-0.4-1-0.8-1.5-1.1-3-2-6.8-2.8-10.6-2.1-5.7 1-10 5.2-11.5 10.4l14.1-2.6 0.3 0.3c0.1 0.2 0.3 0.4 0.5 0.7 0 0 0.1 0.1 0.1 0.2 0.1 0.2 0.2 0.3 0.3 0.5 0.2 0.3 0.3 0.7 0.5 1.1 0.4 0.9 0.7 2 1 3.4 0.1 0.5 0.1 0.9 0.2 1.3v0.1c0 0.4 0.1 0.8 0.1 1.2v0.4c0 2.1-0.5 3.4-0.6 3.7v0.1l-13.8 2.5-0.4 0.1 0.2 0.2 0.1 0.1c1.4 1.8 3.3 3.2 5.4 4.2 0.8 0.4 1.6 0.6 2.4 0.9 0.1 0 0.2 0.1 0.3 0.1 1.9 0.5 4 0.5 6.1 0.2 0.5-0.1 0.9-0.2 1.4-0.3 0.1 0 0.3-0.1 0.4-0.1 0.3-0.1 0.6-0.2 0.9-0.3 0.2-0.1 0.3-0.1 0.5-0.2 0.3-0.1 0.5-0.2 0.8-0.4 0.2-0.1 0.3-0.2 0.5-0.3s0.5-0.3 0.7-0.4 0.3-0.2 0.5-0.3 0.4-0.3 0.6-0.5c0.2-0.1 0.3-0.2 0.5-0.4s0.4-0.3 0.6-0.5l0.4-0.4c0.2-0.2 0.3-0.4 0.5-0.6 0.1-0.2 0.3-0.3 0.4-0.5 0.2-0.2 0.3-0.4 0.5-0.6 0.1-0.2 0.2-0.3 0.3-0.5 0.1-0.1 0.1-0.2 0.2-0.3l105.2 0.1c3.4 6.2 10.4 9.8 17.7 8.5 1.9-0.3 3.7-1 5.3-1.9 3.8-2.2 6.6-5.8 7.8-9.9z"/>
		<path d="m163.8 22.8l-8 1.5-8.1 1.5s-2.2-2.1-3.1-7.1c-0.1-0.3-0.1-0.5-0.1-0.8 0-0.2 0-0.3-0.1-0.5v-0.3-0.6-0.1-0.7-0.6c0-2.3 0.5-3.8 0.7-4.1l8-1.5 7.6-1.4 0.3-0.1c-0.1-0.1-0.2-0.2-0.3-0.4l-0.1-0.1c-3.7-4.6-9.8-7-16-5.9-0.5 0.1-0.9 0.2-1.4 0.3h-0.2c-0.4 0.1-0.9 0.3-1.3 0.4-0.1 0-0.1 0.1-0.2 0.1-0.4 0.2-0.8 0.3-1.2 0.5-0.1 0-0.1 0.1-0.2 0.1l-1.2 0.6s-0.1 0-0.1 0.1c-0.4 0.2-0.8 0.5-1.1 0.8-0.4 0.3-0.7 0.6-1.1 0.9l-0.1 0.1c-0.3 0.3-0.7 0.6-1 0.9l-0.1 0.1c-0.3 0.3-0.6 0.6-0.9 1 0 0 0 0.1-0.1 0.1-0.6 0.8-1.2 1.6-1.7 2.5h-60.5-44.8c-0.4-1.3-1.4-2.4-2.5-3.3-0.5-0.4-1-0.8-1.5-1.1-3-2-6.8-2.8-10.6-2.1-5.8 1-10.1 5.1-11.6 10.3l14.1-2.6 0.3 0.3c0.1 0.2 0.3 0.4 0.5 0.7 0 0 0.1 0.1 0.1 0.2 0.1 0.2 0.2 0.3 0.3 0.5 0.2 0.3 0.3 0.7 0.5 1.1 0.4 0.9 0.7 2 1 3.4 0.1 0.5 0.1 0.9 0.2 1.3v0.1c0 0.4 0.1 0.8 0.1 1.2v0.4c0 2.1-0.5 3.4-0.6 3.7v0.1l-13.7 2.6-0.4 0.1 0.2 0.2 0.1 0.1c1.4 1.8 3.3 3.2 5.4 4.2 0.8 0.4 1.6 0.6 2.4 0.9 0.1 0 0.2 0.1 0.3 0.1 1.9 0.5 4 0.5 6.1 0.2 0.5-0.1 0.9-0.2 1.4-0.3 0.1 0 0.3-0.1 0.4-0.1 0.3-0.1 0.6-0.2 0.9-0.3 0.2-0.1 0.3-0.1 0.5-0.2 0.3-0.1 0.5-0.2 0.8-0.4 0.2-0.1 0.3-0.2 0.5-0.3s0.5-0.3 0.7-0.4 0.3-0.2 0.5-0.3 0.4-0.3 0.6-0.5c0.2-0.1 0.3-0.2 0.5-0.4s0.4-0.3 0.6-0.5l0.4-0.4c0.2-0.2 0.3-0.4 0.5-0.6 0.1-0.2 0.3-0.3 0.4-0.5 0.2-0.2 0.3-0.4 0.5-0.6 0.1-0.2 0.2-0.3 0.3-0.5 0.1-0.1 0.1-0.2 0.2-0.3l105.2 0.1c3.4 6.2 10.4 9.8 17.7 8.5 1.9-0.3 3.7-1 5.3-1.9 3.7-2.3 6.5-5.8 7.8-10z"/>
		<path d="m163.7 22.8l-8 1.5-8.1 1.5s-2.2-2.1-3.1-7.1c-0.1-0.3-0.1-0.5-0.1-0.8 0-0.2 0-0.3-0.1-0.5v-0.3-0.6-0.1-0.7-0.6c0-2.3 0.5-3.8 0.7-4.1l8-1.5 7.6-1.4 0.4-0.1c-0.1-0.1-0.2-0.2-0.3-0.4l-0.1-0.1c-3.7-4.6-9.8-7-16-5.9-0.5 0.1-0.9 0.2-1.4 0.3h-0.2c-0.4 0.1-0.9 0.3-1.3 0.4-0.1 0-0.1 0.1-0.2 0.1-0.4 0.2-0.8 0.3-1.2 0.5-0.1 0-0.1 0.1-0.2 0.1l-1.2 0.6s-0.1 0-0.1 0.1c-0.4 0.2-0.8 0.5-1.1 0.8-0.4 0.3-0.7 0.6-1.1 0.9l-0.1 0.1c-0.3 0.3-0.7 0.6-1 0.9l-0.1 0.1c-0.3 0.3-0.6 0.6-0.9 1 0 0 0 0.1-0.1 0.1-0.6 0.8-1.2 1.6-1.7 2.5h-60.5-44.8c-0.8-1.2-1.8-2.3-2.9-3.3-0.5-0.4-1-0.8-1.5-1.1-3-2-6.8-2.8-10.6-2.1-5.4 0.9-9.7 5-11.3 10.2l14.1-2.6 0.3 0.3c0.1 0.2 0.3 0.4 0.5 0.7 0 0 0.1 0.1 0.1 0.2 0.1 0.2 0.2 0.3 0.3 0.5 0.2 0.3 0.3 0.7 0.5 1.1 0.4 0.9 0.7 2 1 3.4 0.1 0.5 0.1 0.9 0.2 1.3v0.1c0 0.4 0.1 0.8 0.1 1.2v0.4c0 2.1-0.5 3.4-0.6 3.7v0.1l-13.7 2.6-0.4 0.1 0.2 0.2 0.1 0.1c1.4 1.8 3.3 3.2 5.4 4.2 0.8 0.4 1.6 0.6 2.4 0.9 0.1 0 0.2 0.1 0.3 0.1 1.9 0.5 4 0.5 6.1 0.2 0.5-0.1 0.9-0.2 1.4-0.3 0.1 0 0.3-0.1 0.4-0.1 0.3-0.1 0.6-0.2 0.9-0.3 0.2-0.1 0.3-0.1 0.5-0.2 0.3-0.1 0.5-0.2 0.8-0.4 0.2-0.1 0.3-0.2 0.5-0.3s0.5-0.3 0.7-0.4 0.3-0.2 0.5-0.3 0.4-0.3 0.6-0.5c0.2-0.1 0.3-0.2 0.5-0.4s0.4-0.3 0.6-0.5l0.4-0.4c0.2-0.2 0.3-0.4 0.5-0.6 0.1-0.2 0.3-0.3 0.4-0.5 0.2-0.2 0.3-0.4 0.5-0.6 0.1-0.2 0.2-0.3 0.3-0.5 0.1-0.1 0.1-0.2 0.2-0.3h105.2c3.4 6.2 10.4 9.8 17.7 8.5 1.9-0.3 3.7-1 5.3-1.9 3.8-2.2 6.6-5.7 7.8-9.8z"/>
		<path d="m163.6 22.7l-8 1.5-8.1 1.5s-2.2-2.1-3.1-7.1c-0.1-0.3-0.1-0.5-0.1-0.8 0-0.2 0-0.3-0.1-0.5v-0.3-0.6-0.1-0.7-0.6c0-2.3 0.5-3.8 0.7-4.1l8-1.5 7.6-1.4 0.4-0.1c-0.1-0.1-0.2-0.2-0.3-0.4l-0.1-0.1c-3.7-4.6-9.8-7-16-5.9-0.5 0.1-0.9 0.2-1.4 0.3h-0.2c-0.4 0.1-0.9 0.3-1.3 0.4-0.1 0-0.1 0.1-0.2 0.1-0.4 0.2-0.8 0.3-1.2 0.5-0.1 0-0.1 0.1-0.2 0.1l-1.2 0.6s-0.1 0-0.1 0.1c-0.4 0.2-0.8 0.5-1.1 0.8-0.4 0.3-0.7 0.6-1.1 0.9l-0.1 0.1c-0.3 0.3-0.7 0.6-1 0.9l-0.1 0.1c-0.3 0.3-0.6 0.6-0.9 1 0 0 0 0.1-0.1 0.1-0.6 0.8-1.2 1.6-1.7 2.5h-60.5-44.8c-0.8-1.2-1.8-2.3-2.9-3.3-0.5-0.4-1-0.8-1.5-1.1-3-2-6.8-2.8-10.6-2.1-5.7 1-10 5.2-11.5 10.4l14.1-2.6 0.3 0.3c0.1 0.2 0.3 0.4 0.5 0.7 0 0 0.1 0.1 0.1 0.2 0.1 0.2 0.2 0.3 0.3 0.5 0.2 0.3 0.3 0.7 0.5 1.1 0.4 0.9 0.7 2 1 3.4 0.1 0.5 0.1 0.9 0.2 1.3v0.1c0 0.4 0.1 0.8 0.1 1.2v0.4c0 2.1-0.5 3.4-0.6 3.7v0.1l-13.5 2.4-0.4 0.1 0.2 0.2 0.1 0.1c1.4 1.8 3.3 3.2 5.4 4.2 0.8 0.4 1.6 0.6 2.4 0.9 0.1 0 0.2 0.1 0.3 0.1 1.9 0.5 4 0.5 6.1 0.2 0.5-0.1 0.9-0.2 1.4-0.3 0.1 0 0.3-0.1 0.4-0.1 0.3-0.1 0.6-0.2 0.9-0.3 0.2-0.1 0.3-0.1 0.5-0.2 0.3-0.1 0.5-0.2 0.8-0.4 0.2-0.1 0.3-0.2 0.5-0.3s0.5-0.3 0.7-0.4 0.3-0.2 0.5-0.3 0.4-0.3 0.6-0.5c0.2-0.1 0.3-0.2 0.5-0.4s0.4-0.3 0.6-0.5l0.4-0.4c0.2-0.2 0.3-0.4 0.5-0.6 0.1-0.2 0.3-0.3 0.4-0.5 0.2-0.2 0.3-0.4 0.5-0.6 0.1-0.2 0.2-0.3 0.3-0.5 0.1-0.1 0.1-0.2 0.2-0.3l105.2 0.1c3.4 6.2 10.4 9.8 17.7 8.5 1.9-0.3 3.7-1 5.3-1.9 3.8-2.2 6.6-5.8 7.8-9.9z"/>
		<path d="m163.6 22.6l-8 1.5-8.1 1.5s-2.2-2.1-3.1-7.1c-0.1-0.3-0.1-0.5-0.1-0.8 0-0.2 0-0.3-0.1-0.5v-0.3-0.6-0.1-0.7-0.6c0-2.3 0.5-3.8 0.7-4.1l8-1.5 7.6-1.4 0.4-0.1c-0.1-0.1-0.2-0.2-0.3-0.4l-0.1-0.1c-3.7-4.6-9.8-7-16-5.9-0.5 0.1-0.9 0.2-1.4 0.3h-0.2c-0.4 0.1-0.9 0.3-1.3 0.4-0.1 0-0.1 0.1-0.2 0.1-0.4 0.2-0.8 0.3-1.2 0.5-0.1 0-0.1 0.1-0.2 0.1l-1.2 0.6s-0.1 0-0.1 0.1c-0.4 0.2-0.8 0.5-1.1 0.8-0.4 0.3-0.7 0.6-1.1 0.9l-0.1 0.1c-0.3 0.3-0.7 0.6-1 0.9l-0.1 0.1c-0.3 0.3-0.6 0.6-0.9 1 0 0 0 0.1-0.1 0.1-0.6 0.8-1.2 1.6-1.7 2.5h-60.5-44.8c-0.8-1.2-1.8-2.3-2.9-3.3-0.5-0.4-1-0.8-1.5-1.1-3-2-6.8-2.8-10.6-2.1-5.4 1-9.8 5.1-11.3 10.3l14.1-2.6 0.3 0.3c0.1 0.2 0.3 0.4 0.5 0.7 0 0 0.1 0.1 0.1 0.2 0.1 0.2 0.2 0.3 0.3 0.5 0.2 0.3 0.3 0.7 0.5 1.1 0.4 0.9 0.7 2 1 3.4 0.1 0.5 0.1 0.9 0.2 1.3v0.1c0 0.4 0.1 0.8 0.1 1.2v0.4c0 2.1-0.5 3.4-0.6 3.7v0.1l-13.7 2.6-0.4 0.1 0.2 0.2 0.1 0.1c1.4 1.8 3.3 3.2 5.3 4.2 0.8 0.4 1.6 0.6 2.4 0.9 0.1 0 0.2 0.1 0.3 0.1 1.9 0.5 4 0.5 6.1 0.2 0.5-0.1 0.9-0.2 1.4-0.3 0.1 0 0.3-0.1 0.4-0.1 0.3-0.1 0.6-0.2 0.9-0.3 0.2-0.1 0.3-0.1 0.5-0.2 0.3-0.1 0.5-0.2 0.8-0.4 0.2-0.1 0.3-0.2 0.5-0.3s0.5-0.3 0.7-0.4 0.3-0.2 0.5-0.3 0.4-0.3 0.6-0.5c0.2-0.1 0.3-0.2 0.5-0.4s0.4-0.3 0.6-0.5l0.4-0.4c0.2-0.2 0.3-0.4 0.5-0.6 0.1-0.2 0.3-0.3 0.4-0.5 0.2-0.2 0.3-0.4 0.5-0.6 0.1-0.2 0.2-0.3 0.3-0.5 0.1-0.1 0.1-0.2 0.2-0.3l105.2 0.1c3.4 6.2 10.4 9.8 17.7 8.5 1.9-0.3 3.7-1 5.3-1.9 3.9-2.3 6.7-5.8 7.9-10z"/>
		<path d="m163.5 22.6l-8 1.5-8.1 1.5s-2.2-2.1-3.1-7.1c-0.1-0.3-0.1-0.5-0.1-0.8 0-0.2 0-0.3-0.1-0.5v-0.3-0.6-0.1-0.7-0.6c0-2.3 0.5-3.8 0.7-4.1l8-1.5 7.6-1.4 0.4-0.1c-0.1-0.1-0.2-0.2-0.3-0.4l-0.1-0.1c-3.7-4.6-9.8-7-16-5.9-0.5 0.1-0.9 0.2-1.4 0.3h-0.2c-0.4 0.1-0.9 0.3-1.3 0.4-0.1 0-0.1 0.1-0.2 0.1-0.4 0.2-0.8 0.3-1.2 0.5-0.1 0-0.1 0.1-0.2 0.1l-1.2 0.6s-0.1 0-0.1 0.1c-0.4 0.2-0.8 0.5-1.1 0.8-0.4 0.3-0.7 0.6-1.1 0.9l-0.1 0.1c-0.3 0.3-0.7 0.6-1 0.9l-0.1 0.1c-0.3 0.3-0.6 0.6-0.9 1 0 0 0 0.1-0.1 0.1-0.6 0.8-1.2 1.6-1.7 2.5h-60.5-44.8c-0.8-1.2-1.8-2.3-2.9-3.3-0.5-0.4-1-0.8-1.5-1.1-3-2-6.8-2.8-10.6-2.1-5.4 0.9-9.7 5-11.2 10.2l14.1-2.6 0.3 0.3c0.1 0.2 0.3 0.4 0.5 0.7 0 0 0.1 0.1 0.1 0.2 0.1 0.2 0.2 0.3 0.3 0.5 0.2 0.3 0.3 0.7 0.5 1.1 0.4 0.9 0.7 2 1 3.4 0.1 0.5 0.1 0.9 0.2 1.3v0.1c0 0.4 0.1 0.8 0.1 1.2v0.4c0 2.1-0.5 3.4-0.6 3.7v0.1l-13.8 2.6-0.4 0.1 0.2 0.2 0.1 0.1c1.4 1.8 3.3 3.2 5.4 4.2 0.8 0.4 1.6 0.6 2.4 0.9 0.1 0 0.2 0.1 0.3 0.1 1.9 0.5 4 0.5 6.1 0.2 0.5-0.1 0.9-0.2 1.4-0.3 0.1 0 0.3-0.1 0.4-0.1 0.3-0.1 0.6-0.2 0.9-0.3 0.2-0.1 0.3-0.1 0.5-0.2 0.3-0.1 0.5-0.2 0.8-0.4 0.2-0.1 0.3-0.2 0.5-0.3s0.5-0.3 0.7-0.4 0.3-0.2 0.5-0.3 0.4-0.3 0.6-0.5c0.2-0.1 0.3-0.2 0.5-0.4s0.4-0.3 0.6-0.5l0.4-0.4c0.2-0.2 0.3-0.4 0.5-0.6 0.1-0.2 0.3-0.3 0.4-0.5 0.2-0.2 0.3-0.4 0.5-0.6 0.1-0.2 0.2-0.3 0.3-0.5 0.1-0.1 0.1-0.2 0.2-0.3l105.2 0.1c3.4 6.2 10.4 9.8 17.7 8.5 1.9-0.3 3.7-1 5.3-1.9 3.8-2.2 6.6-5.8 7.8-9.9z"/>
		<path d="m163.5 22.5l-8 1.5-8.1 1.5s-2.2-2.1-3.1-7.1c-0.1-0.3-0.1-0.5-0.1-0.8 0-0.2 0-0.3-0.1-0.5v-0.3-0.6-0.1-0.7-0.6c0-2.3 0.5-3.8 0.7-4.1l8-1.5 7.6-1.4 0.4-0.1c-0.1-0.1-0.2-0.2-0.3-0.4l-0.1-0.1c-3.7-4.6-9.8-7-16-5.9-0.5 0.1-0.9 0.2-1.4 0.3h-0.2c-0.4 0.1-0.9 0.3-1.3 0.4-0.1 0-0.1 0.1-0.2 0.1-0.4 0.2-0.8 0.3-1.2 0.5-0.1 0-0.1 0.1-0.2 0.1l-1.2 0.6s-0.1 0-0.1 0.1c-0.4 0.2-0.8 0.5-1.1 0.8-0.4 0.3-0.7 0.6-1.1 0.9l-0.1 0.1c-0.3 0.3-0.7 0.6-1 0.9l-0.1 0.1c-0.3 0.3-0.6 0.6-0.9 1 0 0 0 0.1-0.1 0.1-0.6 0.8-1.2 1.6-1.7 2.5h-60.5-44.8c-0.8-1.2-1.8-2.3-2.9-3.3-0.5-0.4-1-0.8-1.5-1.1-3-2-6.8-2.8-10.6-2.1-5.7 1-10 5.2-11.5 10.4l14.4-2.7 0.3 0.3c0.1 0.2 0.3 0.4 0.5 0.7 0 0 0.1 0.1 0.1 0.2 0.1 0.2 0.2 0.3 0.3 0.5 0.2 0.3 0.3 0.7 0.5 1.1 0.4 0.9 0.7 2 1 3.4 0.1 0.5 0.1 0.9 0.2 1.3v0.1c0 0.4 0.1 0.8 0.1 1.2v0.4c0 2.1-0.5 3.4-0.6 3.7v0.1l-13.8 2.5-0.4 0.1 0.2 0.2 0.1 0.1c1.4 1.8 3.3 3.2 5.4 4.2 0.8 0.4 1.6 0.6 2.4 0.9 0.1 0 0.2 0.1 0.3 0.1 1.9 0.5 4 0.5 6.1 0.2 0.5-0.1 0.9-0.2 1.4-0.3 0.1 0 0.3-0.1 0.4-0.1 0.3-0.1 0.6-0.2 0.9-0.3 0.2-0.1 0.3-0.1 0.5-0.2 0.3-0.1 0.5-0.2 0.8-0.4 0.2-0.1 0.3-0.2 0.5-0.3s0.5-0.3 0.7-0.4 0.3-0.2 0.5-0.3 0.4-0.3 0.6-0.5c0.2-0.1 0.3-0.2 0.5-0.4s0.4-0.3 0.6-0.5l0.4-0.4c0.2-0.2 0.3-0.4 0.5-0.6 0.1-0.2 0.3-0.3 0.4-0.5 0.2-0.2 0.3-0.4 0.5-0.6 0.1-0.2 0.2-0.3 0.3-0.5 0.1-0.1 0.1-0.2 0.2-0.3l105.2 0.1c3.4 6.2 10.4 9.8 17.7 8.5 1.9-0.3 3.7-1 5.3-1.9 3.8-2.2 6.6-5.8 7.8-9.9z"/>
		<path d="m163.4 22.4l-8 1.5-8.1 1.5s-2.2-2.1-3.1-7.1c-0.1-0.3-0.1-0.5-0.1-0.8 0-0.2 0-0.3-0.1-0.5v-0.3-0.6-0.1-0.7-0.6c0-2.3 0.5-3.8 0.7-4.1l8-1.5 7.6-1.4 0.4-0.1c-0.1-0.1-0.2-0.2-0.3-0.4l-0.1-0.1c-3.7-4.6-9.8-7-16-5.9-0.5 0.1-0.9 0.2-1.4 0.3h-0.2c-0.4 0.1-0.9 0.3-1.3 0.4-0.1 0-0.1 0.1-0.2 0.1-0.4 0.2-0.8 0.3-1.2 0.5-0.1 0-0.1 0.1-0.2 0.1l-1.2 0.6s-0.1 0-0.1 0.1c-0.4 0.2-0.8 0.5-1.1 0.8-0.4 0.3-0.7 0.6-1.1 0.9l-0.1 0.1c-0.3 0.3-0.7 0.6-1 0.9l-0.1 0.1c-0.3 0.3-0.6 0.6-0.9 1 0 0 0 0.1-0.1 0.1-0.6 0.8-1.2 1.6-1.7 2.5h-60.5-44.8c-0.8-1.2-1.8-2.3-2.9-3.3-0.2-0.4-0.7-0.8-1.2-1.2-3-2-6.8-2.8-10.6-2.1-5.7 1-10 5.2-11.5 10.4l14.1-2.6 0.3 0.3c0.1 0.2 0.3 0.4 0.5 0.7 0 0 0.1 0.1 0.1 0.2 0.1 0.2 0.2 0.3 0.3 0.5 0.2 0.3 0.3 0.7 0.5 1.1 0.4 0.9 0.7 2 1 3.4 0.1 0.5 0.1 0.9 0.2 1.3v0.1c0 0.4 0.1 0.8 0.1 1.2v0.4c0 2.1-0.5 3.4-0.6 3.7v0.1l-13.8 2.6-0.4 0.1 0.2 0.2 0.1 0.1c1.4 1.8 3.3 3.2 5.4 4.2 0.8 0.4 1.6 0.6 2.4 0.9 0.1 0 0.2 0.1 0.3 0.1 1.9 0.5 4 0.5 6.1 0.2 0.5-0.1 0.9-0.2 1.4-0.3 0.1 0 0.3-0.1 0.4-0.1 0.3-0.1 0.6-0.2 0.9-0.3 0.2-0.1 0.3-0.1 0.5-0.2 0.3-0.1 0.5-0.2 0.8-0.4 0.2-0.1 0.3-0.2 0.5-0.3s0.5-0.3 0.7-0.4 0.3-0.2 0.5-0.3 0.4-0.3 0.6-0.5c0.2-0.1 0.3-0.2 0.5-0.4s0.4-0.3 0.6-0.5l0.4-0.4c0.2-0.2 0.3-0.4 0.5-0.6 0.1-0.2 0.3-0.3 0.4-0.5 0.2-0.2 0.3-0.4 0.5-0.6 0.1-0.2 0.2-0.3 0.3-0.5 0.1-0.1 0.1-0.2 0.2-0.3l105.2 0.1c3.4 6.2 10.4 9.8 17.7 8.5 1.9-0.3 3.7-1 5.3-1.9 3.8-2.3 6.6-5.8 7.8-10z"/>
		<path d="m163.4 22.4l-8 1.5-8.1 1.5s-2.2-2.1-3.1-7.1c-0.1-0.3-0.1-0.5-0.1-0.8 0-0.2 0-0.3-0.1-0.5v-0.3-0.6-0.1-0.7-0.6c0-2.3 0.5-3.8 0.7-4.1l8-1.5 7.6-1.4 0.4-0.1c-0.1-0.1-0.2-0.2-0.3-0.4l-0.1-0.1c-3.7-4.6-9.8-7-16-5.9-0.5 0.1-0.9 0.2-1.4 0.3h-0.2c-0.4 0.1-0.9 0.3-1.3 0.4-0.1 0-0.1 0.1-0.2 0.1-0.4 0.2-0.8 0.3-1.2 0.5-0.1 0-0.1 0.1-0.2 0.1l-1.2 0.6s-0.1 0-0.1 0.1c-0.4 0.2-0.8 0.5-1.1 0.8-0.4 0.3-0.7 0.6-1.1 0.9l-0.1 0.1c-0.3 0.3-0.7 0.6-1 0.9l-0.1 0.1c-0.3 0.3-0.6 0.6-0.9 1 0 0 0 0.1-0.1 0.1-0.6 0.8-1.2 1.6-1.7 2.5h-60.5-44.8c-0.8-1.2-1.8-2.3-2.9-3.3-0.5-0.4-1-0.8-1.5-1.1-3-2-6.8-2.8-10.6-2.1-5.7 1-10 5.2-11.5 10.4l14.1-2.6 0.3 0.3c0.1 0.2 0.3 0.4 0.5 0.7 0 0 0.1 0.1 0.1 0.2 0.1 0.2 0.2 0.3 0.3 0.5 0.2 0.3 0.3 0.7 0.5 1.1 0.4 0.9 0.7 2 1 3.4 0.1 0.5 0.1 0.9 0.2 1.3v0.1c0 0.4 0.1 0.8 0.1 1.2v0.4c0 2.1-0.5 3.4-0.6 3.7v0.1l-13.5 2.4-0.4 0.1 0.2 0.2 0.1 0.1c1.4 1.8 3.2 3.2 5.3 4.2 0.8 0.4 1.6 0.6 2.4 0.9 0.1 0 0.2 0.1 0.3 0.1 1.9 0.5 4 0.5 6.1 0.2 0.5-0.1 0.9-0.2 1.4-0.3 0.1 0 0.3-0.1 0.4-0.1 0.3-0.1 0.6-0.2 0.9-0.3 0.2-0.1 0.3-0.1 0.5-0.2 0.3-0.1 0.5-0.2 0.8-0.4 0.2-0.1 0.3-0.2 0.5-0.3s0.5-0.3 0.7-0.4 0.3-0.2 0.5-0.3 0.4-0.3 0.6-0.5c0.2-0.1 0.3-0.2 0.5-0.4s0.4-0.3 0.6-0.5l0.4-0.4c0.2-0.2 0.3-0.4 0.5-0.6 0.1-0.2 0.3-0.3 0.4-0.5 0.2-0.2 0.3-0.4 0.5-0.6 0.1-0.2 0.2-0.3 0.3-0.5 0.1-0.1 0.1-0.2 0.2-0.3l105.2 0.1c3.4 6.2 10.4 9.8 17.7 8.5 1.9-0.3 3.7-1 5.3-1.9 3.8-2.2 6.6-5.8 7.9-9.9z"/>
		<path d="m163.3 22.3l-8 1.5-8.1 1.5s-2.2-2.1-3.1-7.1c-0.1-0.3-0.1-0.5-0.1-0.8 0-0.2 0-0.3-0.1-0.5v-0.3-0.6-0.1-0.7-0.6c0-2.3 0.5-3.8 0.7-4.1l8-1.5 7.6-1.4 0.4-0.1c-0.1-0.1-0.2-0.2-0.3-0.4l-0.1-0.1c-3.7-4.6-9.8-7-16-5.9-0.5 0.1-0.9 0.2-1.4 0.3h-0.2c-0.4 0.1-0.9 0.3-1.3 0.4-0.1 0-0.1 0.1-0.2 0.1-0.4 0.2-0.8 0.3-1.2 0.5-0.1 0-0.1 0.1-0.2 0.1l-1.2 0.6s-0.1 0-0.1 0.1c-0.4 0.2-0.8 0.5-1.1 0.8-0.4 0.3-0.7 0.6-1.1 0.9l-0.1 0.1c-0.3 0.3-0.7 0.6-1 0.9l-0.1 0.1c-0.3 0.3-0.6 0.6-0.9 1 0 0 0 0.1-0.1 0.1-0.6 0.8-1.2 1.6-1.7 2.5l-60.3-0.1h-44.8c-0.8-1.2-1.8-2.3-2.9-3.3-0.5-0.4-1-0.8-1.5-1.1-3-2-6.8-2.8-10.6-2.1-5.6 1-9.9 5.2-11.5 10.4l14.1-2.6 0.3 0.3c0.1 0.2 0.3 0.4 0.5 0.7 0 0 0.1 0.1 0.1 0.2 0.1 0.2 0.2 0.3 0.3 0.5 0.2 0.3 0.3 0.7 0.5 1.1 0.4 0.9 0.7 2 1 3.4 0.1 0.5 0.1 0.9 0.2 1.3v0.1c0 0.4 0.1 0.8 0.1 1.2v0.4c0 2.1-0.5 3.4-0.6 3.7v0.1l-13.7 2.5-0.4 0.1 0.2 0.2 0.1 0.1c1.4 1.8 3.3 3.2 5.4 4.2 0.8 0.4 1.6 0.6 2.4 0.9 0.1 0 0.2 0.1 0.3 0.1 1.9 0.5 4 0.5 6.1 0.2 0.5-0.1 0.9-0.2 1.4-0.3 0.1 0 0.3-0.1 0.4-0.1 0.3-0.1 0.6-0.2 0.9-0.3 0.2-0.1 0.3-0.1 0.5-0.2 0.3-0.1 0.5-0.2 0.8-0.4 0.2-0.1 0.3-0.2 0.5-0.3s0.5-0.3 0.7-0.4 0.3-0.2 0.5-0.3 0.4-0.3 0.6-0.5c0.2-0.1 0.3-0.2 0.5-0.4s0.4-0.3 0.6-0.5l0.4-0.4c0.2-0.2 0.3-0.4 0.5-0.6 0.1-0.2 0.3-0.3 0.4-0.5 0.2-0.2 0.3-0.4 0.5-0.6 0.1-0.2 0.2-0.3 0.3-0.5 0.1-0.1 0.1-0.2 0.2-0.3l105.2 0.1c3.4 6.2 10.4 9.8 17.7 8.5 1.9-0.3 3.7-1 5.3-1.9 3.8-2.2 6.6-5.8 7.8-9.9z"/>
		<path d="m163.2 22.2l-8 1.5-8.1 1.5s-2.2-2.1-3.1-7.1c-0.1-0.3-0.1-0.5-0.1-0.8 0-0.2 0-0.3-0.1-0.5v-0.3-0.6-0.1-0.7-0.6c0-2.3 0.5-3.8 0.7-4.1l8-1.5 7.6-1.4 0.4-0.1c-0.1-0.1-0.2-0.2-0.3-0.4l-0.1-0.1c-3.7-4.6-9.8-7-16-5.9-0.5 0.1-0.9 0.2-1.4 0.3h-0.2c-0.4 0.1-0.9 0.3-1.3 0.4-0.1 0-0.1 0.1-0.2 0.1-0.4 0.2-0.8 0.3-1.2 0.5-0.1 0-0.1 0.1-0.2 0.1l-1.2 0.6s-0.1 0-0.1 0.1c-0.4 0.2-0.8 0.5-1.1 0.8-0.4 0.3-0.7 0.6-1.1 0.9l-0.1 0.1c-0.3 0.3-0.7 0.6-1 0.9l-0.1 0.1c-0.3 0.3-0.6 0.6-0.9 1 0 0 0 0.1-0.1 0.1-0.6 0.8-1.2 1.6-1.7 2.5h-60.2-44.8c-0.8-1.2-1.8-2.3-2.9-3.3-0.5-0.4-1-0.8-1.5-1.1-3-2-6.8-2.8-10.6-2.1-5.7 1-10 5.1-11.5 10.3l14.1-2.6 0.3 0.3c0.1 0.2 0.3 0.4 0.5 0.7 0 0 0.1 0.1 0.1 0.2 0.1 0.2 0.2 0.3 0.3 0.5 0.2 0.3 0.3 0.7 0.5 1.1 0.4 0.9 0.7 2 1 3.4 0.1 0.5 0.1 0.9 0.2 1.3v0.1c0 0.4 0.1 0.8 0.1 1.2v0.4c0 2.1-0.5 3.4-0.6 3.7v0.1l-13.7 2.6-0.4 0.1 0.2 0.2 0.1 0.1c1.4 1.8 3.3 3.2 5.4 4.2 0.8 0.4 1.6 0.6 2.4 0.9 0.1 0 0.2 0.1 0.3 0.1 1.9 0.5 4 0.5 6.1 0.2 0.5-0.1 0.9-0.2 1.4-0.3 0.1 0 0.3-0.1 0.4-0.1 0.3-0.1 0.6-0.2 0.9-0.3 0.2-0.1 0.3-0.1 0.5-0.2 0.3-0.1 0.5-0.2 0.8-0.4 0.2-0.1 0.3-0.2 0.5-0.3s0.5-0.3 0.7-0.4 0.3-0.2 0.5-0.3 0.4-0.3 0.6-0.5c0.2-0.1 0.3-0.2 0.5-0.4s0.4-0.3 0.6-0.5l0.4-0.4c0.2-0.2 0.3-0.4 0.5-0.6 0.1-0.2 0.3-0.3 0.4-0.5 0.2-0.2 0.3-0.4 0.5-0.6 0.1-0.2 0.2-0.3 0.3-0.5 0.1-0.1 0.1-0.2 0.2-0.3l105.2 0.1c3.4 6.2 10.4 9.8 17.7 8.5 1.9-0.3 3.7-1 5.3-1.9 3.7-2.3 6.5-5.8 7.7-10z"/>
		<path d="m163.2 22.2l-8 1.5-8.1 1.5s-2.2-2.1-3.1-7.1c-0.1-0.3-0.1-0.5-0.1-0.8 0-0.2 0-0.3-0.1-0.5v-0.3-0.6-0.1-0.7-0.6c0-2.3 0.5-3.8 0.7-4.1l8-1.5 7.6-1.4 0.4-0.1c-0.1-0.1-0.2-0.2-0.3-0.4l-0.1-0.1c-3.7-4.6-9.8-7-16-5.9-0.5 0.1-0.9 0.2-1.4 0.3h-0.2c-0.4 0.1-0.9 0.3-1.3 0.4-0.1 0-0.1 0.1-0.2 0.1-0.4 0.2-0.8 0.3-1.2 0.5-0.1 0-0.1 0.1-0.2 0.1l-1.2 0.6s-0.1 0-0.1 0.1c-0.4 0.2-0.8 0.5-1.1 0.8-0.4 0.3-0.7 0.6-1.1 0.9l-0.1 0.1c-0.3 0.3-0.7 0.6-1 0.9l-0.1 0.1c-0.3 0.3-0.6 0.6-0.9 1 0 0 0 0.1-0.1 0.1-0.6 0.8-1.2 1.6-1.7 2.5h-60.5-44.8c-0.8-1.2-1.8-2.3-2.9-3.3-0.5-0.4-1-0.8-1.5-1.1-3-2-6.8-2.8-10.6-2.1-5.7 1-10 5.2-11.5 10.4l14.1-2.6 0.3 0.3c0.1 0.2 0.3 0.4 0.5 0.7 0 0 0.1 0.1 0.1 0.2 0.1 0.2 0.2 0.3 0.3 0.5 0.2 0.3 0.3 0.7 0.5 1.1 0.4 0.9 0.7 2 1 3.4 0.1 0.5 0.1 0.9 0.2 1.3v0.1c0 0.4 0.1 0.8 0.1 1.2v0.4c0 2.1-0.5 3.4-0.6 3.7v0.1l-13.5 2.4-0.4 0.1 0.2 0.2 0.1 0.1c1.4 1.8 3.3 3.2 5.4 4.2 0.8 0.4 1.6 0.6 2.4 0.9 0.1 0 0.2 0.1 0.3 0.1 1.9 0.5 4 0.5 6.1 0.2 0.5-0.1 0.9-0.2 1.4-0.3 0.1 0 0.3-0.1 0.4-0.1 0.3-0.1 0.6-0.2 0.9-0.3 0.2-0.1 0.3-0.1 0.5-0.2 0.3-0.1 0.5-0.2 0.8-0.4 0.2-0.1 0.3-0.2 0.5-0.3s0.5-0.3 0.7-0.4 0.3-0.2 0.5-0.3 0.4-0.3 0.6-0.5c0.2-0.1 0.3-0.2 0.5-0.4s0.4-0.3 0.6-0.5l0.4-0.4c0.2-0.2 0.3-0.4 0.5-0.6 0.1-0.2 0.3-0.3 0.4-0.5 0.2-0.2 0.3-0.4 0.5-0.6 0.1-0.2 0.2-0.3 0.3-0.5 0.1-0.1 0.1-0.2 0.2-0.3l105.2 0.1c3.4 6.2 10.4 9.8 17.7 8.5 1.9-0.3 3.7-1 5.3-1.9 3.8-2.2 6.6-5.8 7.8-9.9z"/>
		<path d="m163.1 22.1l-8 1.5-8.1 1.5s-2.2-2.1-3.1-7.1c-0.1-0.3-0.1-0.5-0.1-0.8 0-0.2 0-0.3-0.1-0.5v-0.3-0.6-0.1-0.7-0.6c0-2.3 0.5-3.8 0.7-4.1l8-1.5 7.6-1.4 0.4-0.1c-0.1-0.1-0.2-0.2-0.3-0.4l-0.1-0.1c-3.7-4.6-9.8-7-16-5.9-0.5 0.1-0.9 0.2-1.4 0.3h-0.2c-0.4 0.1-0.9 0.3-1.3 0.4-0.1 0-0.1 0.1-0.2 0.1-0.4 0.2-0.8 0.3-1.2 0.5-0.1 0-0.1 0.1-0.2 0.1l-1.2 0.6s-0.1 0-0.1 0.1c-0.4 0.2-0.8 0.5-1.1 0.8-0.4 0.3-0.7 0.6-1.1 0.9l-0.1 0.1c-0.3 0.3-0.7 0.6-1 0.9l-0.1 0.1c-0.3 0.3-0.6 0.6-0.9 1 0 0 0 0.1-0.1 0.1-0.6 0.8-1.2 1.6-1.7 2.5h-60.5-44.8c-0.5-1.3-1.4-2.4-2.6-3.4-0.5-0.4-1-0.8-1.5-1.1-3-2-6.8-2.8-10.6-2.1-5.7 1-10 5.2-11.5 10.4l14.1-2.6 0.3 0.3c0.1 0.2 0.3 0.4 0.5 0.7 0 0 0.1 0.1 0.1 0.2 0.1 0.2 0.2 0.3 0.3 0.5 0.2 0.3 0.3 0.7 0.5 1.1 0.4 0.9 0.7 2 1 3.4 0.1 0.5 0.1 0.9 0.2 1.3v0.1c0 0.4 0.1 0.8 0.1 1.2v0.4c0 2.1-0.5 3.4-0.6 3.7v0.1l-13.8 2.6h-0.3l0.2 0.2 0.1 0.1c1.4 1.8 3.3 3.2 5.4 4.2 0.8 0.4 1.6 0.6 2.4 0.9 0.1 0 0.2 0.1 0.3 0.1 1.9 0.5 4 0.5 6.1 0.2 0.5-0.1 0.9-0.2 1.4-0.3 0.1 0 0.3-0.1 0.4-0.1 0.3-0.1 0.6-0.2 0.9-0.3 0.2-0.1 0.3-0.1 0.5-0.2 0.3-0.1 0.5-0.2 0.8-0.4 0.2-0.1 0.3-0.2 0.5-0.3s0.5-0.3 0.7-0.4 0.3-0.2 0.5-0.3 0.4-0.3 0.6-0.5c0.2-0.1 0.3-0.2 0.5-0.4s0.4-0.3 0.6-0.5l0.4-0.4c0.2-0.2 0.3-0.4 0.5-0.6 0.1-0.2 0.3-0.3 0.4-0.5 0.2-0.2 0.3-0.4 0.5-0.6 0.1-0.2 0.2-0.3 0.3-0.5 0.1-0.1 0.1-0.2 0.2-0.3l105.2 0.1c3.4 6.2 10.4 9.8 17.7 8.5 1.9-0.3 3.7-1 5.3-1.9 3.7-2.2 6.5-5.7 7.7-9.9z"/>
		<path d="m163.1 22.1l-8 1.5-8.1 1.4s-2.2-2.1-3.1-7.1c-0.1-0.3-0.1-0.5-0.1-0.8 0-0.2 0-0.3-0.1-0.5v-0.3-0.6-0.1-0.7-0.6c0-2.3 0.5-3.8 0.7-4.1l8-1.5 7.6-1.4 0.4-0.1c-0.1-0.1-0.2-0.2-0.3-0.4l-0.1-0.1c-3.7-4.6-9.8-7-16-5.9-0.5 0.1-0.9 0.2-1.4 0.3h-0.2c-0.4 0.1-0.9 0.3-1.3 0.4-0.1 0-0.1 0.1-0.2 0.1-0.4 0.2-0.8 0.3-1.2 0.5-0.1 0-0.1 0.1-0.2 0.1l-1.2 0.6s-0.1 0-0.1 0.1c-0.4 0.2-0.8 0.5-1.1 0.8-0.4 0.3-0.7 0.6-1.1 0.9l-0.1 0.1c-0.3 0.3-0.7 0.6-1 0.9l-0.1 0.1c-0.3 0.3-0.6 0.6-0.9 1 0 0 0 0.1-0.1 0.1-0.6 0.8-1.2 1.6-1.7 2.5h-60.5-44.8c-0.5-1.3-1.5-2.4-2.6-3.3-0.5-0.4-1-0.8-1.5-1.1-3-2-6.8-2.8-10.6-2.1-5.8 1-10.1 5.1-11.6 10.3l14.1-2.6 0.3 0.3c0.1 0.2 0.3 0.4 0.5 0.7 0 0 0.1 0.1 0.1 0.2 0.1 0.2 0.2 0.3 0.3 0.5 0.2 0.3 0.3 0.7 0.5 1.1 0.4 0.9 0.7 2 1 3.4 0.1 0.5 0.1 0.9 0.2 1.3v0.1c0 0.4 0.1 0.8 0.1 1.2v0.4c0 2.1-0.5 3.4-0.6 3.7v0.1l-13.7 2.6-0.4 0.1c0.1 0 0.1 0.1 0.2 0.2l0.1 0.1c1.4 1.8 3.3 3.2 5.4 4.2 0.8 0.4 1.6 0.6 2.4 0.9 0.1 0 0.2 0.1 0.3 0.1 1.9 0.5 4 0.5 6.1 0.2 0.5-0.1 0.9-0.2 1.4-0.3 0.1 0 0.3-0.1 0.4-0.1 0.3-0.1 0.6-0.2 0.9-0.3 0.2-0.1 0.3-0.1 0.5-0.2 0.3-0.1 0.5-0.2 0.8-0.4 0.2-0.1 0.3-0.2 0.5-0.3s0.5-0.3 0.7-0.4 0.3-0.2 0.5-0.3 0.4-0.3 0.6-0.5c0.2-0.1 0.3-0.2 0.5-0.4s0.4-0.3 0.6-0.5l0.4-0.4c0.2-0.2 0.3-0.4 0.5-0.6 0.1-0.2 0.3-0.3 0.4-0.5 0.2-0.2 0.3-0.4 0.5-0.6 0.1-0.2 0.2-0.3 0.3-0.5 0.1-0.1 0.1-0.2 0.2-0.3l105.2 0.1c3.4 6.2 10.4 9.8 17.7 8.5 1.9-0.3 3.7-1 5.3-1.9 3.8-2.3 6.6-5.8 7.8-9.9z"/>
		<path d="m163 22l-8 1.5-8.1 1.5s-2.2-2.1-3.1-7.1c-0.1-0.3-0.1-0.5-0.1-0.8 0-0.2 0-0.3-0.1-0.5v-0.3-0.6-0.1-0.7-0.6c0-2.3 0.5-3.8 0.7-4.1l8-1.5 7.6-1.4 0.4-0.1c-0.1-0.1-0.2-0.2-0.3-0.4l-0.1-0.1c-3.7-4.6-9.8-7-16-5.9-0.5 0.1-0.9 0.2-1.4 0.3h-0.2c-0.4 0.1-0.9 0.3-1.3 0.4-0.1 0-0.1 0.1-0.2 0.1-0.4 0.2-0.8 0.3-1.2 0.5-0.1 0-0.1 0.1-0.2 0.1l-1.2 0.6s-0.1 0-0.1 0.1c-0.4 0.2-0.8 0.5-1.1 0.8-0.4 0.3-0.7 0.6-1.1 0.9l-0.1 0.1c-0.3 0.3-0.7 0.6-1 0.9l-0.1 0.1c-0.3 0.3-0.6 0.6-0.9 1 0 0 0 0.1-0.1 0.1-0.6 0.8-1.2 1.6-1.7 2.5h-60.5l-44.5-0.1c-0.8-1.2-1.8-2.3-2.9-3.3-0.5-0.4-1-0.8-1.5-1.1-3-2-6.8-2.8-10.6-2.1-5.7 1-10 5.2-11.5 10.4l14.1-2.6 0.3 0.3c0.1 0.2 0.3 0.4 0.5 0.7 0 0 0.1 0.1 0.1 0.2 0.1 0.2 0.2 0.3 0.3 0.5 0.2 0.3 0.3 0.7 0.5 1.1 0.4 0.9 0.7 2 1 3.4 0.1 0.5 0.1 0.9 0.2 1.3v0.1c0 0.4 0.1 0.8 0.1 1.2v0.4c0 2.1-0.5 3.4-0.6 3.7v0.1l-13.8 2.5-0.4 0.1c0.1 0.1 0.2 0.1 0.2 0.2l0.1 0.1c1.4 1.8 3.3 3.2 5.4 4.2 0.8 0.4 1.6 0.6 2.4 0.9 0.1 0 0.2 0.1 0.3 0.1 1.9 0.5 4 0.5 6.1 0.2 0.5-0.1 0.9-0.2 1.4-0.3 0.1 0 0.3-0.1 0.4-0.1 0.3-0.1 0.6-0.2 0.9-0.3 0.2-0.1 0.3-0.1 0.5-0.2 0.3-0.1 0.5-0.2 0.8-0.4 0.2-0.1 0.3-0.2 0.5-0.3s0.5-0.3 0.7-0.4 0.3-0.2 0.5-0.3 0.4-0.3 0.6-0.5c0.2-0.1 0.3-0.2 0.5-0.4s0.4-0.3 0.6-0.5l0.4-0.4c0.2-0.2 0.3-0.4 0.5-0.6 0.1-0.2 0.3-0.3 0.4-0.5 0.2-0.2 0.3-0.4 0.5-0.6 0.1-0.2 0.2-0.3 0.3-0.5 0.1-0.1 0.1-0.2 0.2-0.3l105.2 0.1c3.4 6.2 10.4 9.8 17.7 8.5 1.9-0.3 3.7-1 5.3-1.9 3.8-2.2 6.6-5.8 7.8-9.9z"/>
		<path d="m163 21.9l-8 1.5-8.1 1.5s-2.2-2.1-3.1-7.1c-0.1-0.3-0.1-0.5-0.1-0.8 0-0.2 0-0.3-0.1-0.5v-0.3-0.6-0.1-0.7-0.6c0-2.3 0.5-3.8 0.7-4.1l8-1.5 7.6-1.4 0.4-0.1c-0.1-0.1-0.2-0.2-0.3-0.4l-0.1-0.1c-3.7-4.6-9.8-7-16-5.9-0.5 0.1-0.9 0.2-1.4 0.3h-0.2c-0.4 0.1-0.9 0.3-1.3 0.4-0.1 0-0.1 0.1-0.2 0.1-0.4 0.2-0.8 0.3-1.2 0.5-0.1 0-0.1 0.1-0.2 0.1l-1.2 0.6s-0.1 0-0.1 0.1c-0.4 0.2-0.8 0.5-1.1 0.8-0.4 0.3-0.7 0.6-1.1 0.9l-0.1 0.1c-0.3 0.3-0.7 0.6-1 0.9l-0.1 0.1c-0.3 0.3-0.6 0.6-0.9 1 0 0 0 0.1-0.1 0.1-0.6 0.8-1.2 1.6-1.7 2.5h-60.5l-44.5-0.1c-0.8-1.2-1.8-2.3-2.9-3.3-0.5-0.4-1-0.8-1.5-1.1-3-2-6.8-2.8-10.6-2.1-5.8 1.1-10.1 5.2-11.6 10.4l14.1-2.6 0.3 0.3c0.1 0.2 0.3 0.4 0.5 0.7 0 0 0.1 0.1 0.1 0.2 0.1 0.2 0.2 0.3 0.3 0.5 0.2 0.3 0.3 0.7 0.5 1.1 0.4 0.9 0.7 2 1 3.4 0.1 0.5 0.1 0.9 0.2 1.3v0.1c0 0.4 0.1 0.8 0.1 1.2v0.4c0 2.1-0.5 3.4-0.6 3.7v0.1l-13.7 2.6h-0.4l0.2 0.2 0.1 0.1c1.4 1.8 3.3 3.2 5.4 4.2 0.8 0.4 1.6 0.6 2.4 0.9 0.1 0 0.2 0.1 0.3 0.1 1.9 0.5 4 0.5 6.1 0.2 0.5-0.1 0.9-0.2 1.4-0.3 0.1 0 0.3-0.1 0.4-0.1 0.3-0.1 0.6-0.2 0.9-0.3 0.2-0.1 0.3-0.1 0.5-0.2 0.3-0.1 0.5-0.2 0.8-0.4 0.2-0.1 0.3-0.2 0.5-0.3s0.5-0.3 0.7-0.4 0.3-0.2 0.5-0.3 0.4-0.3 0.6-0.5c0.2-0.1 0.3-0.2 0.5-0.4s0.4-0.3 0.6-0.5l0.4-0.4c0.2-0.2 0.3-0.4 0.5-0.6 0.1-0.2 0.3-0.3 0.4-0.5 0.2-0.2 0.3-0.4 0.5-0.6 0.1-0.2 0.2-0.3 0.3-0.5 0.1-0.1 0.1-0.2 0.2-0.3l105.2 0.1c3.4 6.2 10.4 9.8 17.7 8.5 1.9-0.3 3.7-1 5.3-1.9 3.8-2.2 6.5-5.7 7.8-9.9z"/>
		<path d="m162.9 21.9l-8 1.5-8.1 1.5s-2.2-2.1-3.1-7.1c-0.1-0.3-0.1-0.5-0.1-0.8 0-0.2 0-0.3-0.1-0.5v-0.3-0.6-0.1-0.7-0.6c0-2.3 0.5-3.8 0.7-4.1l8-1.5 7.6-1.4 0.4-0.1c-0.1-0.1-0.2-0.2-0.3-0.4l-0.1-0.1c-3.7-4.6-9.8-7-16-5.9-0.5 0.1-0.9 0.2-1.4 0.3h-0.2c-0.4 0.1-0.9 0.3-1.3 0.4-0.1 0-0.1 0.1-0.2 0.1-0.4 0.2-0.8 0.3-1.2 0.5-0.1 0-0.1 0.1-0.2 0.1l-1.2 0.6s-0.1 0-0.1 0.1c-0.4 0.2-0.8 0.5-1.1 0.8-0.4 0.3-0.7 0.6-1.1 0.9l-0.1 0.1c-0.3 0.3-0.7 0.6-1 0.9l-0.1 0.1c-0.3 0.3-0.6 0.6-0.9 1 0 0 0 0.1-0.1 0.1-0.6 0.8-1.2 1.6-1.7 2.5h-60.5-44.8c-0.8-1.2-1.8-2.3-2.9-3.3-0.5-0.4-1-0.8-1.5-1.1-3-2-6.8-2.8-10.6-2.1-5.7 1-10 5.2-11.5 10.4l14.1-2.6 0.3 0.3c0.1 0.2 0.3 0.4 0.5 0.7 0 0 0.1 0.1 0.1 0.2 0.1 0.2 0.2 0.3 0.3 0.5 0.2 0.3 0.3 0.7 0.5 1.1 0.4 0.9 0.7 2 1 3.4 0.1 0.5 0.1 0.9 0.2 1.3v0.1c0 0.4 0.1 0.8 0.1 1.2v0.4c0 2.1-0.5 3.4-0.6 3.7v0.1l-13.5 2.4-0.4 0.1 0.2 0.2 0.1 0.1c1.4 1.8 3.3 3.2 5.4 4.2 0.8 0.4 1.6 0.6 2.4 0.9 0.1 0 0.2 0.1 0.3 0.1 1.9 0.5 4 0.5 6.1 0.2 0.5-0.1 0.9-0.2 1.4-0.3 0.1 0 0.3-0.1 0.4-0.1 0.3-0.1 0.6-0.2 0.9-0.3 0.2-0.1 0.3-0.1 0.5-0.2 0.3-0.1 0.5-0.2 0.8-0.4 0.2-0.1 0.3-0.2 0.5-0.3s0.5-0.3 0.7-0.4 0.3-0.2 0.5-0.3 0.4-0.3 0.6-0.5c0.2-0.1 0.3-0.2 0.5-0.4s0.4-0.3 0.6-0.5l0.4-0.4c0.2-0.2 0.3-0.4 0.5-0.6 0.1-0.2 0.3-0.3 0.4-0.5 0.2-0.2 0.3-0.4 0.5-0.6 0.1-0.2 0.2-0.3 0.3-0.5 0.1-0.1 0.1-0.2 0.2-0.3l105.2 0.1c3.4 6.2 10.4 9.8 17.7 8.5 1.9-0.3 3.7-1 5.3-1.9 3.8-2.2 6.6-5.8 7.8-9.9z"/>
		<path d="m162.8 21.8l-8 1.5-8.1 1.5s-2.2-2.1-3.1-7.1c-0.1-0.3-0.1-0.5-0.1-0.8 0-0.2 0-0.3-0.1-0.5v-0.3-0.6-0.1-0.7-0.6c0-2.3 0.5-3.8 0.7-4.1l8-1.5 7.6-1.4 0.4-0.1c-0.1-0.1-0.2-0.2-0.3-0.4l-0.1-0.1c-3.7-4.6-9.8-7-16-5.9-0.5 0.1-0.9 0.2-1.4 0.3h-0.2c-0.4 0.1-0.9 0.3-1.3 0.4-0.1 0-0.1 0.1-0.2 0.1-0.4 0.2-0.8 0.3-1.2 0.5-0.1 0-0.1 0.1-0.2 0.1l-1.2 0.6s-0.1 0-0.1 0.1c-0.4 0.2-0.8 0.5-1.1 0.8-0.4 0.3-0.7 0.6-1.1 0.9l-0.1 0.1c-0.3 0.3-0.7 0.6-1 0.9l-0.1 0.1c-0.3 0.3-0.6 0.6-0.9 1 0 0 0 0.1-0.1 0.1-0.6 0.8-1.2 1.6-1.7 2.5l-60.2-0.1h-44.8c-0.8-1.2-1.7-2.3-2.8-3.3-0.5-0.4-1-0.8-1.5-1.1-3-2-6.8-2.8-10.6-2.1-5.7 1-10 5.2-11.5 10.4l14.1-2.6 0.3 0.3c0.1 0.2 0.3 0.4 0.5 0.7 0 0 0.1 0.1 0.1 0.2 0.1 0.2 0.2 0.3 0.3 0.5 0.2 0.3 0.3 0.7 0.5 1.1 0.4 0.9 0.7 2 1 3.4 0.1 0.5 0.1 0.9 0.2 1.3v0.1c0 0.4 0.1 0.8 0.1 1.2v0.4c0 2.1-0.5 3.4-0.6 3.7v0.1l-13.8 2.5-0.4 0.1 0.2 0.2 0.1 0.1c1.4 1.8 3.3 3.2 5.4 4.2 0.8 0.4 1.6 0.6 2.4 0.9 0.1 0 0.2 0.1 0.3 0.1 1.9 0.5 4 0.5 6.1 0.2 0.5-0.1 0.9-0.2 1.4-0.3 0.1 0 0.3-0.1 0.4-0.1 0.3-0.1 0.6-0.2 0.9-0.3 0.2-0.1 0.3-0.1 0.5-0.2 0.3-0.1 0.5-0.2 0.8-0.4 0.2-0.1 0.3-0.2 0.5-0.3s0.5-0.3 0.7-0.4 0.3-0.2 0.5-0.3 0.4-0.3 0.6-0.5c0.2-0.1 0.3-0.2 0.5-0.4s0.4-0.3 0.6-0.5l0.4-0.4c0.2-0.2 0.3-0.4 0.5-0.6 0.1-0.2 0.3-0.3 0.4-0.5 0.2-0.2 0.3-0.4 0.5-0.6 0.1-0.2 0.2-0.3 0.3-0.5 0.1-0.1 0.1-0.2 0.2-0.3l105.1 0.1c3.4 6.2 10.4 9.8 17.7 8.5 1.9-0.3 3.7-1 5.3-1.9 3.8-2.2 6.6-5.8 7.8-9.9z"/>
		<path d="m162.8 21.7l-8 1.5-8.1 1.5s-2.2-2.1-3.1-7.1c-0.1-0.3-0.1-0.5-0.1-0.8 0-0.2 0-0.3-0.1-0.5v-0.3-0.6-0.1-0.7-0.6c0-2.3 0.5-3.8 0.7-4.1l8-1.5 7.6-1.4 0.4-0.1c-0.1-0.1-0.2-0.2-0.3-0.4l-0.1-0.1c-3.7-4.6-9.8-7-16-5.9-0.5 0.1-0.9 0.2-1.4 0.3h-0.2c-0.4 0.1-0.9 0.3-1.3 0.4-0.1 0-0.1 0.1-0.2 0.1-0.4 0.2-0.8 0.3-1.2 0.5-0.1 0-0.1 0.1-0.2 0.1l-1.2 0.6s-0.1 0-0.1 0.1c-0.4 0.2-0.8 0.5-1.1 0.8-0.4 0.3-0.7 0.6-1.1 0.9l-0.1 0.1c-0.3 0.3-0.7 0.6-1 0.9l-0.1 0.1c-0.3 0.3-0.6 0.6-0.9 1 0 0 0 0.1-0.1 0.1-0.6 0.8-1.2 1.6-1.7 2.5h-60.3-44.8c-0.7-1.3-1.7-2.4-2.8-3.3-0.5-0.4-1-0.8-1.5-1.1-3-2-6.8-2.8-10.6-2.1-5.7 1-10 5.2-11.5 10.4l14.1-2.6 0.3 0.3c0.1 0.2 0.3 0.4 0.5 0.7 0 0 0.1 0.1 0.1 0.2 0.1 0.2 0.2 0.3 0.3 0.5 0.2 0.3 0.3 0.7 0.5 1.1 0.4 0.9 0.7 2 1 3.4 0.1 0.5 0.1 0.9 0.2 1.3v0.1c0 0.4 0.1 0.8 0.1 1.2v0.4c0 2.1-0.5 3.4-0.6 3.7v0.1l-13.8 2.5-0.4 0.1 0.2 0.2 0.1 0.1c1.4 1.8 3.3 3.2 5.4 4.2 0.8 0.4 1.6 0.6 2.4 0.9 0.1 0 0.2 0.1 0.3 0.1 1.9 0.5 4 0.5 6.1 0.2 0.5-0.1 0.9-0.2 1.4-0.3 0.1 0 0.3-0.1 0.4-0.1 0.3-0.1 0.6-0.2 0.9-0.3 0.2-0.1 0.3-0.1 0.5-0.2 0.3-0.1 0.5-0.2 0.8-0.4 0.2-0.1 0.3-0.2 0.5-0.3s0.5-0.3 0.7-0.4 0.3-0.2 0.5-0.3 0.4-0.3 0.6-0.5c0.2-0.1 0.3-0.2 0.5-0.4s0.4-0.3 0.6-0.5l0.4-0.4c0.2-0.2 0.3-0.4 0.5-0.6 0.1-0.2 0.3-0.3 0.4-0.5 0.2-0.2 0.3-0.4 0.5-0.6 0.1-0.2 0.2-0.3 0.3-0.5 0.1-0.1 0.1-0.2 0.2-0.3h105.2c3.4 6.2 10.4 9.8 17.7 8.5 1.9-0.3 3.7-1 5.3-1.9 3.8-2.2 6.6-5.7 7.8-9.9z"/>
		<path d="m162.7 21.7l-8 1.5-8.1 1.5s-2.2-2.1-3.1-7.1c-0.1-0.3-0.1-0.5-0.1-0.8 0-0.2 0-0.3-0.1-0.5v-0.3-0.6-0.1-0.7-0.6c0-2.3 0.5-3.8 0.7-4.1l8-1.5 7.6-1.4 0.4-0.1c-0.1-0.1-0.2-0.2-0.3-0.4l-0.1-0.1c-3.7-4.6-9.8-7-16-5.9-0.5 0.1-0.9 0.2-1.4 0.3h-0.2c-0.4 0.1-0.9 0.3-1.3 0.4-0.1 0-0.1 0.1-0.2 0.1-0.4 0.2-0.8 0.3-1.2 0.5-0.1 0-0.1 0.1-0.2 0.1l-1.2 0.6s-0.1 0-0.1 0.1c-0.4 0.2-0.8 0.5-1.1 0.8-0.4 0.3-0.7 0.6-1.1 0.9l-0.1 0.1c-0.3 0.3-0.7 0.6-1 0.9l-0.1 0.1c-0.3 0.3-0.6 0.6-0.9 1 0 0 0 0.1-0.1 0.1-0.6 0.8-1.2 1.6-1.7 2.5h-60.5-44.8c-0.8-1.2-1.8-2.3-2.9-3.3-0.5-0.4-1-0.8-1.5-1.1-3-2-6.8-2.8-10.6-2.1-5.4 0.9-9.7 5.1-11.2 10.2l14.1-2.6 0.3 0.3c0.1 0.2 0.3 0.4 0.5 0.7 0 0 0.1 0.1 0.1 0.2 0.1 0.2 0.2 0.3 0.3 0.5 0.2 0.3 0.3 0.7 0.5 1.1 0.4 0.9 0.7 2 1 3.4 0.1 0.5 0.1 0.9 0.2 1.3v0.1c0 0.4 0.1 0.8 0.1 1.2v0.4c0 2.1-0.5 3.4-0.6 3.7v0.1l-13.8 2.6-0.4 0.1 0.2 0.2 0.1 0.1c1.4 1.8 3.3 3.2 5.4 4.2 0.8 0.4 1.6 0.6 2.4 0.9 0.1 0 0.2 0.1 0.3 0.1 1.9 0.5 4 0.5 6.1 0.2 0.5-0.1 0.9-0.2 1.4-0.3 0.1 0 0.3-0.1 0.4-0.1 0.3-0.1 0.6-0.2 0.9-0.3 0.2-0.1 0.3-0.1 0.5-0.2 0.3-0.1 0.5-0.2 0.8-0.4 0.2-0.1 0.3-0.2 0.5-0.3s0.5-0.3 0.7-0.4 0.3-0.2 0.5-0.3 0.4-0.3 0.6-0.5c0.2-0.1 0.3-0.2 0.5-0.4s0.4-0.3 0.6-0.5l0.4-0.4c0.2-0.2 0.3-0.4 0.5-0.6 0.1-0.2 0.3-0.3 0.4-0.5 0.2-0.2 0.3-0.4 0.5-0.6 0.1-0.2 0.2-0.3 0.3-0.5 0.1-0.1 0.1-0.2 0.2-0.3l105.2 0.1c3.4 6.2 10.4 9.8 17.7 8.5 1.9-0.3 3.7-1 5.3-1.9 3.8-2.2 6.6-5.8 7.8-9.9z"/>
		<path d="m162.7 21.6l-8 1.5-8.1 1.5s-2.2-2.1-3.1-7.1c-0.1-0.3-0.1-0.5-0.1-0.8 0-0.2 0-0.3-0.1-0.5v-0.3-0.6-0.1-0.7-0.6c0-2.3 0.5-3.8 0.7-4.1l8-1.5 7.6-1.4 0.4-0.1c-0.1-0.1-0.2-0.2-0.3-0.4l-0.1-0.1c-3.7-4.6-9.8-7-16-5.9-0.5 0.1-0.9 0.2-1.4 0.3h-0.2c-0.4 0.1-0.9 0.3-1.3 0.4-0.1 0-0.1 0.1-0.2 0.1-0.4 0.2-0.8 0.3-1.2 0.5-0.1 0-0.1 0.1-0.2 0.1l-1.2 0.6s-0.1 0-0.1 0.1c-0.4 0.2-0.8 0.5-1.1 0.8-0.4 0.3-0.7 0.6-1.1 0.9l-0.1 0.1c-0.3 0.3-0.7 0.6-1 0.9l-0.1 0.1c-0.3 0.3-0.6 0.6-0.9 1 0 0 0 0.1-0.1 0.1-0.6 0.8-1.2 1.6-1.7 2.5h-60.5-44.8c-0.8-1.2-1.8-2.3-2.9-3.3-0.5-0.4-1-0.8-1.5-1.1-3-2-6.8-2.8-10.6-2.1-5.4 0.9-9.8 5.1-11.3 10.3l14.1-2.6 0.3 0.3c0.1 0.2 0.3 0.4 0.5 0.7 0 0 0.1 0.1 0.1 0.2 0.1 0.2 0.2 0.3 0.3 0.5 0.2 0.3 0.3 0.7 0.5 1.1 0.4 0.9 0.7 2 1 3.4 0.1 0.5 0.1 0.9 0.2 1.3v0.1c0 0.4 0.1 0.8 0.1 1.2v0.4c0 2.1-0.5 3.4-0.6 3.7v0.1l-13.7 2.5-0.4 0.1 0.2 0.2 0.1 0.1c1.4 1.8 3.3 3.2 5.4 4.2 0.8 0.4 1.6 0.6 2.4 0.9 0.1 0 0.2 0.1 0.3 0.1 1.9 0.5 4 0.5 6.1 0.2 0.5-0.1 0.9-0.2 1.4-0.3 0.1 0 0.3-0.1 0.4-0.1 0.3-0.1 0.6-0.2 0.9-0.3 0.2-0.1 0.3-0.1 0.5-0.2 0.3-0.1 0.5-0.2 0.8-0.4 0.2-0.1 0.3-0.2 0.5-0.3s0.5-0.3 0.7-0.4 0.3-0.2 0.5-0.3 0.4-0.3 0.6-0.5c0.2-0.1 0.3-0.2 0.5-0.4s0.4-0.3 0.6-0.5l0.4-0.4c0.2-0.2 0.3-0.4 0.5-0.6 0.1-0.2 0.3-0.3 0.4-0.5 0.2-0.2 0.3-0.4 0.5-0.6 0.1-0.2 0.2-0.3 0.3-0.5 0.1-0.1 0.1-0.2 0.2-0.3l105.2 0.1c3.4 6.2 10.4 9.8 17.7 8.5 1.9-0.3 3.7-1 5.3-1.9 3.8-2.2 6.6-5.8 7.8-9.9z"/>
		<path d="m162.6 21.5l-8 1.5-8.1 1.5s-2.2-2.1-3.1-7.1c-0.1-0.3-0.1-0.5-0.1-0.8 0-0.2 0-0.3-0.1-0.5v-0.3-0.6-0.1-0.7-0.6c0-2.3 0.5-3.8 0.7-4.1l8-1.5 7.6-1.4 0.4-0.1c-0.1-0.1-0.2-0.2-0.3-0.4l-0.1-0.1c-3.7-4.6-9.8-7-16-5.9-0.5 0.1-0.9 0.2-1.4 0.3h-0.2c-0.4 0.1-0.9 0.3-1.3 0.4-0.1 0-0.1 0.1-0.2 0.1-0.4 0.2-0.8 0.3-1.2 0.5-0.1 0-0.1 0.1-0.2 0.1l-1.2 0.6s-0.1 0-0.1 0.1c-0.4 0.2-0.8 0.5-1.1 0.8-0.4 0.3-0.7 0.6-1.1 0.9l-0.1 0.1c-0.3 0.3-0.7 0.6-1 0.9l-0.1 0.1c-0.3 0.3-0.6 0.6-0.9 1 0 0 0 0.1-0.1 0.1-0.6 0.8-1.2 1.6-1.7 2.5h-60.5-44.8c-0.8-1.2-1.8-2.3-2.9-3.3-0.5-0.4-1-0.8-1.5-1.1-3-2-6.8-2.8-10.6-2.1-5.7 1-10 5.2-11.5 10.4l14.4-2.7 0.3 0.3c0.1 0.2 0.3 0.4 0.5 0.7 0 0 0.1 0.1 0.1 0.2 0.1 0.2 0.2 0.3 0.3 0.5 0.2 0.3 0.3 0.7 0.5 1.1 0.4 0.9 0.7 2 1 3.4 0.1 0.5 0.1 0.9 0.2 1.3v0.1c0 0.4 0.1 0.8 0.1 1.2v0.4c0 2.1-0.5 3.4-0.6 3.7v0.1l-13.8 2.6-0.4 0.1 0.2 0.2 0.1 0.1c1.4 1.8 3.3 3.2 5.4 4.2 0.8 0.4 1.6 0.6 2.4 0.9 0.1 0 0.2 0.1 0.3 0.1 1.9 0.5 4 0.5 6.1 0.2 0.5-0.1 0.9-0.2 1.4-0.3 0.1 0 0.3-0.1 0.4-0.1 0.3-0.1 0.6-0.2 0.9-0.3 0.2-0.1 0.3-0.1 0.5-0.2 0.3-0.1 0.5-0.2 0.8-0.4 0.2-0.1 0.3-0.2 0.5-0.3s0.5-0.3 0.7-0.4 0.3-0.2 0.5-0.3 0.4-0.3 0.6-0.5c0.2-0.1 0.3-0.2 0.5-0.4s0.4-0.3 0.6-0.5l0.4-0.4c0.2-0.2 0.3-0.4 0.5-0.6 0.1-0.2 0.3-0.3 0.4-0.5 0.2-0.2 0.3-0.4 0.5-0.6 0.1-0.2 0.2-0.3 0.3-0.5 0.1-0.1 0.1-0.2 0.2-0.3l105.2 0.1c3.4 6.2 10.4 9.8 17.7 8.5 1.9-0.3 3.7-1 5.3-1.9 3.8-2.3 6.6-5.8 7.8-10z"/>
		<path d="m162.6 21.5l-8 1.5-8.1 1.5s-2.2-2.1-3.1-7.1c-0.1-0.3-0.1-0.5-0.1-0.8 0-0.2 0-0.3-0.1-0.5v-0.3-0.6-0.1-0.7-0.6c0-2.3 0.5-3.8 0.7-4.1l8-1.5 7.6-1.4 0.4-0.1c-0.1-0.1-0.2-0.2-0.3-0.4l-0.1-0.1c-3.7-4.6-9.8-7-16-5.9-0.5 0.1-0.9 0.2-1.4 0.3h-0.2c-0.4 0.1-0.9 0.3-1.3 0.4-0.1 0-0.1 0.1-0.2 0.1-0.4 0.2-0.8 0.3-1.2 0.5-0.1 0-0.1 0.1-0.2 0.1l-1.2 0.6s-0.1 0-0.1 0.1c-0.4 0.2-0.8 0.5-1.1 0.8-0.4 0.3-0.7 0.6-1.1 0.9l-0.1 0.1c-0.3 0.3-0.7 0.6-1 0.9l-0.1 0.1c-0.3 0.3-0.6 0.6-0.9 1 0 0 0 0.1-0.1 0.1-0.6 0.8-1.2 1.6-1.7 2.5h-60.5-44.8c-0.8-1.2-1.8-2.3-2.9-3.3-0.5-0.4-1-0.8-1.5-1.1-3-2-6.8-2.8-10.6-2.1-5.5 0.9-9.8 5.1-11.3 10.2l14.1-2.5 0.3 0.3c0.1 0.2 0.3 0.4 0.5 0.7 0 0 0.1 0.1 0.1 0.2 0.1 0.2 0.2 0.3 0.3 0.5 0.2 0.3 0.3 0.7 0.5 1.1 0.4 0.9 0.7 2 1 3.4 0.1 0.5 0.1 0.9 0.2 1.3v0.1c0 0.4 0.1 0.8 0.1 1.2v0.4c0 2.1-0.5 3.4-0.6 3.7v0.1l-13.7 2.5-0.4 0.1 0.2 0.2 0.1 0.1c1.4 1.8 3.3 3.2 5.4 4.2 0.8 0.4 1.6 0.6 2.4 0.9 0.1 0 0.2 0.1 0.3 0.1 1.9 0.5 4 0.5 6.1 0.2 0.5-0.1 0.9-0.2 1.4-0.3 0.1 0 0.3-0.1 0.4-0.1 0.3-0.1 0.6-0.2 0.9-0.3 0.2-0.1 0.3-0.1 0.5-0.2 0.3-0.1 0.5-0.2 0.8-0.4 0.2-0.1 0.3-0.2 0.5-0.3s0.5-0.3 0.7-0.4 0.3-0.2 0.5-0.3 0.4-0.3 0.6-0.5c0.2-0.1 0.3-0.2 0.5-0.4s0.4-0.3 0.6-0.5l0.4-0.4c0.2-0.2 0.3-0.4 0.5-0.6 0.1-0.2 0.3-0.3 0.4-0.5 0.2-0.2 0.3-0.4 0.5-0.6 0.1-0.2 0.2-0.3 0.3-0.5 0.1-0.1 0.1-0.2 0.2-0.3l105.2 0.1c3.4 6.2 10.4 9.8 17.7 8.5 1.9-0.3 3.7-1 5.3-1.9 3.8-2.2 6.5-5.8 7.8-9.9z"/>
	</g>
	<path d="m19.6 30.2v0.4-0.4z" fill="#1D1E1C"/>
			<rect transform="matrix(-.00053625 1 -1 -.00053625 96.538 -63.034)" height="118.2" width="16" y="-42.4" x="71.8" fill="#CFD0D0"/>
		<rect y="23.5" x="20.7" height="1.2" width="118.2" fill="#B2B2B2"/>
		<rect y="8.7" x="20.7" height="1.2" width="118.2" fill="#F3F3F3"/>
		<path d="m149.5 33.2c6.4-1.2 11.3-5.9 13.1-11.8l-16.1 2.9s-2.2-2.1-3.1-7.1c-0.9-4.7 0.4-7.7 0.4-7.7l16.1-2.9c-3.7-4.9-9.9-7.6-16.4-6.4-9.1 1.7-15.1 10.4-13.5 19.5 1.7 9.2 10.4 15.2 19.5 13.5z" fill="#CFD0D0"/>
		<g fill="#B2B2B2">
			<path d="m149.5 32.7c-9.1 1.7-17.8-4.4-19.5-13.5-0.2-1-0.3-1.9-0.3-2.9 0 1.1 0.1 2.3 0.3 3.4 1.7 9.1 10.4 15.1 19.5 13.5 6.4-1.2 11.3-5.9 13.1-11.8h-0.2c-1.9 5.7-6.7 10.1-12.9 11.3z"/>
			<path d="m143.1 13.8c0-2.6 0.7-4.2 0.7-4.2l16.1-2.9c-0.1-0.2-0.3-0.3-0.4-0.5l-15.7 2.8s-0.8 1.8-0.7 4.8z"/>
		</g>
		<g fill="#F3F3F3">
			<path d="m146.5 24.4s-2.2-2.1-3.1-7.1c-0.2-1.1-0.3-2-0.3-2.9 0 1 0.1 2.2 0.3 3.5 0.9 5 3.1 7.1 3.1 7.1l15.8-2.9c0.1-0.2 0.2-0.4 0.2-0.6l-16 2.9z"/>
			<path d="m143.5 0.9c6.2-1.1 12.2 1.3 16 5.9l0.4-0.1c-3.7-4.9-9.9-7.6-16.4-6.4-8.2 1.5-13.8 8.6-13.7 16.7 0.1-7.8 5.7-14.7 13.7-16.1z"/>
		</g>
		<path d="m16.8 31.2c8-1.5 13.3-9.2 11.9-17.2-1.5-8-9.2-13.3-17.2-11.8-5.7 1-10 5.2-11.5 10.3l14.1-2.5s1.9 1.8 2.7 6.2c0.8 4.1-0.4 6.8-0.4 6.8l-14 2.6c3.2 4.3 8.7 6.6 14.4 5.6z" fill="#CFD0D0"/>
		<g fill="#F3F3F3">
			<path d="m11.5 2.5c8-1.5 15.7 3.8 17.2 11.9 0.2 0.9 0.2 1.8 0.2 2.6 0-1-0.1-2-0.2-3-1.5-8-9.2-13.3-17.2-11.8-5.7 1-10 5.2-11.5 10.3h0.1c1.6-5 5.9-9 11.4-10z"/>
			<path d="m17.1 19.2c0 2.4-0.6 3.8-0.6 3.8l-14.1 2.6 0.3 0.3 13.9-2.5c-0.1 0 0.6-1.6 0.5-4.2z"/>
		</g>
		<g fill="#B2B2B2">
			<path d="m16.9 16.2c0.2 0.9 0.2 1.8 0.3 2.6 0-0.9 0-2-0.3-3.1-0.8-4.4-2.7-6.2-2.7-6.2l-14 2.5c-0.1 0.2-0.1 0.4-0.2 0.6l14.1-2.6s2 1.8 2.8 6.2z"/>
			<path d="m16.8 30.7c-5.5 1-10.8-1.2-14-5.2l-0.4 0.1c3.3 4.3 8.8 6.7 14.4 5.6 7.2-1.3 12.2-7.6 12.1-14.7-0.1 6.9-5.1 12.9-12.1 14.2z"/>
		</g>
		<path opacity=".2" d="m123.6 11.3c2.4 0 4.3 2 4.3 4.4v2.1c0 2.4-1.9 4.4-4.3 4.4h-87.9c-2.4 0-4.3-2-4.3-4.4v-2.1c0-2.4 1.9-4.4 4.3-4.4h87.9z" fill="#B2B2B2"/>
		<path d="m32.8 20.9c-0.7-0.8-1.2-1.8-1.2-3v-2.1c0-2.4 1.9-4.4 4.3-4.4h87.9c1.1 0 2.1 0.4 2.9 1.1-0.8-0.9-1.9-1.4-3.1-1.4h-87.9c-2.4 0-4.3 2-4.3 4.4v2.1c0 1.3 0.5 2.5 1.4 3.3z" fill="#B2B2B2"/>
</svg>
