<?xml version="1.0" encoding="utf-8"?>
<!-- Generator: Adobe Illustrator 17.1.0, SVG Export Plug-In . SVG Version: 6.00 Build 0)  -->
<!DOCTYPE svg PUBLIC "-//W3C//DTD SVG 1.1//EN" "http://www.w3.org/Graphics/SVG/1.1/DTD/svg11.dtd">
<svg version="1.1" id="Layer_1" xmlns="http://www.w3.org/2000/svg" xmlns:xlink="http://www.w3.org/1999/xlink" x="0px" y="0px"
	 viewBox="0 0 279 132" enable-background="new 0 0 279 132" xml:space="preserve">
<g>
	<path fill="#FFFFFF" d="M273.2,99c-2.1-1.2-3.4,0.9-3.4,0.9s-2.3,3.6-10.8,3.7c0,0-0.1,0-0.1,0c0.3-1.2,0.4-2,0.4-2.3
		c0.1-0.7,0.7-4.7-1.5-7.4c-0.9-1.1-2.5-2.3-5.5-2.2c-3.8,0.1-6.6,3.4-6.6,7.5c0.1,3.5,2.2,6.9,6.8,8.5c-1.5,4.4-4,9.7-8.1,12.3
		c-2.7,1.7-5.7,2.1-9.3,1c-2.6-0.8-4.4-3.7-5.3-8.2c0.9-1.4,1.8-2.8,2.7-4.3c8-12.4,15-24.2,19.3-33.7l0,0c2.6-5.2,5-11.7,3.9-16.6
		c-0.8-3.4-3.2-5.5-6.7-5.9c-4.5-0.5-9,2.9-13.3,10.2c-4.7,7.7-8.2,18.4-9.9,27c-1.7,8.3-2.1,16.2-1.3,22.2c-1.1,1.8-2.2,3.5-3.1,5
		c-2.7,4.2-5.7,5.2-7.6,4.8c-1.7-0.4-2.9-2-3.2-4.4c-1.1-7.5,4.1-18.4,4.2-18.6c0.6-1.2,0.1-2.7-1.1-3.3c-1.2-0.6-2.7-0.1-3.3,1.2
		c-0.2,0.4-4.3,8.8-4.8,16.9c-5.3,7.1-11.2,9.9-15.1,7.5c-2-0.9-7.2-7.3-2.6-17.2c6.9-15,22.8-12.4,23.5-12.3c1.4,0.2,2.6-0.7,2.9-2
		c0.2-1.4-0.7-2.6-2-2.9c-0.2,0-5.1-0.9-11.1,0.5c-5.6,1.3-13.2,4.9-17.8,14.5c-2.4,5.1-2.9,10.6-1.6,15.2c-1.9,1.9-5.5,4.9-9,4.9
		c-2,0-3.8-0.9-5.6-2.8c-2.1-2.4-2.6-8.4-1.9-15.9c6.6-4.5,13.7-12.2,19.3-21c2.9-4.6,9.5-16.1,7.9-23.5c-0.8-3.4-3.2-5.5-6.7-5.9
		c-5.1-0.6-10,3.8-14.8,12.9c-4.7,9-8.9,22.7-10.4,34.7c-3.8,2.2-7,3.2-9.5,3.6c0.1-3.9-0.8-7.7-3-9.9c-1.8-1.8-4.3-2.3-7-1.4
		c-0.1,0-0.3,0.1-0.4,0.2c-2.6,1.5-4.1,3.9-4.1,6.6c0,3.1,1.9,6,5.2,7.8c0.8,0.4,2,1,3.6,1.3c0,0,0,0,0,0c0,0,0,0.1,0,0.1
		c-2.7,10.1-10.5,14.2-16.4,13c-7.4-1.8-8.2-8.1-7.7-13.2c1.8-16.7,14-17,14.5-17c1.4,0,2.5-1.1,2.5-2.5c0-1.4-1.1-2.5-2.5-2.5
		c-0.2,0-4.3,0-8.8,2.8c-7.3,4.5-9.8,12.6-10.6,18.6c-0.7,5,0.2,9.1,2.1,12.2c-1.9,1.2-4.6,2.5-6.6,1.8c-3.4-1.3-4.9-6.8-4.9-18.4
		c0-11-7.9-16-15.5-16.6c-0.6-7.1-3.1-10.4-5.4-11.9c-2.3-1.5-5.1-1.7-7.5-0.4c-2.4,1.3-4,3.8-4,6.5c0,2.6,0.9,4.9,2.7,6.7
		c2.7,2.7,6.8,3.5,9.3,3.8c0,1.3-0.1,2.8-0.3,4.5c-1.1,10.6-3.9,18.1-8.3,22.1c-3.9,3.6-8.6,4-11.8,4c-2.1,0-4.2-0.4-6.1-1.3
		c1.8-1.1,3.6-2.4,5.3-3.9c8-7.3,10.4-15.5,9.9-20.8c-0.5-5.3-6.9-13.6-17.9-6.9c-6,3.6-9.7,11.4-9.7,18.9c0,4.6,1.2,8.6,3.6,11.8
		c-5.4,2.3-10.1,2.6-12.9,1.7c-5.5-1.7-5.9-13.4-0.4-22.1c0.7-1.2,0.7-2.6-0.4-3.5C36.6,94.8,35,95,34.2,96c-0.3,0.3-5.3,6.9-4.9,17
		c-5.4,7.4-11.1,10.3-15.4,7.8c-4.1-2.4-6.4-9.6-2.8-17.1c7.1-14.9,22.8-12.4,23.5-12.3c1.4,0.2,2.6-0.7,2.9-2
		c0.2-1.4-0.7-2.6-2-2.9c-0.2,0-5.1-0.9-11.1,0.5c-5.6,1.3-13.2,4.9-17.8,14.5c-2.1,4.4-2.7,9.3-1.8,13.7c0.9,4.3,3.3,7.9,6.6,9.8
		c1,0.6,3.1,1.5,5.8,1.5c3.5,0,8.1-1.5,13.2-7.1c1,3,3.3,5.3,6.5,6.4c4.8,1.6,11.5,0.5,18.3-2.7c3.1,2.2,7,3.5,11.1,3.5
		c14.8,0,23-10,25-30.6c0.2-1.6,0.3-3.1,0.3-4.4c5.1,0.4,10.4,3.4,10.4,11.5c0,12,1.4,20.5,8.1,23.1c1,0.4,2.1,0.6,3.1,0.6
		c3.4,0,6.6-1.8,8.6-3.2c1.8,1.5,4,2.4,6.2,2.9c1,0.2,2.1,0.3,3.1,0.3c7.7,0,16-5.4,19-16.8c0.1-0.4,0.2-0.8,0.3-1.1
		c2.7-0.2,5.9-0.9,9.6-2.7c-0.3,7.1,0.6,13,3.4,16.1c3.8,4.3,8.7,5.6,13.9,3.6c2.2-0.9,4.4-2.3,6.6-4.2c1,1.5,2.4,2.7,3.9,3.7
		c1,0.6,3,1.5,5.8,1.5c3.3,0,7.7-1.4,12.5-6.4c1.1,3.3,3.5,5.6,6.6,6.2c0.6,0.1,1.2,0.2,1.8,0.2c3.4,0,7.6-1.9,11-7.2c0,0,0,0,0,0
		c0.2-0.3,0.4-0.6,0.6-1c2,4.7,5,6.6,7.5,7.4c5,1.4,9.5,0.9,13.4-1.6c5.5-3.6,8.6-10.4,10.3-15.6c0.5,0,1,0,1.5,0
		c9.5-0.2,13.3-3.9,14.5-5.5c0.2-0.2,0.3-0.4,0.5-0.7c0.2-0.3,0.3-0.6,0.3-0.9C274.5,100.5,274,99.5,273.2,99z M175.7,67.7
		c4.8-9.2,8.3-10.2,9.6-10.2c0.1,0,0.2,0,0.2,0c1.4,0.2,2.1,0.7,2.4,2c1.6,7.1-9.1,26.1-21.3,36.5C168.2,86.4,171.4,75.8,175.7,67.7
		z M81.2,78.4c2.5-1.1,4.7,2.5,5.4,7.7C78.9,85.4,78.7,79.5,81.2,78.4z M52.8,107.7c0-5.7,3-11.9,7.5-14.7c6.8-4.2,9.8,0.6,10.2,3.5
		c0.6,4.3-1.6,10.1-8.1,16.3c-2,1.9-4.3,3.3-6.4,4.5C54.1,115,52.8,111.8,52.8,107.7z M144.4,102.7c-1.6-0.9-2.6-2.2-2.6-3.5
		c0.1-2.3,2.1-2.7,3-1.9c1,0.8,1.6,3.5,1.5,6.1C145.4,103.2,144.8,102.9,144.4,102.7z M229.3,104.7c0.1-4.2,0.6-8.9,1.6-14.1
		c1.2-6.3,3.1-12.2,5.2-17.2c0,0,1.8-4,2.7-5.8c0.5-1,1-1.9,1.5-2.7c0.4-0.6,1.1-1.8,1.1-1.8c3.5-5.1,5.9-5.8,7-5.8
		c0.1,0,0.2,0,0.2,0c1.4,0.2,2.1,0.7,2.4,2c0.5,2.3-0.3,5.9-2,10c-0.4,0.9-0.8,1.9-1.3,2.9c-0.3,0.7-1,2-1,2c-0.5,0.9-1,1.9-1.5,2.9
		C240.7,86.1,234.9,96,229.3,104.7z M254,102.9c-2.2-0.9-3.2-2.4-3.2-3.8c0-1.1,0.4-2.3,2-2.4C255.4,96.6,254.3,101.5,254,102.9z"/>
	<path fill="#FFFFFF" d="M45,71.7c0.7-0.2,1.7-1.4,3.5-2.8c1.2-0.8,4.7-3.5,9.6-5.4c4.9-1.9,7.2-1.9,8.9-2.3
		c3.9-0.7,7.9-0.2,10.8,0.5c4.8,1.1,7.8,3.8,13,9.9c7.2,8.5,13.8,9.4,20.4,7c5.1-1.9,11.8-9.6,19.1-18.3
		c7.9-8.7,24.5-26.8,24.5-26.8c0-0.1,0.1-0.1,0.1-0.2c0,0,0,0,0-0.1c0-0.1-0.1-0.2-0.1-0.2c-4.6-8.1-15.3-24.8-17.4-28.1
		c0-0.1-0.2-0.3-0.4-0.4c0,0,0,0,0,0c0,0-0.1,0-0.1,0h0c0,0,0,0,0,0c0,0,0,0,0,0c-0.2,0-0.3,0.1-0.3,0.1c0,0,0,0,0,0c0,0,0,0,0,0
		c-0.8,0.5-1.8,1.1-3,1.8c-8.2,4.9-23.9,14.4-24.1,14.6c-0.1,0-0.1,0.1-0.1,0.1c0,0,0,0,0,0c0,0,0,0,0,0.1c0,0,0,0,0,0
		c0,0.1,0,0.1,0,0.2c0,0,0,0.1,0,0.2c0.5,2.5,8.8,41,10.4,48.5c-1.5,1.6-3.1,3.1-4.7,4.3c-1.6,1.3-3.2,2.3-4.7,2.8
		c-2.1,0.7-3.8,1-5.5,0.9c-5.3-0.3-9.3-3.8-12.1-7.2c-4.5-5.4-8.5-11.6-20.1-12.5c-13.2-1.1-23.2,4.7-26.5,7.3
		c-1.6,1.3-2.7,2-3.3,2.7c-0.6,0.8-0.5,1.8,0.2,2.6C43.7,71.8,44.4,71.9,45,71.7z"/>
	<path fill="#FFFFFF" d="M155,33.3C155,33.3,155,33.3,155,33.3C155,33.3,155,33.3,155,33.3C155,33.3,155,33.3,155,33.3z"/>
</g>
</svg>
