<?xml version="1.0" encoding="utf-8"?>
<!-- Generator: Adobe Illustrator 17.0.0, SVG Export Plug-In . SVG Version: 6.00 Build 0)  -->
<!DOCTYPE svg PUBLIC "-//W3C//DTD SVG 1.1//EN" "http://www.w3.org/Graphics/SVG/1.1/DTD/svg11.dtd">
<svg version="1.1" id="Layer_1" xmlns="http://www.w3.org/2000/svg" xmlns:xlink="http://www.w3.org/1999/xlink" x="0px" y="0px"
	 width="18.401px" height="18.402px" viewBox="0 0 18.401 18.402" enable-background="new 0 0 18.401 18.402" xml:space="preserve">
<path fill="#E29411" d="M0,9.201C0,4.127,4.127,0,9.202,0c5.072,0,9.199,4.127,9.199,9.201c0,5.074-4.127,9.201-9.199,9.201
	C4.127,18.403,0,14.276,0,9.201"/>
<path fill="#FFFFFF" d="M9.201,2.001c3.975,0,7.199,3.224,7.199,7.2c0,3.977-3.225,7.201-7.199,7.201C5.224,16.402,2,13.177,2,9.201
	C2,5.225,5.224,2.001,9.201,2.001L9.201,2.001z"/>
<path fill="#ECB74A" d="M12.032,9.72c-0.352,0.417-0.973,0.472-1.391,0.121L7.789,7.448c-0.417-0.35-0.472-0.973-0.122-1.39
	c0.35-0.417,0.973-0.472,1.392-0.122l2.852,2.391C12.326,8.678,12.381,9.301,12.032,9.72L12.032,9.72z M11.91,10l-2.852,2.393
	c-0.418,0.35-1.042,0.295-1.392-0.121C7.315,11.853,7.37,11.23,7.788,10.88l2.852-2.391c0.418-0.351,1.039-0.296,1.391,0.121
	C12.381,9.027,12.326,9.65,11.91,10L11.91,10z"/>
</svg>
