<?xml version="1.0" encoding="utf-8"?>
<!-- Generator: Adobe Illustrator 17.0.0, SVG Export Plug-In . SVG Version: 6.00 Build 0)  -->
<!DOCTYPE svg PUBLIC "-//W3C//DTD SVG 1.1//EN" "http://www.w3.org/Graphics/SVG/1.1/DTD/svg11.dtd">
<svg version="1.1" id="Capa_1" xmlns="http://www.w3.org/2000/svg" xmlns:xlink="http://www.w3.org/1999/xlink" x="0px" y="0px"
	 width="220px" height="220px" viewBox="0 0 220 220" enable-background="new 0 0 220 220" xml:space="preserve">
<g>
	<ellipse opacity="0.15" cx="81.287" cy="170.78" rx="70.731" ry="2.306"/>
	<ellipse opacity="0.15" cx="189.157" cy="170.78" rx="26.554" ry="1.331"/>
	<g>
		<rect x="30.587" y="48.215" fill="#71C6D8" width="89.826" height="22.54"/>
		<rect x="30.587" y="48.215" opacity="0.2" fill="#F9F9F9" width="89.826" height="0.974"/>
		<circle fill="#FFFFFF" cx="106.836" cy="59.485" r="6.03"/>
		<rect x="30.587" y="60.928" opacity="0.1" fill="#1D1D1B" width="89.826" height="9.827"/>
	</g>
	<g>
		<rect x="19.215" y="142.484" fill="#0087C4" width="124.144" height="28.651"/>
		<polygon opacity="0.2" fill="#F9F9F9" points="19.215,144.287 19.215,142.484 61.201,142.484 63.607,144.287 		"/>
		<rect x="33.772" y="142.483" fill="#A3DAF7" width="17.208" height="28.652"/>
		<rect x="19.215" y="158.644" opacity="0.1" fill="#1D1D1B" width="124.144" height="12.491"/>
	</g>
	<g>
		<path fill="#4A4A49" d="M201.978,90.75c2.647,0,4.801,2.154,4.801,4.801l0,65.413c0,2.647-2.154,4.801-4.801,4.801l-25.405,0
			c-2.647,0-4.801-2.154-4.801-4.801l0-65.413c0-2.647,2.154-4.801,4.801-4.801L201.978,90.75"/>
		<g>
			<path fill="#2E2D2C" d="M205.737,92.574c0.65,0.819,1.042,1.853,1.042,2.977l0,65.413c0,2.647-2.154,4.801-4.801,4.801l-25.405,0
				c-1.294,0-2.468-0.517-3.333-1.353l-0.171,0.379c0.927,0.849,2.156,1.374,3.504,1.374l25.405,0c2.861,0,5.201-2.34,5.201-5.201
				l0-65.413c0-1.288-0.477-2.468-1.26-3.379L205.737,92.574z"/>
			<path fill="#656463" d="M171.771,160.964l0-65.413c0-2.647,2.154-4.801,4.801-4.801l25.405,0c1.523,0,2.879,0.715,3.759,1.824
				l0.182-0.402c-0.956-1.112-2.368-1.822-3.941-1.822l-25.405,0c-2.861,0-5.201,2.34-5.201,5.201l0,65.413
				c0,1.512,0.658,2.875,1.697,3.827l0.171-0.379C172.336,163.539,171.771,162.317,171.771,160.964z"/>
		</g>
		<rect x="173.972" y="101.052" fill="#FFFCEF" width="30.706" height="54.778"/>
		<g>
			<rect x="173.972" y="101.052" fill="#EF7B1A" width="30.706" height="54.778"/>
			<rect x="173.972" y="101.052" fill="#FFFFFF" width="30.706" height="54.778"/>
			<rect x="173.934" y="108.253" opacity="0.1" fill="#1D1D1B" width="30.706" height="5.222"/>
			<rect x="173.934" y="150.609" opacity="0.1" fill="#1D1D1B" width="30.706" height="5.222"/>
			<rect x="175.287" y="104.535" opacity="0.2" fill="#1D1D1B" width="28.15" height="2.708"/>
			<rect x="175.287" y="131.764" opacity="0.1" fill="#1D1D1B" width="28.15" height="3.928"/>
			<rect x="199.036" y="131.764" fill="#00A5E2" width="4.401" height="3.928"/>
			<g>
				<rect x="186.804" y="101.991" opacity="0.8" fill="#575756" width="5.149" height="1.083"/>
			</g>
			<g>
				<rect x="182.512" y="105.347" opacity="0.8" fill="#575756" width="13.733" height="1.083"/>
			</g>
			<g>
				<rect x="175.538" y="101.991" opacity="0.8" fill="#575756" width="2.574" height="1.083"/>
			</g>
			<g>
				<rect x="179.659" y="110.323" opacity="0.8" fill="#EC694A" width="2.574" height="1.083"/>
			</g>
			<g opacity="0.8">
				<rect x="184.996" y="110.323" opacity="0.8" fill="#575756" width="6.514" height="1.083"/>
			</g>
			<g opacity="0.8">
				<rect x="196.704" y="110.323" opacity="0.8" fill="#575756" width="6.514" height="1.083"/>
			</g>
			<circle opacity="0.8" fill="#575756" cx="202.752" cy="102.533" r="0.648"/>
			<circle opacity="0.8" fill="#575756" cx="200.609" cy="102.533" r="0.648"/>
			<circle opacity="0.8" fill="#575756" cx="179.659" cy="102.533" r="0.648"/>
			<circle opacity="0.8" fill="#575756" cx="176.536" cy="110.864" r="0.996"/>
			<circle opacity="0.8" fill="#B8B8B7" cx="177.372" cy="153.22" r="0.996"/>
			<circle opacity="0.8" fill="#B8B8B7" cx="185.327" cy="153.22" r="0.996"/>
			<circle opacity="0.8" fill="#B8B8B7" cx="193.282" cy="153.22" r="0.996"/>
			<circle opacity="0.8" fill="#B8B8B7" cx="201.237" cy="153.22" r="0.996"/>
			<circle fill="#00A5E2" cx="180.138" cy="127.05" r="1.545"/>
			<circle opacity="0.8" fill="#EC694A" cx="183.811" cy="127.05" r="1.545"/>
			<circle fill="#FFE35B" cx="187.483" cy="127.05" r="1.545"/>
			<circle fill="#00A5E2" cx="191.155" cy="127.05" r="1.545"/>
			<circle fill="#00A67F" cx="194.828" cy="127.05" r="1.545"/>
			<circle opacity="0.8" fill="#EC694A" cx="198.5" cy="127.05" r="1.545"/>
		</g>
		<circle fill="#3F3F3E" cx="189.275" cy="160.547" r="3.401"/>
		<circle fill="#2E2D2C" cx="189.275" cy="93.851" r="0.675"/>
		<circle fill="#3E6E6D" cx="189.275" cy="93.851" r="0.263"/>
		<g>
			<path fill="#2E2D2C" d="M186.324,96.726c0-0.19,0.183-0.35,0.4-0.35l5.176,0c0.125,0,0.234,0.057,0.308,0.139l0.442-0.04
				c-0.111-0.289-0.405-0.498-0.75-0.498l-5.176,0c-0.44,0-0.8,0.338-0.8,0.75c0,0.128,0.038,0.248,0.099,0.354l0.52-0.047
				C186.416,96.973,186.324,96.859,186.324,96.726z"/>
			<path fill="#656463" d="M192.209,96.515c0.054,0.06,0.092,0.131,0.092,0.211c0,0.19-0.183,0.35-0.4,0.35l-5.176,0
				c-0.066,0-0.126-0.018-0.181-0.044l-0.52,0.047c0.136,0.235,0.398,0.397,0.701,0.397l5.176,0c0.44,0,0.8-0.338,0.8-0.75
				c0-0.089-0.02-0.173-0.05-0.252L192.209,96.515z"/>
		</g>
		<rect x="171.046" y="100.702" fill="#4A4A49" width="0.325" height="3.351"/>
		<rect x="171.046" y="101.052" fill="#9C9C9A" width="0.325" height="1.134"/>
		<rect x="171.046" y="107.903" fill="#4A4A49" width="0.325" height="2.601"/>
		<rect x="171.046" y="114.205" fill="#4A4A49" width="0.325" height="2.601"/>
		<rect x="195.426" y="89.956" fill="#4A4A49" width="5.851" height="0.394"/>
		<rect x="171.046" y="108.253" fill="#9C9C9A" width="0.325" height="0.95"/>
		<rect x="171.046" y="114.555" fill="#9C9C9A" width="0.325" height="0.95"/>
		<rect x="195.66" y="89.956" fill="#9C9C9A" width="0.611" height="0.394"/>
		<path fill="#1D1E1C" d="M191.901,96.376c0.217,0,0.4,0.16,0.4,0.35c0,0.19-0.183,0.35-0.4,0.35l-5.176,0
			c-0.217,0-0.4-0.16-0.4-0.35s0.183-0.35,0.4-0.35L191.901,96.376"/>
		<path opacity="0.1" fill="#FFFFFF" d="M201.978,90.75l-15.273,0l1.616,5.226l3.58,0c0.345,0,0.639,0.209,0.75,0.498
			c0.03,0.079,0.05,0.163,0.05,0.252c0,0.413-0.36,0.75-0.8,0.75l-3.117,0l17.994,58.196l0-60.121
			C206.778,92.904,204.625,90.75,201.978,90.75z M189.275,94.526c-0.373,0-0.675-0.302-0.675-0.675c0-0.373,0.302-0.675,0.675-0.675
			s0.675,0.302,0.675,0.675C189.95,94.224,189.648,94.526,189.275,94.526z"/>
		<rect x="166.741" y="165.158" fill="#FFFFFF" width="45.068" height="5.542"/>
		<rect x="166.741" y="165.158" fill="#ECECEC" width="45.068" height="5.542"/>
		<rect x="168.38" y="165.158" fill="#FFFFFF" width="2.986" height="5.542"/>
		<rect x="207.532" y="165.158" opacity="0.7" fill="#C6C6C5" width="4.277" height="5.542"/>
	</g>
	<g>
		<rect x="8.833" y="139.146" fill="#E36147" width="152.417" height="3.529"/>
		<rect x="82.574" y="139.146" fill="#AC4C35" width="78.676" height="3.529"/>
		<rect x="8.833" y="114.777" fill="#E36147" width="152.417" height="3.529"/>
		<rect x="82.574" y="114.777" fill="#AC4C35" width="78.676" height="3.529"/>
		<path fill="#FFFCEF" d="M156.37,118.307c0,0-2.07,4.036-2.07,10.987c0,6.951,2.07,9.853,2.07,9.853H72.961
			c0,0-2.755-12.305,0-20.839H156.37z"/>
		<path opacity="0.1" fill="#1D1D1B" d="M156.37,118.307c0,0-2.07,4.036-2.07,10.987c0,6.951,2.07,9.853,2.07,9.853H72.961
			c0,0-2.755-12.305,0-20.839H156.37z"/>
		<path fill="#AC4C35" d="M78.285,139.146H7.692c0,0-2.755-12.305,0-20.839h70.594"/>
		<path fill="#FFFCEF" d="M80.652,118.307c0,0-2.07,4.036-2.07,10.987c0,6.951,2.07,9.853,2.07,9.853H10.058
			c0,0-2.755-12.305,0-20.839H80.652z"/>
		<path fill="none" stroke="#E36147" stroke-width="2.3662" stroke-linecap="round" stroke-miterlimit="10" d="M8.833,141.457
			c0,0-2.174-2.847-2.174-12.731c0-9.884,2.174-12.78,2.174-12.78"/>
	</g>
	<g>
		<rect x="17.206" y="90.758" fill="#0087C4" width="129.836" height="3.529"/>
		<rect x="80.022" y="90.758" fill="#0A6895" width="67.02" height="3.529"/>
		<rect x="17.206" y="70.677" fill="#0087C4" width="129.836" height="3.529"/>
		<rect x="80.022" y="70.677" fill="#0A6895" width="67.02" height="3.529"/>
		<path fill="#FFFCEF" d="M142.884,74.206c0,0-1.764,1.892-1.764,8.843s1.764,7.709,1.764,7.709H71.833c0,0-2.347-8.018,0-16.552
			H142.884z"/>
		<path opacity="0.1" fill="#1D1D1B" d="M142.884,74.206c0,0-1.764,1.892-1.764,8.843s1.764,7.709,1.764,7.709H71.833
			c0,0-2.347-8.018,0-16.552H142.884z"/>
		<path fill="#0A6895" d="M76.368,90.758H16.233c0,0-2.347-8.018,0-16.552h60.135"/>
		<path fill="#FFFCEF" d="M78.384,74.206c0,0-1.764,1.892-1.764,8.843s1.764,7.709,1.764,7.709H18.249c0,0-2.347-8.018,0-16.552
			H78.384z"/>
		<g>
			<path fill="#0087C4" d="M17.197,94.156c-0.353,0-0.699-0.172-0.906-0.491c-0.208-0.319-2.03-1.261-2.03-11.183
				c0-9.917,1.817-10.901,2.025-11.225c0.327-0.508,1.003-0.654,1.509-0.331c0.508,0.325,0.656,1,0.331,1.509
				c-0.008,0.013-1.681,0.777-1.681,10.047c0,9.259,1.668,9.979,1.685,10.006c0.309,0.51,0.156,1.181-0.348,1.498
				C17.6,94.101,17.397,94.156,17.197,94.156z"/>
		</g>
	</g>
	<rect x="37.527" y="94.288" fill="#FABC48" width="91.11" height="2.724"/>
	<rect x="37.527" y="94.288" opacity="0.1" fill="#1D1D1B" width="91.11" height="2.724"/>
	<rect x="37.527" y="112.054" fill="#FABC48" width="91.11" height="2.724"/>
	<g>
		<path fill="#FABC48" d="M128.638,114.756c-0.442,0-0.875-0.218-1.13-0.618c-0.398-0.624-0.216-1.452,0.407-1.851
			c0.094-0.064,2.687-1.905,2.687-7.594c0-5.759-2.659-7.886-2.773-7.974c-0.579-0.45-0.697-1.286-0.255-1.872
			c0.443-0.586,1.267-0.712,1.857-0.276c0.157,0.116,3.85,2.918,3.85,10.122c0,7.261-3.763,9.749-3.923,9.852
			C129.135,114.688,128.885,114.756,128.638,114.756z"/>
	</g>
	<rect x="40.698" y="97.011" fill="#FFFCEF" width="87.358" height="15.042"/>
	<g opacity="0.1">
		<path fill="#1D1D1B" d="M129.431,94.571c-0.59-0.435-1.414-0.309-1.857,0.276c-0.442,0.585-0.324,1.422,0.255,1.872
			c0.093,0.072,1.879,1.503,2.534,5.154l2.732,0.153C132.348,96.79,129.567,94.671,129.431,94.571z"/>
	</g>
	<polygon opacity="0.15" fill="#1D1D1B" points="82.301,156.81 61.201,142.676 103.4,142.676 	"/>
	<polygon opacity="0.2" points="101.432,94.311 58.611,94.311 62.642,97.011 97.402,97.011 	"/>
	<polygon opacity="0.15" points="128.056,97.011 93.623,97.011 66.421,97.011 40.698,97.011 40.698,98.619 69.616,99.152 
		80.022,106.122 89.871,99.524 128.056,100.227 	"/>
	<polygon opacity="0.15" fill="#1D1D1B" points="100.994,144.287 143.359,144.287 143.359,142.676 103.4,142.676 	"/>
	<rect x="33.772" y="142.676" opacity="0.5" fill="#FFFFFF" width="17.208" height="1.612"/>
	<rect x="19.215" y="169.588" opacity="0.15" fill="#1D1D1B" width="124.144" height="1.547"/>
	<rect x="25.656" y="81.529" opacity="0.15" width="8.879" height="9.229"/>
	<polygon fill="#EF7B1A" points="32.76,90.758 23.881,90.758 25.656,81.529 34.536,81.529 	"/>
	<polygon fill="#EF7B1A" points="32.76,99.988 28.32,98.316 23.881,99.988 23.881,90.758 32.76,90.758 	"/>
	<polygon opacity="0.15" fill="#FFFFFF" points="32.76,99.988 28.32,98.316 23.881,99.988 23.881,90.758 32.76,90.758 	"/>
</g>
</svg>
