<?xml version="1.0" encoding="utf-8"?>
<!-- Generator: Adobe Illustrator 17.0.0, SVG Export Plug-In . SVG Version: 6.00 Build 0)  -->
<!DOCTYPE svg PUBLIC "-//W3C//DTD SVG 1.1//EN" "http://www.w3.org/Graphics/SVG/1.1/DTD/svg11.dtd">
<svg version="1.1" id="Capa_1" xmlns="http://www.w3.org/2000/svg" xmlns:xlink="http://www.w3.org/1999/xlink" x="0px" y="0px"
	 width="220px" height="220px" viewBox="0 0 220 220" enable-background="new 0 0 220 220" xml:space="preserve">
<g>
	<ellipse opacity="0.15" cx="139.717" cy="189.318" rx="46.521" ry="2.862"/>
	<g>
		<g>
			<path fill="#4A4A49" d="M130.843,171.175c-7.293,0-14.567-1.423-15.896-1.697c-1.078-0.222-1.773-1.276-1.551-2.354
				c0.221-1.078,1.274-1.774,2.354-1.551c0.054,0.011,5.423,1.103,11.461,1.476c7.483,0.461,12.789-0.376,14.941-2.36
				c3.337-3.075,9.139-15.601,11.093-20.168c0.433-1.012,1.604-1.482,2.617-1.049c1.012,0.433,1.482,1.605,1.049,2.617
				c-0.753,1.761-7.493,17.326-12.057,21.531C141.882,170.361,136.357,171.175,130.843,171.175z"/>
		</g>
		<g>
			<path fill="#3C3C3B" d="M143.739,164.852c3.409-2.995,9.506-15.38,11.568-19.899c0.238-0.522,0.673-0.889,1.176-1.06
				c-0.174-0.173-0.381-0.318-0.621-0.42c-1.013-0.434-2.184,0.036-2.617,1.049c-1.954,4.567-7.756,17.093-11.093,20.168
				c-1.439,1.326-4.289,2.139-8.255,2.395C138.667,167.066,142.086,166.304,143.739,164.852z"/>
			<path fill="#3C3C3B" d="M132.279,171.067c-7.291-0.173-14.529-1.768-15.851-2.073c-1.073-0.247-1.742-1.317-1.495-2.39
				c0.099-0.429,0.33-0.792,0.639-1.059c-1.015-0.116-1.967,0.56-2.176,1.579c-0.222,1.079,0.473,2.132,1.551,2.354
				c1.329,0.273,8.603,1.697,15.896,1.697c1.05,0,2.1-0.03,3.133-0.097C133.412,171.083,132.845,171.081,132.279,171.067z"/>
		</g>
		<g>
			<path fill="#4A4A49" d="M190.56,97.231c-2.948,0-5.985-1.005-8.38-1.796c-1.174-0.389-2.505-0.829-3.036-0.846
				c-1.1-0.035-1.964-0.955-1.93-2.055c0.035-1.101,0.947-1.967,2.056-1.93c1.108,0.035,2.456,0.481,4.162,1.045
				c2.76,0.913,6.54,2.163,9.102,1.312c1.607-0.533,4.785-3.007,8.013-13.575c1.941-6.354,2.882-12.438,2.891-12.499
				c0.166-1.089,1.183-1.836,2.272-1.67c1.088,0.166,1.836,1.183,1.67,2.272c-0.04,0.26-0.995,6.434-3.019,13.062
				c-2.901,9.499-6.359,14.796-10.57,16.194C192.753,97.09,191.662,97.231,190.56,97.231z"/>
		</g>
		<g>
			<path fill="#3C3C3B" d="M194.101,92.962c1.607-0.533,4.785-3.007,8.013-13.575c1.941-6.354,2.882-12.438,2.891-12.499
				c0.108-0.707,0.575-1.268,1.187-1.53c-0.151-0.065-0.312-0.113-0.482-0.139c-1.089-0.167-2.106,0.581-2.272,1.67
				c-0.009,0.061-0.95,6.145-2.891,12.499c-3.228,10.568-6.406,13.041-8.013,13.575c-0.387,0.129-0.804,0.204-1.239,0.245
				C192.308,93.29,193.269,93.238,194.101,92.962z"/>
			<path fill="#3C3C3B" d="M183.747,95.435c-1.174-0.389-2.505-0.829-3.036-0.846c-1.1-0.035-1.964-0.955-1.93-2.055
				c0.027-0.862,0.593-1.577,1.369-1.831c-0.31-0.056-0.602-0.09-0.88-0.099c-1.109-0.037-2.021,0.829-2.056,1.93
				c-0.035,1.1,0.829,2.021,1.93,2.055c0.531,0.017,1.862,0.457,3.036,0.846c2.394,0.792,5.432,1.796,8.38,1.796
				c0.262,0,0.523-0.009,0.782-0.025C188.646,97.053,185.929,96.157,183.747,95.435z"/>
		</g>
		<g>
			<g>
				
					<ellipse transform="matrix(-0.4764 0.8792 -0.8792 -0.4764 256.0124 -59.7461)" fill="#E5E5E5" cx="145.797" cy="46.359" rx="13.22" ry="17.475"/>
				<path fill="#E5E5E5" d="M161.161,54.684c0,0,7.123-13.875-7.696-22.531l-7.668,14.206L161.161,54.684z"/>
				<path fill="#E5E5E5" d="M130.406,38.083c0,0,7.69-13.569,23.059-5.93l-7.668,14.206L130.406,38.083z"/>
			</g>
			<g opacity="0.15">
				<path fill="#1D1D1B" d="M151.014,31.088l0.002-0.001c-9.724-3.631-16.008,1.384-18.85,4.624
					c-0.678,0.684-1.264,1.457-1.734,2.324c-0.004,0.008-0.008,0.016-0.012,0.024c-0.008,0.014-0.014,0.024-0.014,0.024l0.002,0.001
					c-1.506,2.815-1.568,6.109-0.45,9.306l9.729-5.673C144.237,31.176,151.014,31.088,151.014,31.088z"/>
			</g>
			<path fill="#EA5A49" d="M159.156,90.277c-2.152-11.212-6.11-21.264-11.138-29.321l-4.752-24.759l-35.242,6.764
				c-17.764,3.41-27.431,30.843-21.59,61.274s24.976,52.337,42.741,48.927l35.242-6.764l-4.752-24.759
				C161.353,112.292,161.308,101.489,159.156,90.277z"/>
			<g>
				<path opacity="0.1" fill="#1D1D1B" d="M127.601,120.134c-4.644-0.561-10.329-1.76-17.939-4.536
					c-14.241-5.195-23.419-12.401-23.419-12.401c0.062,0.346,0.125,0.691,0.191,1.037c5.841,30.431,24.976,52.337,42.741,48.927
					l33.844-6.496C150.037,149.158,136.324,138.128,127.601,120.134z"/>
				<path opacity="0.2" fill="#1D1D1B" d="M163.019,146.666l1.398-0.268l-0.011-0.055
					C163.95,146.466,163.488,146.576,163.019,146.666z"/>
			</g>
			
				<ellipse transform="matrix(0.9821 -0.1885 0.1885 0.9821 -14.4509 30.6342)" fill="#F08970" cx="153.842" cy="91.297" rx="32.753" ry="56.106"/>
			
				<ellipse transform="matrix(0.9821 -0.1885 0.1885 0.9821 -14.4509 30.6342)" fill="#FFFFFF" cx="153.842" cy="91.297" rx="31.328" ry="53.667"/>
			<path opacity="0.1" fill="#1D1D1B" d="M163.384,77.532l-2.053-3.768L149.479,88.38c-0.668-0.616-1.418-0.919-2.146-0.779
				c-0.024,0.005-0.046,0.014-0.07,0.02l-15.857-33.536l-2.014,1.776l16.009,33.824c-0.35,1.059-0.431,2.415-0.157,3.843
				c0.565,2.943,2.416,5.062,4.134,4.732c1.718-0.33,2.653-2.983,2.088-5.927c-0.004-0.021-0.009-0.04-0.014-0.061L163.384,77.532z"
				/>
			
				<ellipse transform="matrix(0.9821 -0.1885 0.1885 0.9821 -14.6628 29.9096)" fill="#4A4A49" cx="149.926" cy="92.048" rx="3.168" ry="5.427"/>
			<g>
				<path fill="#EA5A49" d="M143.726,38.592c-0.658,0.126-1.303,0.291-1.937,0.485c16.412-1.356,33.533,19.085,38.904,47.066
					s-2.967,53.309-18.714,58.125c0.661-0.055,1.321-0.14,1.979-0.267c16.992-3.261,26.238-29.502,20.651-58.61
					C179.022,56.283,160.719,35.33,143.726,38.592z"/>
			</g>
			<path opacity="0.1" fill="#1D1D1B" d="M118.535,58.614c-2.659,8.635-11.81,16.859-20.14,16.624
				c-9.954-0.281-12.427-12.392-6.247-19.805s15.996-11.391,23.166-12.767C119.837,41.797,121.31,49.602,118.535,58.614z"/>
			
				<ellipse transform="matrix(0.7396 0.673 -0.673 0.7396 63.7849 -56.3525)" fill="#E5E5E5" cx="104.726" cy="54.264" rx="13.22" ry="17.475"/>
			<path fill="#E5E5E5" d="M92.966,67.189c0,0-11.3-10.75-0.163-23.809l11.923,10.883L92.966,67.189z"/>
			<path fill="#E5E5E5" d="M116.528,41.376c0,0-11.734-10.274-23.725,2.005l11.923,10.883L116.528,41.376z"/>
			<g opacity="0.15">
				<path fill="#1D1D1B" d="M95.854,48.854l1.28-3.566c0,0,0.425-6.92,7.546-7.911c-3.611,0.209-7.728,1.756-11.877,6.005
					c-8.118,9.518-4.315,17.809-1.657,21.605c0.492,0.798,1.088,1.532,1.795,2.18c0.008,0.008,0.016,0.016,0.024,0.024
					c1.993,1.814,4.565,2.709,7.343,2.762C100.246,69.878,91.744,59.498,95.854,48.854z"/>
			</g>
			
				<ellipse transform="matrix(0.7396 0.673 -0.673 0.7396 56.9512 -52.9745)" fill="#1D1E1C" cx="96.944" cy="47.121" rx="1.568" ry="2.072"/>
			<g>
				<polygon fill="#4A4A49" points="148.768,92.597 130.963,54.979 132.977,53.203 151.085,91.5 				"/>
			</g>
			<g>
				<polygon fill="#4A4A49" points="151.476,93.303 148.377,90.794 162.902,72.883 164.955,76.65 				"/>
			</g>
			<path fill="#FFFFFF" d="M100.423,46.608c0,0,10.878,1.031,17.128,6.662c0,0,1.884-6.423-2.242-11.137c0,0-6.612-1.4-15.111,2.948
				C100.198,45.081,100.535,45.739,100.423,46.608z"/>
			
				<line fill="none" stroke="#B9B9B9" stroke-width="1.9936" stroke-miterlimit="10" x1="142.625" y1="54.009" x2="140.95" y2="45.28"/>
			
				<line fill="none" stroke="#B9B9B9" stroke-width="1.9936" stroke-miterlimit="10" x1="158.838" y1="138.478" x2="157.162" y2="129.749"/>
			
				<line fill="none" stroke="#B9B9B9" stroke-width="2.848" stroke-miterlimit="10" x1="171.054" y1="87.993" x2="176.871" y2="86.877"/>
			
				<line fill="none" stroke="#B9B9B9" stroke-width="2.848" stroke-miterlimit="10" x1="124.186" y1="96.989" x2="130.003" y2="95.872"/>
			
				<rect x="121.983" y="34.502" transform="matrix(0.9821 -0.1885 0.1885 0.9821 -4.7702 24.1118)" fill="#E5E5E5" width="4.813" height="5.269"/>
			
				<rect x="122.01" y="34.789" transform="matrix(0.9821 -0.1885 0.1885 0.9821 -4.851 23.8356)" opacity="0.15" fill="#1D1D1B" width="1.773" height="5.269"/>
			
				<rect x="125.048" y="34.271" transform="matrix(0.9821 -0.1885 0.1885 0.9821 -4.705 24.3347)" fill="#FFFFFF" width="1.092" height="5.269"/>
			<path fill="#E5E5E5" d="M122.522,40.177l4.726-0.907c0,0-0.716,0.772-2.805,1.173C122.355,40.844,122.522,40.177,122.522,40.177z
				"/>
			<path opacity="0.15" fill="#1D1D1B" d="M124.381,40.454l-0.117-0.611l-1.741,0.334l0.028,0.147
				C122.644,40.492,123.013,40.707,124.381,40.454z"/>
			<path fill="#FFFFFF" d="M126.682,39.676l-0.055-0.286l-1.073,0.206l0.102,0.531C126.099,39.976,126.435,39.817,126.682,39.676z"
				/>
			
				<rect x="120.498" y="33.839" transform="matrix(0.9821 -0.1885 0.1885 0.9821 -4.2918 23.9706)" fill="#E5E5E5" width="6.775" height="1.424"/>
			
				<rect x="125.085" y="33.471" transform="matrix(0.9821 -0.1885 0.1885 0.9821 -4.1882 24.3251)" fill="#FFFFFF" width="1.435" height="1.424"/>
			
				<rect x="120.538" y="34.257" transform="matrix(0.9821 -0.1885 0.1885 0.9821 -4.4098 23.5672)" opacity="0.15" fill="#1D1D1B" width="2.335" height="1.424"/>
			<polygon opacity="0.15" fill="#1D1D1B" points="123.405,35.368 126.39,34.795 123.64,36.592 			"/>
		</g>
		<g>
			<path fill="#4A4A49" d="M93.949,146.33c-0.552,0-1.101-0.228-1.495-0.674c-1.309-1.482-12.74-14.737-11.09-23.601
				c1.643-8.831,20.275-19.422,22.394-20.6c0.962-0.536,2.176-0.189,2.711,0.773c0.535,0.962,0.189,2.176-0.773,2.711
				c-7.372,4.102-19.432,12.575-20.412,17.845c-0.519,2.792,1.066,7.26,4.463,12.583c2.731,4.278,5.667,7.617,5.696,7.65
				c0.729,0.825,0.651,2.085-0.175,2.814C94.889,146.166,94.418,146.33,93.949,146.33z"/>
		</g>
		<path fill="#3C3C3B" d="M93.884,145.656c-1.309-1.482-12.74-14.737-11.09-23.601c1.643-8.831,20.275-19.422,22.394-20.6
			c0.084-0.047,0.17-0.084,0.256-0.117c-0.533-0.205-1.149-0.182-1.687,0.117c-2.119,1.178-20.751,11.769-22.394,20.6
			c-1.649,8.864,9.782,22.119,11.09,23.601c0.394,0.446,0.943,0.674,1.495,0.674c0.243,0,0.485-0.046,0.716-0.135
			C94.374,146.084,94.104,145.905,93.884,145.656z"/>
		<g>
			<path fill="#4A4A49" d="M142.79,189.318c-0.271,0-0.546-0.056-0.809-0.173c-1.006-0.447-1.459-1.626-1.012-2.632
				c0.016-0.037,1.658-3.739,3.275-8.238c2.09-5.815,3.194-10.295,3.195-12.957c0.001-5.778-11.293-14.276-18.413-18.276
				c-0.96-0.539-1.301-1.754-0.762-2.715c0.539-0.96,1.755-1.301,2.715-0.762c0.204,0.115,5.054,2.852,9.981,6.773
				c6.946,5.528,10.467,10.568,10.467,14.979c-0.001,7.414-6.535,22.189-6.813,22.814
				C144.282,188.877,143.554,189.318,142.79,189.318z"/>
		</g>
		<path fill="#3C3C3B" d="M143.042,186.514c0.016-0.037,1.658-3.739,3.275-8.238c2.09-5.815,3.194-10.295,3.195-12.957
			c0.001-5.778-11.293-14.276-18.413-18.276c-0.96-0.539-1.301-1.754-0.762-2.715c0.174-0.31,0.42-0.555,0.704-0.727
			c-0.029-0.017-0.052-0.029-0.061-0.035c-0.96-0.54-2.175-0.198-2.715,0.762c-0.539,0.96-0.198,2.176,0.762,2.715
			c7.119,4,18.413,12.497,18.413,18.276c0,2.662-1.105,7.142-3.195,12.957c-1.617,4.499-3.258,8.201-3.275,8.238
			c-0.447,1.006,0.006,2.184,1.012,2.632c0.263,0.117,0.538,0.173,0.809,0.173c0.367,0,0.726-0.104,1.037-0.293
			C142.983,188.512,142.63,187.44,143.042,186.514z"/>
		
			<line fill="none" stroke="#ECECEC" stroke-width="2.848" stroke-linecap="round" stroke-miterlimit="10" x1="73.83" y1="93.963" x2="17.438" y2="93.963"/>
		
			<line fill="none" stroke="#ECECEC" stroke-width="2.848" stroke-linecap="round" stroke-miterlimit="10" x1="68.988" y1="133.662" x2="12.597" y2="133.662"/>
		
			<line fill="none" stroke="#ECECEC" stroke-width="2.848" stroke-linecap="round" stroke-miterlimit="10" x1="79.526" y1="54.264" x2="23.135" y2="54.264"/>
		
			<line fill="none" stroke="#ECECEC" stroke-width="2.848" stroke-linecap="round" stroke-miterlimit="10" x1="66.14" y1="74.113" x2="35.666" y2="74.113"/>
		
			<line fill="none" stroke="#ECECEC" stroke-width="2.848" stroke-linecap="round" stroke-miterlimit="10" x1="74.969" y1="113.812" x2="44.495" y2="113.812"/>
		
			<line fill="none" stroke="#ECECEC" stroke-width="2.848" stroke-linecap="round" stroke-miterlimit="10" x1="90.884" y1="153.511" x2="60.41" y2="153.511"/>
	</g>
</g>
</svg>
