<?xml version="1.0" encoding="utf-8"?>
<!-- Generator: Adobe Illustrator 17.0.0, SVG Export Plug-In . SVG Version: 6.00 Build 0)  -->
<!DOCTYPE svg PUBLIC "-//W3C//DTD SVG 1.1//EN" "http://www.w3.org/Graphics/SVG/1.1/DTD/svg11.dtd">
<svg version="1.1" id="Capa_1" xmlns="http://www.w3.org/2000/svg" xmlns:xlink="http://www.w3.org/1999/xlink" x="0px" y="0px"
	 width="220px" height="220px" viewBox="0 0 220 220" enable-background="new 0 0 220 220" xml:space="preserve">
<g>
	<polygon fill="#B38F6F" points="130.631,121.698 154.578,97.751 103.185,67.888 79.238,91.835 	"/>
	<polygon fill="#DCAE85" points="130.455,121.188 154.402,97.241 103.009,67.378 79.063,91.325 	"/>
	<polygon fill="#CDA27D" points="79.232,91.835 27.846,121.698 79.232,151.366 79.569,151.56 130.956,121.697 	"/>
	<polygon fill="#B38F6F" points="27.846,121.698 79.233,151.366 79.233,91.835 	"/>
	<polygon fill="#CDA27D" points="130.956,121.697 79.233,91.835 79.233,151.366 79.569,151.56 	"/>
	<g>
		<polygon fill="#A28265" points="130.956,175.815 79.569,205.677 27.846,175.815 79.233,145.952 		"/>
	</g>
	<polygon fill="#DCAE85" points="27.846,121.698 27.846,175.815 79.569,205.677 79.569,151.56 	"/>
	<polygon opacity="0.5" fill="#FFDFA2" points="50.021,182.256 50.021,188.575 57.393,192.832 57.393,186.782 55.292,186.208 	"/>
	<polygon fill="#C49C78" points="130.956,121.697 130.956,175.815 79.569,205.677 79.569,151.56 	"/>
	<polygon fill="#B38F6F" points="27.846,121.698 3.899,97.751 55.292,67.888 79.238,91.835 	"/>
	<polygon fill="#DCAE85" points="28.037,121.188 4.09,97.241 55.483,67.378 79.43,91.325 	"/>
	<polygon fill="#C49C78" points="73.035,181.423 79.238,151.56 27.846,121.698 21.642,151.56 	"/>
	<polygon fill="#B38F6F" points="85.772,181.423 79.569,151.56 130.961,121.698 137.165,151.56 	"/>
	<polygon fill="#B38F6F" points="55.292,175.507 79.238,151.56 27.846,121.698 3.899,145.644 	"/>
	<polygon fill="#DCAE85" points="55.292,174.997 79.238,151.051 27.846,121.188 3.899,145.134 	"/>
	<polygon fill="#B38F6F" points="103.509,175.507 79.563,151.56 130.956,121.697 154.902,145.644 	"/>
	<polygon fill="#DCAE85" points="103.509,174.997 79.563,151.051 130.956,121.188 154.902,145.134 	"/>
	<g opacity="0.8">
		<g>
			<g>
				<path fill="#3D3D3D" d="M73.452,190.837l0.057,0.041l0.102,0.154c0.089,0.242,0.546,1.491,0.755,2.111l0.013,0.037l0.013,0.044
					l0.006,0.055l-0.032,0.077l-0.019,0.018c-0.032,0.011-0.878,0.5-0.967,0.544l-0.237,0.142c-0.448,0.27-0.839,0.508-1.146,0.426
					c-0.102-0.022-0.199-0.062-0.295-0.117c-0.019-0.011-0.037-0.022-0.056-0.034c-0.294-0.192-0.555-0.541-0.79-1.051
					c-0.235-0.511-0.356-0.705-0.547-0.889c-0.085-0.08-0.237-0.208-0.392-0.298c-0.031-0.018-0.062-0.034-0.093-0.049l-0.064-0.03
					c-0.083-0.041-0.185-0.092-0.371-0.133c-0.224-0.056-0.39-0.027-0.46-0.016l-0.109,0.025l-0.134,0.003
					c-0.021-0.006-0.043-0.014-0.065-0.026c-0.052-0.03-0.106-0.086-0.164-0.202c-0.076-0.147-0.07-0.283,0.001-0.345l0.141-0.044
					l0.064-0.007c0.05-0.016,0.492-0.082,1.131,0.287c0.104,0.06,0.212,0.131,0.326,0.216c0.587,0.442,0.81,0.938,1,1.364
					l0.051,0.118c0.146,0.32,0.312,0.547,0.491,0.68c0.02,0.013,0.038,0.024,0.055,0.035c0.057,0.033,0.106,0.052,0.175,0.069
					c0.07,0.026,0.147,0.011,0.205,0.001l0.128-0.036c-0.056-0.495-0.324-2.877-0.343-3.035l0-0.037l0.019-0.077l0.019-0.018
					l0.026-0.007c0.032-0.004,0.991-0.016,1.375-0.014l0.058,0.004L73.452,190.837z"/>
			</g>
			<g>
				<path fill="#3D3D3D" d="M73.559,189.018c2.084,2.489,2.861,5.943,1.73,7.694c-0.781,1.209-2.268,1.294-3.801,0.409
					c-0.687-0.397-1.383-0.988-2.028-1.761l-0.032-0.04c-0.605-0.008-1.174-0.218-1.711-0.528c-0.655-0.378-1.262-0.905-1.826-1.396
					c-0.545-0.473-1.073-0.932-1.61-1.242c-0.357-0.206-0.718-0.347-1.09-0.383c-0.036-0.005-0.074-0.019-0.112-0.041
					c-0.049-0.028-0.097-0.069-0.137-0.117c-0.057-0.07-0.108-0.158-0.134-0.246c-0.063-0.206,0.007-0.363,0.161-0.341
					c0.46,0.045,0.898,0.217,1.321,0.461c0.606,0.35,1.18,0.848,1.744,1.338c0.57,0.497,1.123,0.978,1.699,1.311
					c0.359,0.208,0.728,0.357,1.116,0.418c-0.216-0.331-0.42-0.669-0.598-1.014c-0.208-0.082-0.411-0.183-0.609-0.298
					c-0.657-0.379-1.267-0.908-1.835-1.4c-0.544-0.473-1.07-0.931-1.608-1.241c-0.356-0.206-0.718-0.347-1.093-0.384
					c-0.036-0.005-0.073-0.019-0.11-0.04c-0.048-0.028-0.096-0.068-0.139-0.119c-0.057-0.07-0.102-0.154-0.127-0.242
					c-0.063-0.206,0.007-0.363,0.154-0.352c0.457,0.048,0.892,0.219,1.313,0.462c0.609,0.352,1.188,0.854,1.758,1.348
					c0.558,0.485,1.106,0.964,1.676,1.292c0.075,0.043,0.15,0.084,0.226,0.122c-0.146-0.349-0.267-0.698-0.362-1.039
					c-0.632-0.38-1.219-0.887-1.768-1.366c-0.544-0.473-1.073-0.932-1.61-1.242c-0.357-0.206-0.718-0.347-1.09-0.383
					c-0.037-0.003-0.075-0.017-0.111-0.038c-0.051-0.029-0.099-0.073-0.144-0.124c-0.051-0.066-0.102-0.147-0.127-0.235
					c-0.063-0.213,0.007-0.363,0.161-0.348c0.453,0.043,0.887,0.213,1.307,0.455c0.61,0.352,1.191,0.858,1.758,1.351
					c0.491,0.423,0.963,0.835,1.448,1.152c-0.05-0.308-0.088-0.609-0.1-0.903c-0.562-0.361-1.078-0.806-1.576-1.241
					c-0.544-0.473-1.07-0.931-1.608-1.241c-0.356-0.206-0.718-0.347-1.093-0.384c-0.036-0.005-0.073-0.019-0.11-0.04
					c-0.048-0.028-0.096-0.068-0.139-0.119c-0.057-0.07-0.102-0.154-0.134-0.246c-0.057-0.202,0.014-0.359,0.161-0.341
					c0.459,0.045,0.895,0.215,1.318,0.459c0.608,0.351,1.185,0.853,1.753,1.351c0.485,0.42,0.957,0.824,1.436,1.137
					c0.026-0.257,0.065-0.513,0.13-0.755c-0.645-0.38-1.238-0.891-1.793-1.373c-0.545-0.473-1.073-0.932-1.61-1.242
					c-0.357-0.206-0.718-0.347-1.09-0.383c-0.039-0.006-0.077-0.021-0.115-0.043c-0.049-0.029-0.097-0.069-0.14-0.119
					c-0.057-0.07-0.102-0.154-0.127-0.242c-0.063-0.206,0.007-0.363,0.161-0.348c0.454,0.046,0.889,0.217,1.31,0.46
					c0.609,0.352,1.189,0.854,1.754,1.346c0.571,0.499,1.126,0.977,1.706,1.311c0.048,0.028,0.097,0.055,0.145,0.08
					c0.051-0.117,0.109-0.223,0.174-0.326c0.077-0.124,0.167-0.227,0.257-0.329c-0.228-0.086-0.45-0.195-0.668-0.321
					c-0.659-0.381-1.27-0.911-1.841-1.407c-0.544-0.473-1.07-0.931-1.608-1.241c-0.356-0.206-0.718-0.347-1.093-0.384
					c-0.037-0.002-0.075-0.014-0.112-0.036c-0.047-0.027-0.094-0.069-0.137-0.122c-0.057-0.07-0.102-0.147-0.134-0.239
					c-0.057-0.209,0.014-0.359,0.161-0.348c0.456,0.045,0.89,0.215,1.31,0.457c0.61,0.352,1.19,0.858,1.761,1.353
					c0.567,0.493,1.116,0.971,1.69,1.302c0.472,0.273,0.961,0.446,1.49,0.446c0.771-0.275,1.738-0.109,2.725,0.461
					C72.218,187.653,72.914,188.244,73.559,189.018z M74.773,196.097c0.976-1.516,0.307-4.496-1.49-6.651
					c-0.557-0.667-1.158-1.178-1.751-1.52c-0.832-0.48-1.649-0.631-2.31-0.42l-0.09,0.044c-0.352,0.127-0.653,0.365-0.878,0.72
					c-0.122,0.187-0.212,0.377-0.283,0.586c-0.077,0.242-0.129,0.506-0.156,0.777c-0.02,0.216-0.02,0.436-0.008,0.671
					c0.012,0.286,0.049,0.587,0.113,0.895c0.05,0.25,0.114,0.507,0.196,0.76c0.101,0.323,0.222,0.65,0.368,0.969
					c0.121,0.268,0.261,0.533,0.413,0.797c0.242,0.419,0.528,0.827,0.847,1.209c0.555,0.666,1.155,1.175,1.747,1.517
					C72.815,197.217,74.103,197.142,74.773,196.097"/>
			</g>
		</g>
	</g>
	<g>
		<defs>
			<polygon id="SVGID_1_" points="130.455,121.188 154.402,97.241 103.009,67.378 79.063,91.325 			"/>
		</defs>
		<clipPath id="SVGID_2_">
			<use xlink:href="#SVGID_1_"  overflow="visible"/>
		</clipPath>
		<g clip-path="url(#SVGID_2_)">
			<path fill="#C49C78" d="M216.456,92.08l-0.005,0.572c0.002,0.019,0.034,0.379-0.428,0.629
				c-0.463,0.244-24.963,14.186-27.382,15.577c-14.809,8.507-29.035,17.518-36.103,17.774c-2.231,0.08-4.31-0.167-6.18-0.873
				c-4.294-1.622-7.487-5.669-8.912-13.757c-1.463-8.286-2.881-12.186-6.663-15.067c-1.529-1.165-3.595-2.438-5.97-3.336
				c-1.194-0.451-2.466-0.807-3.788-1.007c-1.802-0.271-3.934-1.009-9.487-0.726c-5.553,0.284-10.285,1.909-11.816,2.401
				c-2.488,0.8-4,1.743-4.779,1.709c-0.204-0.008-0.403-0.04-0.589-0.111c-0.425-0.161-0.78-0.52-0.951-1.242
				c-0.242-1.036,0.304-2.171,1.25-2.806c0.909-0.611,2.3-0.968,4.492-1.755c4.101-1.47,14.835-3.778,25.54,0.266
				c0.988,0.373,1.976,0.801,2.959,1.288c10.273,5.096,10.652,13.016,11.897,20.39c0.773,4.544,2.639,9.67,7.33,11.848
				c0.191,0.088,0.386,0.17,0.583,0.244c1.415,0.535,2.995,0.725,5.021,0.711c1.688-0.008,3.704-0.563,5.915-1.347
				c5.332-1.9,11.523-5.66,16.826-8.419C182.644,111.187,214.765,93.036,216.456,92.08z"/>
		</g>
	</g>
	<g>
		<path fill="#F59E32" d="M212.087,51.09c0.002,0,0.005,0,0.007,0c0-0.015,0.007-0.026,0.007-0.041
			C212.101,51.063,212.089,51.075,212.087,51.09z"/>
		<path fill="#F59E32" d="M212.087,50.962c-0.007-0.022-0.017-0.047-0.026-0.071c-0.024-0.092-0.062-0.149-0.062-0.149l-0.314-0.547
			l0,0c-5.734-9.968-18.219-29.499-20.729-33.415c-0.045-0.068-0.194-0.35-0.529-0.426c0.001-0.005,0.003-0.009,0.006-0.014
			c-0.047-0.01-0.099-0.017-0.154-0.017c-0.001,0-0.001,0-0.001,0c-0.004,0-0.007,0.002-0.01,0.003
			c-0.005,0-0.011,0.004-0.016,0.004c-0.189,0.008-0.32,0.089-0.386,0.13c-0.009,0.005-0.028,0.014-0.033,0.019
			c-0.482,0.281-1.031,0.603-1.637,0.961c-9.087,5.362-30.921,18.619-31.158,18.786c-0.057,0.039-0.1,0.075-0.136,0.108
			c-0.004,0.004-0.012,0.009-0.016,0.013c-0.006,0.005-0.007,0.009-0.012,0.014c-0.02,0.024-0.037,0.042-0.051,0.064
			c-0.005,0.009-0.015,0.019-0.02,0.026c-0.001,0.002,0,0.004,0,0.006c-0.037,0.074-0.038,0.153-0.015,0.266
			c0,0.007,0.014,0.071,0.04,0.192c0.693,3.337,12.542,58.307,12.95,60.198c-1.427,1.42-2.869,2.754-4.322,3.885
			c-1.988,1.546-3.891,2.801-5.736,3.417c-2.522,0.843-4.556,1.229-6.673,1.103c-6.353-0.383-11.248-4.596-14.617-8.65
			c-5.464-6.578-10.278-13.988-24.37-15.143c-15.951-1.31-28.094,5.636-32.112,8.78c-1.968,1.539-3.294,2.378-3.952,3.287
			c-0.686,0.945-0.65,2.226,0.19,3.125c0.841,0.898,1.688,0.949,2.44,0.734c0.87-0.249,2.005-1.69,4.29-3.348
			c1.404-1.021,5.691-4.272,11.622-6.543c5.931-2.271,8.675-2.332,10.804-2.723c4.665-0.857,9.617-0.218,13.109,0.623
			c5.747,1.386,9.467,4.59,15.674,11.961c8.693,10.324,16.753,11.404,24.674,8.504c7.607-2.787,18.199-16.493,29.712-29.932
			c1.867-2.179,20.751-24.013,21.35-24.681c0.081-0.089,0.135-0.147,0.135-0.147c0.026-0.037,0.029-0.086,0.045-0.13
			c0.007-0.019,0.014-0.037,0.019-0.055c0.008-0.031,0.028-0.057,0.031-0.09C212.089,51.075,212.11,51.04,212.087,50.962z"/>
	</g>
	<g>
		<path fill="#EE7B1A" d="M114.057,81.724c14.092,1.155,18.906,8.565,24.37,15.143c3.369,4.054,8.263,8.267,14.617,8.65
			c2.117,0.126,4.151-0.261,6.673-1.103c1.845-0.616,3.749-1.871,5.736-3.417c4.792-3.73,9.492-9.541,13.773-14.076
			c5.998-6.351,32.458-36.727,32.458-36.727l0.314,0.547c0,0,0.248,0.348-0.123,0.75c-0.371,0.403-19.489,22.508-21.368,24.701
			c-11.513,13.438-22.105,27.144-29.712,29.932c-7.92,2.9-15.981,1.821-24.673-8.504c-6.207-7.371-9.927-10.575-15.674-11.961
			c-3.493-0.841-8.445-1.48-13.109-0.623c-2.129,0.391-4.873,0.452-10.804,2.723c-5.931,2.271-10.218,5.522-11.622,6.543
			c-2.284,1.658-3.419,3.1-4.29,3.348c-0.752,0.214-1.598,0.164-2.44-0.734c-0.841-0.9-0.876-2.181-0.19-3.125
			c0.658-0.91,1.984-1.748,3.952-3.287C85.963,87.36,98.106,80.415,114.057,81.724z"/>
		<g>
			<path fill="#EC6C1C" d="M156.883,36.347c0.039-0.038,0.089-0.076,0.152-0.121c-0.109,0.076-0.174,0.138-0.214,0.199
				c0.014-0.021,0.031-0.04,0.051-0.064C156.876,36.356,156.877,36.351,156.883,36.347z"/>
			<path fill="#EC6C1C" d="M156.802,36.451c0,0,0,0-0.001,0c-0.039,0.076-0.04,0.157-0.015,0.272
				C156.761,36.607,156.761,36.526,156.802,36.451z"/>
			<path fill="#EC6C1C" d="M189.863,16.46c-0.009,0.005-0.028,0.014-0.033,0.019c0.002-0.002,0.014-0.007,0.017-0.009
				C189.851,16.467,189.859,16.463,189.863,16.46z"/>
			<path fill="#EC6C1C" d="M190.276,16.323c-0.006,0-0.008,0.002-0.014,0.005c0.004,0,0.005-0.002,0.008-0.002
				C190.273,16.325,190.275,16.323,190.276,16.323z"/>
			<path fill="#EE7B1A" d="M169.786,97.166c0,0,5.339-5.532,7.657-8.063c2.318-2.532,34.549-37.739,34.549-37.739
				c0.056-0.079,0.085-0.173,0.095-0.275c-12.984-0.256-23.73-2.119-32.039-4.369C176.565,59.593,170.562,92.549,169.786,97.166z"/>
			<path opacity="0.5" fill="#FFFFFF" d="M190.432,16.339c-0.047-0.01-0.099-0.017-0.154-0.017l0,0c0.057,0,0.1,0.021,0.148,0.031
				C190.427,16.349,190.429,16.344,190.432,16.339z"/>
			<path opacity="0.5" fill="#FFFFFF" d="M189.863,16.46c0.073-0.043,0.225-0.128,0.399-0.133
				C190.065,16.332,189.932,16.418,189.863,16.46z"/>
			<path fill="#EC6C1C" d="M156.871,36.361c0.005-0.005,0.006-0.01,0.012-0.014C156.877,36.351,156.876,36.356,156.871,36.361z"/>
			<path opacity="0.5" fill="#FFFFFF" d="M156.871,36.361c0.005-0.005,0.006-0.01,0.012-0.014
				C156.877,36.351,156.876,36.356,156.871,36.361z"/>
			<path fill="#EC6C1C" d="M190.271,16.325c-0.004,0-0.005,0.002-0.008,0.002c-0.174,0.005-0.325,0.09-0.399,0.133
				c-0.005,0.002-0.013,0.007-0.016,0.009C189.918,16.429,190.119,16.327,190.271,16.325z"/>
			<path opacity="0.5" fill="#FFFFFF" d="M190.271,16.325c-0.004,0-0.005,0.002-0.008,0.002c-0.174,0.005-0.325,0.09-0.399,0.133
				c-0.005,0.002-0.013,0.007-0.016,0.009C189.918,16.429,190.119,16.327,190.271,16.325z"/>
			<path fill="#F59E32" d="M180.017,46.713c-12.219-3.313-19.683-7.748-23.216-10.263c-0.04,0.076-0.04,0.157-0.017,0.272
				c0,0.007,0.014,0.071,0.04,0.192c0.705,3.395,12.961,60.251,12.961,60.251s7.039-38.534,10.262-50.446
				C180.037,46.718,180.027,46.716,180.017,46.713z"/>
			<path opacity="0.5" fill="#FFFFFF" d="M156.8,36.451L156.8,36.451c0.005-0.007,0.015-0.017,0.02-0.026
				C156.816,36.434,156.805,36.443,156.8,36.451z"/>
			<path opacity="0.5" fill="#FFFFFF" d="M212.101,51.049c0,0.014-0.012,0.026-0.014,0.041c0.002,0,0.005,0,0.007,0
				C212.094,51.075,212.101,51.063,212.101,51.049z"/>
			<path fill="#EC6C1C" d="M156.871,36.361c-0.02,0.024-0.037,0.042-0.051,0.064c-0.005,0.009-0.015,0.019-0.02,0.026
				c0.001,0,0.001,0,0.001,0C156.817,36.422,156.842,36.391,156.871,36.361z"/>
			<path opacity="0.5" fill="#FFFFFF" d="M156.871,36.361c-0.02,0.024-0.037,0.042-0.051,0.064c-0.005,0.009-0.015,0.019-0.02,0.026
				c0.001,0,0.001,0,0.001,0C156.817,36.422,156.842,36.391,156.871,36.361z"/>
			<polygon fill="#EC6C1C" points="190.278,16.323 190.276,16.323 190.271,16.325 			"/>
			<polygon opacity="0.5" fill="#FFFFFF" points="190.278,16.323 190.276,16.323 190.271,16.325 			"/>
			<path fill="#F29030" d="M212.087,50.962c-0.026-0.076-0.067-0.183-0.089-0.22c-5.58-9.784-18.487-29.974-21.043-33.962
				c-0.045-0.068-0.194-0.35-0.529-0.426c-2.047,5.042-6.303,15.57-10.277,29.989c-0.033,0.118-0.068,0.253-0.101,0.379
				c8.309,2.25,19.055,4.114,32.039,4.369C212.089,51.075,212.11,51.04,212.087,50.962z"/>
			<path fill="#EC6C1C" d="M156.883,36.347c0.039-0.038,0.089-0.076,0.153-0.121c0.253-0.177,25.077-15.249,32.794-19.746
				c0.002-0.002,0.013-0.007,0.017-0.009c-0.002,0.002-0.014,0.007-0.017,0.009c-7.717,4.497-32.542,19.569-32.796,19.746
				C156.972,36.27,156.922,36.309,156.883,36.347z"/>
			<path opacity="0.5" fill="#FFFFFF" d="M156.883,36.347c0.039-0.038,0.089-0.076,0.153-0.121
				c0.253-0.177,25.077-15.249,32.794-19.746c0.002-0.002,0.013-0.007,0.017-0.009c-0.002,0.002-0.014,0.007-0.017,0.009
				c-7.717,4.497-32.542,19.569-32.796,19.746C156.972,36.27,156.922,36.309,156.883,36.347z"/>
			<path fill="#F8B459" d="M189.847,16.47c-0.004,0.002-0.014,0.007-0.017,0.009c-7.717,4.497-32.541,19.569-32.794,19.746
				c-0.064,0.045-0.114,0.083-0.153,0.121c-0.006,0.005-0.007,0.009-0.012,0.014c-0.03,0.031-0.054,0.061-0.07,0.09
				c3.533,2.515,10.997,6.95,23.216,10.263c0.009,0.002,0.02,0.005,0.031,0.007c0.033-0.125,0.068-0.26,0.101-0.379
				c3.974-14.419,8.23-24.947,10.277-29.989c-0.049-0.009-0.091-0.031-0.148-0.031c-0.003,0-0.005,0.002-0.007,0.002
				C190.119,16.327,189.918,16.429,189.847,16.47z"/>
		</g>
	</g>
</g>
</svg>
