<?xml version="1.0" encoding="utf-8"?>
<!-- Generator: Adobe Illustrator 17.0.0, SVG Export Plug-In . SVG Version: 6.00 Build 0)  -->
<!DOCTYPE svg PUBLIC "-//W3C//DTD SVG 1.1//EN" "http://www.w3.org/Graphics/SVG/1.1/DTD/svg11.dtd">
<svg version="1.1" id="Capa_1" xmlns="http://www.w3.org/2000/svg" xmlns:xlink="http://www.w3.org/1999/xlink" x="0px" y="0px"
	 width="200.463px" height="201.047px" viewBox="9.768 9.477 200.463 201.047" enable-background="new 9.768 9.477 200.463 201.047"
	 xml:space="preserve">
<g>
	<g opacity="0.5">
		
			<line fill="none" stroke="#5E5E5D" stroke-width="0.5806" stroke-miterlimit="10" x1="183.914" y1="193.356" x2="40.724" y2="193.356"/>
		
			<line fill="none" stroke="#5E5E5D" stroke-width="0.5806" stroke-miterlimit="10" x1="183.914" y1="192.679" x2="183.914" y2="195.582"/>
		
			<line fill="none" stroke="#5E5E5D" stroke-width="0.5806" stroke-miterlimit="10" x1="40.724" y1="192.679" x2="40.724" y2="195.582"/>
		<g>
			<g>
				
					<line fill="none" stroke="#5E5E5D" stroke-width="0.5806" stroke-linecap="round" stroke-miterlimit="10" x1="183.914" y1="191.808" x2="183.914" y2="191.229"/>
				
					<line fill="none" stroke="#5E5E5D" stroke-width="0.5806" stroke-linecap="round" stroke-miterlimit="10" stroke-dasharray="1.1913,1.787" x1="183.914" y1="189.442" x2="183.914" y2="157.574"/>
				
					<line fill="none" stroke="#5E5E5D" stroke-width="0.5806" stroke-linecap="round" stroke-miterlimit="10" x1="183.914" y1="156.68" x2="183.914" y2="156.101"/>
			</g>
		</g>
		<g>
			<g>
				
					<line fill="none" stroke="#5E5E5D" stroke-width="0.5806" stroke-linecap="round" stroke-miterlimit="10" x1="40.724" y1="191.808" x2="40.724" y2="191.229"/>
				
					<line fill="none" stroke="#5E5E5D" stroke-width="0.5806" stroke-linecap="round" stroke-miterlimit="10" stroke-dasharray="1.1913,1.787" x1="40.724" y1="189.442" x2="40.724" y2="157.574"/>
				
					<line fill="none" stroke="#5E5E5D" stroke-width="0.5806" stroke-linecap="round" stroke-miterlimit="10" x1="40.724" y1="156.68" x2="40.724" y2="156.101"/>
			</g>
		</g>
	</g>
	<g opacity="0.5">
		
			<line fill="none" stroke="#5E5E5D" stroke-width="0.5806" stroke-miterlimit="10" x1="208.006" y1="26.301" x2="208.006" y2="169.491"/>
		
			<line fill="none" stroke="#5E5E5D" stroke-width="0.5806" stroke-miterlimit="10" x1="207.329" y1="26.301" x2="210.232" y2="26.301"/>
		
			<line fill="none" stroke="#5E5E5D" stroke-width="0.5806" stroke-miterlimit="10" x1="207.329" y1="169.491" x2="210.232" y2="169.491"/>
		<g>
			<g>
				
					<line fill="none" stroke="#5E5E5D" stroke-width="0.5806" stroke-linecap="round" stroke-miterlimit="10" x1="206.458" y1="26.301" x2="205.879" y2="26.301"/>
				
					<line fill="none" stroke="#5E5E5D" stroke-width="0.5806" stroke-linecap="round" stroke-miterlimit="10" stroke-dasharray="1.1913,1.787" x1="204.092" y1="26.301" x2="172.224" y2="26.301"/>
				
					<line fill="none" stroke="#5E5E5D" stroke-width="0.5806" stroke-linecap="round" stroke-miterlimit="10" x1="171.33" y1="26.301" x2="170.751" y2="26.301"/>
			</g>
		</g>
		<g>
			<g>
				
					<line fill="none" stroke="#5E5E5D" stroke-width="0.5806" stroke-linecap="round" stroke-miterlimit="10" x1="206.458" y1="169.491" x2="205.879" y2="169.491"/>
				
					<line fill="none" stroke="#5E5E5D" stroke-width="0.5806" stroke-linecap="round" stroke-miterlimit="10" stroke-dasharray="1.1913,1.787" x1="204.092" y1="169.491" x2="172.224" y2="169.491"/>
				
					<line fill="none" stroke="#5E5E5D" stroke-width="0.5806" stroke-linecap="round" stroke-miterlimit="10" x1="171.33" y1="169.491" x2="170.751" y2="169.491"/>
			</g>
		</g>
	</g>
	<g>
		<circle fill="#EE7B1A" cx="16.301" cy="111.654" r="6.533"/>
		<circle fill="#F29030" cx="16.301" cy="87.445" r="6.533"/>
		<circle fill="#F8B459" cx="16.301" cy="63.235" r="6.533"/>
		<circle fill="#0086C4" cx="16.301" cy="135.863" r="6.533"/>
	</g>
	<g>
		<g>
			<defs>
				<path id="SVGID_14_" d="M184.283,153.92c0,8.793-7.194,15.987-15.987,15.987H56.342c-8.793,0-15.987-7.194-15.987-15.987V41.967
					c0-8.793,7.194-15.987,15.987-15.987h111.953c8.793,0,15.987,7.194,15.987,15.987V153.92z"/>
			</defs>
			<clipPath id="SVGID_1_">
				<use xlink:href="#SVGID_14_"  overflow="visible"/>
			</clipPath>
			<g clip-path="url(#SVGID_1_)">
				<rect x="32.062" y="17.687" fill="#0086C4" width="160.513" height="160.513"/>
				<g>
					<g>
						<defs>
							<path id="SVGID_16_" d="M184.283,153.92c0,8.793-7.194,15.987-15.987,15.987H56.342c-8.793,0-15.987-7.194-15.987-15.987
								V41.967c0-8.793,7.194-15.987,15.987-15.987h111.953c8.793,0,15.987,7.194,15.987,15.987V153.92z"/>
						</defs>
						<clipPath id="SVGID_2_">
							<use xlink:href="#SVGID_16_"  overflow="visible"/>
						</clipPath>
						<g clip-path="url(#SVGID_2_)">
							<path fill="none" stroke="#FFFFFF" stroke-width="1.4877" stroke-miterlimit="10" d="M-127.205,165.082
								c-0.016-4.303-0.025-6.992-0.025-7.248c0-6.676,5.413-12.092,12.093-12.092c1.652,0,3.224,0.333,4.658,0.933
								c1.302-13.445,12.628-23.959,26.416-23.959c5.691,0,10.95,1.807,15.271,4.855c6.479-11.084,18.498-18.54,32.266-18.54
								c18.833,0,34.402,13.94,36.975,32.058c1.961-0.489,4.001-0.78,6.114-0.78c5.285,0,10.171,1.653,14.211,4.446
								c2.605-2.463,6.111-3.982,9.978-3.982c3.004,0,5.795,0.912,8.112,2.474c2.097-5.455,7.371-9.333,13.565-9.333
								c1.856,0,3.624,0.362,5.257,0.995c3.569-12.608,15.154-21.85,28.905-21.85c11.983,0,22.321,7.019,27.142,17.167
								c2.751-6.321,9.033-10.749,16.366-10.749c6.691,0,12.507,3.686,15.566,9.132c0.128-0.002,0.253-0.02,0.382-0.02
								c3.335,0,6.467,0.833,9.23,2.277c1.147,0.459,2.21,1.082,3.161,1.841c2.517-8.197,10.132-14.162,19.155-14.162
								c2.165,0,4.245,0.353,6.199,0.988c4.033-12.042,15.398-20.726,28.798-20.726c16.346,0,29.67,12.917,30.339,29.096
								c3.048-1.437,6.439-2.263,10.032-2.263c3.953,0,7.675,0.977,10.948,2.696v-37.18c-0.957-0.43-1.939-0.815-2.95-1.137
								c-4.291-4.791-10.508-7.818-17.45-7.818c-1.481,0-2.922,0.158-4.325,0.425c-4.411-14.809-18.126-25.611-34.37-25.611
								c-15.825,0-29.248,10.255-34.01,24.478c-2.307-0.75-4.764-1.168-7.322-1.168c-4.673,0-9.027,1.356-12.695,3.694
								c-5.552-7.204-14.261-11.848-24.059-11.848c-13.4,0-24.765,8.684-28.798,20.726c-1.954-0.634-4.034-0.988-6.199-0.988
								c-4.232,0-8.146,1.325-11.379,3.563C76.257,85.708,66.622,78.84,55.367,78.84c-9.992,0-18.714,5.41-23.416,13.455
								c-3.136-2.213-6.953-3.523-11.082-3.523c-10.006,0-18.225,7.63-19.17,17.387c-1.041-0.435-2.183-0.677-3.381-0.677
								c-2.465,0-4.689,1.019-6.282,2.655c-1.977-0.796-4.131-1.245-6.392-1.245c-3.12,0-6.037,0.848-8.557,2.306
								c-1.111-8.69-8.519-15.413-17.512-15.413c-6.803,0-12.7,3.851-15.653,9.486c-1.931-0.771-4.033-1.208-6.239-1.208
								c-4.298,0-8.213,1.614-11.183,4.266c-1.909-3.841-5.861-6.488-10.441-6.488c-1.503,0-2.935,0.293-4.254,0.812
								c-0.773-14.615-12.868-26.232-27.677-26.232c-14.325,0-26.111,10.87-27.565,24.811c-0.037,0-0.072-0.006-0.109-0.006
								c-1.528,0-3.014,0.182-4.44,0.515v65.343H-127.205z"/>
						</g>
					</g>
					<g>
						<defs>
							<path id="SVGID_18_" d="M184.283,153.92c0,8.793-7.194,15.987-15.987,15.987H56.342c-8.793,0-15.987-7.194-15.987-15.987
								V41.967c0-8.793,7.194-15.987,15.987-15.987h111.953c8.793,0,15.987,7.194,15.987,15.987V153.92z"/>
						</defs>
						<clipPath id="SVGID_3_">
							<use xlink:href="#SVGID_18_"  overflow="visible"/>
						</clipPath>
						<g clip-path="url(#SVGID_3_)">
							
								<path fill="#0086C4" stroke="#FFFFFF" stroke-width="1.1158" stroke-linecap="round" stroke-linejoin="round" stroke-miterlimit="10" d="
								M87.791,154.666c-9.503,3.48-19.175,2.184-29.605-10.203c-7.447-8.844-11.911-12.689-18.806-14.352
								c-4.191-1.009-10.132-1.775-15.73-0.747c-2.554,0.469-5.847,0.543-12.963,3.267c-7.116,2.725-12.26,6.626-13.945,7.851
								c-2.741,1.989-4.103,3.719-5.147,4.017c-0.902,0.257-1.918,0.196-2.927-0.881c-1.009-1.08-1.051-2.617-0.228-3.75
								c0.79-1.092,2.381-2.097,4.742-3.944c4.82-3.773,19.391-12.106,38.529-10.535c16.908,1.386,22.684,10.277,29.24,18.17
								c4.042,4.864,9.915,9.919,17.538,10.379c2.54,0.151,4.98-0.313,8.007-1.324c2.214-0.739,4.498-2.245,6.883-4.1"/>
							
								<path fill="#0086C4" stroke="#FFFFFF" stroke-width="1.1158" stroke-linecap="round" stroke-linejoin="round" stroke-miterlimit="10" d="
								M148.851,87.558l0.376,0.656c0,0,0.297,0.417-0.147,0.9"/>
							<g>
								
									<path fill="#0086C4" stroke="#FFFFFF" stroke-width="1.1158" stroke-linecap="round" stroke-linejoin="round" stroke-miterlimit="10" d="
									M83.096,70.943c0.047-0.045,0.107-0.091,0.182-0.145c-0.131,0.091-0.209,0.165-0.257,0.239
									c0.017-0.026,0.037-0.048,0.061-0.076C83.088,70.954,83.089,70.948,83.096,70.943z"/>
								
									<path fill="#0086C4" stroke="#FFFFFF" stroke-width="1.1158" stroke-linecap="round" stroke-linejoin="round" stroke-miterlimit="10" d="
									M82.999,71.068h-0.001c-0.047,0.091-0.048,0.188-0.018,0.327C82.951,71.255,82.951,71.158,82.999,71.068z"/>
								
									<path fill="#0086C4" stroke="#FFFFFF" stroke-width="1.1158" stroke-linecap="round" stroke-linejoin="round" stroke-miterlimit="10" d="
									M122.668,47.082c-0.011,0.006-0.034,0.017-0.04,0.023l0.02-0.011C122.653,47.09,122.663,47.085,122.668,47.082z"/>
								
									<path fill="#0086C4" stroke="#FFFFFF" stroke-width="1.1158" stroke-linecap="round" stroke-linejoin="round" stroke-miterlimit="10" d="
									M123.164,46.917c-0.007,0-0.01,0.003-0.017,0.006l0.01-0.003L123.164,46.917z"/>
								
									<path fill="#0086C4" stroke="#FFFFFF" stroke-width="1.1158" stroke-linecap="round" stroke-linejoin="round" stroke-miterlimit="10" d="
									M101.95,145.796l47.27-56.833c0.067-0.094,0.102-0.208,0.114-0.33c-15.579-0.307-28.472-2.543-38.442-5.243
									C106.712,98.835,102.881,140.255,101.95,145.796z"/>
								
									<path opacity="0.5" fill="#0086C4" stroke="#FFFFFF" stroke-width="1.1158" stroke-linecap="round" stroke-linejoin="round" stroke-miterlimit="10" d="
									M123.35,46.936c-0.057-0.011-0.119-0.02-0.185-0.02l0,0c0.069,0,0.12,0.026,0.178,0.037
									C123.345,46.948,123.347,46.942,123.35,46.936z"/>
								
									<path opacity="0.5" fill="#0086C4" stroke="#FFFFFF" stroke-width="1.1158" stroke-linecap="round" stroke-linejoin="round" stroke-miterlimit="10" d="
									M122.668,47.082c0.088-0.051,0.27-0.154,0.478-0.16C122.91,46.928,122.751,47.031,122.668,47.082z"/>
								
									<path fill="#0086C4" stroke="#FFFFFF" stroke-width="1.1158" stroke-linecap="round" stroke-linejoin="round" stroke-miterlimit="10" d="
									M83.082,70.96c0.006-0.006,0.007-0.011,0.014-0.017C83.089,70.948,83.088,70.954,83.082,70.96z"/>
								
									<path opacity="0.5" fill="#0086C4" stroke="#FFFFFF" stroke-width="1.1158" stroke-linecap="round" stroke-linejoin="round" stroke-miterlimit="10" d="
									M83.082,70.96c0.006-0.006,0.007-0.011,0.014-0.017C83.089,70.948,83.088,70.954,83.082,70.96z"/>
								
									<path fill="#0086C4" stroke="#FFFFFF" stroke-width="1.1158" stroke-linecap="round" stroke-linejoin="round" stroke-miterlimit="10" d="
									M123.157,46.919l-0.01,0.003c-0.208,0.006-0.39,0.108-0.478,0.16c-0.006,0.003-0.016,0.008-0.02,0.011
									C122.734,47.045,122.975,46.922,123.157,46.919z"/>
								
									<path opacity="0.5" fill="#0086C4" stroke="#FFFFFF" stroke-width="1.1158" stroke-linecap="round" stroke-linejoin="round" stroke-miterlimit="10" d="
									M123.157,46.919l-0.01,0.003c-0.208,0.006-0.39,0.108-0.478,0.16c-0.006,0.003-0.016,0.008-0.02,0.011
									C122.734,47.045,122.975,46.922,123.157,46.919z"/>
								
									<path fill="#0086C4" stroke="#FFFFFF" stroke-width="1.1158" stroke-linecap="round" stroke-linejoin="round" stroke-miterlimit="10" d="
									M110.854,83.381c-14.661-3.975-23.616-9.297-27.855-12.314c-0.048,0.091-0.048,0.188-0.02,0.327
									c0,0.008,0.017,0.085,0.048,0.23c0.846,4.074,15.552,72.293,15.552,72.293s8.445-46.236,12.312-60.528
									C110.878,83.387,110.866,83.384,110.854,83.381z"/>
								
									<path opacity="0.5" fill="#0086C4" stroke="#FFFFFF" stroke-width="1.1158" stroke-linecap="round" stroke-linejoin="round" stroke-miterlimit="10" d="
									M82.997,71.068L82.997,71.068c0.006-0.009,0.018-0.02,0.024-0.031C83.016,71.048,83.003,71.059,82.997,71.068z"/>
								
									<path opacity="0.5" fill="#0086C4" stroke="#FFFFFF" stroke-width="1.1158" stroke-linecap="round" stroke-linejoin="round" stroke-miterlimit="10" d="
									M149.35,88.584c0,0.017-0.014,0.031-0.017,0.049h0.008C149.342,88.615,149.35,88.601,149.35,88.584z"/>
								
									<path fill="#0086C4" stroke="#FFFFFF" stroke-width="1.1158" stroke-linecap="round" stroke-linejoin="round" stroke-miterlimit="10" d="
									M83.082,70.96c-0.024,0.028-0.044,0.051-0.061,0.076c-0.006,0.011-0.018,0.023-0.024,0.031h0.001
									C83.017,71.033,83.047,70.997,83.082,70.96z"/>
								
									<path opacity="0.5" fill="#0086C4" stroke="#FFFFFF" stroke-width="1.1158" stroke-linecap="round" stroke-linejoin="round" stroke-miterlimit="10" d="
									M83.082,70.96c-0.024,0.028-0.044,0.051-0.061,0.076c-0.006,0.011-0.018,0.023-0.024,0.031h0.001
									C83.017,71.033,83.047,70.997,83.082,70.96z"/>
								
									<polygon fill="#0086C4" stroke="#FFFFFF" stroke-width="1.1158" stroke-linecap="round" stroke-linejoin="round" stroke-miterlimit="10" points="
									123.165,46.917 123.164,46.917 123.157,46.919 								"/>
								
									<polygon opacity="0.5" fill="#0086C4" stroke="#FFFFFF" stroke-width="1.1158" stroke-linecap="round" stroke-linejoin="round" stroke-miterlimit="10" points="
									123.165,46.917 123.164,46.917 123.157,46.919 								"/>
								
									<path fill="#0086C4" stroke="#FFFFFF" stroke-width="1.1158" stroke-linecap="round" stroke-linejoin="round" stroke-miterlimit="10" d="
									M149.333,88.479c-0.031-0.091-0.081-0.219-0.106-0.264c-6.696-11.74-22.182-35.964-25.249-40.749
									c-0.054-0.082-0.233-0.42-0.635-0.512c-2.457,6.049-7.562,18.681-12.331,35.982c-0.04,0.142-0.082,0.304-0.121,0.454
									c9.97,2.7,22.864,4.936,38.442,5.243C149.336,88.615,149.362,88.572,149.333,88.479z"/>
								
									<path fill="#0086C4" stroke="#FFFFFF" stroke-width="1.1158" stroke-linecap="round" stroke-linejoin="round" stroke-miterlimit="10" d="
									M83.096,70.943c0.047-0.045,0.107-0.091,0.184-0.145c0.304-0.213,30.089-18.297,39.349-23.693c0,0,0.016-0.009,0.02-0.011
									l-0.017,0.008c-9.263,5.399-39.049,23.483-39.353,23.696C83.204,70.851,83.143,70.897,83.096,70.943z"/>
								
									<path opacity="0.5" fill="#0086C4" stroke="#FFFFFF" stroke-width="1.1158" stroke-linecap="round" stroke-linejoin="round" stroke-miterlimit="10" d="
									M83.096,70.943c0.047-0.045,0.107-0.091,0.184-0.145c0.304-0.213,30.089-18.297,39.349-23.693c0,0,0.016-0.009,0.02-0.011
									l-0.017,0.008c-9.263,5.399-39.049,23.483-39.353,23.696C83.204,70.851,83.143,70.897,83.096,70.943z"/>
								
									<path fill="#0086C4" stroke="#FFFFFF" stroke-width="1.1158" stroke-linecap="round" stroke-linejoin="round" stroke-miterlimit="10" d="
									M122.649,47.093c-0.004,0.003-0.017,0.008-0.017,0.008C113.369,52.5,83.584,70.585,83.28,70.797
									c-0.076,0.054-0.137,0.1-0.184,0.145c-0.007,0.006-0.008,0.011-0.014,0.017c-0.035,0.037-0.065,0.074-0.084,0.108
									c4.239,3.017,13.195,8.339,27.855,12.314c0.011,0.003,0.024,0.006,0.037,0.008c0.04-0.15,0.081-0.313,0.121-0.454
									c4.768-17.301,9.874-29.933,12.331-35.982c-0.058-0.011-0.109-0.037-0.178-0.037c-0.004,0-0.006,0.003-0.006,0.003
									C122.975,46.922,122.734,47.045,122.649,47.093z"/>
							</g>
						</g>
					</g>
					<g opacity="0.3">
						
							<circle opacity="0.5" fill="none" stroke="#FFFFFF" stroke-width="0.7439" stroke-miterlimit="10" cx="126.661" cy="102.064" r="30.069"/>
						
							<circle opacity="0.5" fill="none" stroke="#FFFFFF" stroke-width="0.7423" stroke-miterlimit="10" cx="86.624" cy="143.074" r="30.007"/>
						
							<circle opacity="0.5" fill="none" stroke="#FFFFFF" stroke-width="0.7439" stroke-miterlimit="10" cx="202.977" cy="91.864" r="33.788"/>
						
							<circle opacity="0.5" fill="none" stroke="#FFFFFF" stroke-width="0.7439" stroke-miterlimit="10" cx="55.492" cy="105.802" r="26.981"/>
						
							<circle opacity="0.5" fill="none" stroke="#FFFFFF" stroke-width="0.7439" stroke-miterlimit="10" cx="91.859" cy="112.324" r="20.459"/>
						
							<circle opacity="0.5" fill="none" stroke="#FFFFFF" stroke-width="0.7439" stroke-miterlimit="10" cx="146.163" cy="149.102" r="20.459"/>
						
							<circle opacity="0.5" fill="none" stroke="#FFFFFF" stroke-width="0.7439" stroke-miterlimit="10" cx="177.783" cy="138.718" r="20.273"/>
						
							<circle opacity="0.5" fill="none" stroke="#FFFFFF" stroke-width="0.6475" stroke-miterlimit="10" cx="130.128" cy="137.335" r="17.809"/>
						
							<circle opacity="0.5" fill="none" stroke="#FFFFFF" stroke-width="0.7439" stroke-miterlimit="10" cx="52.839" cy="149.671" r="15.841"/>
						
							<circle opacity="0.5" fill="none" stroke="#FFFFFF" stroke-width="0.8994" stroke-miterlimit="10" cx="163.823" cy="104.985" r="24.737"/>
						
							<circle opacity="0.5" fill="none" stroke="#FFFFFF" stroke-width="0.7439" stroke-miterlimit="10" cx="56.403" cy="42.028" r="16.049"/>
						
							<circle opacity="0.5" fill="none" stroke="#FFFFFF" stroke-width="0.7439" stroke-miterlimit="10" cx="168.234" cy="42.028" r="16.049"/>
						
							<circle opacity="0.5" fill="none" stroke="#FFFFFF" stroke-width="0.7439" stroke-miterlimit="10" cx="56.403" cy="153.859" r="16.049"/>
						
							<circle opacity="0.5" fill="none" stroke="#FFFFFF" stroke-width="0.7439" stroke-miterlimit="10" cx="168.234" cy="153.859" r="16.049"/>
						
							<line fill="none" stroke="#FFFFFF" stroke-width="0.7439" stroke-miterlimit="10" x1="40.355" y1="25.979" x2="184.283" y2="169.907"/>
						
							<line fill="none" stroke="#FFFFFF" stroke-width="0.7439" stroke-miterlimit="10" x1="40.355" y1="169.907" x2="184.283" y2="25.979"/>
						
							<line fill="none" stroke="#FFFFFF" stroke-width="0.7439" stroke-miterlimit="10" x1="45.055" y1="30.68" x2="45.055" y2="165.211"/>
						
							<line fill="none" stroke="#FFFFFF" stroke-width="0.7439" stroke-miterlimit="10" x1="45.055" y1="165.211" x2="179.578" y2="165.211"/>
						
							<line fill="none" stroke="#FFFFFF" stroke-width="0.7439" stroke-miterlimit="10" x1="179.578" y1="165.211" x2="179.578" y2="30.667"/>
						
							<line fill="none" stroke="#FFFFFF" stroke-width="0.7439" stroke-miterlimit="10" x1="179.578" y1="30.667" x2="45.055" y2="30.667"/>
						
							<line fill="none" stroke="#FFFFFF" stroke-width="0.7439" stroke-miterlimit="10" x1="40.355" y1="25.979" x2="40.355" y2="169.907"/>
						
							<line fill="none" stroke="#FFFFFF" stroke-width="0.7439" stroke-miterlimit="10" x1="40.355" y1="169.907" x2="184.283" y2="169.907"/>
						
							<line fill="none" stroke="#FFFFFF" stroke-width="0.7439" stroke-miterlimit="10" x1="184.283" y1="169.907" x2="184.283" y2="25.979"/>
						
							<line fill="none" stroke="#FFFFFF" stroke-width="0.7439" stroke-miterlimit="10" x1="184.283" y1="25.979" x2="40.355" y2="25.979"/>
						
							<line fill="none" stroke="#FFFFFF" stroke-width="0.7439" stroke-miterlimit="10" x1="40.346" y1="97.939" x2="184.283" y2="97.939"/>
						
							<line fill="none" stroke="#FFFFFF" stroke-width="0.7439" stroke-miterlimit="10" x1="112.315" y1="169.899" x2="112.315" y2="25.979"/>
						
							<line fill="none" stroke="#FFFFFF" stroke-width="0.5733" stroke-miterlimit="10" x1="78.685" y1="30.68" x2="78.685" y2="165.211"/>
						
							<line fill="none" stroke="#FFFFFF" stroke-width="0.5733" stroke-miterlimit="10" x1="145.944" y1="30.68" x2="145.944" y2="165.211"/>
						
							<line fill="none" stroke="#FFFFFF" stroke-width="0.5733" stroke-miterlimit="10" x1="45.055" y1="64.31" x2="179.578" y2="64.31"/>
						
							<line fill="none" stroke="#FFFFFF" stroke-width="0.5733" stroke-miterlimit="10" x1="45.055" y1="131.575" x2="179.578" y2="131.575"/>
					</g>
				</g>
			</g>
		</g>
		<path opacity="0.2" fill="#1D1D1B" d="M157.929,196.643c0,10.299-6.573,16.146-14.461,13.052l-88.301-34.638
			c-6.104-2.395-11.02-11.554-11.02-20.393V42.132c0-8.838,4.916-15.174,11.02-14.062l88.301,16.09
			c7.889,1.437,14.461,11.061,14.461,21.36V196.643z"/>
		<g>
			<path fill="#067AB0" d="M102.575,9.484h-4.284v1.07L50.196,23.659c-3.361,0.916-6.05,8.91-6.05,17.784v112.993
				c0,8.875,2.689,16.868,6.05,17.784l48.095,13.104v1.078h4.556v-0.007c4.368-0.083,7.856-7.634,7.856-17.853V27.337
				C110.703,16.906,107.07,9.251,102.575,9.484z"/>
			<path fill="#0A6C9B" d="M89.987,114.109c-15.308,2.101-30.587,4.405-45.841,6.865v33.461c0,8.875,2.689,16.868,6.05,17.784
				l48.095,13.104v1.078h4.556v-0.007c4.368-0.083,7.856-7.634,7.856-17.853v-57C103.792,112.352,96.887,113.209,89.987,114.109z"/>
			<g>
				<path fill="#0086C4" d="M106.24,168.541c0,11.09-4.106,19.046-8.99,17.715L45.733,172.22c-3.361-0.916-6.05-8.91-6.05-17.784
					V41.443c0-8.875,2.689-16.868,6.05-17.784L97.25,9.622c4.883-1.331,8.99,6.625,8.99,17.715V168.541z"/>
				<g>
					<defs>
						<path id="SVGID_20_" d="M106.24,168.541c0,11.09-4.106,19.046-8.99,17.715L45.733,172.22c-3.361-0.916-6.05-8.91-6.05-17.784
							V41.443c0-8.875,2.689-16.868,6.05-17.784L97.25,9.622c4.883-1.331,8.99,6.625,8.99,17.715V168.541z"/>
					</defs>
					<clipPath id="SVGID_4_">
						<use xlink:href="#SVGID_20_"  overflow="visible"/>
					</clipPath>
					<g clip-path="url(#SVGID_4_)">
						<linearGradient id="SVGID_5_" gradientUnits="userSpaceOnUse" x1="-21.9557" y1="102.3178" x2="168.2229" y2="102.3178">
							<stop  offset="0.2708" style="stop-color:#FFFFFF;stop-opacity:0"/>
							<stop  offset="1" style="stop-color:#FFFFFF"/>
						</linearGradient>
						<path opacity="0.6" fill="url(#SVGID_5_)" d="M-10.621,160.353c-0.004-3.525-0.006-13.165-0.006-13.375
							c0-5.467,1.326-9.661,2.986-9.361c0.414,0.075,0.81,0.424,1.172,0.991c0.33-11.176,3.242-19.691,6.892-19.348
							c1.542,0.145,2.985,1.855,4.185,4.648c1.822-9.587,5.28-16.028,9.369-15.856c5.828,0.245,10.862,13.742,11.714,31.149
							c0.653-0.362,1.336-0.532,2.048-0.417c1.797,0.288,3.481,2.174,4.89,5.153c0.917-2.266,2.161-3.562,3.547-3.337
							c1.087,0.176,2.105,1.257,2.956,2.972c0.775-5.377,2.744-9.027,5.095-8.707c0.712,0.097,1.394,0.563,2.027,1.305
							c1.394-12.91,6.017-22.252,11.711-21.926c5.155,0.295,9.754,8.387,11.95,19.975c1.267-6.979,4.202-11.736,7.703-11.451
							c3.265,0.266,6.161,4.838,7.706,11.423c0.065,0.005,0.128-0.008,0.194-0.001c1.704,0.198,3.322,1.381,4.763,3.287
							c0.602,0.628,1.162,1.449,1.665,2.43c1.338-9.76,5.455-16.67,10.473-16.279c1.227,0.096,2.415,0.632,3.538,1.522
							c2.343-15.091,9.127-26.089,17.487-26.062c10.768,0.035,20.048,18.179,20.527,40.922c2.196-1.78,4.67-2.688,7.327-2.41
							c2.967,0.311,5.804,2.029,8.334,4.819V88.01c-0.743-0.61-1.503-1.149-2.281-1.595c-3.271-6.813-7.913-10.903-12.964-10.602
							c-1.06,0.063-2.086,0.345-3.079,0.776c-3.088-20.292-12.367-33.787-22.764-32.176c-9.561,1.482-17.265,15.417-19.915,33.254
							c-1.268-0.841-2.608-1.266-3.99-1.174c-2.496,0.167-4.787,1.946-6.692,4.85c-2.84-8.36-7.193-13.421-11.948-12.957
							c-6.269,0.612-11.387,10.695-13.16,24.019c-0.851-0.677-1.753-1.044-2.685-1.023c-1.804,0.041-3.453,1.502-4.801,3.918
							c-1.69-10.358-5.584-17.372-9.999-17.052c-3.803,0.275-7.036,5.941-8.747,14.056c-1.129-2.174-2.49-3.429-3.947-3.378
							c-3.463,0.12-6.24,7.534-6.555,16.882c-0.346-0.427-0.725-0.669-1.122-0.681c-0.812-0.023-1.54,0.922-2.058,2.452
							c-0.641-0.775-1.335-1.223-2.06-1.247c-0.993-0.034-1.915,0.724-2.705,2.047c-0.347-8.065-2.635-14.259-5.356-14.216
							c-2.018,0.032-3.74,3.499-4.593,8.516c-0.555-0.696-1.155-1.093-1.782-1.103c-1.212-0.019-2.305,1.376-3.128,3.669
							c-0.525-3.356-1.606-5.666-2.845-5.675c-0.404-0.003-0.787,0.246-1.139,0.687c-0.206-12.508-3.377-22.165-7.142-21.83
							c-3.522,0.314-6.336,9.319-6.678,20.546c-0.009,0-0.017-0.005-0.026-0.005c-0.358-0.002-0.705,0.142-1.038,0.407v59.72
							L-10.621,160.353z"/>
						<linearGradient id="SVGID_6_" gradientUnits="userSpaceOnUse" x1="74.5027" y1="225.7289" x2="74.5027" y2="127.5556">
							<stop  offset="0" style="stop-color:#FFFFFF;stop-opacity:0"/>
							<stop  offset="1" style="stop-color:#FFFFFF"/>
						</linearGradient>
						<path opacity="0.3" fill="url(#SVGID_6_)" d="M143.972,140.01c-0.479-22.743-9.758-40.887-20.527-40.922
							c-8.36-0.027-15.144,10.971-17.487,26.062c-1.123-0.89-2.311-1.426-3.538-1.522c-5.018-0.391-9.135,6.519-10.473,16.279
							c-0.503-0.981-1.063-1.802-1.665-2.43c-1.441-1.906-3.058-3.089-4.763-3.287c-0.066-0.008-0.129,0.006-0.194,0.001
							c-1.545-6.585-4.441-11.156-7.706-11.423c-3.5-0.285-6.435,4.472-7.703,11.451c-2.195-11.588-6.795-19.68-11.95-19.975
							c-5.694-0.326-10.318,9.016-11.711,21.926c-0.633-0.742-1.315-1.208-2.027-1.305c-2.35-0.32-4.32,3.329-5.095,8.707
							c-0.851-1.715-1.869-2.795-2.956-2.972c-1.386-0.225-2.63,1.071-3.547,3.337c-1.409-2.979-3.093-4.864-4.89-5.153
							c-0.711-0.114-1.395,0.056-2.048,0.417c-0.852-17.407-5.886-30.905-11.714-31.149c-4.089-0.172-7.546,6.269-9.369,15.856
							c-1.2-2.793-2.643-4.504-4.185-4.648c-3.65-0.342-6.562,8.172-6.892,19.348c-0.362-0.567-0.758-0.916-1.172-0.991
							c-1.659-0.3-2.986,3.894-2.986,9.361c0,0.21,0.002,9.85,0.006,13.375l170.253,43.278V142.42
							c-2.529-2.79-5.367-4.508-8.334-4.819C148.642,137.322,146.167,138.23,143.972,140.01z"/>
					</g>
				</g>
				<g>
					<defs>
						<path id="SVGID_24_" d="M106.24,168.541c0,11.09-4.106,19.046-8.99,17.715L45.733,172.22c-3.361-0.916-6.05-8.91-6.05-17.784
							V41.443c0-8.875,2.689-16.868,6.05-17.784L97.25,9.622c4.883-1.331,8.99,6.625,8.99,17.715V168.541z"/>
					</defs>
					<clipPath id="SVGID_7_">
						<use xlink:href="#SVGID_24_"  overflow="visible"/>
					</clipPath>
					<g clip-path="url(#SVGID_7_)">
						<path fill="#F8B459" d="M97.197,86.867l0.004,0c0-0.021,0.004-0.038,0.004-0.058C97.206,86.829,97.199,86.846,97.197,86.867z"
							/>
						<path fill="#F59E32" d="M87.197,86.684c-0.008-0.054-0.018-0.119-0.029-0.177c-0.013-0.079-0.026-0.135-0.026-0.135
							l-0.193-0.773l0,0.001c-3.486-13.904-10.826-40.182-12.259-45.298c-0.026-0.089-0.11-0.458-0.3-0.526
							c0.001-0.007,0.002-0.013,0.003-0.02c-0.027-0.008-0.056-0.012-0.087-0.006c-0.002,0-0.003,0.004-0.003,0.004
							c-0.087,0.02-0.201,0.182-0.241,0.245c0.038-0.059,0.141-0.199,0.224-0.232c0.004-0.001,0.007-0.007,0.011-0.008l0.005-0.004
							c0,0,0.002-0.004,0.004-0.004l-0.001,0c-0.002,0-0.004,0.003-0.006,0.006c-0.003,0.001-0.007,0.006-0.01,0.008
							c-0.107,0.033-0.181,0.156-0.218,0.22c-0.003,0.004-0.006,0.01-0.01,0.016c-0.002,0.004-0.007,0.01-0.007,0.01
							c-0.404,0.646-0.884,1.422-1.424,2.298c-5.215,8.468-15.943,26.279-16.058,26.498c-0.031,0.061-0.057,0.113-0.076,0.164
							c-0.003,0.006-0.003,0.013-0.006,0.019c-0.01,0.031-0.018,0.057-0.026,0.085c-0.002,0.012-0.008,0.025-0.01,0.034
							c-0.02,0.099-0.02,0.204-0.008,0.351c0,0.009,0.007,0.091,0.02,0.245c0.348,4.271,6.454,76.343,6.65,78.658
							c-0.748,1.736-1.501,3.336-2.255,4.673c-1.025,1.818-1.999,3.254-2.937,3.858c-1.273,0.822-2.291,1.104-3.343,0.719
							c-3.11-1.144-5.46-6.921-7.054-12.279c-2.547-8.564-4.752-17.956-11.007-20.022c-6.738-2.227-11.641,5.236-13.223,8.605
							c-0.767,1.634-1.282,2.504-1.536,3.492c-0.265,1.024-0.251,2.472,0.073,3.543c0.326,1.072,0.654,1.188,0.947,0.996
							c0.339-0.223,0.784-1.785,1.682-3.527c0.555-1.079,2.267-4.557,4.673-6.858c2.452-2.344,3.603-2.278,4.503-2.632
							c1.994-0.785,4.143,0.231,5.681,1.429c2.569,2.005,4.259,6.158,7.126,15.72c4.119,13.739,8.051,15.996,12.025,13.142
							c3.924-2.821,9.57-20.043,15.963-37.545c1.062-2.906,12.23-33.185,12.618-34.201c0.054-0.137,0.085-0.217,0.085-0.217
							c0.018-0.061,0.021-0.139,0.031-0.211c0.002-0.014,0.004-0.026,0.006-0.039c0.006-0.05,0.019-0.091,0.021-0.144
							C87.199,86.846,87.212,86.795,87.197,86.684z M58.577,65.465c-0.257,0.426-0.499,0.828-0.712,1.183
							C58.079,66.293,58.32,65.891,58.577,65.465z"/>
					</g>
					<g clip-path="url(#SVGID_7_)">
						<path fill="#EE7B1A" d="M36.522,125.312c6.254,2.065,8.46,11.458,11.007,20.022c1.594,5.359,3.944,11.135,7.054,12.279
							c1.052,0.384,2.07,0.103,3.343-0.719c0.938-0.605,1.913-2.041,2.937-3.858c2.501-4.439,4.996-11.732,7.307-17.468
							c3.299-8.187,18.78-49.968,18.78-49.968l0.193,0.773c0,0,0.153,0.491-0.076,1.073c-0.228,0.582-11.561,31.306-12.631,34.234
							c-6.393,17.502-12.04,34.724-15.963,37.545c-3.974,2.854-7.906,0.597-12.025-13.142c-2.867-9.562-4.557-13.715-7.126-15.72
							c-1.538-1.198-3.688-2.214-5.681-1.429c-0.9,0.354-2.05,0.287-4.503,2.632c-2.406,2.301-4.118,5.779-4.673,6.858
							c-0.898,1.741-1.343,3.304-1.682,3.527c-0.292,0.191-0.621,0.076-0.947-0.996c-0.324-1.071-0.338-2.519-0.073-3.543
							c0.254-0.988,0.769-1.858,1.536-3.492C24.881,130.548,29.784,123.084,36.522,125.312z"/>
						<g>
							<path fill="#EC6C1C" d="M56.496,68.969c0.02-0.051,0.045-0.103,0.076-0.164c-0.055,0.104-0.087,0.186-0.108,0.267
								c0.007-0.028,0.015-0.053,0.025-0.085C56.493,68.982,56.494,68.975,56.496,68.969z"/>
							<path fill="#EC6C1C" d="M56.456,69.107L56.456,69.107c-0.02,0.099-0.021,0.204-0.008,0.351
								C56.435,69.311,56.435,69.207,56.456,69.107z"/>
							<path fill="#EC6C1C" d="M74.072,39.983c-0.005,0.008-0.016,0.022-0.019,0.029c0,0,0.008-0.011,0.009-0.015
								C74.064,39.994,74.069,39.987,74.072,39.983z"/>
							<polygon fill="#EC6C1C" points="74.306,39.75 74.297,39.758 74.302,39.754 							"/>
							<path fill="#EE7B1A" d="M63.122,148.42c0,0,2.833-6.866,4.081-10.062c1.258-3.224,19.936-51.097,19.936-51.097
								c0.034-0.113,0.052-0.249,0.058-0.394l-22.299-5.955C63.009,98.187,63.531,142.399,63.122,148.42z"/>
							<path opacity="0.5" fill="#FFFFFF" d="M74.394,39.756c-0.027-0.008-0.056-0.012-0.087-0.006l0,0
								c0.033-0.006,0.057,0.018,0.084,0.026C74.391,39.769,74.392,39.762,74.394,39.756z"/>
							<path opacity="0.5" fill="#FFFFFF" d="M74.072,39.983c0.041-0.066,0.127-0.2,0.226-0.225
								C74.186,39.786,74.11,39.918,74.072,39.983z"/>
							<path fill="#EC6C1C" d="M56.491,68.988c0.002-0.006,0.003-0.013,0.006-0.019C56.494,68.975,56.493,68.982,56.491,68.988z"/>
							<path opacity="0.5" fill="#FFFFFF" d="M56.491,68.988c0.002-0.006,0.003-0.013,0.006-0.019
								C56.494,68.975,56.493,68.982,56.491,68.988z"/>
							<path fill="#EC6C1C" d="M74.302,39.754l-0.005,0.004c-0.098,0.025-0.184,0.159-0.226,0.225
								c-0.003,0.004-0.007,0.011-0.009,0.015C74.102,39.935,74.216,39.774,74.302,39.754z"/>
							<path opacity="0.5" fill="#FFFFFF" d="M74.302,39.754l-0.005,0.004c-0.098,0.025-0.184,0.159-0.226,0.225
								c-0.003,0.004-0.007,0.011-0.009,0.015C74.102,39.935,74.216,39.774,74.302,39.754z"/>
							<path fill="#F59E32" d="M64.881,80.904l-8.426-11.797c-0.02,0.099-0.02,0.204-0.008,0.351c0,0.009,0.007,0.091,0.02,0.245
								c0.354,4.341,6.655,78.717,6.655,78.717s0.027-51.516,1.775-67.508C64.892,80.91,64.886,80.907,64.881,80.904z"/>
							<path opacity="0.5" fill="#FFFFFF" d="M56.455,69.107L56.455,69.107c0.002-0.009,0.008-0.022,0.01-0.035
								C56.463,69.085,56.457,69.098,56.455,69.107z"/>
							<path opacity="0.5" fill="#FFFFFF" d="M87.206,86.809c0,0.02-0.007,0.037-0.009,0.058l0.004,0
								C87.202,86.846,87.206,86.829,87.206,86.809z"/>
							<path fill="#EC6C1C" d="M56.491,68.988c-0.01,0.031-0.018,0.057-0.025,0.085c-0.002,0.012-0.008,0.025-0.01,0.035l0.001,0
								C56.463,69.07,56.476,69.029,56.491,68.988z"/>
							<path opacity="0.5" fill="#FFFFFF" d="M56.491,68.988c-0.01,0.031-0.018,0.057-0.025,0.085
								c-0.002,0.012-0.008,0.025-0.01,0.035l0.001,0C56.463,69.07,56.476,69.029,56.491,68.988z"/>
							<polygon fill="#EC6C1C" points="74.306,39.75 74.306,39.75 74.302,39.754 							"/>
							<polygon opacity="0.5" fill="#FFFFFF" points="74.306,39.75 74.306,39.75 74.302,39.754 							"/>
							<path fill="#F29030" d="M87.197,86.684c-0.016-0.107-0.042-0.259-0.055-0.312C83.741,72.69,76.15,45.513,74.691,40.302
								c-0.026-0.089-0.11-0.459-0.3-0.526c-1.157,7.097-9.492,41.137-9.492,41.137c-0.018,0.16,0,0,0,0l22.299,5.955
								C87.199,86.846,87.212,86.795,87.197,86.684z"/>
							<path fill="#EC6C1C" d="M56.496,68.969c0.02-0.051,0.045-0.103,0.077-0.164c0.127-0.241,13.175-21.904,17.48-28.793
								c0,0,0.007-0.011,0.009-0.015c-0.001,0.003-0.008,0.011-0.008,0.011C69.748,46.901,56.7,68.564,56.573,68.805
								C56.541,68.866,56.516,68.918,56.496,68.969z"/>
							<path opacity="0.5" fill="#FFFFFF" d="M56.496,68.969c0.02-0.051,0.045-0.103,0.077-0.164
								c0.127-0.241,13.175-21.904,17.48-28.793c0,0,0.007-0.011,0.009-0.015c-0.001,0.003-0.008,0.011-0.008,0.011
								C69.748,46.901,56.7,68.564,56.573,68.805C56.541,68.866,56.516,68.918,56.496,68.969z"/>
							<path fill="#F8B459" d="M74.062,39.998c-0.002,0.004-0.008,0.011-0.008,0.011c-4.306,6.892-17.354,28.555-17.481,28.796
								c-0.032,0.061-0.057,0.113-0.077,0.164c-0.003,0.006-0.004,0.013-0.006,0.019c-0.015,0.041-0.027,0.082-0.035,0.119
								l8.426,11.797c0.005,0.003,0.011,0.006,0.017,0.008c0.018-0.169-0.018,0.16,0,0c0,0,8.336-34.04,9.492-41.137
								c-0.028-0.008-0.052-0.032-0.084-0.026c-0.002,0-0.003,0.004-0.003,0.004C74.216,39.774,74.102,39.935,74.062,39.998z"/>
						</g>
					</g>
				</g>
			</g>
			<path fill="#EE7B1A" d="M39.683,127.23c0,0-1.84,0.166-1.84,1.716c0,1.55,1.84,1.716,1.84,1.716V127.23z"/>
		</g>
		<g opacity="0.1">
			<linearGradient id="SVGID_8_" gradientUnits="userSpaceOnUse" x1="39.6827" y1="97.9391" x2="106.2398" y2="97.9391">
				<stop  offset="0" style="stop-color:#FFFFFF;stop-opacity:0"/>
				<stop  offset="1" style="stop-color:#FFFFFF"/>
			</linearGradient>
			<path fill="url(#SVGID_8_)" d="M98.312,10.057c4.12,0,7.347,7.59,7.347,17.28v141.204c0,9.69-3.227,17.28-7.347,17.28
				c-0.299,0-0.605-0.042-0.909-0.125l-51.517-14.037c-2.715-0.74-5.622-7.837-5.622-17.224V41.443
				c0-9.387,2.907-16.484,5.622-17.224l51.517-14.037C97.707,10.099,98.013,10.057,98.312,10.057 M98.312,9.477
				c-0.349,0-0.703,0.048-1.062,0.145L45.733,23.659c-3.361,0.916-6.05,8.91-6.05,17.784v112.993c0,8.875,2.689,16.868,6.05,17.784
				l51.517,14.037c0.359,0.098,0.713,0.145,1.062,0.145c4.402,0,7.928-7.585,7.928-17.86V27.337
				C106.24,17.061,102.714,9.477,98.312,9.477L98.312,9.477z"/>
		</g>
	</g>
</g>
</svg>
