<?xml version="1.0" encoding="utf-8"?>
<!-- Generator: Adobe Illustrator 17.0.0, SVG Export Plug-In . SVG Version: 6.00 Build 0)  -->
<!DOCTYPE svg PUBLIC "-//W3C//DTD SVG 1.1//EN" "http://www.w3.org/Graphics/SVG/1.1/DTD/svg11.dtd">
<svg version="1.1" id="Layer_1" xmlns="http://www.w3.org/2000/svg" xmlns:xlink="http://www.w3.org/1999/xlink" x="0px" y="0px"
	 width="177.149px" height="119.81px" viewBox="0 0 177.149 119.81" enable-background="new 0 0 177.149 119.81"
	 xml:space="preserve">
<g>
	<path fill="#EE7B1A" d="M148.691,0.041C148.627,0.028,148.572,0,148.497,0c-0.005,0-0.007,0.003-0.01,0.003
		c-0.198,0.003-0.463,0.137-0.556,0.19c-0.005,0.003-0.02,0.009-0.023,0.012c-10.139,5.908-42.751,25.71-43.084,25.943
		c-0.084,0.059-0.15,0.109-0.201,0.159c-0.008,0.006-0.01,0.012-0.016,0.019c-0.039,0.04-0.071,0.08-0.091,0.117c0,0,0,0,0,0
		c-0.054,0.099-0.054,0.206-0.022,0.358c0,0.009,0.02,0.093,0.053,0.252c0.927,4.461,17.028,79.157,17.028,79.157l0-0.001
		c0.001-0.001,7.014-7.268,10.06-10.593c3.045-3.326,45.39-49.58,45.39-49.58c0.072-0.103,0.111-0.227,0.124-0.361L148.691,0.041z"
		/>
	<path fill="#EE7B1A" d="M48.011,85.923c18.513,1.518,24.838,11.253,32.017,19.895c4.425,5.326,10.856,10.861,19.203,11.364
		c2.781,0.165,5.453-0.342,8.767-1.449c2.424-0.809,4.926-2.458,7.536-4.489c6.295-4.9,12.47-12.535,18.095-18.493
		c7.881-8.343,42.644-48.251,42.644-48.251l0.412,0.719c0,0,0.325,0.457-0.161,0.985c-0.488,0.529-25.604,29.571-28.073,32.451
		c-15.126,17.655-29.041,35.662-39.035,39.324c-10.404,3.811-20.995,2.392-32.416-11.172c-8.153-9.684-13.041-13.893-20.591-15.714
		c-4.589-1.104-11.095-1.944-17.223-0.818c-2.797,0.514-6.402,0.595-14.194,3.578c-7.791,2.984-13.424,7.255-15.269,8.596
		c-3.001,2.178-4.492,4.072-5.636,4.398c-0.987,0.282-2.1,0.215-3.204-0.964c-1.105-1.182-1.151-2.865-0.25-4.106
		c0.863-1.195,2.605-2.296,5.19-4.319C11.1,93.327,27.055,84.203,48.011,85.923"/>
	<path fill="#EC6C1C" d="M104.274,26.307c0.051-0.05,0.117-0.1,0.199-0.159c-0.144,0.1-0.229,0.181-0.281,0.261
		c0.017-0.027,0.04-0.052,0.067-0.083C104.265,26.319,104.266,26.313,104.274,26.307"/>
	<path fill="#EC6C1C" d="M104.167,26.444h-0.002c-0.051,0.099-0.052,0.206-0.02,0.358C104.114,26.65,104.114,26.543,104.167,26.444"
		/>
	<path fill="#EC6C1C" d="M147.603,0.181c-0.012,0.006-0.037,0.019-0.043,0.025c0.003-0.003,0.018-0.009,0.021-0.013
		C147.586,0.19,147.597,0.184,147.603,0.181"/>
	<path fill="#EC6C1C" d="M148.145,0c-0.008,0-0.011,0.003-0.019,0.006c0.005,0,0.006-0.003,0.011-0.003
		C148.14,0.003,148.143,0,148.145,0"/>
	<path fill="#EE7B1A" d="M121.226,106.21c0,0,7.014-7.268,10.06-10.593c3.045-3.326,45.39-49.58,45.39-49.58
		c0.072-0.103,0.111-0.227,0.124-0.361c-17.058-0.336-31.176-2.784-42.093-5.74C130.132,56.848,122.245,100.145,121.226,106.21"/>
	<g opacity="0.5">
		<g>
			<defs>
				<rect id="SVGID_1_" x="148.147" y="0" width="0.202" height="0.04"/>
			</defs>
			<clipPath id="SVGID_2_">
				<use xlink:href="#SVGID_1_"  overflow="visible"/>
			</clipPath>
			<path clip-path="url(#SVGID_2_)" fill="#FFFFFF" d="M148.35,0.022C148.288,0.009,148.22,0,148.147,0
				c0.075,0,0.132,0.028,0.194,0.041C148.344,0.034,148.346,0.028,148.35,0.022"/>
		</g>
	</g>
	<g opacity="0.5">
		<g>
			<defs>
				<rect id="SVGID_3_" x="147.603" y="0.006" width="0.523" height="0.175"/>
			</defs>
			<clipPath id="SVGID_4_">
				<use xlink:href="#SVGID_3_"  overflow="visible"/>
			</clipPath>
			<path clip-path="url(#SVGID_4_)" fill="#FFFFFF" d="M147.603,0.181c0.096-0.056,0.296-0.168,0.523-0.175
				C147.868,0.013,147.693,0.125,147.603,0.181"/>
		</g>
	</g>
	<path fill="#EC6C1C" d="M104.259,26.326c0.006-0.006,0.008-0.013,0.016-0.019C104.266,26.313,104.264,26.32,104.259,26.326"/>
	<g opacity="0.5">
		<g>
			<defs>
				<rect id="SVGID_5_" x="104.259" y="26.307" width="0.016" height="0.019"/>
			</defs>
			<clipPath id="SVGID_6_">
				<use xlink:href="#SVGID_5_"  overflow="visible"/>
			</clipPath>
			<path clip-path="url(#SVGID_6_)" fill="#FFFFFF" d="M104.259,26.326c0.006-0.006,0.008-0.013,0.016-0.019
				C104.266,26.313,104.264,26.32,104.259,26.326"/>
		</g>
	</g>
	<path fill="#EC6C1C" d="M148.138,0.003c-0.005,0-0.006,0.003-0.011,0.003c-0.228,0.006-0.427,0.119-0.523,0.175
		c-0.007,0.003-0.018,0.009-0.021,0.012C147.675,0.141,147.939,0.006,148.138,0.003"/>
	<g opacity="0.5">
		<g>
			<defs>
				<rect id="SVGID_7_" x="147.582" y="0.003" width="0.556" height="0.19"/>
			</defs>
			<clipPath id="SVGID_8_">
				<use xlink:href="#SVGID_7_"  overflow="visible"/>
			</clipPath>
			<path clip-path="url(#SVGID_8_)" fill="#FFFFFF" d="M148.138,0.003c-0.005,0-0.006,0.003-0.011,0.003
				c-0.228,0.006-0.427,0.119-0.523,0.175c-0.007,0.003-0.018,0.009-0.021,0.012C147.675,0.141,147.939,0.006,148.138,0.003"/>
		</g>
	</g>
	<path fill="#F59E32" d="M134.668,39.927c-16.053-4.352-25.859-10.179-30.5-13.483c-0.054,0.099-0.054,0.206-0.022,0.358
		c0,0.009,0.02,0.093,0.053,0.252c0.927,4.461,17.028,79.157,17.028,79.157s9.247-50.626,13.482-66.275
		C134.693,39.933,134.68,39.93,134.668,39.927"/>
	<g opacity="0.5">
		<g>
			<defs>
				<rect id="SVGID_9_" x="104.166" y="26.41" width="0.026" height="0.034"/>
			</defs>
			<clipPath id="SVGID_10_">
				<use xlink:href="#SVGID_9_"  overflow="visible"/>
			</clipPath>
			<path clip-path="url(#SVGID_10_)" fill="#FFFFFF" d="M104.166,26.444L104.166,26.444c0.006-0.009,0.02-0.022,0.025-0.034
				C104.185,26.422,104.172,26.435,104.166,26.444"/>
		</g>
	</g>
	<g opacity="0.5">
		<g>
			<defs>
				<rect id="SVGID_11_" x="176.8" y="45.623" width="0.02" height="0.054"/>
			</defs>
			<clipPath id="SVGID_12_">
				<use xlink:href="#SVGID_11_"  overflow="visible"/>
			</clipPath>
			<path clip-path="url(#SVGID_12_)" fill="#FFFFFF" d="M176.818,45.623c0,0.019-0.016,0.034-0.018,0.053h0.01
				C176.809,45.657,176.818,45.642,176.818,45.623"/>
		</g>
	</g>
	<path fill="#EC6C1C" d="M104.259,26.326c-0.025,0.031-0.048,0.056-0.066,0.084c-0.007,0.012-0.021,0.025-0.026,0.034h0.001
		C104.187,26.407,104.22,26.366,104.259,26.326"/>
	<g opacity="0.5">
		<g>
			<defs>
				<rect id="SVGID_13_" x="104.166" y="26.326" width="0.093" height="0.118"/>
			</defs>
			<clipPath id="SVGID_14_">
				<use xlink:href="#SVGID_13_"  overflow="visible"/>
			</clipPath>
			<path clip-path="url(#SVGID_14_)" fill="#FFFFFF" d="M104.259,26.326c-0.025,0.031-0.048,0.056-0.066,0.084
				c-0.007,0.012-0.021,0.025-0.026,0.034h0.001C104.187,26.407,104.22,26.366,104.259,26.326"/>
		</g>
	</g>
	<polyline fill="#EC6C1C" points="148.147,0 148.146,0 148.138,0.003 148.147,0 	"/>
	<g opacity="0.5">
		<g>
			<defs>
				<rect id="SVGID_15_" x="148.138" y="0" width="0.01" height="0.003"/>
			</defs>
			<clipPath id="SVGID_16_">
				<use xlink:href="#SVGID_15_"  overflow="visible"/>
			</clipPath>
			<polyline clip-path="url(#SVGID_16_)" fill="#FFFFFF" points="148.147,0 148.146,0 148.138,0.003 148.147,0 			"/>
		</g>
	</g>
	<path fill="#F29030" d="M176.8,45.508c-0.034-0.099-0.089-0.24-0.116-0.289C169.351,32.364,152.395,5.84,149.038,0.6
		c-0.06-0.089-0.256-0.46-0.696-0.559c-2.688,6.624-8.28,20.455-13.501,39.398c-0.044,0.156-0.09,0.333-0.133,0.498
		c10.917,2.956,25.034,5.404,42.092,5.74C176.803,45.657,176.831,45.61,176.8,45.508"/>
	<path fill="#EC6C1C" d="M104.274,26.307c0.051-0.05,0.117-0.1,0.201-0.159c0.333-0.233,32.945-20.034,43.085-25.943
		c0.003-0.003,0.017-0.009,0.021-0.012c-0.003,0.003-0.018,0.009-0.021,0.012c-10.14,5.909-42.754,25.71-43.087,25.943
		C104.391,26.208,104.325,26.257,104.274,26.307"/>
	<g opacity="0.5">
		<g>
			<defs>
				<rect id="SVGID_17_" x="104.274" y="0.193" width="43.308" height="26.114"/>
			</defs>
			<clipPath id="SVGID_18_">
				<use xlink:href="#SVGID_17_"  overflow="visible"/>
			</clipPath>
			<path clip-path="url(#SVGID_18_)" fill="#FFFFFF" d="M104.274,26.307c0.051-0.05,0.117-0.1,0.201-0.159
				c0.333-0.233,32.945-20.034,43.085-25.943c0.003-0.003,0.017-0.009,0.021-0.012c-0.003,0.003-0.018,0.009-0.021,0.012
				c-10.14,5.909-42.754,25.71-43.087,25.943C104.391,26.208,104.325,26.257,104.274,26.307"/>
		</g>
	</g>
	<path fill="#F8B459" d="M147.582,0.193c-0.005,0.003-0.02,0.009-0.022,0.012c-10.139,5.908-42.751,25.71-43.084,25.943
		c-0.084,0.059-0.149,0.109-0.201,0.159c-0.008,0.006-0.01,0.012-0.016,0.019c-0.039,0.04-0.071,0.08-0.091,0.118
		c4.641,3.303,14.446,9.131,30.5,13.483c0.012,0.003,0.025,0.006,0.04,0.009c0.044-0.165,0.089-0.342,0.133-0.498
		c5.221-18.943,10.811-32.774,13.501-39.398C148.278,0.028,148.222,0,148.147,0c-0.005,0-0.007,0.003-0.01,0.003
		C147.939,0.006,147.675,0.141,147.582,0.193"/>
</g>
</svg>
