<?xml version="1.0" encoding="utf-8"?>
<!-- Generator: Adobe Illustrator 17.0.0, SVG Export Plug-In . SVG Version: 6.00 Build 0)  -->
<!DOCTYPE svg PUBLIC "-//W3C//DTD SVG 1.1//EN" "http://www.w3.org/Graphics/SVG/1.1/DTD/svg11.dtd">
<svg version="1.1" id="Layer_1" xmlns="http://www.w3.org/2000/svg" xmlns:xlink="http://www.w3.org/1999/xlink" x="0px" y="0px"
	 width="26.185px" height="23.466px" viewBox="0 0 26.185 23.466" enable-background="new 0 0 26.185 23.466" xml:space="preserve">
<g>
	<path fill="#FFFFFF" d="M24.936,6.829c0.7,0,1.249-0.6,1.249-1.249c0-0.7-0.549-1.249-1.249-1.249h-9.991
		c0.526,0.74,0.987,1.573,1.268,2.498H24.936z"/>
	<path fill="#FFFFFF" d="M11.477,19.156h13.459c0.7,0,1.249-0.6,1.249-1.249c0-0.7-0.549-1.249-1.249-1.249h-13.44v2.254
		C11.498,18.993,11.48,19.074,11.477,19.156z"/>
	<path fill="#FFFFFF" d="M15.01,12.991h9.926c0.7,0,1.249-0.598,1.249-1.249c0-0.7-0.549-1.249-1.249-1.249h-8.723
		c-0.214,0.731-0.55,1.497-1.071,2.305C15.099,12.869,15.054,12.926,15.01,12.991z"/>
	<path fill="#FFFFFF" d="M9.496,18.938V5.548c3.495,0.549,3.747,4.996,3.296,6.195c-0.082,0.281-0.025,0.515,0.13,0.515
		c0.121,0,0.301-0.142,0.521-0.515C17.239,5.898,9.496,3.298,9.496,0H7.498v16.291c-0.521-0.189-1.119-0.289-1.752-0.289
		c-0.708,0-1.46,0.125-2.199,0.389c-2.547,0.899-4.044,3.147-3.397,4.996c0.499,1.32,1.966,2.079,3.673,2.079
		c0.685,0,1.409-0.122,2.125-0.38C8.145,22.286,9.545,20.537,9.496,18.938z"/>
</g>
</svg>
